<mxfile host="app.diagrams.net" agent="Mozilla/5.0 (Windows NT 10.0; Win64; x64) AppleWebKit/537.36 (KHTML, like Gecko) Chrome/130.0.0.0 Safari/537.36" version="24.8.1">
  <diagram name="Pagina-1" id="Q8ebSe6SH-asBx5pW5yb">
    <mxGraphModel dx="1432" dy="737" grid="1" gridSize="10" guides="1" tooltips="1" connect="1" arrows="1" fold="1" page="1" pageScale="1" pageWidth="827" pageHeight="1169" math="0" shadow="0">
      <root>
        <mxCell id="0" />
        <mxCell id="1" parent="0" />
        <mxCell id="X0UQXJLC1dQcE8E02zXS-3" value="" style="shape=image;verticalLabelPosition=bottom;labelBackgroundColor=default;verticalAlign=top;aspect=fixed;imageAspect=0;image=data:image/png,iVBORw0KGgoAAAANSUhEUgAABLAAAAGYCAYAAABS5hszAAAAAXNSR0IArs4c6QAAIABJREFUeF7svXmgVtP3P/56njt3722eJ82JBg2SIhUlZCohKjQKSUqR4U0kQqYmooiQylBJZkoKSUqa53nu1q073+f3e845+5w9nrOf5Kv3573vH3TP3WcPr7XWa6299nBCZctXicD8GAQMAgYBg4BBwCBgEDAIGAQMAgYBg4BBwCBgEDAIGATOUARCJoF1hkrGdMsgYBAwCBgEDAIGAYOAQcAgYBAwCBgEDAIGAYOAQcBCwCSwjCIYBAwCBgGDgEHAIGAQMAgYBAwCBgGDgEHAIGAQMAic0QiYBNYZLR7TOYOAQcAgYBAwCBgEDAIGAYOAQcAgYBAwCBgEDAIGAZPAMjpgEDAIGAQMAgYBg4BBwCBgEDAIGAQMAgYBg4BBwCBwRiNgElhntHhM5wwCBgGDgEHAIGAQMAgYBAwCBgGDgEHAIGAQMAgYBEwCy+iAQcAgYBAwCBgEDAIGAYOAQcAgYBAwCBgEDAIGAYPAGY2ASWCd0eIxnTMIGAQMAgYBg4BBwCBgEDAIGAQMAgYBg4BBwCBgEDAJLKMDBgGDgEHAIGAQMAgYBAwCBgGDgEHAIGAQMAgYBAwCZzQCJoF1RovHdO5/GYG6devgolYtseKPP/DXX2uRlZX1vwyHGbtBIGYEihQpYtlQrVo1kZGRgS+//BoHDh6MuR7zgkHAIGAQMAgYBAwCZzYC8fHxGDrkPtzQpTMqV66EtevWo03b9jF1Oi4uDg0bNkCjhg0QjSHon7/+WoPFPy1BXl5eTHWawgYBg8DpRcAksE4vnqY2g8BpQSDqQN99ZyratW1j1ffqqxPw1NPPnHrd4SRUrFEdF7dogh2rf8Ky37ciF/EoXaUqLrm4BTJ2rMTSX1YjMyfithGKi0fxEnXRrmNDZK/5Gl+vPIyCIsVQMjHOLROJFCISCiNMnoRCyMo8iuMnc50nYaQVK47zL22P9N2L8e2KfcjMzkNSkXRUrtIcLZql4JfPF2Lj4WOIhBNRpkJ5XNS6FY5vW4Yfl25CdmEEqSXLoEXbtiiRvQcLv/8J+7PDKFWyGEJ5J3DwaBZSi5ZAk3btUblgC+Z/8wcysnJRtGQpJIdDdh8iBTh46AgKI97YZECmphZBWlqaL8Z5efk4fPiwhhxC6DRsDKqsfxsTP/lTWr5Mo3Z47pGBeO2x67FkjUaV/0qRyrh/TA98P2w0lv+d9jvejn6pG/H67EoYdNUuvPzZj1ZtJarXx0tD2mHIPa9AllZqNXgiztswGRO+2YAiBVk4kZuv3Yto8PrutKmoV+9s950dO3bilu49sX79Ru16wmnFkJxzAifzqLbjUlEsJR9xxapg9N2t0H/yMozr0Qz3jHxbu15ZweT0YojPz0JmJAlpyEFmNrEjsXT5s67FzU1/w0sf7fxbbZqXDQIGAYOAQcAg8H8BgVo1a+Lz+Z8iPT0dx44fx949e9G6zWXaQ4vG3iMeGob27S/DggVf4siRI9a74XAY5cuXQ4P652LL1m0Y+sCDKCgo0K7XFDQIGAROLwImgXV68TS1GQROCwLFihXDiuW/oEiRFKu+554bi+fHvqRd9znNbkLTlR/hnVx7lah598cx/KJcTHxvERq3uxXVNz+MJ7d1wpR7m2HCxJlIrXsJ+p69CZcOfM9to1bju/HSnUl48f3fkHzhQFyy4yWM/DOEi8rafUKZzhjQagde/uRXJFoPiqHnQ4Ox+KlOGP+NneRJK10Zb01+GnMnvYt99buiW6lvcdt/PsFDEyci7qtp+HF/CB2634Z1j/XCrw3vwMu3V8OLE75AxQZXo2XoTfT6vDS+nPoA3hszFnuSq2LAdZUxpP/rqHThUDx48wZ0uX8uXn/taXwxeTr2hOujT5cUdLvnJYz9dAa+fHmS3c/8k/h64RLk5/sHGwt/+AZ169T2xTi6i6feuedpBC7xqN24ORKPb8HqjXukdfZ7cxb2vjgMX67fDJ88BRKLlUW32+9E01olES4E9q5ZhPGTZsMOq/7pn3Pw0W9jMaVpR8z7O00NehUTiv2Eu0aejQ8GrcfNL0+3akspWhItG1fHsh9+Q4ak/rPOuwglj27E1iuexgMbJ2LEV79q9SIhIQFvT30Dl17a1iq/bNlyNG3aGKFQCOvWrce113d1A9OgCiuMnYtnt49Cz5eWukXrD5mFMVXfRecRy9CiUUl8n10a617ohLpt7w+qzvfvNzw7A/U3vorHc27Dy3kfYtD7XynL1270GJ65Zja6PLn6b7VpXjYIGAQMAgYBg8D/BQQuaX0xPnj/HaxbvwG3dr8Nu3btjmlYHTpchidH/gft219pJcDon3bt2qBVywvRsEF9vD55Cr76+puY6jaFDQIGgdOHgElgnT4sTU0GgdOGQPXq1fDpxzNRrlw5q86+/QZgztzPtOtv13k0rpn/OO7LzgGQhMtv6YP4lePx2Z9Ai2734cUWq/Dyno649OQD6PtKtNpzMHvZaLx80bVYmG03U+OqXqi1dDa+PJSBotVG4LXea9Dt0Y+dPhTBgOmfIfL+AEyat9Z6Vqx2K3w8pj26X/84SMhQucZjeKbD5+g+yU48vDpjCgbfMQhTpo7C/T3vxcEc4PI7JuDWw/dhfPYtqHX4LUz/FajT5gZMvSUO98xPxZvXnECTXjMAFMV/3nkLe8d2xmu/34HZk0O4begmdL90LyZ9tA5IrYC333wEt3W/D2NnTsZLD45FpeKJOLx3G9ZvOwD//VfAW9GER7s2SEy003Gyn99+W45O13RGYWFhoCwuHz4OjXa+jS3NHkXHtE1IK14GxeJz8faohzGjWjcsGtYN29aswrjnH0dmmTYYeue1KJVUgO1L38d/xs3F/uMFKHXWRXjiyb7YMv8NzPpmNQ4dPIw2fUeh9/lH0X/g86h18Sh0b5KA9MbVUDo1D1PHDMOHSw7i3E798Uj3lkiLj8eGhe/i+alL8NiLw/DK3YPx1wmgavseeLVTLu59bj36jBiChmWTkXt0A0Y//SSWb74A07/pi/ydSVj99Vy0uO9mTGl6Ff5sfDVGDO2OyqkF2LTsY6BybQwd+CTufHkSUvLCOL9qGRTsX4nHh4zCX0jHdfc8gjta1EBB5na8ebwirtozy01g3f7xGrz8dB988t549L3pegx6eRGeHdwLCBVB+TJZuKtXT6zdBWDQePRP3ooWbbri7NAuLF80D4+MejMweZeWlorly5Zaq7D9BwzEnDlzUa9ePcyfF9XfEK69rgtWrpLvjOMFW3Hi91jYbC+ua3sz/swE4oo1xxeLJiNu8ZO4/qnlmPjQVeg2ZbWTwHoYDS+6GcMGdUKJuCysmP87yjbMRt97x2PCGxNwuCAZ9cuVQOamH/DAiFexJ4dNqt74/Gw0yP4OpRr0wPnp+/HH8m/w2BMfotWdQ9GzdS1kH96CT/9MRo0Vb+L9/R2tBNachLuQM34wPtiXi+SSNfHi013w1J1jEIXP/BgEDAIGAYOAQeB/AYHowlX7y9ph6pTJ+PXXZbjhxm7WsLOtOFjvJ7r7qqCgEM+OeR7ROHzEg8NQq3YtnMjMxOtvTMGxjGNo2rQJsrOzMH7Ca3qVmlIGAYPAaUfAJLBOO6SmQoPA6UHg8g7tMe3tN63KGp7XDPv27Q+suErNuzHysfNRvnwNlDywDRsLTmLxm/0xYSFQvcH5GPfsUwhnrELvAUNRs9sTeLD6clw/7FPE1WqF774Yh2evb4yPV9LN9MTsr25FyYLDeGpgb3yz4aT1x5Q6LbHojd64pX1vrHdigyb3voabljyL4b9udiuo3nMq7twwFsOXrLKeDf5gOl7sdhs63f0kBl1ZE/sP5KFI3FYMuO0R7C2IoHjZinht8lSUKNyO+wfdhz01OmHxiPNwcYeHcCC9Ml7/eA62Tm6Cp2fYCawufadY9T7z7he4oGIEH014CK9+8ifGfvMjqq77At8uz0Tbq1viw5u6YWam/x1i0VW3jRs3WdvHixcvLmD99DNjcODAAXzwwUytBNYNYz5E063jsfmisaj13aN44p0FSKl9L94ZUQa39n4Kd0yZisl9+yCrcRd88+AFGNj7IWw+GUb9wZNxx5Y30H/WzxgzeSy+fOx5tH9sJBoWi0fy0SNY9OE0fN68N9JnPoiCmqMwsNZo9Ji4FakVamLKU13Q64nPMPOZzuja+2kcyU5An2EvoM7mx7Ch2ThU/v0xPDhlJW575h3UmXEXTtw7GXHv34cXFmagTIursWDkBbiy9fd4668BGHlTTyxeVwHvLXkOUzo9hUFfjsSrt3TFN1tyUbzNA5j9YCratBuCYR/NxfZ+t+H9Izm46IpR6FX+OYzbewfGXrsBVw+ajxyUxPBX3kbJja/ZCayxpZF7XgN8OrIXZu8uisXjb8fFVwxBakoyLrrlEdzfeD063/MmjkdP7D35EYZum4wZxW7H0C2TMGLBEpw8mR2YjIwmrlb9sQxZ2dm4vGMnbN++w5LnD99/be2y63ZrT3z33Q+B9hQtUHH8F3igMpC08Fnc9cK3aNl5GEbWz0NG2R3o9/wqzHq+G9o+vdBOYN2/CMsn3YiBXQfgjyMR1OkzBpMu2Y7m143C3AWz8FjPXliTGcGV/Sfg4q/vxeBV7D46K4G1aRyeifTFy4Uzcd/0BWg14AX0KbMMA56agfzEcnh4+lykTRqAsVvaWAmskcuaYtI1x3DhgE9Qodt4PHTiHdw7x9stpjVIU8ggYBAwCBgEDAL/pQiULVsWM2dMR8mSJRD9d3Z2Nvbu3YdFPy62jvvp/kTjv2is/eaUt/DOtKl4/vmx2LFzF1peeAHu7N/XWsC84/aeKFe2LJ4Z87xutaacQcAgcJoRMAms0wyoqc4gcDoQSIiPx6uvvIjrr78WL778Kp555jmtapOLVEGduiXQ9JLeaLHkHUzIzcaRrX9i+xEgOS0dtWvWwyW39ECr3a+h25vZGDxsEOqXCSE7swDlWl+Iabc0x5xNdFNlcG6zGmhy0e1onjcLA8fbW6Yv6vEkuh55HoPmOQe/Umpj0rSHMKrfndhxxLu356x2EzEoeyLu/8nOig1+fzpeuaMfxr75ClZ/8gF+2xtCl8434fjMOzH6pzzEJSSiTr2GaH5VZ3SK+wJdn1qFGwePQMd6acjOzURS1SZYO6UdnvuETWBVO7cxap57Pm7vWAE9+jyJ9tddiZ8/modjAC64fBBGXvQWLn9UdkjNG+u+Pdvxw8JF+Oyzz3HbbT1w7jn1rD9u3brNCmbOrlsHt97aDZWqVA88jhh9j05gFX5wB96cE8WgI2Z/fg0G3HgXbnj9PUzodgtaD3gSQ2v9hWuGvO90ZgBmT8pB38cy8NyN+zF+/+XoX+wL9J+8COdM+gkd5g3CvN09cENoPH6t/ACuW3g/Bh45BqSXwBvTx+ClUbsx/v50/LD2qFVf8WoNUH7nO7hxVgV8ek9Z3Np/Nia+1RM9+o3CpE/ex+Elv8C+3akE2nc5C/fXn4onl9yIey7sgbVwjhA+8DZefbgJGl76AOxN9RXxwZwhuP2GIRg2fRpGdu1pPa3Xog3G9dyMyStH4aKveuAeR5cqDZmAh1MXWQmsVVu7YsVLPdHrpWXIq9PESmC1an8vQsWaYOrk2/F6v3vxk911O4G1eSKmFO2NR9e/hMGf6yVmohevLln8g3VnxdvT3sX33/+As8+ui+HDhiIrKxvXXn8D/viDydQq7avi+AVoMO993HT7+Xio1wj0HfcCvuz7G4a/dFBIYN06aTMmXJGN5re/4dTXA598WBXX3TgKM2eNQ9cb7rGeX3j5GAyt9yy6vHSIaddKYG14CY8W3InX895Fv7cX47E3PkTBpx0xaq5dNPWBWXh2wyt42UlgdZmQgAXfvoIxHXugwxuT8cngrli63l/XtcjEFDIIGAQMAgYBg8B/AQIVK1awfH5ycjLT2xkzZuHe+/SP9kcTWLt27cHb097B999+iauuvg4nTpy0dnPPm/MRLmnb3iSw/gv0wXTx/z4CJoH1f1/GZoT/BQhEV4yiu3sizkXjHTt2sO7wOXDgIDp0vAq7d8vvUVINjT1CWBQjxk3CsdduxbhVEaDtjdj2cCOcNWYdJjbJxIBnPgLSmuCLb4fioea3uJd1X/jkNFR8fShm79iPcFw8Zr19Ezp3j95dFMKLH0zFE3364Gimnfqo1+cpjKj2G3o8Qo4Y2j2rVH0wXum1BF0ejSYeQpg+cyL69BqOD8a1xbW3fWK/e2kXvH9rDl766xrUXNQfj/4cAc69EMtfuQlN7voEHz/UHP1vH4P9KItnPxiPPwZ2xXsH7ARW/0dLY0yXH9Fr/E9WXXe+9z5e79kTb7z1DHp3H2Lt1GnRcQgebvoGrh4VnMCK1nHyZBauua4zbux6A2rUqI4JE1/HpAmvomzZMvaYTnMCC9cOxk9diuDynqOs5FDo0pfx3tmLcd/Jjrhk44vYf/uT2P6fPti88yDunvUH9rzYCn92eA1pHw5HiVqPCwmsZx6bgon9E9BhwEJr/Od36IqLiv+FFz9cjfunzsS76yIYfugtDJm2EGNnvIFF19+Mj6MFK9TDU0M74a0hazGJT2DdMRHPvnsbbm3ZGSsyoyD0xnfvnoMrLpcnsF7+5UEMqDgaVzwd3fmUiN5jP0TTozOsBNbs9xqj9jk56N6hK1YWJwmsEbhr1hLET+mBV+av8NT6FBNY0QpGPvEY+vfrI5jIkqU/47rru2qzgpXAeu9+ZDR9AO33ZKFO7WW4fUwiPpQksOo+swrrhp6Di9s/gOh+yVCrx7FwWB4uvlaVwIreFecdbhUTWJ+j/5h3ce6OMbj3VTvhdvXbv+Kqj4fgBZLAenI1LnzpG3RJ3YW2JTehfZcnoPOZAW0ATEGDgEHAIGAQMAicwQhEvz5YIfoRoFYt8dKLz1tHCAfcfS8OHz6CEydOaPecTmAtmD8HN9/SA0ePZuC88xrh0UceQpcbbsYdt9+GcmXLmB1Y2qiaggaB04+ASWCdfkxNjQYBbQSiu0LuHzzIuntp9569GHDXQNx9153ofP21ltONHnX6+We9i6vpRouXqY4yh7Zhg3NXU/W2d+DZQZdjy6q1KFujFja+/ghG/ZGA0eNHI2XHGsQVq4DwzxNw91vet+Yq1LkGk17oivW/b0JSzRbYMW8Ennt/Oc7u8SxG1FuFXg+/i/wIEEpKx4tvTsS3w7tjDnfxTmJqKTz5ygSUydiAvIpNsO/rZ/D4tF/x1MS3UHzLz9iUGULdZudj8Yvd8RU64pWn+mL78t+RXKEmMuaMxUOf7MQd4yaiRcEGHMtPR5Wc73DniNk4CjuBdfN9H2Hk+Mkoe3A19sRVQdWs39Hz4Qm47J5RuO/CZKzYlIGzqpXFuH734ecs9RfdothFd2DRP9Gt59HdOtGt4/TXCU97AgsV0fO5Z9EqbicO5CWjcf3SeOaewVhX8VH0SXwHn5XrjMfbACsPRFCk7iVI37UYKYn7MfSBF9Cw/RtCAqt/t+G4Z/QLaBLaix2Hc1C3RgJGD3kYy/cDja8cgLdG3YIHr74Un+/MR922/THqrguw8a+tKFW9FvZ98CwemV8NX/MJrKZdcWLAaAxoVIj1BzNRuUISKlQArr1OnsC6blQ6nnv1OUS2LsPx/HQk12qM+BXOEcJB6/GftRGM7l4fz789C88Nvx19nvkRX0x5AAumf4a9JzLxV6gyWhz/FkNL3477Nk/Ea1/XwHujm2DxtwswYcrH1s66oJ/ohxAmvz4B0Utdyc/69RvQ+YabrMSw7g9JYC09VBoLPhyNibddh+mrusgTWB1Ho/N/XsQ16fuw81guqpQpiwrFN6ODYgfWr2ePxEd33o31TmfcBNZ71fDx5HZY/tPXmDZnLYaOHoasLesQSimKcqXr49jskd4OrOgl7unNsOC78fipTzuMXKEfrOtiYMoZBAwCBgGDgEHgTEfgssvaYfo7b1kJrOhxv1h/7rv3HqSmpWHU08+gUcMG1r2g0cXX3NwcPPqfkVi16k889OAw606sV8ZNiLV6U94gYBA4TQiYBNZpAtJUYxA4FQQeGDoYQ4cMFl6Nnt3v1bsfflv++6lU+1/xTs3mrVGjeAI2r/wGm/b++13+ceG3qFWrpvWlOtXPoUOH0KBRM42vEJ7KeCqjVu08bNywz3o5pXgZTJv0EEYPGY3Vew6iIC4F6UXycCTD/rJk4E/x0miSdhDLdwaVTES9sytjzVrv7jL1G+XQoGECVq0MrNSqolytGkjauBlsajCoP6fv73Xr1sHcT2cjmsyK/tw54B58/Mmc09eAqqZS1XFOyQz8tcFnL1TCOZjywsXoda/eRbBl6zdG/I7fsVu2kTChNN57axhuuXXYPz8204JBwCBgEDAIGATOQAT+bgLrqquuQN/evXDjzbcg1/mKNz3M5KQkzJz5Pl57/Q3Mmzf/DETAdMkg8L+BgElg/W/I2YzyDEXg6k5X4o3Jk5jeTX1rGl4dNyHmz/+eoUP8r+lW9Isz5cuXRzisTmBlZBzDn3+u/n8zplAcKte6EP3u7omaJZNRkHUMf/34LJ55x76Q3PwEIxAOhzHo3nvw4PChmDnrIwwZOgw5Of478YJrPU0lkquiZsksbNp94G9XeO7Q2bg14zWMmPzl367LVGAQMAgYBAwCBoH/RgT+bgIrehTxtUnjkZKcjJ+WLMXBg4cQidhfnS5atCii9e/YvgOP/ucJa4e++TEIGAT+HQRMAuvfwd20ahCwEEhNTcVjj46w/r11y1ZMeWsacnL0P/lrYDQIGASCERg29H688OLL/9DOueD2/9kS6eh81yBs++oF/LbB/0ub/2w/TO0GAYOAQcAgYBD49xD4uwmsaM/j4uLQ6aor0aDBudbl7fTPV199g4WLfkRu7hmyEPbvQW1aNgj8qwiYBNa/Cr9p3CBgEDAIGAQMAgYBg4BBwCBgEDAIGAT+DgKJiYkoXrwY8vLycOQI+Zzx36nRvGsQMAiciQiYBNaZKBXTJ4OAQcAgYBAwCBgEDAIGAYOAQcAgYBAwCBgEDAIGARcBk8AyymAQMAgYBAwCBgGDgEHAIGAQMAgYBAwCBgGDgEHAIHBGIxAqW75y5IzuoemcQcAgYBAwCBgEDAIGAYOAQcAgYBAwCBgEDAIGAYPA/zQCoTLlTALrf1oDzOANAgYBg4BBwCBgEDAIGAQMAgYBg4BBwCBgEDAInOEIhMqUrWR2YJ3hQjLdMwgYBAwCBgGDgEHAIGAQMAgYBAwCBgGDgEHAIPC/jECodNmKJoH1v6wBZuwGAYOAQcAgYBAwCBgEDAIGAYOAQcAgYBAwCBgEznAEQqVKl4+YDNYZLiXTPYOAQcAgYBAwCBgEDAIGAYOAQcAgYBAwCBgEDAL/wwiESpQsaxJY/8MKYIZuEDAIGAQMAgYBg4BBwCBgEDAIGAQMAgYBg4BB4ExHIFS8ZJkIzBasGOUUirG8XfzU3jqlps6Al6KjJYoljpw8iZb4v42LjYM3xv/boz1dike0RxutkE9JmRqeyjOirPS7f4c7qS5rjzMmgGNGMaba/6nC/wwWdG//+RZOFzZnXk//vR79ey3/HWn+Mzb4z9T6d8Z5Ku/qSVSv1Km0/9/8jhoV/8jrv3nMXt9j0///HQ067SP1i6t0VUkW5PPxFx1H0QpMT5z4MtG/8fFX6EycT5x2qegi75b793tAunJm9OTM6EXMYvxHZsv/vVgAobLlq/ydKdipSOC0vxNCCNEsnJAkCCBOobzzIBSxeTFar1sphVIoSurWvjWqBvLIGZ1cKchT711d5bHHyCXCQlYPnbH712T/1S/oUXkNubhY7NSJKqHVaNGw3W/if6J4292Lgkh7JRt/qyxVxu1pxH7F/eETC66c7F7EhjXRJ6IUdg22ngXXpCrjrxdigKaWmliTtG5HR3yNzlJHTkMcFXXHHJFEBrx9Ufi74xdkwuY1Q9F6ZYlOF/ZgrFXSVWPN6ivpQZAFKXrKQGtxQ+CPXDtYHqPq8eExuzmnZ5QcGZvgRefW55AWLXvGBlU6pql7LDIBDETrPmE1wncKSWphLdqtXI5B0ueEqoM1o2Zsq7TY3JrJeJz33B65r+owD4+jvzLqYqGn14xHdOUtqq/Yqo5tuXquWg6Q2UmUrQmQwgTI8+OuPBxf4/3uvOzDYx5zSjvgiVfKdHL2sfFW1yezQEVN3CyPxAxBEz2JvgbyWtSNKHjL8h92YMXHVVKs+QG6/ojnu+jwHIKj/Q8t6yAJMIYmDlKFdRAcXsymFzOQ+jx9CrBdBf+pJGfVS3O/TL8YH+60L+Mxy2/brsfFx89GQiFEqJjZg9zrrQ67+cVVnrX4c7kc52Db5XmaphWvRfGpTH/YPgRokk98xvh5Vx52nBq1C4bXKDtwn/N2QimPHtbqkQRzuh8yFCZUDKvDiGytsemXN5oAHaL4yO2TJCawcXbq4v0P9bt0rulQJgnvPIcqWjgb0ar0ifUQqhFGOVzHGvj3T8VjeFwXPAK297Te2RNBxgajXGO9IM7hpTLhecwjKJs0HdlaVTpVS92K8NAboUwq+nEVO/cUbSuY8+Ql1E/94jZ5vwPsmcKQ4S36Ncb/OGOmfA3Pd/9yAssWQ5DjYhRTogWCYruJHeJceYQ0idNlDMbza6QvbE8SrFJiKZfIfByL46e4hI882WYFGI79ue/5JrJogOWU4dVjk7MvsVAYqmuTtamPoW5Jr6ek35SEiLXSVuvIwJsAUSOgGYTiUgFrWUKAeleliSJB2Y3E4lz8nRBrSHra6vQhQLNleu8Rnr8WMO/Swbb1bzsoc2MCN9HsjIWRiWcPXkKayuEyk52Q7eeEANzf+XgI6vEY7XLZzLiOa9HnLB2s/bmJ1T65TKjJkGs7nmxViWXXBqXBntOSxLbIfN4TUTC7in5DbhFy78CwhX/qX+gK+yC4p7oMxmscSe5z3E/BaL1B2xFlKu6kkZZMAAAgAElEQVTsk/M1NNZu32PmMcZLuJ1QabqK73h3zwT67h+9t3V5jFi2zoIEy1i6dsjbkCgji2+cYoKI3MS+D48JMQK7ACTDIqZxSxIkPswgicxUSTIdvmPZUv6brEkyaSdt2MgqbVDw+zSGVAIgMB7jkmjcehzDRRJ+I77dP/pixyTahlQE0oXLYE4imqKqk+YiqjadBTOXg+z3vMVnpx6/WIw4fx95WLW4/yHBr7cYar1KJqHWY9IPXl9Zy+dlI0dGrnenkhAQ6/es153ZaC/i2LV5/VBrgDhqBTs7lTE1uQ6a8p/cQjNJ7NIiYsbq+hr7qbIc9RJt4Tpxb5CfkLE8s1jo9UwQky67KVBlRqVn45StSgbvjlXGO1F7tUyE4km+HPc7ywzBaDPcxw1IpYVigkQmET++o4N5b+nL1Sfpq57tqpO39GYZSZ9k9kjbiTOFsRbupfJg15vkui/3NeJuROLLKDtSjFvsdjAWMn7y3tLJ6/hvCJHzEO13YtiBFWTwpFrRKIOF7BkE7ZV0aYCoJKuwdH+YdDJjb/S2Kb+VWqIATk+d1SQGE4ky0huAWKNXGZ5M0fwdDVuTpz5ujznN9K9Nx72pKVVdN99LrqQP6VoJm4i4G4oxVmLPdGbcXfXgKpeSsb+b0BsXHzgHrXB7VKpXf2w7wBj9V6QY3TL87is30nF6pggo3X4Lake9RwcgpF6vYWHHHbGZIEw8p6zLTKwN+1sgv9cj2GpYacq5iLQZDgw6RUa0ntCqLPAYxR28PGiv7VKszXdWNXx3ucmBveOU210RAKBiBL5hA+uaRGbzR5UeJOfkfPGOhZk9G5ROimWxnBu8O8TDryZxLs8qFYluUnWEKFu95VDU9ZTqcmwnxMBBJjYyQWF9hs6Koo7FSjxZkMlafxf0zuqeyGO87lv9ph02SXlQ/oLhO8ZGJAGlVm+JPgX5ChprSvOoybdcQgQRnekzv9/Ln4FjjUrcHpBgPhT2lrItLB0+Clrdthpmd8BLd9hJXLq321ePz3l9CkX7rPiJxQb9eUysKbi3XolAv8lwoWOJMr/CP3P9ODspYrbSO9i4E333dl35ZE3u60X24TnFn8f0saAjAj3fIvKkn5mL/Q6SDuXDKTaTtkFNihnbspSW8zUkmcrEx06tzJAIM8eCob7/9BKFdo/10OA5XS19+eKu3J5Ovw16u32IDydikNkIfeLBP8EkbKCFzWPUD+WjyFOJFWl5JNZ/qiUkj2HlrerbVpAusQNVJ56pobr+305kh8NRvyNZyKZdpcBjHNbRXym7kfKYG0uwtqSHhShe/7iKlVOw5/Z6oW+DpGRwLOHW7i5m+LTCn6JysZVsyJHM80PlylflQzHlUTN2CJRgZP1zx0n9kSJdV0S0RBll0yc4lwyZfhASV0+8vBbUQpHTnz8XqClWfE+d6ZUdIKCO1NFVSbGOsNv5pV2WOCoeCkE+zoRXMSlkxkPVpUOMseBGE7UMVf6ZSCN+T7y3gyZk3jqTHhUwFG3tReXeEzAjzBqkO96LOjob3FvWmfjTFttHt27X37BarqorGGvea6vtMFZd8nMB4t/YETATKHdm7AWIbiDjSxs6bBSkA+RIB8e5tHN2ZOKtJsqthxuhNxhJ2BkL1qIb1GEGTr+4BqUcGsBjJCnnd0xLrm1U48zRTPY4psg/apROn/eR8LlwEE2XsagFHW4wLDP4nnSz3lTaFudbfCe00p0dfppHyEforcIK5dj5e3r7r36rtTrvu76M8gVs72lvF4u2UOhzr1n1K47gBx8P8Pc1oo37oaAf54kSErEIkjaDK7VwEwuqgb7TjWOpfbayQJ2BRYaD11tVm7peI7gmVkZ+/lDkRfEIJ9nhJJWQ5DYCKuJy/xmIM1dSt7y1A0gpD7U+enbBjYqP2bwTR+7RI797hoP9p92AW84lStYipGPSXHjSt0I6oRTMbn56x/XeqYx6KptjyOJjmfFyNuge+6IJgJn5skGSDGua1+wFPWr87tw2WAtjx5q60sYHcj+PF6RjLNQig+uMyvU2AfMadwiOjKy6GRnqsZof14v99R9BED6yvYsqL6huyemxokAsekHiDmtzh88c0tVqZiGV53pR3jI182JmP1/Bv3kqkuD4TuiMh2OoQvlq9GZ1qigxBy8IEp/4dTaoE3IQ6Zg2aELrFzyKTpYmKCqw44bgjlEQOO2VnJecztL6Q+8MsUrRJCnbKSR0y9ntIL8ZyNdj6BoAvRJCSCA2rGMJ9zSwDkyZesPmzcEai/VQvpuOcVykGlfJPAq0d3nFsK1Tc/2IasF10DKs5bblb3H+pOtZkiY9Wf3za1Heb68XqgDKrdja7UNtwZXtLmGiBBIkOA99VnT9sOCTNayjl1K1gjJ9zS/GVUW7x+QLGrztBmGtcz+OpQEyx6VI7ggBmaUQFLI833EJCLKly3rFSeTpY21XFiuHBUmE1mnfgIcLArxR69kgCymnxPy+INWqE8NjDhLyquxhk8kJfUcIdTRG3FIu2Z6uwWMsbrTQRfRFecvZJ7qCG1wTW7/cxvk+6AW/9luebFULL27tDtauXRLjcv1PgK+nE9u83VBD8Od0tR9k/8IiS3OJGkNPcno4e9ZqtxZ8ZID0UcvGrdVyhyOJvVCTUt+4yh0AtVOLtyNqowqjQUROlHbq4UESw17cG1tM5c9kohUFS5JoOJVG0zpOaPebrl+cqqkjQK9Vj6OoscmM3vUrxM9LDIJLNpCd+bTPCMKbZQaun742GAvWLK/4pO/dFsUj/6wf1MM6Bv9JJ7Xou3wlNuKGxK5fId6AwsT5J3N9Bu02vZEKSu7Pd2wMq+8v1HPP4LhKbYeiK9ZlBh+doITr1s9hzdixiseceIBSKvufxLb4LrCkx8w2RR+uwiTYZ6h3Icai1bHEhXxfRRn5S42Ou7zFPvrIMY2rd77VWRGy/ArVAq+0FI+R+aY79/RxAaxMFFajjGE9zytrQm2DNOmypfztliielqd38KKwlnkpmbpE7aRy+Rqca5CjaK1a8BUzWwuCOuv/d6/7sZAC3ddgSO3SXpLCf+uf4xoFP84BTYMindCJzt9HT50echQiDC0Ia79VYRmTBZm0ntpLa1HdiSDBinnfgc3Wu4i9bZZvgCN/MqdgEhZCO/wkjva0xBN74yXu2k9mKmkEa7JO7XRfAiZ9p3D/BGtB/ue7BQz441EWb3Fykjho8SgchYNkAiG6pFidEhMCBJmfa4O+9+M4x3f83TBhHJkmEEZVOxeJZnqTbnoyR6pwbYYaokja1EouN+mWJHCjfbAnC0HHnERYg1nKZWTqZT/nHIw2H1IFO2dP9/wDZFFOQt2S7nkLGjzW1LkOkuCiKhT4TpvHdFmHHg/bcTsAUwcv4pu6PMZiHdxTryWdst5ihqj/lrU5Ssxj695FRTsYXpbKpCM5h8uuOLnHchmzEC3aGhczuGBu07UrJ4LR/vAI2xWNmECxC5v1KV68YfXbxdWzVPLMRUeTx+j3rDb9bMS645CLYdmtsw7vq5cG/HBn0VJjp+Z0tVsSaqN2jslYVzwMqrbnYCmzC7dueRlZMjbj2LrwzHtRujOZ6qp+XKXL8p4uyjyPYIrWg1g4y19DdDiM9TI+b1A24kIsiwmYo58cqTFYU4tVlGzpe/o8XaNs13moNzb2Pek7yjt1eU0XsSZzBcJ7aotiR6L6TWxRcSqGUit37kFWc2k3Skc5fJKDv0TcVUYHM0q2gkx483YWAsm9VlK9dh5K5/US4DzJ+dlDMJvI+SqWp/yF7TIpsc/cGbtsN6IspBTMhPZbVN20DTLxsWQjhHvc3z+GZf2Dh7UOz4t+V2YBGjbIvaZeGBC9Ga0BWnGKwGMSrGk+Ipv1yHtVKtS0oA/TX/LT2RlByN2qnIs4uNj31C8RDxZJFFyRTuWOSh48qNqwx6RLzKRc8BTLqZW/v4K8SFfg4GjVbXWe9jhOixTWrtiY90g5UQvUYxP/Qp4ErXLpnViXmaMu0jQdB5OB1ZJwFlf9HtMLtxj1lGBLC5wMh3ckJPihLxunG2Bk7l0eS7ROB2uvG7GsgCtdGiMYtRb4OxzZiiKvF+oe8MByNsjbh2v8TjkZ1pTquz135UicBDVaXo7Uar3X/Knqq3zk8tqCJeB33EfOizKnZj/TZTtS1r18l//SC9dt4Y4ttyXJOXc6jubvtOODQWtSys5bg0Ihf6mxf5Vxuhpvu3O6GBKtU0vD+wsrR3/WFpnN6ZHrRCSrssSFuzzGfQ2W8KefbTmjt/1ULL7TZ7FFkiChTfPUsJZzv4yW/VK2frbF3pXkg4WMyxwNIptNabEJOUXa92vsHvbGKGq2365gUVdZDFmZ8Bqty2wyS/AkHBxXeUde9fXC7pvOJeIsz8gnKE5lxBLYjU9OHML7n6jYorE3MUGRgWTOK0gzPYPWwyIWNqJ8RcAdbLREgz0Zqdf+PztqGROL0w7xRec9wkfWNXc2twmhHTNnIe9RfZLEBKKm68UErJ8IjmEJg7A2GsxjrAcJ8oxy+7P7GuRjXcfhnksmSDDHjmgxOq948qD8J4+17D16a5jPLE3kPLXHJc2q73di3/X3xKxF+/kLWvPtcrH4T9bCpfGJoypWf91LxB3J6mBNnFCsJyDcxWgRC/qJXwxLaZZacO5fYvEXdtwhcL+kFVZ2lEYxzjlINzgOk/h+ZbKYkxGz7sIDRHIEVMzGoC/lbNbAdHwG7TFOx4dw6GFIY1gF1qFqFerw0wKODoLN1I8avd0wckdMCJIn21hcgZ6Se1rArgTK7/AIWkvhFV/YzeXqBDcSShljQTYYD9mdJeJb7BNaDTX4gToKo1NaJVvB8bsESbwaHZzQl7izpOuOhbE/5xfqGVNOqu2xpiW8JCQ9Fm8FSI2rDjno4ibgKAhFIX/FyrnoZCmyZn2QFwFa0Dnl+EtCmaDQ6Zz7zOejCdJEBb8Dz+utyja43itV9vTZoQRvxSRc1Zkg/SArZqKOSHiMJOnowvQFoKzfsrrE7F4UzZF64uewY0GUtSD1bzIv43wunLkfhPUGQbwZhLcHXVBNdrsCv8qSFNQzO2gJ4mluTJQPkUlBr6dsb3XfYfBiXgpGMqiEvA9BT3kwdLDkuEeKpw97UOWtMUnsSGbfunzESpuYnOptP3xOxQ518FN7Hj89Ui7IuBMs6m4izm7celWLq5zPsCfG6pjTNVblzlIKb3erkC6edjk9m4pVKwjPBNcevAAmTx4re+TDZd6OQ4U9OJUyOxMFu/t/EcPqLzLE4klUWNPUIMOVfaY7R1KwC28zNL4KmuTSH1SQJtfhWDT7VDwMq9U+3Ba4uBGT9BhAgy3LqzuwLDcbZxJ6bqtqz2hTD9WKzNc4smX64so7Vj6XlNeOT/S5KfaSRJv8E75M/KjqN529Jv+md1hbZngqPMbJKeiDJJT8GW21qtH3C0Fx1d+OYWV0Qz2jfTNPOUTOPnsXSYDj1cjLgqmU9utAqEaFs4UpvVpV9C4Rt9pztlAy5iDTPSeAd8vxk16a0yVng+VU7tRGTxToiEURWvg7G7bzckEx5iN0TZYflrdJZBqkmnTKhCMeBdbC8TqerzjM7F/VNG3/jXW8OpQZSPyOvHzxEdyO1w+bAzhllx2DpQ1R40iEbRu6vVcEGuRxzFjz9UmSQGTVwzZC7b56o9LJp3v9sJHg8KCz/Jz90tslVTiqNUrtvOQSEbVH/cSjWjlfOyMlnZPYjfTsO02mxC+SpIWFjf8ki8VCMkp6azLveEn1ipVyGguJFEXHonxCEPN66xOSufD6sYqtVuqjwwLWCh5j5E0HLjz0jtMUj0o6NfD5U5+6WJ6PjTFsBD0912EatR0F3TNFk5/OsXNKoWgj8Tte55YjS7+enYl35nkX4fvbM88/dGc8jxSEnec9Y+F0f6vx2vRvnb+Xyj8sZ+sSamZepnwefaRcGXsReeigxTKj7nq3iFhQWzQX0wwospTrf3inQcWRTGu+x+9U9cs9ggwNnekVWYTw4z/Z39yjvcR/kA7QY3VwkEergYzLDZT1ltZvJJmn+JqqXcapho/tA2CMLa6KdfeEilHk9szscuCPexE/zh1nYViJunzVEokjIyYXKsy8iBJTSLiPKGvjFwopX+aXtGRNJDYbjG2nSozsLdwOQr3vKLJvbylf7I5Rdsk6Y94eT7pJJaoRgrbSnn0ux1dolFasx3OK9zs7E/ObcflbuezjXp5m6NogiWp0LhG3xuDKUeydx4cBsbA7n/Pq8PcOBD22TV3NZ9nPqYvZVRa0E9Yej2p3M0eUSnYkPk7HBgnW4lSW1CIeMJc17PkazzgJj7kcT4zD5TG6DVZf/anfR+usRp16acERPq1VoV50lsteeUG2sROZ+bYuIV1tR0UF6hrJg9gCJpau+S7JSUZVynPIdDdZ4nPa48GmnRTfKKXcwiXifPcdp+WZuK4ZEtam3vRZvRBNXTYAxlX7BD2E5gIUwtUzu3UVjalXuZxe0wYlEbBLBFZih9v5wDdKDISUs36nCnE2I5dGNMHk2QdNp8GBriw1GISjvvvxHLQ8yRWItXgjnts5D/oQQrJb9HkYGawdfWUiPs/+eLGxx2rIqDwipXynAjwVsQdhHcuk199p+K/e6vEY21s5u7k16SQc6ICbVn1CJ5zNkjH4fu1HsBk9DmNZJCDIETai0VgQR6hjW2Lf9Hqrb4PM4YyIYlcQ1SjZ7eO2QC7glTl2QolSHqO0RZPH/Pyn3Gd4T8mF7Wr8RH3Vwzp2G/Q42L8Fos9uKWqSxDgpxx4sGIWJpXiJOCnn8hg/iXUDZCo2CqYiZlmFvKmezLJC19FYliU5EpBEAH4TLNlwaGmwR9DVzCboncLXWOV4FaMdCbVTSzieIbEt+1WyM9wr4HcMU1fv1Miq+UiOtZon5ViTlmPXO3tszmRNZ3HPacLjMdeZeMLm/A9rW05cxdkOvV7phl1ujXJ7938aOxa2ZanfY3XbG4C+DdKxhB5LsrbLvUPFzO7mRu7oPqXhNpqULQXblidSUSaeVdCxtd6ovCNg9PUUNFvI7ZEmAj2PJIzfh491tcyvZQ9TKk6hP87imZsjD6c2h8dInMD4KQmPkXKxXyIuZykebzVjyTldl+lprRFFIcrXT588P2+XUrImM2Fz/CefxJS9zPAYFQ+ofBK178LWA3KdA4cON4f/e3rnjIfiSvqJvz2SkjoMZvtN2QKvyqTYfojcFapT4Vw+hBIPQggj8O+sR5hq9dJRYbUzVxgQ3xwlZGEItLLxDpVoMvUS+77cNKVJCasd6s4EXle4PquztcLgmAe6JBtM2ZTDEcQXYCZ+eEvqUvVFzxQUmyx9MkNuewzR+CGnouAgbVB7ONY2fDrrVKF0As4fSH1BNelgqqtDmtYn1U+dfjhe2fqfH4n780Nsk1s/rad3E+scDKFl7E/+fwfJ4J7oY+0g7reI4JytZ5L2Es9BcIxFlwgK/hNvP+6JhdXEHqqfyLTCpy0ZfpRvcVcrKWNVMonEoOU+TO5b/PWOko7Et/t7GrXVBXgHhb9Sc6XdEnGYelxM18a8oX0MQoGcK0eqBSGopbKn9JfzSAjA24u0T366rKvnwazDSlFXW2LhK89BKX2YQvTaeiRLxLt1OrXI5OZ4Fh2UYuFQ3ahAe3zMGhvlVVTO3mdXiCg5XV1SWpRoz26//JBQjF6xy8nNBVG288/JhN0KFKwffj2JzQOmlyuKcueUR/EqJVCkRBHExcepiMafMDX+qnO0lPeJosoRXlb4g0gEedn5OLH/OA5vPowDa/Yh72Qe2zsG7lNDOxbmkvu14HZZLILkKmG7oM0Zvjzm4CuJGZgdzFQikp5vur3RvERcFr/pI+Tpgu47FKtJNTcWW7daV85BY9AUP7/uY190C/J+BzG/qo9kj5o69qLlJrdVecf5FpXcwOiXfFeZ3YJObkhuiXpPOQqpV6mh7RroDpJRkeyhi5t/BlFYvbI1ym6RuwAu1st3o1XIL9cTBePtLtGb5MVyaIo1OP+0ASnr2RQNLEuETE6FDEkWEBCZcDJydMfB2lNnHn6GS+mAmlv5jVYf5OhoVT11DNWMEGTu9JukLNtn0ckGuF3JUi1nkDKRO0lKYQWLHgAnYPuLSM7uJ+pyUQYNqrOitqgJWT5q2shlNiOTA9sGPxxWR9RY6zqzIPJj5U0ZgCUTwjOOCGmH735IiXeXki8m0pMGqX14vSArilLbdYuJo/eXnC0n1rZsHpPbozem2GxQTypqxpLrkMx5WnV4/2F2++r6DOXOCCYp4OxiCrzYnXOCqiPlilUuT96xYMgTtq5e+PsMvhad3SuMv6d9jeNEhJVyha+xwip31ZezQSJzPvARHJWjvz5Ys9yn1jtXzYQiuljTnbb/LUdfzpX2EHiO8fNvAfrDJV+8i9397+dwP51O+mMpLDcDcuMIvzESTmcloBP1yHyzGgkWa/9yjlScLulOcGiWtOuXYx8L39Exs8hjtIxsxKJlXPtkfAt3AkL10QSG62R2cKp8FOyR7H7T5dRa4I8s5T+DBE34KPDwFamIPYIsYC3hMW/nsLMr3+fuG8sa3DmR5CJ/yXhEffLQiU+KR9mzy6HVPa1Rs01tLTT+WwtlH83Gyg9+x8r3f8eJA5mI5Bd6C/uEnigxMvNDgcckvoYOMVwHTe9ecWyQAjD6RD2nZLVYz7JiiWC9HWRBHoOwMM+StL/h9SLQ49G+xTndH+Uz/3iMYk7eltwGvRyBbMddKCzbUcRaSexY63ik2I4csx6C7I4PRJUSg7ysb0+ZjyE5X1vk4ifBdXFzT/5DL+6Cs9Mzcc4SC4+xmhisc7yf9UYv97OOfgm+Ru2xQ+dUbCS4RR1nL1My/4QHGwwFqUKsSuyvwgQAtRKLJMLWyPTeTfZQzpiWrUvEYsKPdYIydxSEDC3kYHemDvC8DscaBOpMlP2kTfyRbWxUSeefUqzJ33jidG2Eve/K+vIgP5H1lRHvHlhsg5J5POGpJBOEdWJCIeLCtp4mJoaQlgokJIaQlBRGXCjPSm0kJQIHD4Wxb18IhYXqL/YwW4npIEGy2ikmWTVPaDukS/TadVpSrMmnzG3KUQXzOtNG1kpY62UTSqwmErmkJEdQvnweEhMjKCgMIxIJIT8/goKCELKzQsjOjv4OSxbZOSFECu02/HiG0RGmE84+EnInmYTcgvTCi+1IPzTvN3MDFadRycRJJnve9TD6TL78KlyALDo4f5fnjSrWIwSCbhMH7fzfGjYdEDB/D/YuXongEchHzRicC5/oZ9TO2TESl8fcPgm2JQYhwSP0fGKwF/G7x8H/SIs33lOd8Mr9sFo/aQdBo+09j8nWlDxGxq1AmnuPbTMWLGQXW9MSY/lNxot8abm8WS0WUQyKVdgJor1m7C3QuORJC47iIr9j1C6VWk1QPEYPna6LDitsI/KMjC9Hczp9Z5ivUcisWKV3Qdal4+3EOqQ9sB4SfOgZqpcB8oqIestqEi8ouZ67X86inSPhXUa+/DUlwQukvM9jUZDrqx/aLNK+Hs7/Zldh5xB7v597349r5iJ2VZufhdZD26F8/QoIx4eRk5mDrYs2Y++q3Ti+5xjyc/IlQwmybtXoKfbhhczFA1YLOpeGc+7NvpyfkkkohKT0JBSvXhIVm1RChfMqIpwQh6xDJ7H5u434/omvkJ9TIJzs9UbodVTcwCTXXVE/gjcwyLyvgtEFcP/O/jvpCGRfVbbmmmxEy1/5I0sUyY6e6Sy4+h07tyWiuHJE5+iww8WkHltj9NDWxpqmYUclCUcJx5Bp7qdtlT+KHsBjHtaenIjYmNHRlEWwkAyf9SQyTdHFzFZZMW3k75M838JPFihrkfga6eYY6v5d/xxNALfRL5N/R+cf9Sue505D7CtfqYq0HbrkOJest5xPZQ+cEsfrgOv86oGpBp2UUQGkU4fcnakVRU6hlALHRHfyr3+p3RH9F39lZv5KB4CcA/IPFmSOwEFVQhiWA7SyRwFKyQ2Qclm+FsbzgA4JCjoQ4/ZlUT9i1Q1xSLJ+n1WlAKmphcjJLkTz5oU455wE7NhRgL/WxKGwMIQSJQpRq0YuatcswB8rIpi7oBgOHCBfb+L6RPs9moscx6F9KSBrksLqNetAKcOl2g+ywb+PJh1AqfUuLg6oWzcL11yXhRLFc/HLr0Vw5EgCDh9NQsmSeTi3fjZQmI81a9OwcW0Y6cXjsG1zAjKPUwDyROP8SZ3AcgCUOkL/48WujnjGYTM071tcrHmtOjUb1A8tiFOTSTBI6pRNKC6al9qdEn+qPqn/EXfc0X7YbySs9TqriMLls3Iv4v+UC06Ve0P8/J/cGwl9puEWB2791d+beCV8ywlDsvESmmTKBbA4uSOMD1F8jhjKEPP6rTtSf1+ro+FMS06Udyqtez7af2TKHlPYkUMJQbzr/p0u6PIdpTGcr4l1fMHlgxhJIglH4XTqtkeiW5JedtN7R1W3ynKVO06jfVTwn715yHEUrn9Qr7BTLkUSifFcIB+nTLf1eESTS4TYw98K2LZ1fF9AgtidszizI5GupRfnCIsnznsJqYk4r1sTtBx4MeIS4nBw40H8/s4y/DnzDyb/443Sx0LFzI7L4XKvIuu8n1/h/6bUVmklpHS01eJViqNhjyaodUVdpJVLQ8aOo/hmxBfY/csOqe75tiz4do7VFTLy/I+fLgcxoqhh+qh6FqfHGsH7eYP8j9/Cu451qOXgMwLBR4uMEISE3W9qDkkrEx/HkBMWMUUwKr3ndMmp01deZDA+p5Z0sVZrpiygtccgeycmX0YvCnEVyhaBVf7H27wgv7fLn01U3MJ3iFqMieanGlVqatmfBY9yUmQX8FbVgp2ISMBe1CMDV+5MxaeUrvioqx8YfoRtvydTFb+zocxOEtlAuICPubCddIdjQasa+quLpFNcoEiPRqrIobAwYH+sWcnpk1B5BNcAACAASURBVLOtaPrErMbaqsnHOTO7thTidIldvFlXfhc7M8Ei5OkYD0ee0m220T6Hw85qCUuCauoRsY7WnZQQsXJ/detEt1flIz4cwt79YSvLmZoCnHdeHi655CTS0uOwZ08IE8YXwa7dCUrFDrIG7yJDMS/CRlVqehUbp0Hj1j6Vl4hTZMXYjFO7YCNUf6hjF0xfaMIIARe2OoFrOu1HatEk7NgWjyVLimLLpiTExRUiNz+M1NQ8FC9eiM0bk5B1MoTCSBj5ubQE/aWpti3H2VhddqcZAfbilfNnXHaQp2KDzPZxmpNoiMnxKGcMQhKNkCdnNt5CBTX5UvCYa7cuE6tctN8hIE9G9qWR/jvnHMkIaqP2FN5fdBmPU0PfVJENr5P0YcxIgh+FNePD3aCE0lcylyW2RaCl/b7bNoWhDhAU+0ffjPW4v04TuntV5FEDUU6Rm2nbEv1OEHtSb3O+hvXh1Ahd3aeEaz2TfFVWISPxaICam1na1GMHnVGzDM8zlNiqEEsISWu15Pz0g+iFlJllD/mvWcuCHOqZkBSKcopiFz77FVPR6mXjiAXrIDshiUkZa6qvV9CP3Ng5gFqXYuE7QvXM5jrKRgSsKcVze0ArI8Wf3KYg7mNVNEqewPUshJ4PKWxPEsNePvoqnNu5oeW8vn50AdbOXS3eDRV4wJX2P/a/RRX21z3VGL07Lj3/Y9XNf6CC9hncjn4SHjAds+LjEFJKpeDiRy9FrY51kHsiF18O/gzbv98SpNaBc0/ZfEHHrmKJLuR8x3ddLOVnJTR0vosKjBu3d7eSObnPNjZuruPoBP8FUUqBiOxEHqPGyfG2Pwuw+Ki9FKvFoieQM6ddTi9WYe/HCuZmgVKsLlAjUPkWepC8r6fsxn+Rwqk8BISt3cz2j2tbfMzGwKMblZI6qd3SPpZIuN9DwZ8pvXllbFh7tQYzcei8Ss0YKFTJJXFcbOVM9s3SRVa6gQqpeyyPE5RIQHa/goaucyTMrserSefonK5w+brJsPwN3B4Yh7wwPbOw5s8zMzpEMqT0RE/c4i2jHrptWubCVxTpl312V3DFKDOVhqOMbEUNIySocl1sQiDA/CRYi1IK1Gua95kzzuyOa96+otiWLBWHuHAeqlTMRdFSSYgL56PtxSdRsUYKQihEYrFSCIfj8eeSXZg+PQ0H94eQlR1CSkoIhQURZGcD4WjQkGJPiCOFhcjPCyE3z2/yL3c4wdLw3iO4esGuY5PhaH/sLchk91f0yJ73wUGVRIjcbKrSoWeaBaJ5xRIlC1H//GT06JeF7KNHET0fWBA90heXhFXLI9i9KwGbNxVBQnwBdm5LwMmTYeRmM+dLvAE6xsUSredw6MSO0uG4fKfnfGl0ZSjxWKv8kKev0u1DTCykgzPLtbTLV9kgr19+VsjeaeIavzPZZyYnPo43iMf8XvXDVc/TBCXj+eSa2gOcig3Kx+YnWZ+9IlbXIuzRTNIpSUClxIf2RTQ/Bm13tzb2ijqm1iD2E9AiFuq69LDWPMar4CwWH86bRflacVzDz7ZFFqZApSjKmf9QsYTEXhl4vN4ysQVp0Ko7Nsbw978yaem94R/DKjy2qyp0G6IW+OqaRDDK8q7d2A07puXOUFzooz6KT4S4cpTULrEtL8EXrK+Mf9DgVB5rLXw0d676S5u1XV3NYP2VPUAXHx+spXGHFGvSAqs70fuuLh7eFo26N8GxnRn48sH52PXLdm6xXGfEugsyTj/kbl7cRa8ha93Yi66K9p9kdPHJCTivd1M06tsM4bgw5vf7BLuWsDuxmB04PE0LVxfIpOr0wjkMwgyPkZva35Lxqn2BhKMUC+9exB1sg6RW1rb8e8Fbg/+oJF7CekHiA2R64XaFW1CjFsiCeMAWAYtFVObuh27sUIOGjVlLt7vrP0r79ViYQW67rD6fil/yfKdDOJ5yUtXp9dSTk8KTsfeZO5tBpPNzfl4emJBT64c4i5Hra5BexIp1qGnlC5zvSxEyp6qgg1Num5nqvKP1thvMeiuKso0w7Ao+m1SJfQU3mGZ0V4/8QfQxciGAE1WM5s5gYUpMUKFktj07NdKTCZrZKI6ysCAX8CpWFOkJoobZMLZJusCart60QEKv7iMaM50VRT2t8LL4uiTC7AZwgneG2ujJAn35p4s11TNORsSXFC9egPaXncCnc4qi660RtGqTg/iCHMQlJaGgoABx0S2TYaAgN4L8SAJmTAvjj98TceegPBRPz8WbrxfDnt3AsEdPIik+ByeykjD19QTs3hFnm54jJHJem3gI1zlQemSrltNRToktLKwFIUmwTbVTvEQh+gw8geSkqK6GsWfLCbw7rSxycuQ2xetQyNkiGr2vivdfwqTKHVsYaekFuKlvBA3qH0Z8Qti66yo+Ph7ZmSeQWCQN0U2Kx48WYu7sklizohAXd8jD/FnJVhLQ3cTN2xHt62gn5CSmdPSOXg4WJgIS5+yhpHRdjJ3IbVAWkUi4X7A4dkTyHtDHMTzLZ/vhVMwDJPEZwTu87DaEHa00/0nkxNiuu6uM1UH/0IjFMJjTfXyGIA62Nlrt/PyFt9NMP0C2oaFqVclEFpgqfI3Ve2J7LmVQd0HSiuN8Nc0fa0979Lg5FqxZT69Xv2MrzvhjC5CDpSkvoUaI8Lg8HnPecxYTLR1R8ZjF4RTW1Ksu9fN25Xp8+w+nhoWajzz1oWsOwIKZhvlbZqx658/pNGC2P4wuHtkERTsIiv/4neY8UXLvibYVfFRDZGHKj3PQEzy8uEqtjVJOF3yG14CebelqkLf7ibQQlpw0cFt3YzFqPNYAqOyOEOvwPMbakrDrRbk7wn6vWpvquHpiF2RnZOG9Tm/h5METts0whqvWV3/85D7Dz7KIXugkyWW1B20A8Lct2ybO698Mze9viWM7jmFGh7cA5153h2EpAYh2FMxj3gddyDzG6jM9GEpf7ce2oujpqn5JFmvSqD+PeX+lEtyKngVi7TQZOC5nHuPyjIOVGmv2OBdjb86OO57/yKYHKrJWyIR97PEYIVTdUdN8x7Tqdo2tSYxh/SVG/zXWWIXmMQ2943mM3iQUVRNuExC9Cd8aI7dT0iYg1h+5j7xJoVJ7/CXA2pLKX4i+xrV+P/ryLPf8Si3sz28wwYnYNeGJ5mqbXCxsgxqiE6jGb4+V3A0wlCABRzVm5zmpVJVllgicPPIlDgYK1kxd01Bm9dlheG+zhsrGQYE0xui114Iu4RIT4CZSvI5JL1mnQA4iXTJEh3QJG+li7WIl9Is4plhCNBZ5mhc8Glb3zI8Iiqbno0wF4MKLgIvb5SA+KRFbNoZQumwExYuGEY5Pwsm8RDz74Els22IHtDVqF+ChkbnIyU3BqIcKUbRoAe4afAI//lAEn89NRIdrU1ChfAbysnOQn1OIcHwBco4XYsaHpVGzZjZat81GpKAAixelYe2aFJzXLA+XXlsS380/gUP7C9Dm0pNITMizLjxPKJKGhPg8bFoXwqJvE3Fll3yUr5JsxSJxcQnIz0vE2j8ysHBBNHEUwiXts9H19nxkHCrA84+n4ehh+nPRIYTjIrjwomOoUScPhw4ACz4tZV2wnpRciGYtj+PchllYvSIJSxaWRLsrjqNhszxsWRePXxYXwSWXHUdqegEKo5tuQynYsjkRv3wPZB6Pt9SjS48ctO+cgnBSAgpyjmPVL0CFSrkoWS4O+Tl5eHtcKnZvB45lJCD7hHS25vGQ3+qPTDcpU9XlOw0Wdm1V1FaOBUlSgamUd90ynxHEm6J712MYnrv831IdEWAnlUGInZoN0j2V+xYeNxmusfk82RElSvnc4N7VJZ7HfD1cANbMxkNZuk8etLG8J+qF+onnM/jwJUiXyKKUm2iWjjuoFv9dcoxt0ccvaDvn2pValkRG7i5mCwJdZlBNnlj/GTxqgjZ3REFGA9LxOS04zXpeMFqYskxu3LFNfsWYgLFHmgB43pVQOI1JUD88fRVuh7UmC2QBUH8qqxdbqK3B+Ytwf6f7mV27yxQOzMIT44P8jlUH8aiM7yhB0L5GSB75K5dsx6sYoulpto5347nd4x97EJZFSpsjD8VJMc9hKSVScOPs7kivVBRfDZ2P9XPXCCDY4+bfDMZKVSJon5Z+7yUIBfEY0yk2fqDNNT4lAW2e64Bq7Wtgw6drsWjEt4gURCNH2U8Qt8XGnXaySt9yPW5jIw6PI6h/8XwnHQ6Li3y3kZhw09V86dxTk4dFxpXxgW5PZDvM5RiyWIpWL8WaITyJqTq7jPRti/Ji9Et+vt7yBVzbku7LNFSNNc0rdGX+uIucJ0bIbD5AZWsOFzEdZD9Kx8QuhLusneM6POaNSd9yaf/pHHFuXulCqz06E6anmqSTMWx1Z+6+oXZc+W6R5r7wQcChExfONlH3kRC4nLpD1sGCUnl/j0MJ2SZP779BLwY5HN7NiBQhmopICPxpRKdVcmSKv2eIBsfVWuoh/dU1HwLw+qGDNk0UweVJAMK5C99bcUSsaTnJCUHdk9ik7NZDfektuhuxVZs8tOsUwaY1cfjovTD6Dw2jboMEJCUXYNeB8ni010432KpWE3j4uQjyTmZh0dchrFheBP3uPYnvPivEnI9S0e4qoOuNh7Dit0S8OSEd59TLwtWdj+H50eWQmxvC0Af3oWrVXLzxehmsWpGMC1tno2ufeDzUPxFx4ULcOzwDVeumYdzoCNb/mYhu/YEiaRG8Pga4vmcCrrgxhPcnA8t/yMN9T6eiQrlMfPhmPr6fn4gLWufhlr5Z2H8wDU8PCSPCxStRKrjq+j24uEMCcnMjGPt4SRw5HG/ZSoXK+Rj44CHkFYTx2nPFUbpsDnreeRQfTCmJZUuL4KZex9D8ohx8PisFx4+noOvtx7B9axFMGJ2MgnygQbN83P10ceTnxyMSSsLEh/ch43AYfR8pwOGdhfjorQTs3uZviZYVuTxG7ENkbPIFTHFnhHiRuKv/jJ9iV9el+uU74WW1ONhSWCvUWZk9ZbvV3L2iZiyRN5mvYUX/zHhRdnevsKLow2PWnySBjOh07d7G5ozJOPwDOnkpMVQJ9iHWMh1TjB+6jqf01yVP72gs2B2SjmRpH078oQQKfhLJ2hZngzRY1Eh10VJzv1pGKjyiu0ztH3aSqyNtGyF9fQryMkH+ybXlaOfIzqGoTIRolNtNR9sHvcjLRMni5+x5Mcn7py81Wq0ZvZMejGEtRZY0UdlSLHGEPLrjx+TtsJDqhftQ9DVuTbIZAxWPuTrtc49RkP4IsaKUw3U0m1hDsEfS0QlpDKtkOHue4+9X+BolNsgPk8Lf1T3nWfTep5bDW6PRHU2xcf46684nWy8oeUr9j0cbtm/jdyHGykdyZosVP7lO8/bklNLAOnqp/fVzbkZCagLm3TQbx7ZlBLkx9+/KpRUOGtaHU2DLICS7gmm4HInJdm/5o8qi9bf1ToqMZ7lWUl3TZ4g8Joc9FhtU64Z3FQSjb0SveazdRqldwbT+83zHzffJ4l8wG3lj1o3bGNxO6WocNh6gUQ/20eLc099YRFZnFm2kPMZ91EKFtdNZCzfZ6RtJzMzco8ddViIbh4qpmbvMLqx8kSd+Z0CMUZJB8p/GJdZItSwIwFK6YLGoTCdWg48tJaTOvgetzOkou6c6suiCck5kfqRzibij+1bdNDiUs7QnWyJy/uGCrlP3tjzqBjyMs5blZgNIQIdodUnWRUXhuGw/5WFhGRxfObER6REaL1CnOZi9E8n+i66jcZ1C9HL3RCAcH0LbywtRtWYhNq5Lxg29E7H+r0SMfegocbOoVjuMES+lIf/4YeQXRLB5HVC9RjaWfJ+AGW+noOkFObhjwAmsWpmG18YmWdrSpHkmVv2eiry8EFq2Po4bexVi2eIETJ+cir6DMrB2dREs+joBiUkR3D08EzXqRjB+TFGs/QNITQ+h9RXAgpkRXNe7BDpcfRTvTyjEoi/CuKJLATp1y8XcDxKxYHYczmuWgzsG5WD//ng8/3AacrOcjdsOrklJEfQetBdVaqUBuUfw9mtlsXZVssUj0QTW3Q/uty5cP5lbEj9/m4+Wrfdi7swKWP5zUdzc5zjOvzgbc95LwaKv0nBzv5No0T4Rs96IYNH8BFSpUYAHXw5h1+5iWDL/JDIOFyC/IIwtq4GsE5HotVjcnTAK2/WdFHm2x69+B9mgnjMT2fK08BHN44RgaH9A1hH4e9yc9+RJIWfETIDv5INovnN9DFUZFZT4exA6evFsV/cIut2iDoK6pVR7LsVRyPyb6Hvk78m0wIkkXNJy3/QJQtyVf+JD6OZ8AkU3qSRMrvxDKl202cmJb2jM3SOj9n8C7SsTwCzm/nbr6YU0YFZNkhxf46IloxrX/ogd2YWsxJgs/iLzBKkIWE+qZjbysq7esY0pLSlwd5lyOso0oFdKdvyE0iGV/6fXFlyA5Be2C9crELio90j84N3xqLpnlBamHhd5diTVOuVHcDwUgrSa380QzMJirBar/6SPfXFfWyT8RFMB41eclf+gr51yvsZ3pyvtE6l7O4nPYPy1Ykd2Sqki6DzzZiSkJGDmtdNxcr99dJD/0YlhaRXzlwZvk3JODvI1TBuUmpGErz0hVSzIcX6EiYVotQgBTQdfgAb9muDPyb9j2fNL7e+XMDtaOD72OZGiw9xqZvM6FmwdXuSge/RQhndQO2KMQL3ByISKq0j8Fu0iQz6OHvj6ekrLyJd/iYxpG1S6efv9oHExtqNZ2tU7jc0fPNas7ehYm94ohJpcmfhoIkPZdJLO8e187Cvx9QJ+AWU8ry5qlIqLWM8SLFFSQjwWreAf6dJeLD0FQq0qt2buwFKLzXGswjjkJuauuNIocM6dLG0zwTArGeFoIzNRIhf0ucf35GecgxJSHmT0v+SBAe8/5U5bRZFUciRoEqy86NLrl55DIz12vlpBJ15opecMwHU4TJBACceZuLhPGFIM7pnaicidb7A0+IkjwVpvFdtfR+iwWa8+G3UNo2fsQ3LpMBMDhnB55xAqVS3EwgXA0SMJuLZbvnUx+htjo23Z71etEcHwZ/OxdXUOcvNDqFU/ESiM4KtPQ5j7QQIaNitA38GZ2L8zgq0b43Bwfxhfz09FQb69FTY1PYJhTxxCTk48pryajr6DMzDumRI4ciiMhERgwLAc1GoYxh9L81GiZAgfTUvE3l1hZJ8ErrypAFd2i8OGlVnIy0vBWbXysXJZCma/kW/9veH5Beg9vABHDhTgheEpyDweQtHiERTkR3AiM4ySpQvQb9hBrFiailbtjuP7BWn4dl5RSynKV8pDv2H7kZsdj5QihcjNCyEtNYTPZqVj8VdF0G9EDmqfcxLzPyiC7+Ylo2WHQtzYNxOb1qZiwuNxqPL/J/26D8zBnHeSsXtbIarWjkfztjl4+/kk5GTJaNw7msHauTuzZPjJjRsoB+R6c/cZxaN8OQnPs05b5hQ1dMzvuCPTprouf7ena82sc1LFQFK7oYnfWSW13ucmJPTEUj2ZFieSZDu0yK48H/GkqZosO7yrvERX7kk0pMmTcCDL+C8iSbia64QWj7m9YvFJK5WGhOQES06ZhzKRl53nLgqQSUr0It/0MkWRm5WLrIyTFo+lFC+C5LQkZB/LRvaxLIfa7I7JYvIK9SoisUgStv+2VZrcib4X7UdqqTSrjoLcAmQePM7FF6pAy/vohE5oLsNL5A9P/lb4ohOUO2rb5p52+GHct1xnRc1JSIq3xpufk48ThzKp8qRBb3e79TYVn0V/L1mtFBrf3Az5WXlYOmUx6l/TCJUbV8GnQ2Z7O0IkgfNtM/rg7Zve8DSCDNB5Et2VklY23ao3K8Mm3sQiiUguloITBzJRkF+g5TtVPja1dCoqNa6CXb/vcO8aYuTm2GT5+hWtS6R3/7FLuSOboJpaOg1xiXF2//IKLGlVv6gGMvdn4sD6/YE2aA/dro2WFB1ZpJVLR5lzymHvit3IOuI4JNfVSJhBgv3AVUMxrsEL7LZRSTmR7+R8RCsZ3fv4pDhEkzMkboraU/Rep9SyacjPzkdORo410ITkeCQXT8HJAydQaB0PU3uSYO7Ti6k8L2OPiSwWyutX+C4GIKcM5Wvkvl6cf5RvWhGdpnXGzkXb8OXdn9lH5AR5qPynh5UWNj6JHYJcbAundKvqCJzW7FPBOr1qMVwz/0bkZebio7bvWfoj6p3g9mxdov0/fRKHVgImznJ2PDqhndt3yg0ydwnz7p5OLgTEVXbX/CUnWgPfIEvzstrUbbB1ue+K/xB4Se4Jecui/BY/z6cGZsWwitM4ysQmacqdV6rm9nQsp8ZajurpxJrVWHf4TJe8X3TsWfRv/jZIykttnHrV1Rd+GkP97o7GmefLjgvaPKbWYH9pEBrUm0+rdDzUukobyTSKTbQwTleGIa1kdCDE+0QSwDiGT+4QsC5gpAjEBY8jeruICBhvbHLg5E6CyQ9IrZZ9j7Z9FlSusw516alcbDtyBMX2lYk9KHdFQ+MScat+a6D0xa7O7xKZiM2LxOBPFSwxyn4LSkKSnQT6xCBvU6YCrN4x1sAUZzSTkEFUt0k2lyYMYjMKG7EF4EwwKOhvvjN6/1U+prwQh6Il4nBeizCKFsvFrCkhFEZjo1AIVaoX4oEx+diwGpg7PYxBIyOIQx6+nl8Ec6YBLS/NRedbjmLDnwlY+mMyihUtwNrVyTh8IN661yopOYJ7HzuO4unH8eviYqhYNQcTnyttjTWlCDDw8SxUrFqID6ek4JzGwIIZYaQWK8SGlXG44uY8dOxagIxDuShetii2bUzAqw/nITfbRrFFu1zcMjgJx46EMWZQnvX/i64E1v8RwYFdITS7OAdXXr8P69YVQ71zM7BiWXF8Mq2Y9W6FqvnoN+wANq6Ox65tyWh31REkphbBzMlpWL44Gf1HZKJ24zAWTE/AN58m4pJrwriudx7WLo/gjScT0KBlCJWrFyI3Ow9fz0pEqXIF6P1QFiaPSsbhffY9WSQJaPWWZkYJP3mBDuMdhEmxm193W6Arc1b4JYr393gsdufsjl9rOk13mIxBJ2RjB8pwKE8kQrBIRZ3cqiAlOnb11k3Ys5W7q7zuURi15bMjlZUTxyRTHfFNlkyDgl3yftRfnvodHjr9l92PQ2kjx2NucCPxGbe/2RvVmlW3NKogNx87/tiBmfe/j+zj0U982j9FyxXF7W/1waafNuKzJ+eg6Q3no8PQK6zJb9axLHz13AL8MXeFfNeRM0G1E1iJ2P6b+gxw3bZno+uLN1ttRgojVkLt+1e/xcpo3ZIoyGEDyd1UQaEZGZkYE/Doy6MSmnxErWg9sC0WvvqdIEgyUYj6jrOaV8OVT3RCevliVsJl5ccr8N1zX6H5HRei4XWNMOvuD3B462HbbCS7icPxYVz/yo2o2LAivhz5uSW7GybejF+mLsW3Y76ywzUuMUU61HNGL0y7aYrbPz6aTCtXFN2m9cTWHzfhqycXWOWa92qB83tdiJm938PB9fupsXletWy9crj2lRvw8+uLsXLmCuXUsHrrmujy2k2Y3ecDbFm8hVCDgFe5+hUQjgthzx+7nb+JWEdxaPdoB9S5oh6i/z62KwNfPjIf+/7Yg97fDMCGr9Zj4TPf+O54oifZ10zsYunevLs/snzNjR90x/4/9+L7p75G3avqoe3jHTDvno/tL9QxR/4cTeGIxUKHiiXuXnU/xjcYy41VHsOeWz0HLd67H0+OXIpx45da78wbWBnNZ45Er2YvYd68lShVMg2f3ALUrJaEaRO9JGitjnXQ+j+XWUm96M+h9Qcx546Z6DLjFuQez8Hnd89BTkY2ouVaDL3YOjq3f9Vepl9kcSaI9/iI3zua689lattiT0C4tbiTAYI1NTvg/L+w45jYg2W6nq85f+iFaNS3KZY8tRBr3l2l7DCJX13OoUpGMW7YrwmSSyRbTw+uPogNH62RpEPVeHhY22Xq92uC1HKp1r8Prz2ITR+vR2F+ofTshpen0Y1IZKPwT/1f9nYnlGteAV/3/Az7f93jQshcDSA4VXZ+QvOY+2+egt2kEidbjv/5cM+bA8Sqc/5YCHMn6YfA7Db95zZsvKc/Dwo4dkh3kPzbXUD05ifSC/LJ4h0jN5HH6FyxO04+aJaM3l8bvY7z/EFLkDmOdgr30Nn9DUab6A/5+rquRL1y8kwF2fzj9kDAmppDUi5buBqAe8/2KyyGsl3fvDVoY0Elf3Xe8fSflWboksptpaEbvTLkmY4nKD+R2UohpjXIYP8eDTLqJ7CJqodBIacdkMlW9J3Lwvx5y/2rPFSIhfSor07QDpUiD9YATwVVkQ6DTVBsRzZW3Xr8ElKCQitIlB0F7XJ0NYz+wodoirLrB71SsUpaz3bYXoim3Xt4GMsXhbDip0LUaxaHBs3jsHtLPjasimDfTlthzqoTh2Fj47FlQzJeuD8DrS4DbrwnBV/NPIF50+Osr+xd3z0LK5YC0ycVRXJKBBdcWojFX8Qj1144xXXdj6FZiwxE4lKx5NskfDYz1XqekgoMejYBFauFMP7RfOzYABRJBS7tEsaHEwpwZXfgyjvKYdare1GvSTxqNkrChIfysHl1njXhadyqED2HJyLjYC7G3h9Gckoh+j+SjddHJeHIgXjc+9hurPotFYcPJeKyaw8jPjGMqc+Xwu7tSShfJR99hu7CpnWp+PC10rjyxsNo0S4Ls6eWwO8/FcFVt2ajbdc4zH87Hj99EUL/kSFUrpmNeVOTsXAOUKtRAs46B6jXOBfjh9u7zbrelYvVvyZjza/0ZVyi/rCSCOA2bmXOl3tk36SXHV1lFEOhS7SPE4INGQcRtyr+TdepyG0wFr6jeYVLMmmEbCwsOr1mx6yWZADfyV50EzsqifuslRLfE+uYrW76ezcdT2z7P6oejnOFFbjAI2E2fn3euxNJqUn4fsK3SE5PRpMuzVCsQnG82+8to8vznAAAIABJREFU7FtvT2iLlS+GvjMGYMOi9fhs5BwMnD8YBzYdwK/vLUWrvq1RskpJvHHzJGTsEe9HIdKsUK8CEqgElkyzz76sHrpN6oFvXvgSh7cdwlnnV0f9qxrgh/Hf4edpS1C6RhnUblMHCUkJ2L9+H4pWKIZ9a/fi5JGT1vOso1lIj+4cysnHmgWrcXTXUSvJdnb7c1Ciaknr+dalm7Hnz90Ix8ehTtu6KF27LCKFhdjx23Zs/3UbKjWqhCpNqlo7y6ITxjVf/IUG1zS0diRFv1C29ss1yNx/3AaPkgGtORcPbINFr34vGBmRXnxKIrpOutnaffXdc1+jzqV1cU6n+vhsxBw0uqExqjStiuUfLMOfn6y02qp7eT2r7ImDmVafogmv6POOIztZSZslk35EhYaV0LDLefj17Z/x3TNfCWxEq0v3Gb3w7k1T7TvhJLsU0ssXRY+ZvbD5h4344hH7TqAL+rfCBf1b4v1bpuHg+gOo0aYWytSNYhfB7hU7sfPn7WjS83y0fqAdtv64Ges/X4O1n/2FyudXRYVGlSwTOLhuP7Yu2oyqLauh8+s3YXbvD7DtRzuB5ZmIdx9L+foVEIoLYW80gcUZCcH7rIur4/rXb8Qvry3BofUHcNEDbbBnxW588cA83PZlX+z6dScObTxg7eSK7pzasXQ7StUujSoXnoWNC9ZZO7QqNKqICk0q4cCa/bjsqY5WWyumL8fJA5m45JHLcHxXBlbPXInczFy0eaI95t/zCXYu3Y5qbWqiTD0bg30r92DXLzsQKSAHlmgRONoeAgasvA8TG77E6Yac5zNLFUPTs/ag5dW1MTd8Hh4aMQ+vXpmE1rNG4baWL6PY4Z14smUBkpvVxyNfHkDD7w659da5uh5a/6cdfpv0CzK2HbWSVvtW7MFNc3sgtXw6fnp2IVa/uwK1rz4brUa0wecD5lh/l3sh/6jRP5rjJln+rodSBPu9IE/vV51/DGsr3VXvd0bZxuUxr+ssHFhFJ2a9moMiw+g9Udd+2hXHth/Dgd/3ovpVtZG58xgWDfsGyaWK4OTeE8g7noPE4slIKZWCrAMnUaRcKjJ3Hkd+Vr51v1Ra5XRk7jiO/JN5VsOdPrnB2oW67+fdqNK+Oo6uP4T/j733ANequNbH3+9UyqF3pCkKitgoKoKAvRvsCtZYk3jjzTU3V41JTL+/5P7vTTHVxBgr0dh776KCqKAoAor03jkHDqf8nz1lz5rZM3tmf+cDkWzyPBH2N2XNu9qstdfMfuWbz7Hfuo3oiWjOdZ+sQWVNFTYt2MBksMt+3VBVU4XVM1di69otTHc6D+2K6k6tseaDldiyKlHGzhB2V30p/Id+/SDs981heOenU/DJHbOSts1iR+w7/pbIkiOxaVi7DNEFsT36nc9xYs4afeu6HRxTJawyeZB2VYvN1xuakQXrcA64dFDSHb6fi028Mbl3BLJnlnfNJS5ktxiB0OjPaiM0v24O7qU4oFY7OWb4zYNSZH1ctFjO+JGvr6IvcZ+w/EmLX8RDTVeETzuy79FeFaL+P8RdyL14gskhwRoNwqQSReWHkQELushNOXOZQbSWv1mFMsxUJJU5JYDQMo12JJNbEf7EDOdcT9ODsFBVI1REZ5/LxHtT8+JPSRhZSvzml77NtbTT7oKK395qDE86LiK79m2Y6iKDsMwOxiIL+ut+/R1yCrc1TQszRbQCx8JJw9jtPawCH73TwDRj/0ObMXBIOV56tICBQysw7cV6RvYe+zTjmv8uw+dzq/Cr/9yK8nLgku9UYNlC4LHbG3D4cVtwynlb8PGMJjxxb3vsM6wRo48FfnFtK9SLwog9h2zDJd9cgcbGBvz1f/vg83nRm9YC2rYHvvnzMnTttRUP/BFYsrASJ06qRu2GWtzxvxU47WvtcfipjXjsVmDO9M34+o/rsXZ9R9z2k3qsWNiIsac249TLKrB5XR2e/2cF9tyvAb17bcRvv98JPXrX4/RLVuPW/+mBFUsqccYV63Dg6Ga8+UInPHknr8C69Pp1mDezHPf8rhNLfl1wzQq89UI7fDC1LS777gYMGFqBD99pi+bGbRg0ohrP3LENbzxRzpJVAw8ox7rljTj+gmY8cVsl1q9qRIcuzejeD5jzrrxwWZenpL1zyKuZdLLaMeEcqAFRvlqpN9MtkTin90EIw2pzinKjyNUy1I6ZhPhDhdDxbSPZ3pyHUmpzyVa1NUp5YyyIQ0xU+3LDwd9f0FJ3MUE8hiBWXiLO2SQeUi8qHSAh0OLuA6wOFQ63nXRhyGlT3jjpt+wIquMmQl5dzbT1USqU1lx69xVM926d9GfWerehfXDp5Cvxxl9fxXP/+wwT8/Y9O+Kyf1yJua/OwZM/fgzXPH8tPn1jHp766eOo37wVjaIyQJT9WM8Q9ty7F6vAWjidVGBpPClg76P2xjl/PB9/P/9WlmiKKD7zt+eiz4F98cj1D2LCL89kFSVRcitKZlVUV+CNW17DyjnLcfr/nY2tG7dg7YK16DqwK5bMXILbJ/4V4645EoddMQYrPlmBtp3boE2XGtx9ye3oskdXHHvD8Vi7aB0qqsoRHUF7+Nv3o8uArjjyO8ewo5SfvTaXJbL2OWFfrJi9At326oaF0xbggW/eh4YtPNC0/YkSWK/99uWEZ5Rtq2uqcc6t5zMf/sDX/8ESb1EFVbdBPXDK/3caOxq4bOYSvPHH1zD0K/th8PFDsGruSrTp1AZturZlR+pmPTwTY64ZzxIznzzzEboN6s6SWJ9P+Qz3XnI3m8pehQJMnHwx7j7nNqU9UkXEXiJKYE3658UsEfXCj59h7YZfcghGXHoI/jHxTuw+biBGfWMMNixZz7Br1akNnr7uMfQe1gcHnj8c6+avwcK3FmDBlM9x3M9PRO3qWpZ069ivI179n5ewbv5aTPjzWXjwsntVAots++Vb8KgCqxAlnuIKrCTaA4/aCyf/7jQ8d8MTmPP0JywBICueLnnhSrTtUYO1n65Gmy5tUdGqEo9c8U+079MBh193BB698gEse38phl9+MEZ87VBM/f2bGPbVEcxmLP9gGdZ9uhZDzhyKLeu2YNm7SzD/pXkYd9PRePLfHkH7vh1x+A1HYMPC9SirKkN0vPD5657EvKfnJN8Nx6ahgKtmfBN/2v835DgoWRMN1gC8uaWAJ2q34uoTO+Dft76MDjffjHn3PoPWP/wWtv74ZnT74FUs/dr3cdLJv8XKlZ/hv3sNi3m61ymDMfr7R+D5/3gSy6YvRdO2RiZvZz16PrbV1qOmVzs8/bVHUdO7HQ67YRye/vqjWP5ulLB227GqtlVxRZekuqmxmSVnaJVZgDni9jzgEnHTwob6TuUxor9ZvgIpBj5v6ldR3b4a94y8FfUboreDxE7KCgfDdDK6ybMoMX/yw2fik8kfYtatM3HQtQdjrzP3xts/fh0H/2AM3v/1VMy+80MMufQADLlkfzx/2RM4+raTMOO372D2XR9i4OmDMeL6UXh64iNYN2cto+ykB0/H8qlL8c7PpmCvc/fB0K8Nw0tXPoUDvjUSvQ7bDY1bG7Ftcz2q2lXh2YmPYuBZe2PgGYNYAjVKfD1/4eMYcOqeGHT+viy5FV1R8eJlT2H1jJUZ9h8cReYXju6PMb89ErP/9gHe+8VUjcWh+3k5WnIXbW6ihFd0XthOjJsQPG3Plerr7aUfPpkNlTuJBd9L+WMnvYV/v5e+T7Hvhn3xkNyBJO4lNRkliLVibW4vBLMZbqyfGMy2RLE3VzbEvlcxeWTDwr735j1LF4erDWSoXNBdvy1h7Eq28zVSm2Tk+ImB5Ptj0dp82UmGke20PQLjE+ER3Y87X8HSkx0Ji8uoLhzV9xj5YWiDAwJEcWkv3ZNr2eN4f2x/m+EXCkVYugDwkdIz+m4z4UpB+I+m+VcQamDdii7mYAAQSl0XUspsOmWKlBZiXNl8ZpsiMFR0e1eQXugZ3wcTjpgmd6leIBZEUyU9vQQtNuGT+mYJUpnciK8vxBJsYM27pSuuySId66SDio8+ARg3oRxrVzRh/sfA7vtUYta0ejbfoccU0KMP0FzeHq8+vJ4dzevcrRlDRzbhk/cbWdVSZWU5Ghu2oKp1NQsSttSV4+G/t0JDVCiF6KuCTTj5/FpUldVh6mvtMXtGNcrKgBFHbMOAwdFt59G9WvWorGmHisoKLJhVh1nTynDICRVobChDodCEKY83ottuTThwfCusXNSMma/V45DjytG6TQMqqgqoqK7C1k212LxuG155tBUOOWoruvQGXn20CutWlmHcqbWo6VjA5o3NmDuzFbr2akavvltRu6kJU55qg43rKtGxawN69q3H2tWVOGjsNtR0qERDUyusXLgNC2aXY/E8bjfbdWhGTafoq4cNGHl8GT54owzzZxrfviWBgH7xvkuEEgoYx9jSKfg1JkvCyXA2KZKtz+vWN03srVU1dEeQZgmkv1Cbv7i1bZ+lBVPiM/UpOhjvEMSamZXUVL4YV28H0KeDtJdudYi3t7x+0LGWvsx/NMAvQ561G/sGJkXC18RrSeFRbMe0o6V+qqKxL7n7cqaAt036K5uqfc/2uPS+q/DZlHl46Dv3Mxa279kBX/3HFZj72hw8/r2HcchFh2H0FYczW7b0w8V4Z/JUfPLcxw5p5xzoOaQXuyh54TsLdbGIWVLA4KP3xtl/mIg7zv8bPn+LV+aM+fo4jLp8NOa8OAeDjhyMe6+6m/227yn748Qfn4Kpf3+T3XF0yv87DQ/9xz8x+5mPMObqcRhx/sG4c9JtOPvPE7Hg7fl44nuPoXX7Vuh3yABsWLIBp/5yAtZ8vgZv3vIGyirLMP7ao1hSau6LczD6G2PxwDf+gc9e+xRn/Xkiug/uziqlovuVooqnBW9/zhIC/BLwaH26Do7+t7F4/eZXrEeVOYsK2GPsQBxx3TGo6V7DklNznpmNd+9+BwdfPgoHnjsMky+4g/U/754LMeMf7+GN376C9r074Oy/T8KGpetx7wV34Yy/nssSCg9cfi/6jRqAk381AfdddDcWT1sY88Imeef940JMPvcOp3WKEljn3XchS/hElTvR8ipaV7KE4ZPXPoIjbzqOHaF7+r8eR0WrCpz829PQrld7vPzT53Dirydgyq9exawHZmLCX85ifV79xYsseTL80kNQ06MGb/zfqyzp9PBl94kEFsfP3Et0368nysqiCqylYu9LLxHnEUl0f9Po/xqPgUfvia0bt2LJO4vx3t+mYdVHK3Dh85ezqqpnrn0cXQd3w6m3nompv5uCLWvqMPq6cXj8qofYUcNhlx2M4V87GA9O+gcOv/FIFvA/dMG9bC973lMXY9m7S/Hi9U9jr5P3xtibjsTL338eI75xKLasrcXbv56CyjaV7N9Rhd8jF9wXW0Al2koXL59xNW7Z/2YN+6SN4lzbt/syHNZrHlbXRvfO8T8Ny5ahfuZMtDnmmPhZXWMjPtqwAfNXnRNL4sBTBmPsT47ClrV1bD1zH/4Y7/1pGs54dBJWvLsU7fq0x7babZj76Cc49LoxeObrj2EFS2CpP+bee9jVB+OgbxysGcSlby3Gs1c9hoZa9YUVvh7x//SjItHQDjsmt2Lx4NQYm8GU6dbNahRLNZCUL0mC5Mj5H13BdPjOIX9mX1x2W83kL/JJRU0lTnroDHZH1KbFG9FpUGd8fMeHWPPBKoz/03GY8etpmH3nLAy5bH/sc/F+eOjIyTjiluPZXVKvXfM8xv/5OFal9db1L8dffT7+wQkM09XvrUCvcX2xdc0WzLt3NoZ/71CWQFr62iJEVVH9Tx6I5yc9htG/OQprZ63Gx7fMQP9TB+LT++dg9K+OwMYFGzHz/97BgK8MxKJnPseqd1eQ5FtyT0D9DYWx28ieGH/78Zg3eTam/zA6zsqZEmuuwRMfjmHeSXEtpL2KPSm3k2aOy5o+oml7bJJgp8EuF87UlenXhUBq5GidJY9k0lTuq0iyKqEPxATRi/xJ7Gkz/soKO10D8Svp519i22cmjqxJa91/ajYoxVKGyASXBF5lmGXPL/uZSMi40kqWhD2lUl46uVgGZdaO9XVLWHLrnfQaFPP47+zLl+F2zUWBezYdIf1FPVA4pu9xmtjJCeyJHV0N3WKRFBHWU1ZS0Z+pMiWSL2IG1+Za/ByDwjZ8opKCT5jKNE5G0rS4BdyleFmy7oqFlJmhR+qKv4TRQTutHGGbAQtm5BGjWfBDnXs2xI9cphjbctO4aRVY4cFneLjvMhGkasICiW5k/fKji6bf5NndkcMJSqylnDPMlLxO/FY5Pvt4GzasKkfjtgLWrGjCyqUCS16wGHuBKPkUXcC+rV5cmhcZnqaospHP3dQoj1OqpI7N4XDDSLDVhRjRG9OIRlEwKXS+DE1RPCbAiirCIjVlX2uXSU1W1iIXymlkbyLLmtDUwPs2N0c0qwkld8rKo0vgY8ul3x0iXo4OO6oBKxZUoPfAehw4vhJTn6nAuy/wOx98f3iyhOi4q9rKNCdyC0ZNDPUC1N5JYGOH46bM/kvyafTGK4tzcbs4hz0Xj9MxtNu7NMz5mzq5KQjXeJu8xvPIJA4BRJWKWy4IlaJI7J0mLIx35kcXlO657lRS6w63eVmq6+xou6VAvhUN2X5l9ZRR+4vuupTp4+3n8wRW535dcMm9V2D2cx/hhf95Ftu2bkPrDq1xyeTLMe+1uXjsuw8zmMsry7HnuEEY87WxrJrptnP+ghVz+BEc6aJoErPHPj1R2boKi6YvSLy0ke2io3Rn/uE83HX+bfj8rflsrKOuO5Ydq4sqn3ofuBtuP+uvWLtwLTv2eOUzV2PG/e+xBNaJPzsVd573Nyz7cCk7cnfCj0/BI//5IE76+amYftdUvPG7VwVrm9GpfxecP/liZr+iCiv5J0psLftwCQ446yDcceatWLdwHdr3bo8jrz8GvQ/sw9Y85Q+vYfqd09hlzy6uHXb1WLxxs5yPj+7SwR5DeuLQb4xhR/L++dV70Pfg/jjg3INYgiqqCjv15tPx3A+ewuwnP0J5eRnOvH0is3X3XXg3Tv/L2aioqsCDV9yHfqP648T/+woeuHgyFk9bpE+q2TF+r9O958gEVlK32vVsh3PuuwBLpy/GB/+cwcba/fA9MOTM/fHij57BEd8/Bu/c8jbe/sMU9tvRPz0eA48dhJd+9ByOuOkYvPmr1/DJ4x/h9NvPZZU+davUl92iy88/fngWxv/gaDx62f1Y8DrnM9U76RS7D+3Bj/5FCSzPJjyqDhp82hAMv/IQrJ23Go9f8SDOe/JifPbcPLz+85dY1dXp95yDD+5+HxuXbMRh143FE1c9jBXvL8OBl4/A8KsOxsOT7sPoG8czv/vIhf9kc5775EXsaN1L1z+DPU8ajMNvOhJv/PRljPz3w1hSL0oQyT+blmzEE5c+SN6CxyIn/lLApTO+gb/u/zt9xab/Eb5m39ZzMKrtdCzfujVu37RuHRrmz0fVgQfGz7Y0NeGj2losbvp6jNKepwzCqO+Pw7T/bwo7zrZx8QaWJJnwyLlY9PLnmP/UPIz732Ow4Pn52P34PfH8Nx7HineXp9aMRMnKw//7KPQ/Zg+WkFw9ayVe+tYz2Lhgg8HDJEeVQKZ7PMln2Ur6dt7f3jehW3Ez/RJxW0Xiue9/FeXV5Zh8wK2sqkn6DFnFG48t/2LGQ4UCOwJ4wkOnYe1Hq1kSqcchvdC6R1u8/8upOPT/jcXM30zHJ3fOwj6X7ofBFw/Fw4ffg8GXDMXeX92PJaOGfvMgvP5vL2Ddx/zOu+jPcQ9+BZU1ldj42QZsXrQRs/40g/XZ7ai+ePLEB9G0rQl9TxiAkT8ZgxcmPYFuI3pg0IVDUFZdjiXPLcCHN7+H3kf1w96XDkVF20osfXkRPvzNu+z4oumxdaxNXeT/7jG6N8bcchTm3TUb7//0bQe/uSBb/Txlnfx77PONY4w2rGUkGO/tRKNErGPIXmJv596dJcPYrB5Vzk0X4N5HJGNKVxmHW73CdykqfaPueSJYGKrFVu7AmjozksJM+HXtazCkE33Jb1+ZkqCwL0hKPoWhwWMXbmmsWKRId4gdoxKW3LclbZhTIi08Ybpr6oc0mnExhnhAcp2aHTNjfSPJV8oTcYXj+50QhZsp55R9IuCw+4a2qkvDyFsu+q40YQiErdfASG6GQs1FuqmwG1XdudhDAxs6IWJuNcKpgp1xBUw4FdZxborJniy7JBPK3FVsI3UDLrvFft6EjAR0Ma/ddjHxi4aZmLolONrRskuL6RYMF2VdhTJp6md30jdqo774JDFUCSYxmsRQvsAxDQFZVFkF8JXLy7HbXpV48Oat6NAFWLO8CSsWlaG6FVDdFmjXHvyLTkxtmtCmA1BVXo+ycrB7XtBcj4qqZmytLceqZRVAoQk1bRtQUQ1UVAKVlUBVq2ZsqS1HlOqJ/r+8qgKV1c0olFehsWEbmhqq2PhN0W8Vldi4phF1G4Gyykq0ruFfk6mvq8DS+Q2oXV8BlAF992pA+85RlVczqls3oKqqERWVDWhobIXy8iZUV/FS+611rbBtWwPqN29DdEN9dbtK1G1oRlllFQrNzdhS1wiUtUZldSOa6huwraGCJeK2bqnGigXN2FYPtrbGBuDQE7diwexKtO9cwNCxTVg8pwxvPiI3oETWKWMp/lIm42fk83JaAGd+Alrqm+4tVFVLmn01fwvRiNjbsM5+iVfEh4weJw0cGuxKsIdbT6JP8V+NVciNKd0EaUGFwRAxjsvmir1GsqIlKL0ptxzpSCc56ecOt7nJceU6XJsjHevktjnd3km6DHn1lcgLfxPbNnbCoYAL77qEbVSjqqfoz7hrjsDoqw7HUz98AgeeNYzdDTX9nqm48J5LMf3uqXjjj6/inL9MwqLpC9k9T8POG4mjvnMM7rzw71j6/qLk59WFvkYXfFexBJaqwDLXudfRg3HGH87F3effjgVvzUfvg/pgwq/PwJJ3F2Hh1AU48vpj8fA1/8Sc5z/BIZcfhsOvGY+3/zoFKz9ZiRN+djLunvh3LP9wGQYftzeO/dFJeOzaB3HkDceyCqfHv/0QOu/eBUf/4Hh2wfiIiw9hyYeHv3k/qyI68rvHYs1nq1C/sR4HXzEKd575N9StqcUxPz6RHU1883evYdTVYzFgzO6468zb2G+uP6OuHoM3b35dv8g/FuLoi36VOPonJ/Avz373Sew2vA++8qez8MjX72f3Me137oH45wX3YOPSjbjk2Svw+evz8dz3nkKn/p1w1p0TsXreKtx/0WRMuOUsVoEVHYvrO2oAjv+/U/Dgxf/AkmnRV/uMwjD1XgNnTZ6E+865S9M6upYogXXWfefj85c/xQvf40cIR1xxCIZfeTCevOZRHPHDY7Bm3mo8dsUDqKiuxBn/OI9VpL32s5dwyi2n461fv46Zd7+HE38/Ae16tcOD59/L6DzsO2OxdcMWLHhlPk7602l47PIHsPA196X+3Yf2ZPf4REkm15/dRvXD6OvGYsovX8XStxfh2F+fjDbd2uLh8+/DOY9fyBJYU/77ZbTr0wET7j4bH94zgx1hHPejo/DK957HvKfmYOyPjsKeJw3CI5P+icO+O45f4n7hA8w4n/3EBVjx3lK8fMNzGHjiIIy+aTxevv45HHTlCDRua8LTVz3KvvY38luHYe3c1XjnN28p6C2BxiUzvo6/7f97vRog9mm6hX+vvBwvlzXiyq/uh6sm9MWa39+Cjb33RPXPr0PrGfPQ8e0XMfPNT/CN5xqwfPmnuL61SmrtccpeGPW9sXjh6qew7G1+CX55qwpMeORslsB666evY78rhuHAb4xgiZvnrnyc3d+kC04S9fLKMhx84xh0H9ELL37tKZa8ottVfQW+YM1lOx3cpjZMImgmlEjXyDbLD1Fptpr4opOfPBPtBrTHY8fdh00LxN12xvRpfikaKkpgHffQBMyd/DFm//UD9Dm2Pw795ThMu+kNHHDtCMy5+yPM+v372O/fh2GPswbhkdGT0bZvO4y/7Th2B1bdijq8etmz/Kif+HPMA6dg5bRleP9n6rjewIl7Y+g1B2HKNS9h5VvLcMD1B2PAGXvi7W+/it5H98Xqd1Zgy8o6jPzlGHx23xxUd2qFtR+sxqbPNmDkL0Zj/gPzMOs372WqRJGx5+5n74UDbzoEH/3mfcz+4wcKIcpi+XfzK8QcfPXCluJrxJXK1xPZIG3ip0a/8IqppP907gwEMe6dg5KMpKRLTQrfd4RWkJl+M1HkQYjhSzC+Bkm13MRR7Ge0GNFix7huGdYiwZOkHrdkD8vxif7Yv4ynI+3fWevUZW1vCjEt6rPYNdNOkf1AAmsjrmHrFsU+pJu+H7bxiJ6CcHrQkD2se49rJ0JNVjih74nqCKEURpKNjh/JUl2jqkld2C4VN4RtlGCuDRSf7Aode2g2uU+lE0GYqZApn/208Ul3QFkCBnWJOCOBBmFMj0iklliX37jZZSpExXXjmB6U+tA2BFhfEp/I2DioZ8qAJVCNHySNp50ilVlW53iJqTYeulTKZdxc+huKNrXNtj6mhlS3KWC/UdvQ2NCMyqoyzHq7gM0boi8eyuxX8o4SWpGlOSXZJzZsQicptOJtiap6aGYVUdGfsjLxd9FfyjIzGWxhOvUx6iQVz8dV1VuyjXZtnqjssmIdvw0QblpUbMm2UbVXl90asd/oWrz3chsMGgG8Hd2NRSq63EXLLokybJ3jaIHNIobZO2LNzOpVm5mhGzsXSMJFp8uY2xuFIaH0NlZvbUhd2jWbLT0odbK2hG7apaQG+S3WQdvuMbZjaZZCt6NK7ondkXbesgl0v6nSpcdvgfX54vZ0t0J8Tfw7kbEQDKVH4tDw/z//rovRdWA3duF5Tbca9mb/nTvfxtTb38L4bx+Fg84Zzo5GsaqUbz/IjuMd9/0T2aXj6xevR5TsiI7dPfOtjnGWAAAgAElEQVTDJ9jdOqZ3l7R2ZxVYlVg8PTrepvYDVCWjBNZpvz8bKz5ejvKKMrTu1IbdpfT09x5HdbtqnPDfp6DHvr3Y3UtVNdVo3bE1pt/+NrtU/LifnYzJE29nCaxBxw3GMT86CY/82/0saTX6W+PY8b9WHVqzxNOj33wAXfbsiiNuPIZdih5V+URrfOaGx9F7eF+WwLr7zNuwfuE6DLtoJA7+2mHYtHwju+coqhh69rtPJD4lT0X60KvH4K2bX0tIeWzrystw0EUjMPzyQ1C7ejNbx8YlG/DEvz+M6N6no39+Auo31+PVn7+AroO746CLR2Dj0g0Mv+i42uq5q/HghZNx6l/OZBVYj1xxP/oe2h/H/epkPHTxvSyBZZM5mWw9Y/JE3H/u3cScEnltBmp6tcdZ907E/Jc/w0s3PsPYNfyKQzDsypF4cNK96DigE0ZfP45hFx0RjI7uvXTjs+w+qJNvOY1VXS15exFm3P4uxtx4BLtYOkqSVLSuwOs/e4lhd+KfJuDxyx7Ewtd5AkuTX6G73aIKrLICVsxwJ1ba9+2AI39xHNr364C61bUseTX9D1PZBeXnPnsx5kcJrJ+/yo7MfeWeszDr7pmY/oe3cfJtp6Pbft1Ru3Izqju2RnlVGR6deD/2PGUw9jlvKDYv24SnLnsEh15/OHYb049VG310z0wc9oPxeP7qJ1BWWY7DvjeWJ2zLOX6v3fgilr7Fq99cL0Auev8q3H7AH0mlk9s6fNa5Dfa9ejiO3PIOnrrjRfxkXk9cN74NDn3yZlw78iYcdGBfXLTHJix58y1c/9IyXFkxPub7HicPwqgfj8P6T9cyPm2Yvx5v/uAVnPrI2Vj88gK8/dPX2YXiR/zxeLQf0BEvXPEEq8BS1LjtZnnrCjTW8ZdfyT/Z9r0yaE/IgBg4xK5xvNPtvB4DKKpH/XIc+p28B9645kUsfGZ+yiEe0ceyP44qnI596CssiVu/oR6te7TBullrMO27r7OEU98Td2dVVNVdW7MjyI+OvpcNdtD3D8HuZ+2F9370Fj7759z4rqBoKUfefzJWTVuOGT+bFhNb3bkVDvnVWLTboz1ql9Yi+ndVx2q8Mulp7HXpEHQ9uAfq125F655tMfVbr6LPSQPQ4/Be7Phhm141mP69N7Hk2QX2CinTXxsB90E/H4V+E3bHtG+9hiVPqyPKhqd02Dx7ese/V9FjT1PWVEIj7IgUdadsLNt+zCRV4EBfZvN7OLnEuv4oD2e20ydQvp6Mpfl1YaZJ7OnfT2TTQemPfWtSvPZTYNNn3SYaBQNycNvpCZNxFB+Bi/tid2LRYqZQf6d/KIzG+WG2h2JtT6zZrWQYhm67aKaOyHjk3b3zBJszzjfkVQR4GrV2deYndFSYyLSjcHK/U4xQwaU2hCmGernm48C6Db9UcrNJxFjpMGKG06EoxcIwakpPSZX9JJGxwaCXv7mNhd8IqlWyrHHsGO1ilTSSfhOVRD6tj7Cc5qbNaQqjo1zyAmsLJwlu0odnuchNsw0x39zVK8mjNw65EwOnm3iJRajpVBvddJlWPNf57TcaTOm0CxjTdUTRQR1QM6uyGnrYVsx6uxp77lePwSOa8dhfqrB1C+dldMH5KVdswefvN7AvYm2pLaCqqh49em9klUwfTavBHoNXo9DchDlz9sCBIxdj7fJGvPVSTxw6bhneebMXhg5bjZef6ImxJ6/FjCnt0HfgJgzcdyOq2rTGZx+1xbL5BbTpVI0DxyzHm092Yayr6VCPpsZqbFhdgYbGAsZ8pRZP3dYauw/dijVLy7Dsc/4p6OpWjTj2/A1oRA1evLsC487gG+GXHuiG8Wetw/svVuHAsesw5cluGH3SanaUcOqznXH4hA1Yv7IBrz3aC0dP2oA2HYFX7m2FvUduRvf+TXj1gc4Y/ZXV2Ly2Ai/c2wWN2ziHOvduwuGnrcdTt3ZCU2MZRhy3GW890TYqHQv4oztst7UwjZTFRVHBInYstnfyEnExlKsyUb753R6XiCcB0bdLIZbNdnePXzukXvGW6bbURmXYDJKb/Ei7nkCP8TZ8CDc34iE95mn6GtJM2TLLEUUtzZImgpwinz3SL2zPcuzS5izdEiB/CX3lFB1LM49esmPGIiiMEkVd9+yG5R/yi6AjaKOkQlS1FF0avuidhWhuaNJvA6CbfkFQ9717sCOEi98VCSxy90OsI4UCGzsGNMI1+qqbvKi3rAydBnRid0FFX72LnsuqhehIU1NjE2NEWVkZSypEfaM/Ea39R++O9QvWYfXcVXGfKHHV68DeaNjaiJUfLWfHAgvRWe7oPUNDZHg49lHiaMC4gVjyziKWcKKVEjaJPuTq0Xjr5jc0JiXaFcASZz32740Ni9ahNjpmJ144RMk7RnlTtPZo/gr0GdUfi99cECfOIh6VRYmT6H7mpmZER02jNTMMpM20yn4Bp08+Fw+cM1nRZxExRkMEZzRehITANPIBLPArL0PvkbuhblUt1s9fy4+mRy9LyqO9YRnnTWMzO2rWZe+u7Ktpy6PLxCOMIz5LWumeI7YqnKBuQ7uzeWQFlst6RLRVd2yFjrt3xIr3OR+ZHERrEHQw2iqiFyJNjH8R9m27t0VV+1bssvZobEZb9D+RkJK0Rmtg9i7qVxYdt5cYFNDtgB5obmjGqg9XxPKW1EFlIC54/wrcccCfNePJ7If2MR4+3+BRrdHhw9/jP3Eonpi2jK3lhyd3xf6vT8bP9rwMU6fOR8eObfDDG8dhyxN3oteSc9T1EdFHfgTd0j5FMl2oKONyxdgaVWoLfok1+eyYK0GdZiEZ9ml7WNJZ0spkjkueb2hHq2S/WMxlkNwMdl/Uwb84nN/tdFN0JFYPaK0v07lx5HQJ2xTJmnomdDe6AqKsgOourdC2XzusnbGKN2/gQr/vtQehz/H98fJ5Tye+EChlUNowjgTnac0eHVDVrhJrZqxic3IdLaB1j9bosHcnrHx9KZqj05DRPrNra3TcrwtWvL4UTfX83j4ln6YPd/ua4986HZXtqvD80Y+gbolZfUr76VwLiT0lz0MvEWdIWGybVmUhRCf2g7SwgwqZAMMtd+4VKAlTvbN9CMc+q39fpS8gJNFC9wN8Rbp+FHWJODchXP+kOshCD/MhETpp72LtZn3lXcRiMDMfYLECCmuFWDZrYY3eUu1NGNbCNDhsWBjWAXJHMdLskdBBYqIkxIJbyQ/taLGOgIA842aRohuCBFA4td+pahjzQkQpLBauqUoMGz/SXUOo45BqpCuym/924SK9dZSdA9nm8wkuzdbHipMqqpLVvpEFYy1G0TmCaKsZYc0CkOiQGNgkuW7a0qmmX1HxcYXOmlUywgO1JE8cdNE3bUayQVVEkL4m1tLomrJm2At1pJZEp0wTk3TZKI2qnoYduREfTKnBbrtvw9gJm/HY3zpi1ZLoa4FA23aNuOJHy/Hhm+UYfFAt1q5ojflzWrHNZb/dN+C5B3rj1Is+w9LPqjD3w3YYOXY5O4bx4bTOGHXk5/h0Vge06VDAK4/3w4TLF2Dx3CpMe6U3Tpj4OT6a3g3VbZqwZmkF9j+8Dh9MaYsDDl+PT95tj5HHrcWyz2sw/fm26Ll7PfoNWo8pj3dFv8HbsOTTCsz/sC2jb8xX1qCmYxlWLm6FbXVb0HP3bWzz3qYd0LqmDo1NTWjfoQmfzmiFNm23YvH8NlizvC3GnbaWHZOc+147jDx+PbZuaYt3n6vGkROXYdHH1Vi7sh0OOnIzPni1HG8+3pNt6MormrDbwE3oPXgLlszpgA2ry7D70Dq8+0J77hxlvYjNppsJJ8lvWT4bi2+gwQ3YMOv89mmay8h49M75hSbT0ITopGftBMOYKvbMoNGBv95MzmVPCplo+LgSap38VlrtoBJtg6vF/J4uhBtJi2qxKxasbZYnzBoJTyRtHq3mki9C6WbF43mLwbrbPj1Y9VCUBPIdzw2RET8n1CjFeElbHy0ZHathUs4PvnoUuyw8/iN0SXZJXGNJIxayKfXpRpBntsj2hMln46FzeRWIawxqZbLg55cNpSG+ZEm3/XqwgH3ljOUWiVRfgbWJqwpcLS7bplvxM8sKzGDKNMG0bslT5Tvp/ctw1wF/sVY6ZfUkfqyVXUlt67B/vuqo0D1bQsYSWFsYYlZiaPs2XjWuXHzo1SVJPNr2rcER957IEkgvnPkEmtg9WEGaVbSVjOxIq+6tMfq2o1g100e/fj9oxpL4QodfT4gtYUnvE/vhoP8ZhVVTluPtS19OXHHilC1RtSzdju/eySw2XXnz5N9M7unilvbCSV9JiG8N08GUvYdTipIJA8suwdo7kXSVrTTfQt7Qsd+zWPnA9kSoQmQ3hIJQvLP4Tn01ypZY/b1h+7lsp1DltGOiTypPqGzbvWU8s1AyHz4hVYvKQ6cIJ/kpTW8LE/pNaPZ9iY8zwEc6n1ESF3x5mXmRG7sryGCa2IBpfJTlmZbMoHQ8ibI/bdeUvAcqdIVh7Wg1j176F3phe9p79xCFNcXTbRYMw2oJ2pXRIpls+TZJssw2YTyp/rlT6/GYxMYtq9xJxIjIpyi/rhh0l2/bYtiUTROoWP7dI4W6RWP+KNlAksvyWN2gA9Zj+eJ2qKraioPGrsH7r3XDtoZKrFlWQNuaRlz1k6X48J226N13A8oqt2D6S92xYWU5Bu67Bi88OAAX/PtszP+oAvPndMAJ58xHU6EMz97XH+NP/QxbNldgS10rrFzeBQP3WoaaTk2441f74JjzluLVh3qi/5BabN1cjSGjNuP5ezri8AnLsHBOB+w5vA4du9bhiVt2w7BjN6Jxy2ZsWF2FrZursG5VGT7/qAO21FbgiLNWYvP6Mnz2QVt071eHNu0aUVbWiD5D6lHWsBGNTWVo374OSz7tivot0Zvreixf0hmjTlqKxm3b8MgtQ3DUOZ9jw4ZOmPZkRww8aAMOHLMUrzy8O/oNrkOvvmvxwB/2QO2GKnToVofOvevZ3V2bVlVg3crW6DNoMz6ZxhNY2oaEJXaoPvjCINU71UZSRyKHp0E9TTALnYmbJb5GmnybJC9sj/2dNWGg5DXUnmex/VLV+VLDrGTirahjs2NCpjvBrLornTt3PlrAbxsqfiZnJbNbeSlkQvqt2CGlO+yk70y32DqplBA79sVg7eZi8pf0tpxar1yQaICOp22aNb3RX8bEySuzTTQ5ecbGpl9XT9F5qTWGl/Re+uz7EI4Xi1hcdCEL7RfejtgwBiBZqWH+GBbmfizNjlkrEslbcHrYTQDttrhumfPtYUOxSPiDQDuWtEd2bTC1VK+o8AQRkjhXkoAaYHOrYfBI8jGm0mZgxR5bq/b1HlOnOp6+E0parDCfEWJ5bCNpe1jjkGX4ns1hxyx7ZlalV1WOMX87Cl2Gdce0b7+GRY9/rtTLmFTXLbWCWHalISJCmtxH8369jumD3c8fhOnfeRNbltdqxUN0ZD5UFv9JkU339CGXiEdfaB1561h0PKAL3vnaa1j1ejKZHKK7dE1x7EkLMhx2jPsB0ZvBIBoaSVfpLzS4HH7dGtskXL9KdLm9PFVi/7FC1Zp8UTBjHbuyY1mscPoKnP5Tux9E2Q0r1rHDVvKqTi0Qj2XaMbnrYL7efwRPp9Vvj9iHpiy8te30TPXVsbZjmO5FlLz6KdXHl3Kf6OewY86THua+ii2SXF5vxjUWHxXrYOyj3H7QtCmF0/ufHt9QU/wX7iwTpjg6F9iJ7F2C49TQGEJLHbQQ2mQ6wyZW9BmtHNLbyrdFdnEtRnzcBsLkse5w0jY5oaokZhD4xgYjxlCMQ/BPthH4GDwKcTYa4kaCybcCpfRhjlehRUfWMbQbWF0uKE9MGtM2GFZDZqnyYmOwaoVmlawyZdrAut+gTVi1pA3adqzHoSdswGczKvDxO53YlOUVwLDxy7FqSStUREVZhTJsWl+OrXVV6Nx9E+bN7Izh45egob4MSxfWoGu36Ob1Bixf1Al9+q3G0sXd0L1PLSoqmrFwbg36DKzFok/bYLeB9fh0Rg06dqvDltpKtGm3DXsO24Q509uhblM52nZoRmU1sGFlFbr03oTlC9qg/5BNWLeiEh2712HV4nZYOLsG7Ts1YO+DV6Khvhyzp3fGfoeuRqGyHB++3h57DF2NpZ93RO9+KzH/467Ye+QGoKEOn8zsid32qMXmDeVYs6wV+u+9lt3RsuiTjug/ZCXKqiowf0YN9hy+ARtWVuOjtzqjvCy69L0ZY86chXnv9GVHO6J7eKKKtPWrWvkDahnOxSIjo17dFsWbB8EjTcKsTs4uX2QLRQLJ9I1iUsaUFqZbGd5Tyb9F+2LF1ylLUu92wC3XQZ9VMHMJfiskW1C2qi98il9N/2NRZh1pOwaxbGihggvrNEuTfsDGbseST0PtnQxsfGhm/l3eY0BL4BO+XqBGbKA1WLPwSLbTwzKJN9EljQUBMhZkLZQMUNJCdwi+dlwd022PJqauz4rLt3tmkCd5ksCVVqEQq2LyksIsrYv8QIwF7/T1+iRLrVSFgz4EzT42D03amL6abJ1YK93QE1tKtT7EdhqV2MaLWVpNr9ssg36Hr+HsdOMZjnS6vzD9QpYwWJdt8XKBDmgZLG1Fqqs/cHWuyhHQxaLNftdlzrSvXYZ3x+g7jkb9uq149bxnURtd5h5/Tdotr7rFMn1LWhxgyrTDthGh8vM/rEWWGDKistdJfTH0JyNQu2AT3pr4Eho32+8+07DQquPcN5c69yiGbaO6Ffdx2D95csIfvXGd53Qb8uGpokzSbeeffV/ltmchHo5Sa0ZJPlttWry4hJE5YuF3E/7BrNTiFFh9uMXXxwY35eVYSEW2WlsWrEN10K/jSa6RPaj8kW5oyMsFLf4UgCS01bRjZEKWFGJFKPIL9eJHGn8afItfBhDeMs7FSw1ds468vmcLsGNn9j+T99HOyNMFiAm0i7uSoppUU5ci+Q2hGt3/dUTvaCmXB8bQaTsCsnbzqiZaCaElFwJNA9l4Jvgcj6efkVcoUu31rprYYXmdrtuwSd6ZBsstPinC6TDOdqxF6ZaQ/HiFiYoT8yWRaCnu9Eg4ILqDSLtIkW4+yJzFIS3fINi0XueiMuemHlGXpFNh41633eqYyYkqnIaPX4PqNnX4fFYN1q1qg/Wr+V1T9j8B231zlyyw0vhoKr337axakybB4rFy9mHbA31tSZksr2hGxx516NijFiOPX4nn7+yDzeuqMfjg9Xjv+W6kIsPUpwDj601KUZ777RjVQQWroMMGhxdrPr+2EuGo2LP4/4gOWt4o2pGg3kxxLd3CSHosIzL+k3Go6AtaQy2eetGQxSPZ0U/avwC5IJ30jYX4IfbQZCzBX210yXP6X1Lx6sM6wRU6uKBB34SIEWN/WRodpHS60UvySrVN9nKNE6+HTkrsFtugmdck2HZM5FnMQ2PzqG+cSTWXxf8xeg1fI/vrzdO1LWnvdOL9HiMp0S7k03llv9Rajp7qP522jOig5SoLUhjB/2rTI83e2dHQ1xUqW0mDJJ/4cFKJEVv1YaDtdB7Bs9Xo+ykLlbK4HcE6TMbEujRS9Mp91sKE1WLUJEIhiZHkyi0rlRW3NmGVJtChw0nRtc9o2wEOvWE4BkzaC8teWITp107h90URD23jCfdlFj9uNf7ugFerWjAHpLZO2ijjQ102q5Gky4d+8t7bDvt3wsGTx6OxrhEzrnkLq19fESOS7n248Pgl3QaUfyfhb2HsZYgcq2SJ+xJxdTTVFtfoz8R3jfT4XFsW8ZQJfTM8hlZxzLMNYRjKOUISwWrOQOtmTasn7YygQf+PYUQMLTL3VZrQihnYM6NwxeGjuHAaFfsOiWWUkL2br0I4yHda9d5tRuVemHfza1RieHZHbHRfJgcu3VzT8fndmnRN8u/UNnKyksF+fDetnJEMzVPCPGZpbG5E4Zz+ZyfGVCZT9fQ7at2oyAU7MFeLiwNBoko6FvTliLivJtqIiiEsR29isDVsxArol/2IgAnZ1I4ZKBwMQxA3TjvZm0QgDMOAYxZy6Z43+jbs+TES/zbETivBkDh5Nlpq0kn2I0KtbKIu6Zo02j+Na/8iDE8ShKOXvdTdIgUJiF3IKpqTyLrlQncv5thl5U0YNGIlZk/tjsHDVqCsvBmb15ejvBL4dGY3OxamHRN4q48miCBPiK/MzlNrxAxj/KUUS0UAJVuOnzCBqRJm4GrHzLZRjI1moYCqVg3oscdaNGyrxL5jP8PUx/bGlg1VaNdlK1Yv4ndx2f7IDUxWkx++8RHgGlUQJtYi32S8XEge4Y3XYOqgBlDLjkz7sNAvEQ/dupg6mK4JzN9Zg1RfP9P1CvpMGyYmSMQvYpOjncOgOUBJWGzyDXtHildSP2kcb8rTN4qJMupYt5wiTVqE2X53gJL0a7HOObSJP+abIXdvs7PaXLOXayaLPXZMTMkHtfgaGWjEdkwqmwEP1WlFQhiGSTh0ey5JS2KdxII+8fsLmWAKD1A4ZYEBShwYEErMRZB/x60SAYQRrBlSyv9J7Z1detweVU1IRcCNHx/fz12dP/wYSdgM0jIGX7ERkJRzykasI2JF8nvjcS6BSLdFR1QZhLSX5n2d9qgm3A/ycVWAlM4Zuc7teWG7z5Ok2zpTo5U8VXVthXGPn4CKthVY+tQizPzu22jaSr4go5WcWAJqpx0zfI2NBMIm3YZZDbb2UHnyyH7L3m6NMzTDGqFEYlnVpQrDbz8cbQbU4LM/zMZnN39Muup2Mkwq3HsJZ/JA8ysERzphwo4Z1zdIqo12TPUS+y/77sUlU7Y9Vaj/3GF7WEtihOIdQdkkIzNxhI/DwrWe/p2lSuReS7SQv8udHz/OrI6oSdshA1D2b3aETfozPpf6fxXic98voka2PRZeMOZbPLpOKeGr+qv8m7DsoqKJrlITFfG7JeHAaY8+DhJX8BGaRfKGj0Wrjvy6HNZCRdESNc2eSxGmomyVc4s6i0feijg6nqkcGm+aUTi3/7mxyOjqpQgIdUhMuVxvIGOh820fnO44gX+as/EbPdOUhxplO33++Xg/ZVjsm0U2jvw/uuGzMJU3E4GpUSGneOmgjBpvKpSCShPsUK6lVceq6ggb1mEIZpJFiyu2KXE8swI/tg/a2xJiBd33m+gz0H1hYoXaBpPqm8PUGHyKaOjaezM6dNuM2o3l6NxjLZZ+2h2NDZXYsLq1M50XiqHavMiFl2Z7Z5QFCazTjwyk02ynNErode23Ftu2lGPc+XPw8p2DMXDkKsx8rh/qayvC7Lk0ug69iNU1Hk3HSKfMPqUd1SxPk1TIJ0xktKH8FIXIR0gbHzYJNIR8m5bZ9GEuFGPHGO8elW2Ur7JbLsF2y8i3PjrWNklI9vbbvSzBcdKHx5Sl+884WyrWYN5raPROvNW3JAO1lZm+jM4XqIlWyRWThHpvl9wWo22u/ZLttVZifIFX/Nw2WKwPNur8ekxhTbRO8IPEmprNI1pME7EJ32pHI/2LSK5dRnL3EoK1hqVmAI3XWsbdK4wKMoEpIy57lCa2oX3S7JFbc3WLyMeQG7pscsFHytonxBsbDHCAZc4s8fDuX8l4obqbbmnDMNBWbuqwx47VDGyPYTcfhtZ92mLli0sx+39msqNz6X9khbSinobV7r7JSJNWUth8r8xvcl8pjY9MCHCDQfmjwmqCrEww0LN2VFybm9FpdDcM/I8hqO7RGmteXY45P/sADRsbeCqBTkvLLhlJ5BU1ISSJhxkskTt5BC08UcLbUduiP5HjiBZxsTpPHEiJUUkUjpBOjxiD+DuZvJH6zUlSVHAIRZFGfHWw4qeiMcl9dT+hqoIxX0xoaxREaFU2MXzJN6Lx+Im0kGPdVAyFALmPYaZoaNKBGgczdSxC9qfp9sCmWeE9NPsv/hGLrOuFnCN/4jEQSUso/JuTWlPg6ckMquQpE4fgS7unxf56O9tLajchhUkDJpraHvQ2SXfQdDeUnIwqalA/C4MZYKyzzIArqWDjO49ASq0RdUfCwMoXHhq1ukURBjtMaJOthHkzMjrmFMptujFMd9Cqn+5cXNVhLkpThEQKOK12kwtxTBod1chyppZxiZacSHdpAObHQuFulztTXUzDF2IusqgvBcjfT274swStg0fMxaql3dCl5xrMn9UPzU0FbNtabq8adVXpmJWMtLAqoVtGFVD0GeuyqCpLP5nmswRhmhVeU5cQxUIB7btuRkXlNnTsVYfy6lqsW9IDK+fXcOnSjgGmS4vORbkyv8alyqsMpMxksnN4LhUR3YmKR2rFbTqjbaDsMq5skdxQub1ZEi07QnSm7XGJuF/H5RqSdtKKQuzcdV1V/scI9A0R4C5KPLSZdLmfNcmS9s5ClGlqeRM7B+SU6VgHYhHTkr0qhVMYpuGqlePrtWTDFa86tjUSaxIoUPGlSUVNR2g/QgE9ZmHokcJdKwqPbUma5wjFIqO0Eg5RXaU7VLt/i1ooGXFbt+RIJkBifAP++OxTTJZeuRAjbuqIsRvlto4/lPbJdxxD953pNkyKCpVB33GLNKlO2wknK1g4un7LafLWol2JoETZqdDgwXQ7Kko3/ZwIwTVeqbCYk0IDaKkv0S+qE6t4ELzlvzRDHliJW5GkgVTHRF0EPa/CRhFgxHY4qnTia5C/8noL8swYwzAhjGxb4kiNx4MQTqNAQNxpyifmK2rVuw32+eGBKK+uQMPmbZj/t0+wdvpqNDc0xXIe80EcVyIuif9k2jHyb+5/ksnopG0Ks81Je5Rm5YSFTFQkciNc3rYCvc7ph85jurM1rH1jFRb+Za4xYBhdYa30hJveR7/L1HbSwIo14WXoxdYMQ/P4ngNG3asHrDLjJeJJexfAz0QTSpfb19hHFlrnSv6aw3n9im0/5jilQI2z2HOrvIF/TfYL2/34uVskJDJlMCUZoXsJX7GMa7JiPJL0zT403BKd/MWao72JEUgAACAASURBVDFS6IULBpxvbBmEETIy02mmQBq5oDeP8QrFXU+GUGkAGEFXgDqz7sEMtiSXqH/QmUI3G7qZcQuCK5toV/r09dmFXRPrAMeV2PxJXy+OhcVnfH2SKH7nht/Ythl02DZo6RVMajyLWKeaU/1HSYjiZNoGU0m+MvM2nsTBrKk55rrj3YRJlflGKECyExVzqrqkbfstGDT8cyz/vD1qN7TB+lUdtE2Ob8Mv122nIolhiGjwTbOOqK9fQm/JW664r2OjzqG2GcFmdO69Cp371aNuQz0Wf7iHVtZu0pTJwNIPphK6QuyPrY0MNGJ+BOizsnfpaFMd1O21Ilwv7XWPpzDS/xZGgUI8HWt9NF0Kk/qUJlsqgBMrJxdPx1jYEnwW/K32zpjc7h30wfz2T/c+VJPSsKDohnmprFgqDFlPM3jS9g16WTBbERM3QZn8uxRBy1gadbGvIXJnCwwSfHN9nEUh6fIzAZaZkWhPEsShtChqoFpoGjIZUoswWbMnBGZt66Dur+PXRvH1MBjlxp8E7VKitGMXtI/4u2YryJULfGo+J2WdduGFfNEo5ucvsRTRisUW5ykIV5ovZ9Tb6uJijiMkRlySrThgVo+YFkMekRJ316g0iNO0mPbOQQkpVBFJHW3P5POKlt+thpZW6rhRds2mq4wmZBJQ8d9065PJfyZiDGmNKZIqeZ6ui7q1y6K3RXCA6zw5/aBtdnTyNV2M+lV2rELPk/ui29G92Dh1i2qxafZ6bJy1HnULN2Pb2no0b5NJN79XNafzrifD/Z3StnnHJC8r+F4MKGtVjuru1Wi9Rw1q9u2Atnu2Q0WHSjSs24Yld8/HxvfXoameHKOMJSzsztBUzyXEQflrIhEB+yqr70zoLf2wBfXQBlrxvlTpVagWFePDw3nmtgaa/jjw0tZg2XvHRaGx36f7hXR+WBN+Fr/OV8BxtZHgllvb/oq2du0I/JqgJEHpLvWpoXYsLY4IiTFslCblzk6NXe6Mpxa5cCeddJ+SLv+Scr2VjdLCRf0vSPrdIAPnE4BA5UiRB3uQZ7yA4K4kLqFWi3SIjMBRAyOWM/E03gGqDTi7TM+MkeOaW0JCxvWYzdOSDcW9SQtz5XqrNN4mRZu1TrEeYQprcNvcQ2l+XPLJ+GpCbMvCxoqxtilihiOvSdVMN3I20+hXaMkTmslSI7VuuwVtO6/DmkU99XjCSko28xfTZvtiVUyCYwVU3yyVKaw7Pa5klFrTpLhbjmyIqoW3qqlD207rsG5ZNzRuqwhOcEu7op/pz765CkVbt1jpa1KrI+1MrInOxK3S7BgZKv2uJmlzUzZtRO5C1h9Lj8OOJMMYm4GgMmgJwoins6h8/OLaFnD7ZC923KbboXbL9LSWhAxPY+g+LrGtknqYNjbpZAtH2QyWqkvVLa4jiGp1VOVC7BtpTQNfNCeHfphDCZt2Z55oF7Xns/C7sdSqxcIIXnIN8Ryx36fbRZmaMYDWhktud7SZ4yoKof0xM9TM7BF9aSOMmDqWQrJqVOacPjLpU+kWLt2bWC1B6i6E7JgCauTkR2WoBtglSrcK5su7FJISd9FYLkC2TWm7w4baHepLTNNgISd9n2KuLowroW+zY34H7b3T5vbvtpK9Pb4mgT25T9H6cScXfSrFGuITFOJ+ziRlOqyP0rP0HZjP/pv6qm1XrXAUUDOoHXqfPQCterVm1Um78p/mxmY0rN+Gje+tw4pHFqNx/Tax3Gx8otZOep2Qm/v8s+g22Nne9pJUEhXriehN71smTkYbwiYoln1b4nSD7YVbmtWPJy3m1XKy4jhMVkP3sHZvp79Q9ZXQGBQ5/AVrFZOlTnNRnjhPN7B+vDPfH5MNd5Cfz4JauMTqLd12LNSGhXk6gUPYkkhZaKjlpwMrys3tdeGSAReJYnzFgdApEm+2PYtJluBlcLZMVoz2dA+euESclqwTlvguGycb9DirGyCcocklaiY5VX5BtQuU2zjoNlEIGlVag092CkxRsdXXuTcqdpNkeeWmGWsROtJnKZURaknSYej00BcmSt3StxbpWFD3yf9us5Np1RXpRqR4HYxoqW69BfV1rb0mRceC3KFmYk1EICE+5ELYeMIQ3SIKEIaF/w1sEm9dq8oqtjHhbdpWacXGN4PiMbmDwThSoC5cVAtk/RhL5TMZBEe7fqpfyiHyFry9TGVQlyTNk75XklURFtkmZ6s10yZnob8bd0IqaeQHJThOCWoSmMpV6vqhLtd0pWeSGCZtENW4hC2VoBB7LYnzBxSUT/E2xVFFaB4myRaYUZtBsTKBjKWY+h/RyLJEjTO6pQpbfZrhoFin6y3nerYL28O2TBqHMl3sTnrqikOqY8j9nRq4xsoNoQvz3hzZkLaS55k4pn0Ix2v+HXLi7qfoTpECmyPUsJaVTRwI6YOSfoXQYfofm+kxjUDc3Y+2wtr+uXsbIi0/RpKkK5tuJfcgOp0Jqxgkd7R+L3RPymXaj7Nd9sP60bVJmbHyxeHZqYLbvIld6rPTlqbfzpfSzUBZZQGVnavRdq/2aLdfR7Qe0BZVnatQqJRJfb8+75Qtoq+E1TWiftkW1M3dxBJXW5duYUks7QikQXwo8s7EsBEj2nUrZZYMfoUWm6qPihm+hv1TzEeNurFX4TKiUxuORbESEDaD0jvDKxlfRw0bLZRWauwtvjO5ieI+VmCd9lGxsBMpaZbBb7F16uVY9qdJG2fOnewXgnX4XkL3GaE2PTSlSKuyGN22F6fUOAsVitdI92NGjFq4dMAlib1wnPlMORqmESLwtoOa/tS27+HD6f3SGaZW7yu7IyFoLPDmJXcuB8lpTTd+dHfIWsbouvtpsayWChZI0K6MCBcViYbaiVEff/zqZW6VUtZkHNTyYmcB3ZRpU9HptQUu2k3hDlH82JEI4bSedQ+1w5oMmJ3c0u82n3qFhmZ6SAKCrVu7dJfPpScxbGEwnzmmLK6OUukFugPRTZ8WD4pxZOJDzc95YCZoxIxsDQU0xyWPorhSAKLvAaIjGeKNUnRXiqQ8sawkzupTrWK9Rh8le7rkugJLpbZJHfSLSlIqw+U01I0oq6qjEWJZqSam67xpIQxp0n4OW6NLE2y9s9Q7hPkMP+9sK7Z4Y+nRnBVmLq8TQIG5mSPGkKpRPFL8u+FHTDURws7sn6nogYGrSX0oz1U7v1eipGkrYoMUq1t6T98+RdMQGz8oHbbBpK9hJOtfDKUbwAQPE05R6bn+tyy+hq/Gj7ycQVSlEtkO7avID5UMtQdzrcg+EnlKLnH3z5pu73xyYbLHrc06Ylksbhasw4MT6i9k1YYfLdf6bFqoVa3GQFq+lisWSJvoSRBqnwhHEjYrSV3IihKYGYG730KHczNES3Wa7b4mIXfO6k/ZUuk8K6IVx+y1AII2Jful2My6t5PcnlhiG3u5MVlhYEViCB9Nb5DEOosmpceCviRJKL2xFpL7UjXjbBE+5fbslZKu5I6P5nQ5pyvS98yh/bKgn8WOScnWX5DaqbJb4ahtctecxfbbZrPuTGzXWzgBVNSGy1OgvXDMyXB3TGZdj984Gi3cUmCbtnDF7pcaFVh26txPVUgXZqa5GaG+JQ18mjzQEgnmOqlBFRrMjy2I0QlxLIklnFBzk9GRZUV4P/aLmIf1kRt6BrkSXzUC/5tSLt6ZPzXrKXh/evk8HTHhC8QD/d2/nmOV8+hj8pXQ8WLszUmIbLKfXERYklMcUts1l4Z8Ot9wGFIgwNBopX6NXPkQK5XHgZoOzG9YsxhiWyLBLdlsXcKhhxifdK1UOkhENvZz2jq1XaD4hVpiU1AMOWBvoM17Z0ybmDBJtgDYhX6YFUmaufR+cu/EW1Hrk00qFNV6siR9FJ3aVH5LXsR64jbobqcYIlFhoX0YN5KU2DcYpqCEb0PCW2b2mLE/1jdwBENii2J1cF0iTh28rpacMPMZdT9CiLQPkliXo/xnRGXYxjNMJrJoQ9KHh0lLTAk51mAu0zsSsVnURxiFjXxYNpj+8Rd3O9O50R2l7TidXd5C0E636SFynOQA7UXHT7+aQIlmuseSAmxpRX2IJELul2wVCEabeD8mjnByvmXR+nQ7GYq1V+6UQGl7wHTclJKHroju2sL7ZNFev3zJarO0agYz2SrYllplQ5TST0SiLiW9i3ncP2lwQ6b0a6+/hb7KWD3o/osmUlOq32OKYz1Syua0Y8ZeOLFnc8Cgy12APGnVnzaHpyYKxczlC/TnWUZTdjJaXyQjTkpNOyZtGIUixYfbfI01CSjfU2hV7+lrann1ZxLZ8J1whj2smCbUbtn57edv6Wx66EimEPB+6Z5Hrk7u2UIPvNoCMbft0n29W2/tO4awFWizMz0Rswo7pqHo0RE2I9GtQpkci8zCGnn2OONbjY5zFXwIY7eeYu9jllBiSQAmWRuNWygr0xN3ic2JXL4SCjU1TSQQmMRf1RNdZVyiEleYSUUz3hzK0I6Oq4uhdE4SK0qzTpT8JR6L/cW2RjGDmUygyzXv3JLsUsTxv5kbxxQelv6npDGw4Zg2rzYCld9AYu3myK3UdgPqOPNBNyCyo23zbqW1pZSlGEuNBjkP1ZtA8FKbpfG2pePrY/tNqhtLHyWhY/vb6TOFUWRmiaURIvrv0Gf2ON7oEjttblZ9ABBV0N1D8AoCZggby6l7GfXHZ09CVLSYoNE9bxLZbFsSPnIYimGtwrE2JJ+akxTZjMv3yRe+AgRFX6MjgNDAIECyYMT2oipk4rhNNvzCWiv+Z9/I+2cItU26FFLmpQeb4fDZZwiXXZ/mqt/9qIRRnbL7cg5gq8JJvBWMetuU3Hxm2Oviscrij7O8OQ/DsRjvZxs5zfOXiud03lDd8a0vlTY2ieUOXclsUwZke1rpQVUrtV8KvyxEpsl/qfGWPjW7DcxqF9yUuy1UFjm3j09dYxbswtuWZobg+eS75sSXxy0v31LKUNLnExzRkiAGL0zZNxN+wQtK8x+lkQy9dMFzSossU38FnmVBSYuZRZKLbZtEyy2bGoUhdsxRKe/bpRSGF/azuNNil5j3KwYByWz238RbafV1BV0olBtKpvekaogefGBNRGTveBRRz230TB7lpFVDWgWRdNZ6/ZmaV1tl/KJCrYk4e0IpO70SbwSi1ub4YY5OQMAbG1qh7imyFOcEhpAuKrT1OXeqekWFNpZh16QtSJo7JQ/FyCAlTcWQKc7TlhHQcM1ikJNbRZ/hCg3tTSyybAfcWIfInH8FxfLJREs/gmyMapIR/5u4zzjhTfrayHcFYrbNRsjinCKShUv+iex8LH7zktBpPwnaS9jiNSNgImcT3V84TVGmKXRkS8s1svH0Hn/JRLR+GsBrx8TYXh1xHNdITUIWLwnhPSlXSsN1iXZp+e3yaGG85YFysV4hxJ6H0RHSqhjLY+d36XgbJk9hrZIYhPULaxWCMLEdtrg7bYO13WSomNcXFiTTbKEr+U+BNe1YSMI1IoPuB+Q8RuTo3C+VxH6H7cbCWoXIUOlSbqWVa5OZYaOXbjVJ3dIpKI4DJRGRVLbSYyOEYtf+mIbiaTrChlLxW8s8rN/Kh3E7RL6ztlEVZOEpuvA5gr0/SbAyrPMEVjjIecudGwEVohE6rRofYs7T28S/OixK2AyCTof1VkOnqbflt8SjdPOg1qKnLxOOidz94KItHiFxT4TOHW735SiW31jInzyyo44Cyj7m2uhYPPnLEpTC0Sh3Q78JoeiQzdh/RcUjpdUqYx61CDviZdv2k48amMt0JZhs7RzP4sdpiSnr2krrRu3SWfyGvyge7QSmLXEBKc0UFPWaKaHBJV1l/HZ9++8+w+i2HU+PewoshC0Il+DwlpTI8F5Ry+2T7A6nwQdvuv/w9ea/h3jEsJFslrLYnma/Yrlhx1o+zZ5aK46OLBynM4SFXVlGD+GHpCB9XD04DKM0ZHZTW0ujg8X6+pga1xUb5sIzJKvkqXbWxebrS2K//dLhb5HGt6S0FDtecboVKlOBVBEiitmv+Kix61aYxrm2fIEr85Fm+T27LfLaAeNFbYm027kbzm7hi4AppYv0rtuLDiWj6ftyekBE1MSIQIvc+SOZl/aSnApbSrs8gVVaOcpHyxHIEfgXQUDbeFi+rKXVCgqDLO1ysk6RhHmsEUkmGqc/Coi+UMRdlbLzkhrx3/gH+W/eVt8sqX8l12KMzLyRokk5J04r/2YS9Tp0bLp4sxI0uS1KHPGmO/BYtmwVpWZQov5twJF+jNt5xFsmVG1hL129yQNKh20baAvujWcxhEVsI41dDUs8RcfuaOBSmh1eUZpvX1G2dZp6kJWQ8NnMnVV4zxCaWjaa7O1mZsvG98lxyAq9oUfoIFq7aF1ZRbgUcmezBP4gohhq5Uyybxgnw1plgzwbBcKXZSGEVviYIh0HPwYVFFITKvpv+XezoohAQKfMkpDKssQQxDU6nB2KnTW8X3Z+m4C7NcJKhY2XxuGIcOqzIB3SNtkmi4z4ZtCx9vgaG6wpic14NL+B8pEpfs8uGcXzjfcM6++3r2G6FQhDaDNNrsVeMv5IlgEpHdOhD04HSIbSSQtDT2mv+SWH0IXuuHZ5AmvHYZ3PlCOQI5AjkCPgQSDLViURm2R8m5x1ruQWwL8pYC3iZoHtE7uT5FaEpbjE4NF/+F/l+DJhaVYxRs+TyUy5CVd48L/JmyvV7yZi4t/sTkuSdBN3XMapTUEWoUpsSCP6jL7sol3z8DmlR2EoeyboZ2OqJK/8THlWfvuU1c/NtBHc0tSSGKM0tU7bd4sfips9RPIHKD6+hQdD2VomtdTPydKsxr7iUJzpp80TpspVoUuhSWsj7VJRVaQp6yrK1odIRnFt3FibEWgoV4qTjNDRk6u097TroB+j4umwjV0cFfzC9pCLs1PW40gKxf5W+xy6WLWtUMX3jJCQUbT9zBDeNqRhS6SuOJ77e/lbhKwspQ11d/GmUl4LoLLdpaYjiXW2GZScZOvXQrTs3ameiL/HsAoIY53xEBC6mjyBtV04mQ+aI5AjkCOQI5AjkCOwsyGgNkd6ck97biQE+W8pFY/xIvUqPVppScfX/k52a4lD3Jaj2LK5TGAq2vRtX5zgJF80tdGQSGfyXSYJefR1x2OYd2CavURDM6Gmr5Hgqo1n0kD/nVwFIdly36fBPQNTrRqWvHR20c1ZbWCiYUaxi6OhwOoBu7aEbuj13rpE+1NpxWgqpay4GUx5KoYKJR2JL97rd97JwUOqV6K2MvCSkWYccWpKWyTJdFD/EMXJgJI//rcWJnPIu5jiuG2us4hVCdjYSwnGH2HgSp0g1Ugtgk7Sf/skpEzeSoF10+r8JcFMeWdUKV6HuOW8Zaj6dcbfwmar/b1CWnDksmmJJiesK0Eoi80ygTUrTuXvGXTGyauMwl08z5M98wRWiCTmbXIEcgRyBHIEcgRyBHIEcgRyBIpEINqC88QirYSklZQinRgf2aY1i+rvPF/GR1NVkjyNw/4Xf+Wbb/qjNipxyH/nf/jzMhKE8OrHeFRSsVkmrqUUY5Jj5fFq4spLOR+lWQSLYi42J/tAj6zTjP4aHUbX+yjK3aDTeEwPc9xfX/SzsIgA1Bi0uPC4uF506jjPFnzsyo+GlJfQliY9oQfAQsdPcsctBb4xM8bgvuEsv5NLxGliIqUqK6YprXKLJP1pjqIIAmN7YPYtHtXiqUj2LCYdFD6/PaliSZiIR7LoTquAMh+aySGqlOGktbhl1iqtlvHb39ubwIoTdd6W+SXuLZaOfIAcgRyBHIEcgRyBHIEcgRyBHIEcge2GgJnaiasMtUSNbKUCoPhJnPWwjkTotlQdsr7mPYhGjSWJufQRoqHpnCSBKP6a/DVJIxslnsOYO6Zer5rRE4AqealhYlYUSlrjBIleNxn/S6tmpMlWvl6NE6Kt/qwQf2VcPdeRMI+Hu+hWKWE1d7IvwYYkeW0SEz1T8mUE06kfDBGMMCtoikom0qxHaJplu6lf6sC61JWWBiURKWk6qnsyCRLzwHKJeERiMVVNdGyp1hkqmRIJQka3P1lD+2VrbfbUF00lLBslxVPhk47QkfMKLB+S+e85AjkCOQI5AjkCOQI5AjkCOQI5AjkCOQL/UgjEyaz4fsZo+WUimag+YqPXOdI28j5JkuQTVZisFfl7XEXJEI6qI/l/47HjtpbqRtkqrmqUFZlkDFGU6OxtzBe30xJ+NF2oV3xG3XlFJ01JRkkT/qkf84+erFD/siVqVV9XL9mCjOOZNZks8Y9NW6T3p0lmmi+jSVqXKrUsJZieBApNEWVT8/QUa7bjlCEz5wmsEJTyNjkCOQI5AjkCOQI5AjkCOQI5AjkCOQI5AjkCOQIZEUgmZZwJrHhkfwuenqN/XAksd+LIni7K8pTPb/awzZiF1iTAPBEUfZzA9Ru/647/MQvGZB9f0Zj6PdlSp99OCZ/bnbRKnz/tV1WFVxhYNUDW1lnhUB8nziinefNdD4Fiyi2lBlEL49OcXQC5sCVSQMN6OKGxVdZmHNJl6BJzesf1Nmgxh+WXZZqb+aWkylBu/7lbTPxONYDieibkMjXeqRacE5MjkCOQI5AjkCOQI5AjkCOQI5Aj8KVEoIDCkFaDWAJLi0dciQpXEoKm+iQQ5sHKHQ7QlyPCokkDG4wmbDZYQ5/tOBakJWZCqf3CBcgNl49pLn2gybwdx4x8pl0IATPJWDot4SlB+eYmOJkZgm2oKS7dYjxUpazOQqvpDoOWE9QoBLwWtLE69RTC6E/iA0+FZrk3KI45OwMMLUAw75ojkCOQI5AjkCOQI5AjkCOwAxHwH3IsoHBAqyHxHtNdCLYDqc6n0i+WK2GRjg7trhNa+PJJu45I2TLLxaxuuwlVMcTs+n2ysq2k2aNdH96sK9x+ScCkhaVpn+JSQJbVSdOdaUBT5zN1zgrxrtU+1VWW0o9mV/z4w0cC8eiOaUcpfcl5kp1aSaSflKLH9g9dfIusCeHiZypZz1JKZ8mIygfKEcgRyBHIEcgRKBIBmdwqDG+zP9sD0WwX3R/L8X3PvHu8rBOYA7Z4Y1aKVUZolJywIlm4K3bbKbetuyLQiTXZciw+nXfZBrPfF6cxWVaVZqB2wApCSKVk7JRVryVUFZ+59mERkdJin1HC9fwLDOVimWSF6T1NEbZpYIKNrjxcaNWrbdI8yndIpw1s2rQYD7EDbOm/gK45l+hRQlZny85cyM/Sm3W34UlGk4YokEiYXJdSeyVOVQTzW2WKeb1O95MZXiVY7UFSFyiFwSJnGdtGZe66ghHNG+YI5Aj8iyJQOLjmIG5SvRkoN0L5/s+Cjct3yqYhJ+lyL/YFq2WJJDst6ArZz6fIgS9o9MX5trhvx8b+rsxNSyPSDBvWL1jK/uWnN/WDAhJiJ3ciAFtkMYrxGebav7Q+w5expJuUUNuwfSxZMZRK6s2yeB/LNfa69MTk+U6lMy3SiJ1Is3NSSo+Ab/di0/kUOxAPF51/JnK3A/Vhe9gGiTtNF1O7URq+uDappRl9e1SF+rD2WZ4d5ip9hHggbmH3bAyU5Swsyy0RKh1SNp6VbnRfHiMbFHnrnR+BwmHtRwr92KFq4kemxOQU4ypDcgv+hRTRwhfT+/by8ZTm9ph2lJt73zMVLISQ5duoU2dcevNYBNY7a5cQsOmOxrLL2Wf4EPE52+21yBIr6fYiM2CDkKe7viDwi502zbSlFdOZtnPXEGErit6lmRFRsbzI+yW+teMyza4EVmmCVDOsLWlokHN5uyDg1dLtMms+6K6CQMhG0bYrT9s8ythg15LNTz+ch9pNtUnGh4RJ8afOdhW5SVlHlszgF/8GvOQM4cuPPxMlqlX1f7f4nD5VLXNTYK6oRGpoTR6yO05lNa76tqGKzTN+IMuSNKHvEkrBLApX4ageh6fCk46duWGi5IW+9tgxmyzTXHtif7YQbe0lEqIgBob4JHr1fsF448Qm2TG4Bq2n1I18BpYxTzSSbxIYHGlM3LnklUKWpmVp0N4xbTKqW1eXGv18vByBHIEcgRyBHIEcgRyBHIEcgS8FAt85/VuY/e7HhNbQPb/qwiMIHkLz/xcxBRlKxZbuGCwkOnPlhrT7fshqbHk4M45QdNtZxmiXoRNZHlkwXzVt4wutElOFBHA2yoOoFx1DskLuNk7sPdJjLlULzWnSwQhFpTzYeWhJCAgCzbSaCzX6PPkSzb1a/RfxZR8h9zb0qH5IbhVz+DvNoGgJrGN6jrPkaVwZFHPYkEyLrY9amvw1dKQ00TcD/RAjkQbUF/ZbS8FIwqstJXR4kzcp+seb7sgkn485IrOs5/FcaUxqGOkivrQSxNC5c/o/8gSWT07y33MEcgRyBHIEcgRyBHIEcgR2WQS+c8Z/4JP3zAQWD1xUHUrK8kMDJzNQCsmGBE5rRjA07EorPHdHNXxReqTjSzCZo9mCPzGibyjZlWJUgrCr1EmTNKWwikV0H2CcZJKxsQ+MDLjurFrqWCJ7LPEQy2T/Fn8vNjIvHNtrPL96sdBMClRC1MQHdgmksFgmFYtGsfNZ+6UlAbOYGtM4KFxbqg4uu0o59wVyMQM3LFjLG0Xl6wrtTgRDk1j+Sj2LRyPpczpDiORb83mkDHlH4HrXe/eiulVegZVBkPKmOQI5AjkCOQI5AjkCOQI5ArsQAlECa/Z7Hxkr2g478RYEZir24FVOkjozVssSQZp1BdmSVbYUmS8CYgGVWgBFvJjUgrmAImTSjN+KwTUECUWqRQhoFocNRjM5Rhmbme2Ra7aetioCkMxVc+FzWGNlmtAzlu2CIjq8yJKr2gEz3rlQKHD9OG63I2LMqWDbdTCDJGVoGg6NpWWIQgjJ401pB7lKG7HbwbC1aKGOtYdkoUo9rzZeGoa2iW242rGmI4e+xPgScK203EiB/848gVVarPPRcgRyBHIEcgRyBHIEcgRyBL5UCCQrsNzkB8cevmSVEXKyrsqFNAAAIABJREFU+CQ1NnalWkJjqR3IEmumImz+FnS1TuCP+1o6Y8oMpQiBw2DL1Moky49Rcnh3H8uis+LAM1FMIZhKsIwUSS3GCT736a7CcX14Aku7xkt0bEmWNxPSO6JxRkPDSDINTQYJCMmrNZf6djMfjiZDkzWOfASzBEuOa8v9xR3MRnZiaLEqhZcmqPjf5TV68ZHsBEvCU2E+YHaG3ylzKD18lWl5SnkanyOlBP326ZPzCqydgbU5DTkCOQI5AjkCOQI5AjkCOQJfCAL/xSqw6BHCbGSYIaQMEdPi5DiMJBUo9Bk7/ERPmMn4i8af2gSCCi34CYk2zQGTwW1zc1M2QErUOs5bkPFcB2hkyBqFOWmrNsNYP6nFYGjGvBkSBC6CXGS4hCxj0qhFMhzf+8aJN+N3e142EFeT4WwCUYJIExLGAgrH9zmSz5ACUFkZL+bS01xKfW2E80QFXagYIX6sfteDc10IzLCe35hPVxEpnWwlgv34rjFCQ3MzysgdZHEmvCBSKobsqfOZ8jStKmVjoxLCbOenFduSK9Av4XMlLvwq52sR42oynbFOWE4pKJJXZqaENIvPqxKsLM017thygJrwUwMuaKB007PMpnmwiSzFhNLmbMuw4b9KKef0yWcGypq3sfGOgk2tSwj1aVaKpqb4WD4D8rc378wTWD4lyX/PEcgRyBHIEcgRyBHIEcgR2GUR4EcIeQLLtdPWY9ZiP4VlSRMksjQiA2MrIrAdH5NBJz12tgMLIMwVFZ0IMfJvcRwui3G04NAURdrZFlkW+yxM5LdLwYkZLkpSSPAaNxHPaGGSFObEM8tZM/cqbdz1aYkZfaYyzg9wFoEipBUm7H1SMv9ky+qZiTQf/Wa87l9CQIuwbB5PKFEGqGBfVgClkW8mZahMxTbDlRFxdQ5Y3Y5tEqA5hqmPFJjbVsVclSQVSRUCrEwCalwTXdPEacfiEDibgItJUlJjAgeh7tEUID0Zpsswn1BxTIGYZnpunXInqlpVZaQtb54jkCOQI5AjkCOQI5AjkCOQI7BrIPBfZ16bqMCiYWpxIWtg5E1elPPNvAginCVFli/Lt5zYIEb60hkhob+MV+iETnytEBolaxKzOP6kZzFDyti0KD4Ih1I38uEaY2a7AN5ab6I4oeU1aZiZWLaRQTQiS7VmG7WSgzZBLE57UjEOUK3C6UNOsSew0vjtKiYxJTtzoG8mVShgkc7zEkfeigf8ZrJKr9ixVaqEVa+kKhvFxtRUWwLrC09qpeOaLAakuEYL1DGLk4BassqfwGIjeexyqY3Gdh2PvlXJcEm8oknhqhKuycqqUBEz1e3W129HVX6J+3YVgXzwHIEcgRyBHIEcgRyBHIEcgZ0XgevOihJYs0tGIK/ISXsV7woGfSkgg8S0WgPfULZAljxzJVVU1KdHKyGxiK1vOuiuTIUcScwaNxO4mjGX9m/R16xS2w55FtvadjiuckL6X1nyoImhkThNYGjjsBlZ7iAQAzTVnsAK6MiasMWT7GcL1pUUYR7Iuz7wqfHJuLYplPyStSs5f+1oqCQHFzLVSh5+S6sOUojZcDWxoGY5NQ/psj1Uacy/Z05sloxTloFsC8gyH8GVZc4NJbAaFv0jHcFYZyELQJ7AyghY3jxHIEcgRyBHIEcgRyBHIEdgl0LgurO+3aI7sOxgbK/de3HQ75h8TUjWLEoPFBPoiYApPtpTHA5xrx3AHjO/WPpCuWJjVLJ4WWxRFE9ayAOtu0wGFDdmAusz9j01TMqsiQqSwBKJO1YRFZdF8iQXa0XO+pJbpXgejPy/TNLodSjJe8XDiC4OpKBeJpKyk5l0p/wylSm1zEvvqJJOciKa4OPPTFz1Z9G/+MXoLlLp8xbhS7BhRoyuW5HP/2bDRz5vERE2LpqE2A2xiXUmXM3PhZr5XTElq0QLwaIFSeE8gRWkyXmjHIEcgRyBHIEcgRyBHIEcgV0Ugf86+1p88q6owKKHe0oeZxQPYFFhpRGGs7jPjDPIGuPYwwx/MuNQFLUCnLTAuHj8RCCciCtpjkHmxmzXQNP6A1/YasLVglDNWHCJcNWOqQpqw0LgohggqbZR7+K2KwQOFc3CWUMnsBQTPZJnDf3Z/Ud69owlJ1iALhIj9nyAnqjIrCRFYbljOznXrZ/jlRlphqPgMn+mX3mvBECpBJW7nQpCKq0+aSwqWeWaQA2WnmBSGcUdgpupvWmOkh2ntCT4QrXXI+V/fe3v+RHCHWsJ8tlyBHIEcgRyBHIEcgRyBHIEdiIErjv72/jE/AqhI+vgjzr4wkLalWg770YySwwWjRJysnEH8i0EQxvWzgSTWUQg1yKLCdLyFEWtu6UrkEwpQYTqyn2JddEkk32pzSr5SRqk5b1KQ30YhvoH/IDC2fufxmijx9OSFVIK2DhZlUmilNLEZYU7bUbGxlYTXL36KXnvFimfFF85ZHCJjChNBNJnxZVcFqVx27dTEi4+XyKBlbytLk7nyeSOoNSWYDWfqeOmqtLsC7XVIY5F6pHLChSV1ucT3/Lqbfkl7ttX0vPRcwRyBHIEcgRyBHIEcgRyBHZiBG445z/ZHVjmK231ISp1pZUrOWIegHK9r/7CYXBdEs8WIFahfbpOHgkhK2exh5lUCQ9IQsIfXy6pqPgtOP60JPO0ggMxkLbktFSOi1ozyKP/Lo2kWLEm5MtZTLGgH6WLqRdLlKJS+lOH4ZKRnFvvWzjngNNjGdKSU6XB1T2KK4Flk4HSpPgyr0hWpoVUqKUNHst/Gt/EAFoSK1R7w21KZgy2TwcOhIar+MIhP6rLF06xcD0zk35fOigowLbseYhNTOgHV64/v5InsLaP/Oaj5gjkCOQI5AjkCOQI5AjkCHwZELjh3O/gk/fVJe5mwM620baPTBnPzK+rf0HhKYHcX1fj5E9a10IBzU38w2nxH1uAJfChuR8Wv/m7JT7obg6/w+O5xIe5BAWhgsEWXczK7Ryi7GlJOiAzrrZYVJJoG8xcdmI5rlSvQ6ASGNpx1RJYX6gRciV3tIxoGIU0MSJ7hD6jRaFcDJUw7rAEny9BaSbFw2ApqpUreWdiYVcucudWnA0uJC/3C5Fh4iXk0dW4fncH4lEUiEV0itZoO7JL75Lj0imO/4q3JdG/OFTNeQKrCNzzLjkCOQI5AjkCOQI5AjkCOQK7DgJmAivzysyii5JnV9KCYEptWomROyPlqtIxbgbywyJuPYnviyIJvpJD4qUmS6ZFBJHxJVgZjlOKhSWRN66AETISyklzecVx1gtSeoOiidWvSOKpEvFMi8nNNJypSMXTXzj3wDN2nvA/LUlHc0kyWyIqHGWpW+JeqVjo9CSUDPwlbDwZo0/Au5rQ7CD19CWwHFikftE1QEZs8Otmk7dQySo/rnasA3E15Z6uW9gig22K3NLpiBe5bEc/k8zlSSi1IOuR1Ii5JAnIoCD1n/xaNd2Y/vmlv+VHCL3cyxvkCOQI5AjkCOQI5AjkCOQI7KoI3HDedzDn/U/ClpclBrPFIvJZHOr4sgQ0Jgo5dkGCYC3wU5EsbWELGdNmTIzeknuliihCCWOSXJVtpSEYuhhnMo/E/ZYMU/xITEmPvcXfrhNg01wFDVHN0DYhPoGAZItF0wb1yKuWBAxYeAw1zXZayh0JSa5kHuVaYeKws7IlsDwHImnOIUUMAtnhbyYvQWcZgMQ3RNMB8o/+BbXw2TqbNXJYKPtQZiJK70yTd6rSiibvdlAizwZ/WlIr3aYHM9OGmdnZVdHHZZ4ToidA5Q1dXN3suHpIDJYLPscfX7oVVdVVwevOG+YI5AjkCOQI5AjkCOQI5AjkCOxKCNw48TrMmRGawJKVJPxDZez/Ai4D4k3Mu31lfGVLqqQjHBaL2O9lF1QnyjBazNNicm1mYkAjIiSwMTGUAxRXqRAyoy+HqeUmJdiSTEmeK4+WLetSJMtCVmnD1WRwCrF0ClVjYVyztv0WW5g0/OyiRw/JkPHB1VcOFX9dXz7UA31edWJk+OJEhZHNk6panEwXKSTJbi3NglrFzqzWE4bSdSF8rN5mlY5mhF0G9QtMUPm44LMqNruWYuv06/jlgVFTXlXSiQ+lUlMhySrfklr0u0sJC8AfX/hrXoHVInDzzjkCOQI5AjkCOQI5AjkCOQJfZgTcCazAoEK77d0omCAxqgpZ1bmzeAb1iEFZbJ1QaFFTS2PRTPxOxCLigVZYIIJzfmQEKJBTI5nQkJkFy7fBSoyrNxqm+QaawHIVVNA2EuCgSai0UAkoZtL0zJov9UWTd1p6RpBlpmyYrJtpHJm+aUFtTOH8EeckEliSePpfKsgm1jbsVRWPAppW9qjxvJwT4pghz5YhgRhbEXP4ELIyabe9sYm1TRSpqiZxpdU86ruuia9Fkunl/Upqbm5EomSYgoEcdJYX2wW8gSgBJKUZQiyOKmLsf8QMGq7xVw8V4xkexppt96DtsLvRMiLzh+f/kiewMmKWN88RyBHIEcgRyBHIEcgRyBHYdRC4cdL1mDsjusQ9Lf3jjmZ1JPRITI0pCrUK9Im6SjnkLvAvN+Ik4tICLoGXNYy3pEvoZeoSEBaLUWDDAv3gZMz2Bl4LRo3JnGKXliFgaSHj0vgszzgNJlm+fFLIjKnpk2KWZPJGJsomiQSWnizkM+hE+MQgljKS/6TpGBew20FqspBaIrLMKc2kLEeCP1W3SMlnCmvTLCp00qSfYGgjhDLXlFjKoh2UtMvC8RBWWnEVBlBzVcKgqjvPbJ+JzULd9mlbqrcmeQJr+/AnHzVHIEcgRyBHIEcgRyBHIEfgy4HA9yZdjzksgUWDPnvEFRJ32EInNlpYMOguHcpQq7F9kC8miLQHlmYmQdYD0IvjaV5K3WOtw7OTh6kWNgQk5cyKPrZIeSaID+lL0YUkk1oqI6WKR1Pp8ClcDISexCxccPB54id6ezyBLZEyTi89U0SGZ0N2CEA29Cx6Gj8S5MeJKLFs7YI2YQcTz+Jklav6TE8XKoNqE9kQMS5CRF1p1xD2lkhrfHbeVF6OhErfmsf3kolBWZ2WgqvJcJ+lNNduw6sIdmyPLr979s95Bdb2ADYfM0cgRyBHIEcgRyBHIEcgR+BLgcD3L7hBuwPLunUXwZy9AEFFaiXJMWWNwcwwxkTdG3K7Ii4RyGopE3+MqkbjX5unxQJmGCVJteJKchJxP9FQnjRMZHK2U1hcOkH2RbcWhCwXo7PTUrJKirFEnQoS/2RZLp+87vRw2YC3QtisJYgLFx4iEliJlKgspDIur/MqSelEoJQjmbaCjh0vScvyuWePT9TJAj6qbJpls6UVzXFdqUdpVEpiKsOgtIHksmMmWUQuqDKlNItpcouUSlaFX1NYAgH12R57Zi0M4xK3SpPr3z3zpzyBVWK88+FyBHIEcgRyBHIEcgRyBHIEvjwI/CBKYM2ck0pwCaKHlgFibOhZcYd5giZtBhoyJdq5Ys20CZJZNv3jVPZDbObUmXEtJte2Q0LloEyCRwYUGt7RPCFwIsEXnbCMElqZAW+Z2G6f3pZMQvyIL7Bw0aET+aO0hGv0u5niK6Gw+NIUZqY8C6npCRRDS5z1jZYbyBhmlrKsGMwSAtRC6UiaoOS5V7Yc0jANivgwJFmiXqjnEpYsnKNC10IAsnb3JbAs+qAlz4U+2SvzODGh7zd0UycX4iqT0wm7+ek/5gmsrLzP2+cI5AjkCOQI5AjkCOQI5AjsMgj84MLvYq4ngbVjF2uJzOjdT1oAYcSapOBEVumweFScx9OvVTG/h85XaUZpZsT1heZAMiSwtNWxRYnO2gJcqaLQ7ALvnwVXGuf50idOrEuVHClJOiIUQ9vKXWgoXG0xcaKXWIcU/8LFh00KWxoFslgtN6p0bGF46NDFK5clq2ed1DaDMBD0pxBCQtqELtzTzpWskoJAme1Yof+zq9okGQVje9xiKM4NlwjCkgxj3ncfhnUa93xkJWf47VN5AsuHWv57jkCOQI5AjkCOQI5AjkCOwK6LwE0X3bjzJ7A80VccbcUf3aJf8cv+vbMvPbfNWFSLL7MH3nw43s/MHYUlStLvsbLF4a5nLeZNxtBcny9LJsFPaUlwtUxTuGT0+Qm+mMlPltM0Ml/yGZcXNYR2L5knHi8OXxt15srMfCejVjQKSyWkssQKUEpZTcpCQ4aS1IfWL2VXCB9eAg3HpXO8nMiRnaTQZyfMrxmOFtsD10TC1fxShktxrMdzxWdkGf2mbGbNkNpB+M1Tf0BVdVXRGOYdcwR2BgQKTVtQaKq1fG1lZ6DOTkNzoRLNZW2BQvnOS2RO2a6FQHMDyho3AWj8Eq2rDM3lbdFcyP3Ul4hpOak5Al86BG66+EbMnZF+hDB9UWFRBb8PSo/WVADPZ1CVPCooMkcPjgoCw7fUEPgL5WYYriwJQWOpCEWRyJPky1wEbyYSUfIUJgng2IxGyErD09JEYDsQVKsMpCRtZNjJFpqUPF1e+Tg2+aRS7mpjw5Xe7dUSlApfHXMBo87MNclJ5W9yElvVlPZMDBQLAEmPBd0HH6+WZn1Cy/xiMW4JJqXpa5AfMSyR/6GXr4klJqpGLQl2G08IzBb6XZlELzc9WTk6lSfbbRMwKlR0Aa7SPMcULvNXtAwLuvypzkBcY2spjEVsXMVEWnbYZLigwsQnneFs4F8/+fs8gVUabc5H+YIQKDRsQKt1T6PQuPFLlcBCoRIN1QNQ3350nsT6gmTnX2naQlM9qtc9jbKGNUBzw5dn6YUyNJV3xNaOx6G5vM2Xh+6c0hyBHIEvFQI/vOR7mDdzrqLZFWc4V+UK9PVIg2/NVQqLHnHjX0DXN+/+OKMFMFvirnh+X0yxXQmjazKzL/ZgUC2FM86VBLTGfST3FedraK7Ch4XJguzFXS1g4v/P3lmAa1JbfTzvGu7uFHcpheIFCsUdWqz4hxYrLU6huFPctcDiS3HXBYo7y1JsYbFd3Bbd/Z5/ZjJzkkkmycy8733v7nmfp2Xv3Ezkn5Pce3735CTk1UAvOCuWG3/OJXIIkRdLTp1pM2S4pJHueshggsu0tl9h62zqXDjD9JWj584WqQJJXDmkrKQrwGMPHnazBctQm7aYiBUUAB+Sr5FIt3QP1O/RTKmxeTxNH40LqqieJJ0o1lHcnJN6VU/bzKR9AIsAPhv1pTonm5v+cyqk+nILc+mj66prRmemZNWE7d/uATnM+V+3n8UAq9mlzrV1WAE45X1/GN7hVhtqrtVfjJpqQzGm7yQNVcjVsAJ2Bfr+8I4Y74v7eq08P020mPhp4iV6bf+546wAK9DdChyx/T/KARZ1LDIHKX+obtpTGWz9YKrDsMonf5v8DHezIVBFiNFjRhsRawmc0qPY1LPc31L382nT5vD7gphFmQus6qUa9hiSCNPV5gXn3Ydtpp5yBvJSe43lFDYX2GeLDX2/tcOK21imIUQgBxLIBm+EFGVRJ5Y7H2sTMr8aVUYUAj1SE9A6oC0WjSdllpKUlw2krdhgnusZfU9WFLQ8/SI1VCII9UQOG0MsAL7S/vp6Yc6cjm+TUNRQpFtBOFv1rub0fSab7jL7RFWn3nYmA6wKU8OvdI8CE4y8UuAIIT6jf/5Z3Hv6FeKDIW9mHVx5183EA+dcLb/+1ZKLiBV22Eg895/7xMt3DhYLr7WCvI7lxdsfysqvud+OYrq5Z5NfP3ju1WKiqScXS268uvxjyrBnXhHPDrpXrHPILqLVaolnbrhbvPHY8+JXSy8sltp0LfHjd6PEzUeeLb7/+lsxzewzieV32ERMOu2U4rHL/yP+9+izss7V991OzDDfHFl730+1sRjdb/LuEZR7MlYq0O+7IWLA148lv1aMGSNevO0huQ7UZ419txPP3HiPGPn2cDHBZJOIdQ/ZVXzx/sfikYuuF+NPNrFYaPUV5L/VZ9F1VhKLr/97+eWQ+58Qbzz6jFj7wJ1En3795Dq49ejzxMq7bS6mmGk68c7TL4vH/32zmHT6qcVKu2wmJppiUrkmXn/kaTHh5JOI326xjph1sfnFR6+9Le4949/il59+FguvuaJYYqPVsvZ+Gf9X4ofJVhkr54YHxQqwAj2vwJE7HKblwMLPeLVfqt4lt7qpZOhJjEV5wEDPjyu4B8EAK/dTk+gclQ9Kj3xCuwoymTBP6krCCJI3aRL0QmxGe73YMncu6Wz+CXGnQ8oUJqa8EwqQJqV0rZMjdzb9dV2TryKHE+Mq92S4lcXQWzuutK0Z0ehYDzEIKISJWpohTfS2TUN1nf63OMLy72blLUgxeJMamwqm14HK2xHTT74H54y+eMeGQ8BerWueVJCKIS2KLDd6GvGUW85ggDU2rYdxcCwUYGH4v/z4k3TC33vhNelgf/ruh+L5m+8XK++6ueg7oJ/44NU3xcevvyMWW3dlMerLr8VEU04uvv/mWwmjlt5yPdFvQD/R6tNHKvngedeILz8cKVbbe2vp1D9x1W1ixFvvijX/tr14+Z7HxKTTTClmXmQeMfyl18VXH30q5l5hCQm9Vt1jKzHqq+/Es4Puls7509ffKeZcenExw/xziL79+mb1ow0GWOOg0fbAkCnAQvOjf/5FfPfl1+LBcwaKVffaWvQbb4B46PxrxDJbrScGTDiBXBuAwX/YZxsJvAZMOL701O474wqx9Fbricmmm1r06Zfkb3v5rsHi9YefFivssLGYZo5ZxPsvvy4GXzJIrLbX1rINrMVfb7Cq+GrkZ+KFWx4Qy22zgXjxjofFvCsuKQZMML548faHxXTzzCb/PfKt4WKhNZYXffr0yeqX65oBVg9YDTfJCow7Chy14+HijZfzHFgmEFDH++R/s1+kcxpA+Y/Xk/MW6DbdbaNDH8OdpgIhMKssIQsUvFRiQ90mp9VJM9LDBPbZRl4CXy0UC5ySgOrTmkLBYJsOcrX+DwBLfmzQydZqwNjMIi72ZTRJnXEawSkBBiHhruRrqtnmJimvUQdqgQMydbVluM+eEdF81YfvKbJS08borNItymUBIbr6Nx0X5i0xAtk5ZZ5mRJ+D2ig9IzWqYNVt0TWbj1QuZzRf6cQlL59yy+kMsKpMLL/TNQqYAAsdG/nWe+Ld54aIJTb+g/j4f8PEs4PuESvssIkYf+IJxaivvhGPXnaT+O3ma4vJpp9G9OnbR/z47Sjx1HV3iGW32VBGVqkPyvUffzwxzRwzi5kWnEsMue8J8fEb74jlt99Y1rnsn9cXffr2FT//8KMYfOkgCcUevXSQ+MO+24n+4w0QL9/5iJhwisnEu8+/Kmb79YJiurlnFxNMOhEDrK6xnnGnIybAwsgRKYiIpzX23V60+vYRD5w9UCy56Rpi/EknluvgjuMvEAustqz41VKLiH4D+kvodfepl0oANcm0U2XiAWB9PvxjuRaW3nId8di//yN++OY7sfh6q4iX7x4sFlh1WQm28EHZaeecVbz99MtigVWXEZNMPYX49rMvxNCHnxbTzTWb+Gjo22L+3y8j16oCZHiPAda4Y6s8UlagJxQ46v8OF2++THJg2Ryb0Gc9CKjopWmJG2A/bkfzcNnKSRcJkT3Z70RJnmb5kSdeikfKsnmj4/c7fz0x3XFtWnxulWicRgjkSeJVNFTuo0odJaPKRTRjpsxINNXJrpMw0F1XtiL/a/W5XTAjNbJUAPN4rrLXpJQr8m+MaO208nakWVd8WJwthJQOBXeuVFnm6TppAI1YgW/m6CzZ9GqThpZuZY/IuF26hsyJMqkq7Ecu2tIXfbrSFVCiKwVUZrHQwL8KdhIKAemyLLOUMlwcOldJOZdhtMTJ/zmNAVacmFy6yxQIAViPXnKjdKKnnWtWMeWsM4gvPhghhj70lJhgsonFImv9rhRgzbvib8Q7z7wippp9JtG3bx/x2oNPiuW22VAeJVxu2w0lAPv5x5/EY5ffJBZdeyUx+JIbM4D14m0Pi0mmnUIMe/YVMcGkk4jJZ5hGzLH0ohKKqQ9HYHWZQY2l3QkBWPf863IxyyLzikmnm1rMvPDc4sdRP4g3//u8jDBccYdNZISUC2Dh2B8iG+dbZWnx4ZA3xU/ffy/mW+m34oVbHhSLbfB7MdWsM0hlX73vcXm89q2ncoD1zSefi/8Nflauz6EPPiVmWmgueaRwgsnz3HAMsMZSw+RhsQJdosDR//dP8eYrFoAV2j+fL276PzY/oyHfg/7enyczdzn65nE+W26u4jOnLCa8csKLUGGbL2dCPn8LyaB0Py+ZUJqLy6p1FmyQ5pUi0S6AWmZfrMdSK9iFf0wdLpHZRTFjvvxWOkYNVpFnVOvikVTznFVir62dV9m+Cq/w2jYtQKBugXGY8+bCP85IFFq5uZBcHCQbsQuqKAzh25HaBKss6lr3TmondOyWfFHWdFrpMJs/rlmG0UJ39dByFoaTalE4Gxv4A8hVzIRO9Gslf3NgyrbEfMaefj8dwEk3McDq8BbOzTWsQAjAeuGW+8Uqu28p8/P8NOp7GSky+pdfxNM33C2W2XId8fMPPzkjsJDrB7Drk7eHy8gTRJf8buc/iecG3SvmWHoRMeUsM8qIrw+HvCXm/d1vxIPnXiOPZCEf19PX3SmW2GR18eQ1t4u5lltCzDj/HKLV6iNaffJdgAFWwwbB1VkVCAFYsF3YOI4Ljv5ltIws7D/+APHMDfdI8DrlzNM7ARZ+EQf4eumOh8UyW64rQdX8q/xWjHjjPTHq629kTiscS3zqujvl91+84xEx/8pLyWivIfc+LqaYeTrRt39/8ck774uF11xBugWAw+rDAIsNmxVgBdqpwNE7/VO89UqeP7ORtly/kof+Md1wNYsAJfGDilEoyZOk+dxPNW85VG+XlWlMB9WhkMCC9jpKhSHRKDX1b/OZesl+U6Qf8GnvGXYhIZYvhqNREtPIrAZUkg8q05VE9eXwrpUGsvmi/FqiRW49lMvDBgGV27/LqjtmskUgA+/A4gmoq0oThqTuXENyAAAgAElEQVRnCW0Y03zmTILuA1Pe4XkL+CB1CLgL4m/GBph1zDuZFl2zFRaij20EIe95pSstYNWVPAw2CyNgrLlkjS54552QdNw1UDwVRwhxwqBTOQKrnrnx2z2sQAjAuu2Y88SEU0wqpp1jFjHfykuJJ6++XYweLcQSG60qZltiwdIILAAsONVIaL3gasuJB84dKFbeZTMZnfLktbeLkW8MF9PPN7tYctM1JRS76R+ny3xC0837K7HY2r+TxxQfuvBa8f5L/5PHsJbdegMxy2LzZaoxwOphAxpHmg8BWEi8PuqLr+QvhBLS3nSf+ObTL8RsSywgc1gB/LoisPDOvCsvJZ6+9k6x1GZryaTt86+ytJh8xmklzHr1nsfFRFNPJn672VpiqtlmEoMvvlEMf3GomGyGaSSwmmnBucWHr70lHjj3atF/QH8x6xILiqU3Xzs7bssAaxwxVB4mK9BDChyz8xG1AJYriCBxspNBJcEAiR+UON75105nvOCgdy4worGpiHV4id9qDxhInupKpLqSZPCq/6HQyVauMQ1oRYGxBqX+ehs65gJ5yXSEReZ5NazkAqdgK9L9be26Wg6wMr2o+GlnYlI1Edts780Czgm2LAktl1IAvQjlDY4+UJTjBFGO0Cf7gtbvxIucZ/9SsDVqvmWxi2SHLotFMqhKD1mE+jFS6CmJYlPDVUOiGhf0Njdsk935FfeUiNW1WN0JNzLAqj0NXEGPKjDByIGiNfq7Hu1DncYZYNVRj98NVaDfqNfEgK8eDS3edeV+GX8O8cNkK3ddv7hDrAArMHYocOwuR9YCWDYVfL+lu5TTAjwKgRepB9380Ri3x9zBtkKsSfIGw1mTOanMh9Sxc/hgecQVvaEviWrLr8YynduQXrahTKhBmeVqdN+WQy1kZK7ca9plCCQfWMyFALL9AC1au672fwpr5i/UcsYDWtUGpXqqJHPR5whkY5nc7JFGypM287OZ6dfp/kHTOrkglNn7kImvViZQV1mMDDIL67QNXN8obTdvVOFNZWtLjd0HqG26RliA2/jV3GYNpL3NJpgYf5qUL194MVYQ1dsgk3DpWhhSihSPv+EUjsAKUpYLdasCA756SPQbVSNvRQ8ObEyf8cX3U24gxvSdqAd7wU2PCwr0/XG4GO/zu3rtUH+aZCnx04QL99r+c8dZAVaguxU4bpejxJuv4neJ5Hdz2y2EuX+i3OI0r5GW/MZzNibQVUucz7RF0+du3n2oNTl0SPbgjPwv+pmuadRLcglbMlCaBF0+psfFiN+a+6Lk9rZaI+iCl11cQrnmUo/Udc3cdUNXKUc+A/VsuBboqS6oa3241kPJcmvt9oedsJL1Txld8Ha7Lr5Qo6guboyjb+MZtpOH9XvlFc5TwDUpdPJ8E+fZFW27lK160tMYrV1VtXevJprUvKEwCzbrwF8rYnS1rXtoetz1JzPAqrvs+P0eVaA1+nsx4OvHRN8fhgkxZnSP9iWm8TF9J5EO+c8T4jih+QM2piYuywoEKDDmZ9H/2+dFv1Gvi9boUQEvdEmRVn/x8/hzip8mWVKMaQ3okk5xN1gBVmBsU+C4XY8WbxGAVaRHob5UGz0WFymyOaBt6obPgw8GWOooJUmOTm/oS+zLrC392gc5uhz40bWTIyhicfRhVtj60LkMk1sSk4TXNNdUHnRCeUB1ntJV+4CxPlp/WXOX4si0qyDT7ptsRNpeWlsheqVsI6BGWx9p+OzctkRKlk0WuZPtDWVMKCYgx22GjiN4NixR9sy+rcQYn7l3Frhm2oQrtVhmEmmjZmSbbQ+O6V9c2YYtI6vO+ItAjA04fuDUgVXZVa+WW0yPu+4kBlhxRsOlWQFWgBVgBVgBVoAVYAXGIgWO3w0ASyVxr+OjtokcubQODSwgvgh1VxQjquLK5l6lLZF84tElavj8T1MzTxSbTQvXAEK5YwcdUJ9P59O1mLSfaE0DMUxnPFSLNphwc3nP3ZuOqWtrj7VSgCW/k45Ks0VLCJ8tWXoalWKDIGUc0KajzdRlHWm4oevv2Sa/bMMc6cpmDcYu3mZWkm1fUx2M0rVs43R1NUTckDJZ23T2QqlQyCjjfwLT89fmFIccV48adnz3gt845poTGGAFq8UFWQFWgBVgBVgBVoAVYAXGNgVO2P1Y8faQhm4hNG5K62mtiodCwhFK0vdQX6pD3o0v/oC63Eb3zVgD1ePqXqXKlyUhBNHKSSqIObRBVxM3lGjRE3bpYkBFJey6lt6kmVYuyyACbY+1dnXc71iIvwlL1p1le8+7W0jIZllbLnt19aLjsKqKJdgz0enZ6Why+cwQTeRn3zRit6gqQwh+x0EpMzJv62zoH0EKnQixFtohVUGYriFjDukB3e60HqQJCjU4lkSC5n/HKKO+IR0UQjDAChSKi7ECrAArwAqwAqwAK8AKjJUKnLDHseJtRGDJX7zJb9sN/K7dLsFC/Ayrp0OSoOd+RvJQ9zOsBRNfPytY1gvTE2+XEvZ6rbCEDkmDO+QLy5CsnMIFxzSUlVSme+mhM+dygtuka0i3lONqck1KAk1oFjntLnahq5FH/eX+M40EFKK1x9oAWHqWDteCUDYtx0cGUMh1TSukA+0QvPWbujlDNsDhepYOKJuBPEIt2xeJPvTSBPMixOTsatJOGcvpGgltwpqr3jQMr7GojdJcEeXQzty4QjV0HbmrZJrW3dORmNHE/2X7ltTZXIWmFfht+Jirjxf9x+O8IpF7KxdnBVgBVoAVYAVYAVaAFRhLFDhRAqy39NE4fvF3+fllrq3vN3L1rt33p8AiJFaIOBBa0Eg6PNPZ9DmRlRygeMNoXNe0wlIop/wpa3Jrm/9p098ca33BGj1y5wBy0ubS4ZS55rJIOiQr/8l80jJQF++jFm8OjNO1tdc6uwWxNDqo7AWbNVohh4PQxNt/jTdczM+2JbkMmESVmZyCLCTnRmaUoWzHPJpWY6BtfDVw+6FwLzN8i842CkV6X7YcymbN1D8MjbVJNs8acW5iVqktfy1Rgy2s+zHi6IEMsNo0q1wtK8AKsAKsACvACrACrEAvUOCkPY8Tbw8xAFYabEAdeKf/lo7RhZeCHGlNJ5cDFAqwKPQiBMI1Fz73LX4ApbPua069HPOn+oBRktiodCZt/mjWqEl3UkdKc8jjoEpPLIUQreWQbZyCQkBCuah1WYmIWUA1kEU0hShh2nDIO3mZ1t7r/SUzW1uQSMM2nbdcZ+0aYyxCgCpLwrZtJfW40FfINqMWnFl7Nm11uxo33xGlg5eEZ1unI9e3H1fwVggxljUZe0/3RgWbxk7Dryx2FxLFBqvUCF8xV92RVx7LEVgRFs9FWQFWgBVgBVgBVoAVYAXGLgVO3ut48fZrbyeDsh0zS4Nx5LfT361dvkgGA4IlcvlTuRep3SSXeZ6qAZd3TuFKBdDic27dbnHSMeKDqdZtPVWjqOLuljMI3wA0Jynthu9ZOrAuOB5VBpGoF2nqGjJtuQoW26zrnGdHUNtGkBLz22f9PdrbglKyQHs07GdsA+ULMXkzKWOFgMGbirtgha0gqywqNNC3r9GV7+Ie3vFS8/ZNtz7yMs4YV1O+36nLKykNLiYh9A6qjQVswClGQ3/XtETxKicW+a+/Br2ELYLvyCuOYYAVKySXZwVYAVaAFWAFWAFWgBUYaxQ4ee8TxDtD3s5zO2U+KfEibflwKh+PqeNFNiO76bVYDmokIMByV5v6C7ny1zQXngBA6eITZzB+1DFOcAqXtL/eu555NIxxbo1BlYUkmHjM9JNt+sRpVoa1KuiTDYb0oszdjetsM4ac1lKw544ArMpDCDBsE5XLxTQmjc5JV2UryVivplYuuLRPZRQzxPAqDy32xQApkkGZO4vt0oTgyrSzn8CFiV65BYfUpPTWN8BEXd9SjJWptLyrs0GN2F42XwxRo+xHSgVdHT9I8APpiH8zwAqaWi7ECrACrAArwAqwAqwAKzBWKnDK3ifkEVjeEVp+lw+5lEs6NWV0x0qKvL1pokCsd6LaDPaVzcupTMfPdLwzBzukZ77KaOWq5+0nLZIrhHbfN4kmcDA4BfWVfVUl33fNnC0SxkZCUEekhiFahLnA1iGa1bf+usGeFtls7xbFSICGPvCkgfyZuoUuf5bdS6fBEMVeCpcfKA3L5oPqHKl3mCE0VaqMoBAdzaR8FkiHTVLWJl9Lo9HSKSKPolKBd27Z19CTWqv5FxTNFJUY+IHh2oqtlZH9yA6U7G/lY9JAHRlqjGlao/hM8/H8ZDnicgCs/jXE5ldZAVaAFWAFWAFWgBVgBViB3qvAKfucKN55jebASn9T1/yt9JfqYGqT6hHzy336iu/X+ZAumG6xCTn83fL1Im0hdzaT3peesUx9UnoEL56+VDY0H0Mp899cAS1Z99N/aLqaE2U2oPmf5u2OFHCUQQ5vzyrrFfwiEVYxWvMkUcYQ0u6OHp0MPmMSpulYlluMDbf+ttHeVG7H0koO6+XRN4nQ+bwl38mf6Ef8XFOknqOeqGN3PsVDOFGZ0fnqr/z9YseCdc0WTgqrUlvXbjlU9m9bI5X73IUvFmRUFLwcAmavkTDhvCodVlGb9e1PdNvJFjDh321V0GbraYOHX3oUA6y2is+VswKsACvACrACrAArwAp0swKn7nuSGKZyYPk66qMg6n1aTrohloicMhJFnOCMERGPvAwvxTj6SXdDBlXWWfKnea0qI6rM/Au+n6L5ZsP5/TJ9TL/MFlgQEmzg7X5QZJ7ho0qZfRDC23Jl3Xwv+izFZHTZaDJOkVscHaYcUfpydmw1aph6z1p/3xgAq5UCKh1EqaipIpiywapygEXWqU+7uO+7LFg1GGrFFowX1xGzNN1ecl3jIWCia34EkgCstEnn/Be7YCT+TitwWmM9BZp72/gpkVXs0jW3Rc2Gs4WTakjGHZqsMWqtNSdApZoOu/RI0X8AR2BVEo9fYgVYAVaAFWAFWAFWgBXo9Qr8a9+TxbChaRL3hkZjdfSJgy7dT8fX0kUlQWCqSypapfm8wFWc5RDn0OEVWV4dk0bkZIe0fNWTqn2wirr6VWFVNbMoA1Em9DOCLEqNoDNREC5YZUMobdO1kGgtzDlv/X2TfSzohk4IpSDVprfxt1w8o2JDCoaqteKishWr777XbBarehk43RRqVh9gcUtKnigwlW9JCvzlR1LV8iI9cUDIwCFVH0Zb36y+Fg+7hAFWW6eGK2cFWAFWgBVgBVgBVoAV6GoFTvvbyeIdTwRWV/yBum0Oi+k4U0+33sh9sRLdahg5JAzBOCYiC5moCALnIDE9xSWKc5qfF9OzVwfMrovZVL4gIWmz9fdN95EEoEXOomXRPkh+rsIOzfOsAX3u+iJWpFtMgi6nLUPljugeb+4v/T1lCg7m0lnpTIBsrlMKt3JuFJnfrRxWJU0mHSnmUCtmUFO3UKrowcrdsildBfVTzdRYOjK57s7+45IjOAKrsyuJW2MFWAFWgBVgBVgBVoAV6CIFALCGDX2n0KMq7o/LJYoars/PsHYsfajSoNAzWUY+6tTFJ10y/xhOe1sPYIW4UU63MtWBxCa5o9Zc6XGiul8FVtlm3HD6YhOehxqL0V0zRbbsBTELG7Kp0/v66Z18hm5aRlrelZuOGEpr/z/uq6hBLmeZnYeK3lA5HdwlSeNV8ngzCkh9L5lQPcF8cjNhHtkja5GVKxSSnlFVJMS0TfW8I1CiIfGo1Wq7g3a5oK5VFtKamgXZKCnYVOdaizm89HxpzURqNaSHa98ytVHNueIla9iAS6/EvPKOKHBsWGyWh65o+/rpUNR36EX/ZIDVkOlwNd2rwPvvvy9OPPFEsf/++4sZZphBnHLKKWLBBRcUq6++evd2mnsWrcAvv/wi/v3vfwv8d9tttxV9+/aNrmNcfuGHH34QJ598svjd734nlltuOXH77beL//3vf2KvvfYal2UZK8f+8ssvixtuuEHsvffeYrLJJhsrx8iDYgViFDh9v1OtACumjmJZV2iJ4TBmxSy3EFqjUFSaE+JsUEgTBWySXsdiBOo+NuYWB7Mjg2ploVKxSdBrOGuBhhHjVhZcTdeFlWqYtPuuo2FOWwgROxbftgmEWLpaSC1GEU26jFoH/Olv5QDLBnICJ7a8WLHH9FbDsrxb6jhZ0jXV/Xx28ylREWTN5q+rNvwUmFV7uQ1v5fpnhFUumhSZpBuGMzLPOKBN4WEbOtu+Kqvs6qmBZfaqRYnm4LTchk1YVbz4INkqiA1HqnDIhYczwIrUjIt3pwLYoy6//HJxwgkniKOOOkpsuOGGWUdff/11seWWW4qrr75azDnnnGKbbbYRK6ywgthxxx2zMt9//734+9//Ln788Udx1llniX79+kkQgn+/9NJL4txzz20MiHz11Vfi1ltvFdddd50YMmSImHbaacX//d//yT726dOntsAff/yx2GijjcSIESNkXbPOOqv47W9/KzVZYoklGmmjdidLKoA2mEvAqPHGG08ArLz77rti9tlnF/37u3P2/fzzz+LQQw8V+O8xxxxTWrad/e/2ut955x2xxRZbiEUXXVScdtppYsCAAbLL3333ndh6663F5ptvLjbeeGNxzjnniGeeeUZceOGF2pAGDRokDjnkEHHjjTeKeeedV37vqaeeErvssou47LLLxEILLdSIBFiLTzzxhLjyyivFk08+KdfjOuusI/75z3/K9Vn3M2rUKLHDDjvIvuMzxRRTiMUWW0ysu+66YqWVVhKTTDJJ3Sba+j7g4nrrrSfXypJLLin/0AhYP+WUU4oJJ5ywtO2HH35YQv2LL75YTDPNNG3tJ1fOCvQGBc4AwHp9WI2uhjj7ZcTBIBAUatmSv6OnZpNmcIly5I1RuV5DMdff5WlzqlwB/4xpR0hCCAJKw4y0W8so3LOAwRozrbSgwKlsOkJ1DWJQNp/UG2RBgF8mS117dVpBTWWLr1stIO0+OfyWUVglR+vAzf/uRpS01iorwlKzqrIIqxIKEJM43reU6jj/msQ2HUIttnM2ILts6pqfn1WxPPmk2PQp1SyfPPvxQZME28iwgxbXD1NsfE2VmEAaCUij+gjQyyL9Cs90iGlqXeGPKqWDPviCwxhgtdcsuPYOKQBnd7vttpOOGyDHqaeeKuEHPiEAC+XgEO68887SqV944YWlM7jpppuKww8/XPzhD39oZCRffPGFjHp477335H8XWWQR8dlnn4nnnntOgrUmooYUwALEAbD75ptvxFVXXSWh2WGHHSadXvqHh0YG1mAlJsACvDjppJMkRIRz7vowwAqbBACPe++9VwKrM844Q0Yl4hMKsGCvsNU11lhD7L777hKcHHjggWKCCSYQBx98cCNwCf3BfJ9//vmyrTXXXFOuDawTACa1tsNGbC+lABag7p/+9CcJyB599FEJwddee21xxBFHNLIe6/Sx7F0TYGGdI1oOkabzzDNPabMMsNo1K1xvb1XgjAP+Jd4dGgqwXFClruMX/1u+5n6mETtZdAqJSpE9My8EzE7U5LMmgYD5XmfyhZdEksTqmni7OeCzRbZZBuWRv8zVN3GGy92lvmyEC1xvWakk6Ek+qPxMoTIKKZcB/GzPZBETwroRUWinTV1zLlHtXrns/YO22C/pcoUrD+ixvHwgpKsuazBGncjjOh4Yv+BDRW20XAhEDrQDCqFUH23PQvpPj1tSYNIWuJd3Nsf8tk4G6hAyvpgy9inSj5qa9WWQ1ATcsUBX7c81xh67RhlgxVgHl+1mBeDMHXTQQWLfffeV/zvzzDPF4osvLrscCrCwfvbbbz8ZwXPcccfJCKkHH3xQ/Otf/xITTTSRwLEbRGMhSgp1w0kECAJgwbuIcsLnjTfekGXXWmutLLpFaQeHHFEqF1xwgVhggQUKkgIiIOrlrbfeElNNNZVYdtllJbQBlLrvvvvEaqutJvvwwQcfyKNes8wyS6EOBbAuuugiMd988yU/PceMkZFpcFwHDhwo60ZUE4AAgAQiTzAmjOexxx6TGqBuRMAgQgMRaypSB44+olag69RTTy2/h2iVb7/9Vvz3v/+V4A/t/vrXv64EMyjAGj58uLj00kvFAw88ICEDxozjn0OHDhUvvviiGD16tFhqqaUkqEO/VATWAQccIN/5/e9/LyNr8HnllVfE22+/LeeliUi3bl4Prr59+eWXYtddd5WRVv/5z3/E0ksvLf+NeQ8FWKj7jjvukHAJdjxy5Ei59rDmZpppJmmrsAPA2rnmmkv85je/kcAJ9vb444+L9ddfX4w//vgysu7uu++WczrppJNqXR42bJgEV+jrJptsUgBJmOvXXntN2gA+sIE55phD/PTTTxLUzj333NIeXn31VblOYdsmHFYAa5VVVsmiMbFOYPN//etfJQTHmsY4nn76aQFbnHHGGeWanHjiieV48BxrcvDgweLrr7+W9oa1pdbcm2++Kdcz6sU6gT74vPDCC7LvWD/LL798pWgvCrCwJq699loZjQXYjvWMI9IffvihePbZZ2U0JvYb6ATbVwALkBBjwFrHesUH44WGWCdlwLg32j/3mRVwKXDmAaelRwhtnkCIbi43PORdf5kQF5LWQuMJ8NzrKQf64/6eukrU0ZWOwDuSuC5aukUBoBKurPem1nEdqFu6rq5p+w4uFWp3ZXBP/jwkwyyNNCOsKdqGDSlbB2+5f5BLbffXk+a1zqaJt0KOomX5p0x4lhLEWIe9rpk0+r4pGJ1hEg5YSMgmoXKqa0bK8ykyI9SKeZOSjSB51ZzahjeGGMHMVRKiT5Bl2jvhgoC5Oro+IbraogNjJJBlY8ddA+EfeN6hHIEVPUH8QrcpgJ8DcJ7hYP7jH/8Q22+/vXTM99lnH9nVUICFsgAzcJrh2CEfEI4VwvkFzEJEBo5HIdIBTjqiV9AOYJeKQkEdN998szyagyNw5jEk5GbCsSuAMlu0FY5r4f35559fPPTQQ7JtdZQLxwzRPpx0QDJAG8AdwAD6sQEsfB9garfddhNXXHGFPLaIY2KINAOsQuQJjkvi6BSitAAH4Ojif4Bc6C+AAo5aAlbceeed0uEFrIJO6CecfmiN5/fff7/Ujh7lDLUbCrDQZ/QLIABtwCmHfjj+CVgA0Pf888/LfE2/+tWvMoAFO0BEHsaII3GI0EO/AQwwlnEVYEFPAF7kPwIQvemmm6StIg9SDMCCnjiGiCN9gImwc0RhARJutdVWYvrpp5cgB6AG5aA9gCKO/+HoIcAIYNpOO+0kj7LhmCv9AL7ec889Evbaoq0AhbBOAZ8AcgCDYJPTTTed+OMf/yjrByDDmHBkEvUApNGPDWDh+1gPgGYAQTgWeeSRR8qjvoBXANqwKUSaQT+sFYAzwDKUWWaZZST4AuyFxhg3IB4iQxFFBpuE5sjDt+qqq0rQh/fVO6FrBOUowILtY3/C/AIeY59ANBbmAlqgP4BWRx99tIzAVAALEBL/A+jCnocPovPOO+88CScnn3zymC5xWVag1ypw1kGni3dpEvfsbFL6S7nteJrKAVz45d3tnGiOfurb1nF/bKfHKnlyMX90dxGITAcaQ0Mdm8TDSj4hzo5ZLs7pC9aV5JoqC0Sy5cbPApoqie5bLiYWarOuLsGMaZPFDMPLXjUi+GymUgqwUkmakLN18FYHSGSSROQoiuszvPT7VdCdzdbjbNZnEbW+b5tffR4tnSUY0Z6PLzRxX0TXM9AV8U6nilrswkzIlmwixdsdMyBH4B2FdMlbRoJ+kgctuzWzAO86NXhPO4FLK6ulwipX+hxw7iEMsLpk2rkb1RVABAic5D333FMe/QEEgjOLnFdw3GIAFpxewA9EOc0222zSsUSkxWabbSaOPfZY6dQi6gdQ6ZFHHpFtAbCEACw4/agHR6DgyNo+iJRAxBCOQSIyAlFTAGEYA6DN6aefLiM2cAQRQAn9UFFWqj4XwIKTj2gbACxEqMC5R1sYD2AfIq0AIeAIA2ChbkTGoA8AZoAKAFNwguHcArIBAmBc0AJgAiARzjrKQRfooyKgQmfYPEIIuKby9cAZRw4xRAwBmkAvHPMElEHECM2Bhf7CUUdfER0GeIg5RO6ncfWDuf3oo4+kXQOAYN0AXCCqKAZgwd4BaHDcFgD17LPPlqAGRwphR4iAw3PYMKAVgAhsOARgAQYBGgGq4D3bB/ALEBI2gPEg5xvmHlFOAFgAy7BljAlrTcEoWpcLYKF95KNbccUVJcD69NNPJfiEzSHyDOsRdo1oMgCsSy65RI4dMAp2iH0H6wb5tWBzAFd49/PPP5fQDn2FbQKoYa0CKmNeEEUV8zGPECICDEeg0SdAXowD7akoKtg+IjcBnNFXtabQL0BdrHeAbRyZRtQa4Fc3HzWO0YrLsgI+Bc4GwHp9WJ7MnHjZmcMe6NoSl082W+HXdF93632/kAGb5JCynbayOa5WZ9beLapH6N/cVbnkwjX9Q90kU+toYQKhjVav7Fz6ojagqtAj8VztGciiR1RIyG/WLr82EsSbzzJdfWCzcT7TnIatQ/4MgKWWoBLSNJ8IgYORaGNzGdS58G654UhiJPls2iNy0qWY3WupukcglgupKysMGlH3FVIRcwVYla4cLSG87H7xpkhpieq2SAK5VKRarj8l1Y2vsPaJ6wNYJUvQbsNue93/nIMZYLVvJrnmDilw1113SccReZJwFAZROXCA4fwiaicGYKHLiCKB44n6cLwJkSN/+ctfZGSCyheEY0Yog+8hCioEYKEMABIcVUQnmRFY+D6OTiHyBH0GRIMTev3110uAtMcee8jjfwBriIRCJMjxxx9fSJrtAljQCREhqA/jgAMORxbH6nDMCAAI8A7aAeQBXKGPAF5I3I08WnB+AQzh/KqE6ugj8gahb+ZRMDjzM888c2YJ6BsiZwCeEN0Bp9k8BukDWHDKEQmDyDDohAgs9BWRJRRgYVyAW9dcc+Ctr8gAACAASURBVI0Efjgyh/43kT+pQ6bdaDOAOYgsQuQa8lcBeCBqDkBVwZ6QJO6qUzhqhjUAoIr1B5sBPAK8AhDDB3b65z//WdaPeQsBWHgPdgH4CDhkRhji+2gbaw9zDxtApBfWwsorryz7gKg7ABjYJhLOw97N2xRdAAsRlrAbRHJijSHCDGsf+wragY1jTWAPQCQVQB76iLWLdpF0HpAVY0bkJo4fqw9gLDQDEKPrH3AJ8E19oCX6jTWKD8Ag6qYfH8BCJBkiSnG8Ua1x5NwDZKYAC33BmsReh7mETjg2bUbFNWqMXBkr0GUKnHPwGXkS9/SWt9Q1kT21BmAR7NAdXobL+ZcjSBVPc0PJL0ueaT5qeViNC72ERN+URZB1DPzZBqB1TMEqkqfYBFgZ1KK6SgsiOiujr8FQjHXj4ktlGEH1SvU0s926lRUqtC1yU2xXVFkoCHEj0dahWx/YM+sydIwuwUos32dOdHKL1SdvJ9Xr0hTzRtnKVVySZQuMdiMUb3foh4cLDNp1td+qp+mq9hFEBHqTzsUn6euQLNZmYo7EuiLWpIIZCyUwtWXoJYTY/2wGWD0539x2MwogegBHZ3B8SMFtHCeEQwawAefNdwsh7QkiOuAE42gVIiuQ4wpOJ8AKjvvgAxgEpxMwCNEYiGKAA40P8tAgGsl2hBARK4A6cMzNyCmAIURZISoGESSAPTieiLJ1ARaipOAEA94APgGSwQkH0IJuiMiBE+4DWCoKC9BOHY/EvgXggGgbaEI/OEZGb4wDUEBEi8qPiegQ80a5MoAF6IU5hVaAioAAAHs4XmkCLESWAaxAS0BJAAJAunH1gyNvgCoAiuoIJSAWohQB+fCJAVg4ygrYgWOnWC+YW0QYAhwhzxU+yK8Gm0bUHtYVACOAD2wOaxQ2iaO4JixBBCDew/eR+4we+UQ7iBICaAJ4wZrHf9GXugALdWP9oo9Y14BAsDPUjb0AObWwHvG9MoCF9YZ3UI4CXEBXaAXIBRCtPoBiSIKfuTdjxkjt0D4+gGDIu0U/PoAFeIU9CUARubfQJmCfCbAQMYd9DOsOeyagIPYIlfNuXF0vPO5xS4FzDjlDvPu/d7NBF1ypMkpj+mCoxeeXNSZvmbNsuu8hDmJ5Gep7aC4YxhOSH7xjCeHrCuzRVX1b/jfgFFVImbTLWtXkmRqRDQzWHW3U+661oPpaSPtEJz10IaUG5U11VAKw/rHNQT0CsDQHPe1BNmzLInHrFWIKSQN5FA89KmkLXnSZT0U4FWU5JUA3pquxbQaU9yWXz2eCQsDsV7aSkLsKNDIUPweMq9NFioDV8oTccEh/6c3yxuUPyZ+O9KW835kHcQRWpyeX22tUgU8++UTCKTi6ABjqAzgDKAOQhGiGOgALcApOLGAMIlgQuQGAg/w7OCaE/EtoC7cKAgIh6gIRRjaAhSM8iHoBgEFdyKuDaBJEbGywwQbSucUxIDjLiPa47bbbZGRTFYCFyBfUj8iXW265RR7tA/yBQw1nFk464A9AD/Lg4NiRD2ChHwAL6CuAEMaD5NAAY3DYEc2DKA/ABWgAmBH7sd1CiGNWiFrDjXEAHnDsEZECyIfoL9y8ZgIsRIghggXfB+iiN+7F9qm3l4fNYo0g2gZQQ4FeRA0BzgIsIWE5jqVCV0QeqdxrgDC2jwmwUAbvKLvC0VHYHSAZtEcuKrQFQIvcawDDOJIHIGQCLABOREDCTgHDkJQcdoqca1hzsAXML9YLjhoC9OLoXBWAhXxdgHCAVwDh6Bein5CcHbnXYO8AoYBMiGZC/i3k1CoDWFhj2A+wDrAOk98vx4gll1xS1gd4hTWEeUAbGAcFWCH2ZgIsdQQUebjQdwAwRByiHwCA2EfwsQEswETMC8YIO0GEHh8fDJkFLjO2KHDOIWeK997IAVY2Lh+IimZCrhAK3a8snuTzvWfzpeTOk34j72jVmsy5ljWri+3oUUlX5ILNL2urAdlGahtFmfNs6kqZAr5HdPUcyytzy2ySdUV0mnV+AnT1nVHMTNO4OjMz/HKeEmLDrcO2PbhHABbVLARBJb8gJLZUiPwrhH+mAAUgLHtRrfHsIemCDViF7Fr1VmZMRE6QjdF9jOxrCiArKbSAvsCTjUl1SQMqXxr9E4Ttmf28bxsgoDluc0+nX6v9yPYsciXQBRZswypBP5lQqivV2aW1V9e0M38/40AGWPWWKL/dwwogcgSwClFN9KgOQAvyYcFZB2CpA7AwRDiHcPzQHqJHAH6QVwdgBIBMwTJEoCDaAc6iDWChLhyrAuSC446jbTi2gxxUSLyMyC444rgtDAmuEbkCuFQFYAEg4YPjXHCi0Y46joUoKOTdgRMO+IPjioBCPoAFUAWIgH7hOBQcZURxqYTdgEUAb4jkAKhDovnYjwmwAAFwrBHHuNBXJIlHmwCLiC5B/iXMrw1gAbJgTgDVkHjbjPaK7VtvLY+IJoAgaIUjhOqD3zEQvQQ7hsawuToAC3rjZkEcQQOYBcAEtEKSeLSFKDDYHewCkAjzaEvijv4BKOFoK+oCVALUBWAD7MF6wLsAv7ABlEEUXhWAhUglfBBdiaOD+B9ADgAOoBn2F+wjeI5LBLAP4HhyGcBCUnWAY6xd7BmoG2tLXQIBOIcjrTg+C2CNPFmxFwuYAAtjwFFfzCN0AKxGv3EpBOAyICb0tAEszA32MAA6RKCZ0V691e6536xAqALnHnqWHWCFVmAr5/C5UkcpeYNSoGxjVt9IHVqNZrn80ayyQjal5I3iuSF/TUmH5Jtj9DNHUZ6aCQHzruYN0GehLrd3bnyYo0rHkjqTgI1c15Du0+mWb6bjzE5rqq+NyhL9vYPtYAEfoSzR1QQOqtdy7HbgoF1ml56AzV5LDdHWYuvw7Q4Jks1nJnRd2lgnNYPwhWFpNdsw0u+VjrzXxDJqhhnAPpN9kQC9DKC47E5bh7ZC4bMStooo0gl7wyxVa0H7frCk37dFldl6S6tzL5iyRqtpUOmtVPq/nX4AA6xKAvJLrAAr0BsUAPwCQMExU0BB/rACrEBRAYBHROEBvgPO84cVGNcUOO8fZzcOsNRReapl8ow4XGOIb0WccV9MkOlnNO2hNT7/LvenUphR0csq8yg7oY0z4CQEjvhcw04MIKEGhXxdNlBX1TYKZEExCkApE1rSSJowB7vQrdbh2x8qX3XZmBqyetMPTn3kjtYYyofTHmawiozDNIyQ6oOQXfwU0pHTJmzzFqprXi6pPbdzlaiPzFwB85JemCg4fnhd8QbdxDJd02G6bsHNNEyJny5F8nIxgsy+IvJNzJzhNhmVT/WS5bbvafszwPLpx99nBViBXqcA9mFEACHSDbcvIveYmTS/1w2KO8wKNKwA1gkgL3Jz4ZgkIkcR6cYfVmBcU+D8w84R770xzJNwO1FFd+rzZ8pXUGXU6b3kOC5JAG5JEq9OD9X6w3w3TZrm8BJSoWiC6Y9K0YrOWn4LYe4p5259qisZt8uf9rn+bZOuCvIo7WwoSaBRWz4QktSZ23WuRt3uJ2uCnMeydb8MMJlaRLjSrSN2PCwrbr01M4VGIeyonksfI6PHFCnlCLFaG/30EFFzjmwwUTUdX72phW+GPS1k1VkS0Zn6dIwE+yfGCquMjcy09VIl1Jld7SW68I3agpPy9ZxoZcdQ//qv/Rhg+c2MS7ACrEAvUwB5l3CLHBLNI7IER7r4wwqwAroCiLxCdCJuWMQxZuS1Y9DLVjIuKnDB4ecGR2DZPTD7jd+JlkUfoODU24vZXu3y6QnzzPRSBPClwgD6yUOLxO2yMghDjZAyXS6gnR6pI1UqSkrq5BPH7fGas+TjQqGcoszbrZwWyYU8KPhSGIQ8ax3xf4clB181QuaieZ7a5LS4QJRr9XbI1CwC2W9603Ni+5RI7EsdRMsbyfMa4budAhw+E021DjEWk+vUHEIonvRZmL1bvllSNuYyAsM2u9SEbSulTNd9Tv07A6wObS/cDCvACrACrAArwAqwAqxA9ylwwT8BsN6T/lpyliX56Dlok9+odf+tAcZU1wGiNKJEWntieOrfxDhyMWXt3knS7bweq/8W4o8qtNDDGCHcqkMGZfFbC4nRk6g+FeEnbTOd5OzEEWGAbQp0Ch921ZIhckkbIFn08c8jd0IEFo0fsoT5mRRQVaQ6K5EotbDuszIfk8h6b9wyEH0qL4tvdM2I0ibfPpN/ZS8SE3A9CwRVVY1JiREbVpb9QEhHA7MYXUwMaO5FNssxn+UWZXJlW21VWogMuctsnwy67FkDSyLYhlNr2vuUvzHAqrMG+F1WgBVgBVgBVoAVYAVYgV6twIX/PE+892Z+C2HiXeWwqisGR3/Jp25e21zBoleRQ6dEEd8lU7SMcnPaoqtJv+iEBYYPmRFf7ZvzNuqaQQlCDUwW1hHbaZ967pr1gbaO2ulwlWo/D4P0idEBflJHGtceEFNnIfyzlC+ZeLwuuY7paefKGvBTC/0MDTLzh3/GzF7grmV0TkXNNa5cCEUu24RJ/GITS2zvk/dlgNX4JHOFrAArwAp0nwK4lRI3BKrPrLPOKpZcckkxwQQTdF9nuUesACvACnRQgQuPOE8MfxMRWL3kU+Vv9VbHIamIXlilciGV+RlJXuAmPJGG9O5aLpF3jOrqAqSarpq86jBcHjlSKxLQ54+a2KKhaapWTVl4Rl6jSQdax+xyRCJhQ7FnXs3IVZ2hMUeqe/WWksX6s86mPQlJOqdFo6U966GsfK4pD9XVVi7T2jqR6UMtyiw1LluSeGdkHt4xEXG92a22aOxvuYbuGqIcDem+K18+xW06eitbvCGzaZ/JPU/8KwOsJg2D62IFWAFWoEsVeOaZZ8R2220nFl10UfHll1+K1157Tay44orijDPOYIjVpXPG3WIFWIHOKHDxUeeL4W8O1xqrnLOngS5rQCnLz4sbDJPf52nfzGf5LYd5OZlTyvBFuw5Chermg1XUhTTYRaarTPmcJ/BRx0YplAt5VnYEMnQ4lcuZbrLNdS7RImM7jbjXuZ+aI1F1RDSP1EsYQmrDmZ+fH9otHtnNaYAZkkLnL1kUOqtqHbvbkWFDs5QyAZ7bQU+mzx99U3majRfD0aK+3s1VY7OWtIyNOTQEAdVgaG/KRtTeeK8C89ThU7jUqREY7KqpKa9YT5kN26r0ah22mhIRNMDnrTl6hHucsA8DrGjV+AVWgBVgBXqfAgBYBx98sLyZEcntEY2FxN2DBg0S88wzT+8bEPeYFWAFWIGGFLj46AvE+wbAaqhqRzW5Bxcc/ZQl8k58Tz1bV/E4nyyV3rCmRfy4XFmbj5oQBz2moL3CNFa7dipIwqouixprbKSeiqgj28hcFv1+eoNhsJvb5vG3jtntyDHUpimy0WzdDL5RBcuuCy3hP9XGVQaYyuhRw9E+MZsD6ZYW4EU4mNo/lCYu+Fx97zFpm6l+ObjLIZ+lnux6SrJqbM2Z66HBTdPVnE9Xm63HWYpnoCERfclPoGRCFOHVSG/13YgBVrVdht9iBVgBVqC3KUAB1sQTTyxuu+02cdJJJ4mBAweKGWaYobcNh/vLCrACrEBjCmgAq8Kv1UWcVERMZr6oxMdIfr+3JY5Xz2sd1Ytxi13HbhpTOb4iuxfluPHRICfmnORH+EjcFMCWuvFQkToX8KlgF/EjbsMbVhENaEOi+goRfdAlHXuYDRdzW/cE1Godu/tRst224h8bvFBzqBkMzTBvWhjFDbTHLtxjK9MgNbHYoGuY5om77PaAqvnyoy2lSFP1WDwT29jQjvnM7ETkyi8jRSWn5gonOAMOI0b2zLG7uGFVErZbpmGZvZpGoF8rK6GWcdVs6F9L9jh+b9FvQP827JZcJSvACrACrEA3KaCOEC644ILyF/aJJppI/OUvfxGLLLJIdiylm/rLfWEFWAFWoFMKXHLMhXoElsvPSH8Fz3xieRQt93+k8y/L5L/zu46iJSX0ckVY1YyHEq2j76/1tm7V7KoLAiYeUqJ4iK56qeTdaAhY5rDXdG+j56KhF+gR0iLcIzZMtc44V6o/cbKtx1ItR1VDfdKGhplV0zp+j2OyqQq1zehzwzbf3xyJiyCqY1ayc2lXs6NX+ubQtDg+hKawRPA+4GIgNr5R9qwUYLlgVXRvm5azWB/pqgrkko/SnxxmXinyM0TWFbq/htp1+YCDKayjmpJemHYRwsJKNli1Pv9y3F4MsNpvxdwCK8AKsAI9rgAA1q677io222wzMXr0aPHcc8+Jb775Rpx88slirrnm6vH+cQdYAVaAFegpBS499iLx/lt6DqzMgyzcPp/8gq0iVWS5NJJHfiP9nT3J0aPAi+mPNuN5tFUvl+/hitTyOF26l6S0SZ6GwDwTRNnAVCVY5ROxzNlva3SPr2M2tzk/KukGp7qDWNQ1qVd3NQkE9PmkEYAvmhdFSNI6Yc9jLTikBmnJXiUrQLVgJsEqibRRyrpwTAk8z4YfUsYFQiI0LBTVJkwbQPqFGZKV7JSpRZHp6FAS9JC1G8JUSrfvmI0ywC7KI8iq9rYDP4CyH3zplNO/9jhMIPnhmZtZaFDW7sfswQCrzkLmd7tCgQceeEAsscQSYtJJJ5WO+VNPPSWjSureroa6/vvf/4pf//rXYvzxx48aK/b4IUOGiAUWWMD73i+//CLuvfde8d5774n55ptPLLvssqJPnz7e9+oW+Prrr8Xbb78ttWr68/PPP8t5+M1vfiP69+8vHn74YZk8/NVXX5XtIfqHfqBV3759tVxMn3/+uRg6dKi8KW/w4MFyHpC7iT/VFDBzYH3yySdizTXXFNtvv70EW/xhBVgBVmBcVeCy4y7WAZb8fTsLr0pkMQFNL2BQZfOZ/NE/RUdW9zN5mLufmbOeZjTJHQ9bcnkVN9U1UWUhxl3m8CoboK6gByTYXdtEtxDAZCvj1jVkgJFl8ilPXjTd5xBY1YZ14s4Al+vqAFihAthAV+i7Sik68oZUoBOS/tuF5Khtmv+2kL2YwdUo25Cukbcj2mAhHUQTdq7qayeVLQhPNyznN13TZapSY1prvkoTFoZUtdvRe4p+A/qFFOUyrEDXKvDYY48JABMFfh599FEJtCaccMJafQZYeuSRR8Rvf/vbaBiG/eull14KgkOvvPKKmH322SXU+e677yQs6wTAqiWO52XMB+ZhqaWWEhjfLLPMIqabbjrnW6+//rqEaSuvvLIYMGCABJFqXldaaaV2dnWcqdsEWG+88YbYdNNNxV577SW23XbbcUYHHigrwAqwAqYClx1/SQqwyv6aXuosFEX1uWrd4z6YF7g1aiApIkuP8mVeXvqPFBJ27ha3qLHV9kV9NmA60RGYw9Q1edUCOKJG3MbCMVqgG5GQxYRarRP3UhFYZXFytKVy9X2gyKxJM3UzBRa+mXbLe4IwwiiamT7XzmTi2gq6WkiRbM2oynyWnbBUupF0SiFBTUrCzklZ9oOEWAodqDcxelonFcOzSOS3Cezz9arMhl2zbf5YrKRxcMeShbTb0XuIfv0ZYDWz3rmWnlLg+eefF1NPPbX48ccfJQhSAAsgCDetDR8+XPzud7+TEVqjRo2SZfDfd999V8w222zyFja8i2iUKaaYQjz44IMC0T+IGPrwww8lwBo5cqS44447JGTaaKONxE8//STBDJ5/9tlnYuONN5bRQW+++aa4//77xbzzzivbW3zxxb2yIPoI7U477bTySALGM+uss4qppppK1geYg/4ACg0bNkwA6Nx6661i+umnF+uss45sH5FK//vf/yS0W2+99cR4440n3n//fTl+RECtu+66sj84Nvb000/LsSESCuBo4YUXFi+//LL8+ocffpDgDQAQZb///nvxwQcfiBVXXFHcddddYrLJJpN10aMTtgEqgAVohX5OPvnk8ojFE088Ieaee27Zf9SNsW2wwQYS3H377bdS3znnnFN88cUXcuz4IPIKMAv9xBj4U00BACyAqoUWWkjaL6LhECF45plnyjniDyvACrAC46oClx1/sfjg7ffDhm/6YLZf+qlfEXrcx9O6zav0e5DJW3q5pHPJ0TGdFBSf2Tpf4kSWaVHmAIUp35ZSpq7U102GU66h6pSCXUlS+FSI1A6yZ6YjHhtIElm+LYLZKvX4n3kaoCRpvlQnvVVTnRpKAh5T2ySpoMzE8dRmbTasQiVbJ+9zfBADc4Epl3g2B931bLQxYVHOfVnHQqgNWaduQwiFVaoyfcPIU+QHSW3thoVppRtUXjwBMfbTiLJnRrRsTyVe03scM0kRuroEU42nRpbNLDE681nsz7K2bSjWDSR9KGXUieUuR/6FAVbbJoMr7pQCAD6AL88++6yYf/755X8BYN566y0JgQBRXnzxRQmu8N/llltOOu8zzjijhFtzzDGHjHoCXAFwevzxx2UZRAKpCCwALsATwBx8cIsbyq266qriyy+/FJ9++qmEaB999JHsAwAZoBAikHwfwB70FbAM7wI+IRoJkAkwCc/QFvoGwIQxIFIJY8DY8MsA2lphhRVkTiOAp8UWW0w+W3rppSWswBE8HMV78skn5bv4JQERZgBfLoCFNgGPAM/QJsYKSAbdfCAJYwIIxLFAtKd+WYHGACjQD5rh2CTmDuMFxHvnnXfkONF3RG0BYjHA8llQ2PcBOgEC1Qe2g7moe9Q2rHUuxQqwAqxA9yrw7xMuFR+84wdYjUbkmC6fw88IuZwq+Q0/DlbZfc9Q77zCXIYSOOmQWiJwzGdRMCDprx9WqXHR/GVK1/xt3218JhgsHZAJO0vsIlO9wtgrzFjwK5quKWegeeEUrHJBiOwmSG3s8YOk7bRO/usJsjo/5U3G2RBoDhZNK2glCdSBT0sXkr0TxQLzStFbJ6p1tviWC4RQ7W0LsLAq8/UXPnGuDSNqcHVpoYf0B/RFHaMzF5McHhHSDNRScC8rZ172Fx/NGNDb0CI1dC2hbTsfsTsDrNAp4HJdqwAAFoANoqEAghDZg9xLiDQCUFLH8VZffXUJTACaAGIQWYX8WYj2UX8RQhlEqiy//PLyPQAsgB/kC0I7AEiAUoAtgD/4NyKHEO2ECCz88ATgQWQR4BMglPqgPEAQIq0AyPr106MfAX2QKwrfQ1QWIpUAzBCRBCgHsIMyOPqFm+RQH/oBSAQQh7YAqxCBhncBLACn0BcALEA9gDWMCfpAh7IIrBdeeEHqCigGsIQ2AZQABdEuPmjvoYcekpALRzhnmmkm+VxFYKHveBcgDf1UAAvAUOXDQnlVL6AW6sa455lnHqmhDWBhHPfdd5+EcIiuQ4QXf1gBVoAVYAVYgSoKXHHSZeERWJYG0mAS3Vc23E/3AZEUlmR/OM+9weSRSTiUJ6jnv83PXNEYIpOGVFGngXesf2AvgQtpeRW5Q3tg+sol6mixZ/R4nU/XpD3TJ40HKoWzmSERD/n05t1oeBpdXmWRN+hQVIE5GtNXjJDSZ6SodaqtFo2WzrBPnwgdWqfse2JW3HZEtQEg2sDKMKvQ8AVBuUZvx7RS+6SRKen0Fa64M1RziKHdlmfMh205lD0zF2XEvIVpqmQy5XK+rbCqWl32TTKHQe5txb0qwzcIX/dDYWrWIvlhk/Xct1OakxLefc8cuSbFtuJsu51/B9zpn7sxwApbKVyqixVQAAvwCEAGkGjttdeWQAvw5le/+lXWe8AmwCAcHcQxvddee01MM800Esrgo6KVKMBClApACkAJABnAkw1gAUwBygDWoG38W0UflcmHsugDBViAT3gf8AbH9nwAC5E1GDNAGiLCcKscQBbGgegx9T7Gh/oA9wC3AMMQAYWE6wBciIRCJBjeCwFYrnEpgLXMMsuIESNGZDANAAvH1lA3/qt0VwAL2l5//fVyLOinC2B1sTly11gBVoAVYAV6mQIAWB++k0RY2z6hv5Ern87nv2m/yaeOozwOpZ04Sn3Uwi1Nxs1N1tCRXjYB6ZAyr9LiipePKActKhJNoj+4rQUI6Jol02+yleuArlWdW1v3SdSZzYZdfnJelR1gJcqQmwlTWYrPKgamBGKcsqip1il/OzG3BTVv1KlvnKrEGEcoQzTrtAzAUpU3KbYDXphVma01xjhipIopaxu4+UxRKgXyKNDzJOOzzVpI90Jmu5ZpBsMqk3SZL9JdxL495D+kQkdF66EWVG5NZVozwAqxOi7T7QogqgrHzfABrEFuKkQL4Qgg4JY63gdgg6gqRF8hMgj/RnnAHET0IHIKkUuAKQBAiMpCWRw9BLhCVBDKIF8QIogQ3QU4hqgsRHHhSBb6AoiGY4nIPTXzzDN75VPvoCAiuhDJhRsCAZUAzdBP5L4CcEPEEYAX+vHxxx/L41+AUmgTY8HRPIAofL766it5nBBHEhFxBZiHrxFRBTCGshgDtAO0AjDDuLE3AfAhqgvfw/gQgYboKsAovOdLkI9+QkfojMgrgCjohnEhWgpfA3JhbJgXtIn8VxgPtMZY8T30Af/GM4yZj7t5zYkLsAKsACvACkQqcOXJl8sIrDL/zeUC54AkiUvJXcOQ3+8tHc38LUIyYhzLLnQyq/t9FEylMMrlo0J959hreYeR1lShuIUuyUeOmBrpZRIGod8UmbyUS0FhRdEn1SFfMQZLP8pFV0G4L1pBkfJXApZW619/PxmxjcWDo0od6quXPBszOpZ0leE3X6N0AsrwkT69trcKQyI5pKgB2YwsW0sO0NX4hAZVaFklmal7dDVXkxSMGIcWH5tEtWWtkTWTzUj6ajz+SQbaXbLS5GKkd6G7jzNUNfwnkevnm21ZotYdD9uFI7CC1gwXYgU6qwDAGfJMld3cp3oEQKeOEHa2l9waK8AKsAKsACvQ+xWQAItEYJluvu4f6lBF90j8MS323C7Un3Lo2YRbbLKMWNfc0rUaXqXhfQbq6nUsCd2hfqrpbDYw9nZafhmz1HxgS25rPWVOqivyXCuvnSRLL6ZECrHhmZnP7wAAIABJREFUAHutKE7lPHOGYK3T9j+lPALLxjwyowhAZGlon84Li057WE06Z6Ndowwu2GazmbbMgrr5M/1WWVHvHMoOBffKoImqdpdC5UZWVVc6pnxBJE+dacRihugVrR0FfGqk388OZRM7DdjBfbWbIzJtKhxlhWmz4z92ZoAVJhWXYgU6pgCinNQxQN9tf+gUcn4hsgnHEPnDCrACrAArwAqwAnEKXHXqFekRwjJsUMvTi+uQ1ckqVuFiWpUbG0MP4KU+XaSHWvTElY8bGlzi6X2IM2XCqlg3O0BAm6WExC9VnzPLwDV/lIZlIRotFaGXgbsA6QuRknJ6x5AbDsEiTgfAoigvKZVaNZmqQlZsQisI0cjlT9zxMhsLZYASmkQvsBCJLGXK9jZzgdgGkHU2ZOS0wnI1TF1924Wvq9IQ0uHTnmazGtP9Uh0qzoN8jf4wCbEW1+ZpU8NN28pOU6rRlC6H1AaMyzU1G+6EPe9w6E4MsOqYH7/LCrACrAArwAqwAqwAK9CrFRj4ryvFh4VbCDvxm7hfNhokEHKow3lhlXk5lXnzfKErPoc33EfVq47TtRCR0wTAcnTBVbVy3TMfL/2Hy/PMPcikxry5GOeZtmr6pCSKxiRivs6a0+Z2d/3GWVLCBeqa8dYtuspHuZ/fOuPAUymJch/c0mY9hVNp8jTMHE1uLrW1LJyQJPG11Oypl9X1FAAutvAka84o2+rKoZ8esVa8e4IO1V1TnS0lUEzKmNSishIxshtY1qk8jmhmyG980fm2ruT7wK4xTE7T37bRmLooaeP2+MAJyYttf8j/McCKVo1f6DYFkB8JOaeQUwk5r5BTCUfqkH8J/0V00nzzzZfdNIjcUEgijgTj6iZA5M2ad955CzcDdttYuT+sACvACrACrAAr0KwCA0+7UnxUksS92dbctcX+Wd7rPoRUKH2ptKD0OwznKtJH7ZRWVdqhAQjeS9dsnEKF3lj8WB+ackOtKiNR71R0hOlrLofWBxIc3S5z+732SuosusBlSMwc0BjROvOgf1HTdh908/U4ZH4iHPbKZyRD+lFaxoQcLugREEhoJOpTYzLpeUBNWiRbRXOurUxwBVbJbMnF0pFndkFetD2THTB3lfyWBDP+yqarWlx0a7DFbbkWYbAGrgbIz5GsrjLgpzVYNvPFxbXdwQywoueLX+g6BQCtcJMebh9EonEcpUOy8sUWW0zesgfAteKKK2YJwJFAHAnG11prLZnoHTmkhg4dKhOWq2TwXTdI7hArwAqwAqwAK8AKtEWBqwGwhn0YVLfJhOC7VfUEXdDD5feZrra3w+YRM+ljGP6W9ZkK17LchOhttL0F6mhd0NXhVmaxJja3UnPOQjzLMm+zhzx2i4hBZkFui1RhZaYNm6AukSuYpBLjiYBCFpNrnXnwabIvNic+JAwsyNG3MSHaaCwpbOvaMQlg3pgrEZqK2EneTFTLD08qbdPrU9O9QtUaeDIz70S9+W6rcuWVW4xAPkqtLMOoxWsZkmKprunRx6y2Vn4tbVttuJ3KudZHYY2kBbWFSZ5RDUVLbHvQDhyB1c5547o7ogAAFm6wo0nPFcDC7XyIzMLNfuoWvyFDhshb93DDH24KBNDCDXeoZ6WVVuIorI7MGjfCCrACrAArwAp0hwLXnHGV+OgdArBcDq7pj6Zfu5343H92vJoJEHpaRlfM9Enh84wmXntgz3KnKeUNpLfSvzLPH3bmJi0XrApFBDGnZTRdC6Fa6iiZ8klTfULOdMrO2s5r9pzDXktXcrqOmkXYZXZFey3acyx1MiFgomvrrENObz8ejAFYbdvrbKLShe+WwSzVqEn69p6S2ZGQTA2r/bMYMDNmZ8KVUnuJOo0p37TbbEA/xoIiVIh0nrWfP4X5Lmq9zYEMsMYCSxjnh/DAAw+I0aNHS/jUt29fqQcFWBNPPLF4//33xRJLLCFwu9+EE04oI64AsPAe/o1jh88++6w8ijjllFOO85qyAKwAK8AKsAKswLiiwLVnDEwisNSvyoRTyH+Sv4AXfA+nSDZMUEdR00+tU1fAuy7/00WFHFXWOTHlAi2uCDV0ocybt3fR4uu7pDbHTu2lB/zsEAsLIxmmciX2EcxswlsOsMboIq2zDz2j2SnxDVxpSDeMrAfpyxm9MHYa7YCjHumkIp/0xPHJ+3SAKtWa/qx4R2A4enGtaCOszTbuUi2ayFxPgZI/ni4pneua/CvfRpSSLg3pcKzTaw7JZyvmJJkNqEYcFlxnUy3Oqm+b9XW2RNc0BDjTlVTlhP8ByRq3OWB7jsCK3hL5hW5TAJFTgE7ffPONWGCBBWT3KMCaYoopxOeffy6jrYYNGyaWXnppMXjwYAmwcHzwtttuEz/++KN8D3mxFl988W4bIveHFWAFWAFWgBVgBdqkwLVnXq0fIbSBCtW21S93+QBl3o7P8fM4MQ1qUbicqsTPyNLcED9DQT4K9yI5Vw1nucy/oqjL4dm7iFeoDZTahd9bRPP04jSfVVSOKtO6YqGTmQ6khayYI/JMdjYtZDOCBm3UV5W5Alvn/OPMZgGWrwfUEDINVfJzFbeWhy467Y4cHVNVAgDouCq0M11WrmxGbGRNe+ZSTB+jez0XNawN86rKS/mbrQ6vFlUbtr0XpmvZm/oRVB0M5rAwmfwQXEY5byYF2bO23m87BlhNmgDX1SMKAGAtuuiiMgcWjgoiisoEWJNNNpl49NFHZTL3aaedViBqCwAL0VcojyOI+Kh8Wn369OmRsXCjrAArwAqwAqwAK9BZBa4762rx0bsfFRsN+Tu//L3a55CYVXfGQTG7X8Wht7mQmX9Bh9WYM2j6U3VtobGO5R0pEba6N5gHADYrq8+ILWafGYrpbfogYInWPsdVLSP81zNlIautde5hZ1Wx9xJrK4qRPHFF8iRVJXmkjDKSa6lRpmAlfZblnVJg0HtdaHrLXd110on3rUZQTIIuixk5pPxam8kI9SToptG0YVuIU7DKgnB2OrYy1VWlmc2G85Xo2gZsfx/IrboY/ecUKLKBP/99WwZYcdbGpbtQAeS5mmeeeeRxwKeeekr+e8SIEfJWQURcAWohQgs3Ek433XQCcOrpp58W888/v8C7iLhSRw9xxHCqqabiY4RdOM/cJVaAFWAFWAFWoB0KXH/2NXaApV0MlbbsTIyuft+3lKNX3nkGEHo6xOaxhGhD/o4djd2s9dt8D+rYKDChOTa0F7kvlfzL5RXZyjWMKCwDdHmGhZ6mBbXek2cmE7JCQO8E+sSuomsIDvIZrWXaXDaglgdeMZqu0ntlXqqHmZmdd/jZjVqHAkvKQPVjZ0nz5jM94XmiiBlJ5Q0yMu2eWp4DKGbT1eOUxjSc4nKiumrwTiaFzxPEq70YYMvcJP3DHFPMO+VdbF1QIGT3kTZg7D7ZM5WAL7e8PCKK2mtiVNYE/eSgqlrTjS6sGJnTYW71t20YYMXoxmVZAVaAFWAFWAFWgBVgBcYqBa4/51rx8btI4k4pC3WNy6CK6USm72W+B/GuTA/d4X/KV9MmfcfyTJ+i7I/inZs04nhReGdNCG+JMPFF4IQnItOGTN1Byk5sflnIM1s3vb60K9hAcQnTOcxIF7HNAv0K7a0JQ7y9rWwyXq3JBJi2bj2malsPJcFJrfP/eU6Qn21GSOkgypZDynYULexZZTXpXtRrAFYZrKqga8ZoDIDVfTeleqc5S1LvLWkrYNEVNxhmqyZ5R55Ltj3DD7l03efAtQiwXPtRpS43/NKW+27NAKthTbk6VoAVYAVYAVaAFWAFWIHeo8ANAFjv0SOEldCEd8Da5XZpBIp0sh0+WJddXucYn4kqymTIHCcSaEWeUd/c5rOXAb+0WTOeqOpMxqCd0Kg5r4GUFSgkKksFkkZCj91RShqEcKK6VTbbIVoXythIF+1RGfS19TxtoHXBkeeS0RvNygRuzYsTpaStsE3dEDjpog0+EkyON/qixWgSdNV181ljubpcVhaqRQ/TFwpFa+mqkqDDXl1/qnD8ASUzr5idrLYBN1eBfp1uutmlf9rZ4q9/ZoDVnNRcEyvACrACrAArwAqwAqxAL1PgxnOvEx8RgBXiJrnKZO6EL9KGAhpbZZV9sDIiEOLs+MiRv2NaD0oibWRNRmRN8OVUeTrsDllbQ7pm1djAnQPmWaKytMC2VIGQ2Y0t04S4GeCzSahR3bR3TiMgSeOV8chXimSzdeFR54URqvYCvyD9GodpLuqnNhrKA8h6Tl5LcnbVp7KmsL2EpGg02J6QrWdHFmiw5g+gIEskhQJ0iK2ySnnbaDffZysGWFXE5HdYAVaAFWAFWAFWgBVgBcYKBQadd734+L2PS8cS433V9kfrBCBYOxrmysdNZtJJ/f8baMc19rjO9eLSqQDyP6m6OA1kXODVgNK9QyPTjw7sdQ6wDGgj36dq9iIlTS4lcZOK0kmTxynwRI+Pmc8S6JfXloR6mkLEbHmBs1KjWCWgZhUs7QSxi+Qa0PxoXYLx9OT7tmfFnGdJqeSTxKfV/mFQVTMTYIVo0fBaKD+em0xASC45vZwQm+3NAKuqWfB7rAArwAqwAqwAK8AKsAK9X4FB5/sBVttGaR4NU74lTV+ifEtnsiDij2bnDqn/We6LVnF1dE8tV4e6QK5Wg31RWxCB71mpD2YbqQtwqDH5HL+4SIVgrYt3syVesYpYUxOQfi21NqMVOoYgfKMyrcJnPQQwZZcmkBVoaU4+IlPZuuiY84um4OpnwhuSj8+CGxKVdsVnYrkpJm/lXc07mxzf0wdQfGYMMutEQCK6hsbdto20pGJTa7rkk/02WW2ZOgTmKRBINy17IvliHrROjjV4UzU7ZRPH3EjUOzYbIFGjBV3Tv2+47DWxVtOG9WVrO5a62V5bcgRWJ42L22IFWAFWgBVgBVgBVoAV6CoFBl1wgxjhicBqX4drOP/Ua9duR0x9AIsvXurCE1+Euiw23GDCgR51b61QK32YdYw4ZRrtUfCiiDti5pxiLBsKMesqcQUTCpH60L5yWr1WHdISNk5nG7p3Il2NuACQzlTsoChG6Tzll3rLhsdaFx97QdiM+sZDWwkQ0cUDYuTJQVTyVjIn5bCqNoGzqRjyLEzluBn2lPYttqLW6bHIZGlltNLUNWlW3wUlrEpWZN4rW3ZCa8bCRofducpMI1aqpcLm55eTRPGJNPkGq3TNN7F84ei3TlLbdkWsFXekP+25BQOszlkDt8QKsAKsACvACrACrAAr0GUK3HThjTnA8jrwdTrv+su2jSS46IIJBNz90ZiWxQWzuWVwQyzcS2ukrRJ55fVRGgLvpNtkUDn1rHC9Y8mVdkafSiFgWraK698WXX1yZeZEgJ/2LAltGjMa36f2q0Qpe2bacPwIQ1q0AqxLjr9I5r3WfHFCPkze4E++lrysv5c0bU9eHj9Yr+1HFCiNyKEEKHSfKcGy9RZEqqu2cGJ0dXXMo78F0jij8Mw9NworR0yaY6Op1lVT13yZaPaaVW5sgM57cMM3yuojL39z0z02E/369WtX9VwvK8AKsAKsACvACrACrAAr0NUK3HzRIDFiOM2BFeqguH0k0+egJWNr106v0ENONsfG5o+6fFTq+bvei5o56hjHh5zkTZkKlfuikkWlGWwKAM50y9JxFviVJSl8zxIIKnygrlpmdwPcyXGbvidEM4gladbHvnzmU5EsRFlcVthYC61Lj7/I7J+1Ytcg85iR5DXrUd+0xtLFrV7UoFFZqz66VE2fjr9lDNG94HLQkk+Ya2dz7WRyhowh+pdv5WN3sWK6CJ+/i0EthdqwqzK/xcXYq6fLsT8ZLdUxwAoyCy7ECrACrAArwAqwAqwAKzCWKnDzxTclACvEEVBukuZ7+F5Mvp+fnogTMsZ7qOQS+bpv624QHTD9ShfU8vme+aicUKWQgzpOY1XahRsk+8kKGeDCRyerdaWNb1lULBxBTWGXCXIqOsFtt2GTXlx6AgBW3vtkjujqtc1marBZb9P3zeNjFJNSgagdV1qJ7Ztz3xo3uy6VIGSjEJCjiHF23jWNTqMrCf/OVo61BTLg0M2hfRp5ay4DUcScZDFiF1kOQ6mHcRoxfQ/vJMnk809ir+ponXmUNOYvBLaNOHgHTzrkAk9mN2zroaGpVV3Y9C9/En05AstrrlyAFWAFWAFWgBVgBVgBVmDsVOCWi28SHw//OL+bTP6+nd8kL32R9JdnzRexpHxuwFNor8guHyz1rTJfRQ048z2I75/55iYPKPqoCtrlzeq5jl3uT4i368NeBSFDfbCCFiTHN53gEkbhDu5waVbm+JmNmlaW2qu8OE3/BBKbjM65TtLJesqmu71WaxlVGTgSonX5SZdEeeg5o/JRKA+ZMo2Mdr0HoZaPvZQvOApSQkxKhayRlVQlh1QP6hVqz15dyyCgdneAUdC64nyr0CZYG0V02XqNJokKxonOMUkUpBBik93/yAAr1EC5HCvACrACrAArwAqwAqzAWKfALZf8R4x4Pz9CqDEbEmggvYfUfXNlCIlymrtaSQutkM6FCkoxfCnpsyTvhMKqMk7kowgdl84Gv2gnqFxZ513ebdnIfT5q0qjbz0u+Hx3zQCs0xW2DW1zv9JZf19a/T76U2FDICKIl89tg7CzRqB2ZdCzP4eZqzAdQbObke6Y36xe7HG0S7S17SjauUPlrwBH/hOUlzFH7lqXbwnIjUPccasaf3n5oPktWOTVhS46qhsJOY3RpR1lfskaN5QkhNt51U9G3X992dIXrZAVYAVaAFWAFWAFWgBVgBbpegdsuu1mMeH9EmCtFAJb5e3VZDuAkCXb66ZAPZhc+xh91OdDpccg0fVLCtPKINfmV4lyGC1ZwyyzJa7reYGwd1BJxBWbMtxhQbMSamiHqX7tmzex2Y2ZYFohh65j5rLTDVexViNYVp1zWdphsg5qUcBdOHpp2EZS5ydqKhWyFQDr3gi7mkCpaeT3qGLmsy4hqWlWZ3ZmTX1QnRteQ5eXQnyams8nf2CqM1NehIe2O2bUwxmje+Agjt2UoTJ9ViMzbaBcGWNVmm99iBVgBVoAVYAVYAVaAFRgbFADAGvn+yOzCuuDwlcZ9D9NpK/cgktJJGT3WQz+mZ/VaM3hSLTeXy/sr2AMNumg7UaCtl/UwxNc3dMXpFZUHqyQuQmodECvRuOl0aiHSZOY0R5Jt4NZnuhccShFCyYvStSMAq6rmrugeEoClHdfMFnf6D814KDnNDDO0BW+LVYdY7z1b980aLWBTPsosIKGDLv7pH3mIhgps2dBOpAT6Dp68TDfMkD3LaFICxzbtNHV11bsVonX+k2SjnTfhCKxI8+LirAArwAqwAqwAK8AKsAJjjwK3XX6LGEkisKJHFvLrt+nq2FhLFODxN5onjc+9Nf1Z0qCvJn8wg0cxXwPUVzP8z+i5qP2CjlRMF9LrVgaSvcKFgAGEpqMBMLV19AEH281+NKQvETLLa00EyyQmTrBpYq0rT728sJxcdqi0t02u71kYurBYRYEEujJ/E9TiCu+SAzCvmGx8BqMqdAGOgtYEykmt01mzJUFXV43KItn/0UgeunuEzpxt96FDbRMBClgftjsHzON22n0CaVejN61CPJ9pr6qzrhgs37aY/jUgnzi/LZUQsg13YoDlF5BLsAKsACvACrACrAArwAqMrQrcDoD1wciw4VmdYNMJI7/Pk7N0spSRQyp5UwdMiY+XPMsvTrPnNVL+YP7n6ZCzQGFDDSpVx9Xxwqow4pCXyv0rt66JYj5dXVwiypsNduIdSeLNyQ2akJBCYbrmNZm6phpK2JBH/2nXpKURa9KGVXPmM+IWS10Ju8h88IqG3brqtCtwcEn70LpsLnfoswIZc2jeXuKYqlq4PtJxY5w5uBA7CSxT3Zx0EwvVNdvikh01qUTLB2U5nlaIq/XuPoGjb1+xYF0dEFAuUwfUyrWus4OrHYoaV9QWWUm89XfciCOwKinHL7ECrAArwAqwAqwAK8AKjA0K3HHFbeITD8CK9UWTSCfTg45Ri3j98rU0GqW74ixiBpSX9Tlm2dCLBMgFqxKFdOiXfJX+8T9tvREwFTpq2zht77pcyLz7oS0GliuSHDcE1H1UvVyOAUNDMwI7aLcVE3BYXGXVo9bA06/MipuMI7Sz1VzxDgIBKkgbBkW3oJDqQ8pQmy6/qtOGH40WXACrMOGkLjOKrdokR9txyLqnSA3lawFXkwbLrwlCzhoIxMrZZkp7pkbVWRHX22FDBliNWCBXwgqwAqwAK8AKsAKsACvQGxW488rbvQDL7lEnTzOn2Ro1ZYukIs8y90FPgp6dlvH5qG2DHPEzGQv5tBboiar0G9rxMaV05pelGpLACxndJk+hJYVsAKuL5CoXuBIGMYgDDWsiASgxEDDRS4eAubblPnYjWldx4rGmrj7jqvTVMiVNJBZi9DZnvSEH3uxqSqtpFE1M3JDtVGH93odgrZq6WnQoJAULmarIMsle4u67DUibz1z2SnFcAIhVWyAZAQmlyiaxot1VfC1Szqx42XT66rR1db3tN2CA5ROOv88KsAKsACvACrACrAArMNYqcNeVt4uRH+ZHCOGw0yNmlQbucnZcXn2HfQr/mPIB+G7GU5CjVLMYjNCQFrWAml+gaiUsqY8yaVoGxEyPnJrjCJEnpEy1ATT0VhUMUhgUpQW0QgCsMxXAIh026YLkFemLGhmqgyoaEiiwGmtPzUCbjPrmlZq5pjIQnOoQl1LLt9updmN0de2UgcK4illtIC1sBGrJL4nR+WCVNKdiVc5IKv8iraFr4S8CNKM9gWFqjHSK6DNjjclNvgqfLJk22yjLZnldBlg1FwG/zgqwAqwAK8AKsAKsACvQmxW466o70hxY+rE/GlmVu8fJL++NQK46opU5U7ov3+BFVMVGkye541c8OqlyJOlllIYqhTyNmjK7r8kU4wKrJhv2t+pMm/3dKroCvYzJc6qpSEDJLnIYo+CX4hEml2jnRWXN6xTuBLeuPWtgPu0hoUh+mhA0HhPUUi4mAccYmjQsqTIEepjlSm06mLTQ42NGC1r4no1olFCOdl19Z8yAqbUSUztBiHRYpGBZkvjQa0b9huCbADp7tl3KfBYTd5f2rsZGKV81umDT2hZV5npm2mu15Zb0Yp1t1+MILL8RcglWgBVgBVgBVoAVYAVYgbFUgbsH3iE++fCTjo/OGSHk8z187k/qWiZH8FQ+Y+Ur5wBOf2LLIZV4I8kbBAc0EaEWorZLhxh3Wu96SKveMrb8ZuYx0qRZXetiGTOHlCfyz+qwkwTwZXZRzWH0atFsgWSAub5mgvhU01SHLOeZeYwU+eeuO+fq9G3i/Gf0gnTbxRqUkZWQok5gisbmzYzIIcnf843IsuJs70ltjHAl9UyV15Kq1zeTOravWqdMLoNVaoOg5IVuGt4JaNoKtN7WF47WYOmqBqsst0DSaVQRaYVnBoRVzVAwWwpcvRfh6hOy9jbrMsBq1jK4NlaAFWAFWAFWgBVgBViBXqTA3VffKT7tAYBVSyIc5EjZVPbbfeHkUOJJZAE55GCk7ZZDWQ/qIHfLJbErzfz5vNZ41cs+uOcqZ8Kdcocq62reHP2XCQH9edDM45Vti+DzudNRvnkjM+aoJMeixeT7rmg981bO3FKVC5zRquvPvSad4orRKwpgpYJlupLIFKfznw65DCjaMIWXldSaD59lpL2lg9JIRTpwH72gBhbQ35D1TEGIWX1I/FJAN0qLyA1QdiJDp0l5eu4y64gyO4tehZsQbVZQt7fu9wMtQFZQ0DUw13sBDKrKSjdcV89sPWmJtbZehwFW+8yEa2YFWAFWgBVgBVgBVoAV6HIF7rnmLh1g2ZyiDo4hPNggP/JYPKinQ5XE/SJOhO32eeuV62PDtYcEKNhOxhBXUyGR5BieDu8UdMqO5RmJ0RNvCxFEupfdNlhV1SZj3EWrM6unBrJ1Q7fhxE5p5BoFenUAlivvWuv6867NrD0DQ6pX9L9VRaz8ntkJ3VgaPPDrJxlklnJybYEXjppswK29EM7siLlVRrSegTqSG6oUslSe8MKLPguwtVQYGdnMKeALGYJXJesGYRIs8ucT84dLm4+QrvlnBljNWSPXxAqwAqwAK8AKsAKsACvQ2xS491oArE8z7EAZR4XwDYOWhHoXXq+iKKvLfatQVSfnzOe/FbtvamiUMHkE/XZcMupOytBIW95E9a4IFwqmSOQdjbzIgFOqZ9kxSftdhY0MsVIlrRvOv05aTR7MVTPXlLHYsmTWZgP0a8WmbLuId5FSo1cauGbTNko1+hCkEa6xtVfpQ9epwqz3pFzDJwwdAwi0fm8WMlNDMnkuGlxmeJb9zHW6tYoN0956zSx86klJi67kSGpW0JdwTOme6RH215I1tlqbI7AqzRu/xAqwAqwAK8AKsAKsACswNihw33X35BFYxO/w/Uo+ZnRy3i4rV/4bvhGB4vJJQ3zUWo5xOQhTVfscpxKXropNVPU0k27Yk+/nUKXqoNqRYLuKOs2+Y9XaSAgvFTOTxKf+qIpOU2WkqWQRa1RrZUTNMpQQNVo3XnB9s636olISNZK+ZeGNhuFJmmDiBdM4TRxbPlwXP3FJHxo15QQfJn62bAT5kbuSBG3ZeyEbngvm0V2q4R3JInsVE6CX9tmiXpW5NA/0OqxryA7uMP3s1YyUp8vI+IGqZnv1LddigBWyC3IZVoAVYAVYAVaAFWAFWIGxUoH7r79HfJJGYGnup3QqkhxSubtFfFSvD+byr9rzZ/HKk0N9D6s/mp9rknzP8ndyM9BJccDRNMF22sGy2x3jQmYaQBQ+Ny8WN1SYWheDCInt0S0s6aw6xph0RX+WTIGFB2i0Nv1+aMfKMEJlo6z3YmvQhTfUsA6fVaQiymIG8qY7SAi9iBinD1bRqbXNCQ0tpc1WsFm91yF8SXbOzNKnekxvmgiMgZKYAAAgAElEQVSpLB5WeUMVjXkIsQDS+8KyUu87e2oOs4a1Zrm5tDFUWb02C6reMddfgLQlY5iAtmTIeKhcf9hiTQZYEfsGF2UFWAFWgBVgBVgBVoAVGLsUuP/6e8WnH39C3IDU0ws5AYFM6goI1HYEe0ZXq6dTSAif9K3MXTeDCChASd9OBxjio1JfqjlhY/3Y4BlxObwGSMiKBQYb2DzK5JlO1nStY87NlfinVVzgeLQQLHFZQbOrrZsuurG65+28Fc2YzaxHpoGWoKKSZFOUh2XFFNsho7HmqjOWluppD82HY64sFpXtBcamq3YbM2KtEMXmGmneBdpqXQgYagFBVm12TL0UFCaX7tBSvzIaFlRZGhhYY8lYBuzrlXNzM2zd/MHyh83XYIAVZGBciBVgBVgBVoAVYAVYAVZgbFTg/hvuE58BYGn+qO23ax0aZH5DlV/Um3UVgqeliv9m94HTmsgxMw0OOZPEW5LJF3ywHhInWMWAgiQ1tMrDVMihr+42S6uzpevKwZTyQ5OU5ybASqpw2Kdm135tG4F8Zb6503EN0DW/Ci4rbI5aMob/XDzIP1KHYOYiUf2lXNDEBrZOeNkL4VxJwrEcomudVx0KGFGYhD1UqhDmF0mmPTrY5k2N1Hw1suUeEszSLP1hk9mD9WFjfQ5ZD2YPovR1TZxjE1lts9UZYDU2u1xRNyjwwQcfiOuuu048/vjj4pVXXhE//fSTmHXWWcWSSy4p/va3v4kppphCnul/8803xV133SX++9//itdff1189tlnYtpppxWLL764WHvttcXvf/97MWDAAG1It99+u9hrr72cw5xtttnEDTfcICabbLJukIL7wAo4Ffjuu+8E7Pmee+4RL730khg5cqSYeuqpxSKLLCL23HNPseCCC8p3n3/+eWnTL7zwghg2bJjAezPPPLP49a9/LdZff32x/PLLiz59+mTt+NYI7dBGG20kjj76aNGvXz+eKVaAFWAFelSBB24EwEqSuHs/DcOqAlAKzIVS5quVjcHu6VSpzXQuSjwWFzWLcnK8M9NIgSpKoGGrGumJKW2YtoKqAucIIrRuRIU2VFLmBJfABTuy8S/C1s2XKIAVE45mzkQ+dWU2rOTyd0tnjHiPGkfBUFSB0AYaAVzJSBOKaY6I6hOrq/luUrfVLjzhn/LNtGtBeaW6YqNx0Bh6bYJUhOjqy8JYSIKeGgq1AzL2pm3YCVzbsH9QY1n1j39ggNUujbnejivw6quvip133ll89NFH1rbvvPNOMeecc0pgBUjl+vTt21fst99+YrvttsuSUqIswNhBBx3kfM8FsNAvOP7PPvusdPx/85vfiK+//lrcfPPNYqKJJhJrrrmmePvtt8WIESPE6NGjxYorrqhBgY4LyQ2O1QrA9v7617+KBx980DrO4447Tmy88cbyeyeffLI499xznXoAQG266abZOokBWJtssok48sgjM4D11VdfibfeekuuBYDn9dZbT37vgQceEADT+PqXX34RQ4YMketppZVWEuONN95YPVc8OFaAFeiMAg8Ouj8cYIV2KdBZkMUMVzB71cg1ZTuXZD5zeZW5SxPnZec8rew95XdZHGgXuDBcNa+rbEKO0Hkg5UI9SNo1uwef1KT7b0lJlX+qGA2F75aEZcmJS2usKHUFSRp5pYxNpaNO2iFcIk0vl2qWfpswiWy6zTx0JrygX5PaWrdcehNtQ7WvNUg71xWMg05H8DpNpXJiUnOUqpHgBgpGEri3aTdARmntaqBkn2nEku0c2lK1AnxqVKEwL24A1s3HAHe2PcVMvRb4R5FmJPTW4tsuqH3afjK2xO83XY0BlldnLtAbFAD82XHHHaVzi8+iiy4qNtxwQzHBBBOI999/X1x99dXi8ssv1wAWIqyWWGIJGW2CCCxEZH377bfyfURRXXHFFWK++eZLfuaNGSMuvfRSccwxx8ivl112WTH55JNr0kw55ZQyygtQin4AsBClMu+888r+TTPNNOLdd9+V0S7ff/+9GD58uAQA448/vph99tl7g9zcx16qAOztqKOOEtdff72EQVNNNZXYbLPNBOArwNZtt90mv8bawQcA64477pARiTPNNJN47733xKBBg8SXX34pvz/LLLOIgQMHiummm05+/cQTT4irrrrKqg7aRsQj4NPEE08szjrrLLmO1AcA6+WXXxZLLbWUGDVqlFwXAFSTTjqpXI+IqsQaeu2118QKK6zAkLeX2iB3mxXoRgUeAsAa8VlQ1+xAQ089nvzeYIApWwpjUlnmfmYOuZnX2HZ+yeY3oXUb1jLhUoc9dhs9Cog1oFxH6ho0S3mhZJQm/ao6dvt7iX8Y2LNQ5982jWpYEd2P4YdhFpbf+Oi2qJBW07eRQ66Vltdyzqnvp4N20VuH7K1bLvuP/FbHo0QiDdRZ3KohgVXqxcLNh0SR7PoJ+7aVN9HSzqSGkPKybSbCPsPV8i0cagi2AZS2FGGwsp5Qa8yVsO1/ZTXRLUXb5gnAyoacrRUigm9IgftV+ATZSvo6YW6crr/H6J1dBQCrb996XeO3WYEeVuDnn38WJ554orj44oslCFpuueWk4w2gpD4ARgBEOCb4xhtviCOOOEIcfvjhYo455sjK4Mjh9ttvL2EWPvj+FltsIesEwILDfdppp8nv3XLLLRnc8g0fAAuwa8YZZ5QAAGvumWeekY48PoBkcNRxvFGBAF+d/H1WoIoC9957r9h1113lq7DHc845RyywwAJZVbBJRDCqdQGgBGjUv3//rAwg19577y2/nmSSScRll10mFl54YW93EHG47777ynI4enj++edr9QJgAVqhP1hvWKeAakOHDpWwChAL7aB/AM/8YQVYAVagKQUeuukBCbCor4u67V5f0mqMj6f5GQXm5Dsu43PMXM5aW7zIaMmdbngqYtZ74pdl2pvPDNc8DzRIWtFH3ITD2wENmzCydFbUiGkOq5Dqld5FgBWiq+1tl/bKfKiu5N8xnVWL0OGHt2779y0dcdHVkBpJHGZdXib6cCE5shFkryQOjCZ36tTQppSjQ6eHboAeraM3hY69kK0I46ym7IAtCbptpOWwKp8dHQImNVUDg43rQ3VwTaZtr4va/0rFbnRIK238ewZYjSrKlfWEAsjNs+6668qoDUSUINJqnnnmcXblxx9/lPu5efwIz/70pz+J5557Tr4LRx+OOpxnfA/RV4jCwge5g0KjpQCw0CaiwpBTaP7555c5heCMTzjhhLI+RJUwwOoJ6xm32txjjz0EjtLis//++0tgS3NYhahBj+CGAixEX22zzTbyGC0+OJaIqC76AcB68skn5dFABXrxffQPebfw+eSTT2QuLgZYITPFZVgBViBUgUduflB8NuLz0uKhv8qX+7EuXzR1KugFZfKReYYw9aW0bODhwT+hetQtZ45S1RcftpD3JNOfQC35z+z/6G1tZLZsmdEN1GXHkXVVaMP7RFjtLjubWRimYzOn1OpKUr+7ZtL2ZsyzmtqY/riluhxgFYixDWbU7FD061auq+c/0vh5Ul4leqeZs1yhnrJLtaFE9MBKX2gf5FPNWnQtCKTO8eYgUEE+uuH6ZiiECTWrXmRtvgG4qlN6aQMMqYziZ9Ne88ZCalL7umvpMsCKtAUu3lUKIF/U008/Le677z4ZfYXP9NNPL3bffXcNTiGCBNAIf2Ao+yDvDvL5IBILH0Rp4TgV3kNbyH+FhNZICo8jiTgKGPIBwELdSJSNfuAoFo4qPvbYY/J1JI7H93H0EMel+MMKNK0AIptwfO+MM86Q+aTw2WeffcQMM8yQNQV7xpE+H9B6+OGHxQ477CDfQ8TgNddcI23a/aNwjMwfh4hG2DnA1amnniqP99IPABbyX2Ft4HsAvvid4qmnnpKRWDjmiP5++umnwfC4aR25PlaAFRg7FXjk5oeCjxDaFajyW7kjPiSkqqKrEHWCTY3BdG9D3d3Qckk75h/mk7QMQZ+Qc5iyCUq1EFjRHVAvZCqpQmWamHUpbqcOickhU7tQlZm2os0JbdHVW5TpEkHpmIxf6U1Tad1+xa1J6JE5RjUepTxdDbZnpbbqm2L6ctIZ/bbB/JnejTxyhwYWmvNr1m52VZs2qwVFxJL2uB3QARR1VTtgUsqvtYyOGjM6mROyf9Cv5ZBBgg27sELxoB2tpwtZ7JWunMI9qbk48s3UkaZRfVJrScsTEV3QqZHllsq30karcARWT5sSt19ZATjDOJKEHD1lHwAt3Kzmc8wRmYL6EC2F6Kxrr702O14FgIUE8Uh8rfJV4b84aoV8QUh6bea+Un2iRwgrD5ZfZAVqKECP/bmqWWaZZcSFF15YuH1Tlcd6AwQ77LDDZIQUPojgwoUHZUfRceQPlyYAUGGNIPpq6aWXLnSDHiGsMVR+lRVgBViBaAUeueUh8bk1Asvn1If+Vm4rFwhx1GjC3LektBnqZJzSkt9On7k9QXdVtEvq33GIowi1igc2HT3LdCCDzBx7x6BKHfsIoBZpWT7eQK0i1O8jU5f2hhhGdmkZMQLTOZeNRjrsXQawXCiGmn7rjqtuK64w64yk1Wn2lCb60hZOnvwrUd6Oj1zrtDhxkdZUt3jHAVZx80zgnU4V9aiysI3St2lFS+VbqZ4NJLq9kheC6X6TjTrrGpNT8dSANVJu2/3jfhJUGsXvNlyZAVYl5filblAASajvv/9+cfbZZ8vkz/jgRj8kZacfdfNfWQQWjgQeeOCBMjk1QNef//xnccABB2Q3pKEtHIFCkmrbBxEohxxyiFhllVUKoAzHnpB/C4mr+cMK9IQCb775pjz+ishBfBZaaCGxxhpraF2BDWP9mDAK0Y3HHntsVhbfR56qP/7xjxLe+m4CRFJ3QC/VLvqBfFbm54cffpCRVlNPPXVPSMRtsgKswDiswOBbHhafj6RJ3F0EqAO/nFvmwYrR0kAj3yXs0u0IPE7WjAn4nEG0UsMhjGGKNiokBXFHaIVWTy2EVue3EFsLuvLhPqy/Lv+cpnVkUKs90WsuXc0pKouZKke+egutu66+XS2RTAPtqJh8ajjoaUk5ATKwJI3k0aJLkikuM3O/6D1Qwgew6LrMrJuQZnWMRQuftG2UydhMMJUrlqerKwNRFdZudVFj9yz/Kvf0hegalE4xV8MG/PLu67ap9jrb1GbPCL+V9cRq4dlQq0+K/U2szRU3WIkBVtPCcn0dUwA2/MUXX8ijfUhOjQ/+bTrmAEfI1WP7INoKx5uQ3wr/BuTCMb+LLrpIc6QBsJAT68UXX5RrBhFZKP/NN9/If+OD400ABEiO3a4P2kJfaFLtdrXF9Y49CiAH1a233iohLT4AVerfapTqIgET9JoAC+VxKcG2224rLzlA7jbXB1FbiNJC5BbqPfjgg8XWW2/tPc5bV3nsDQBiGJPv6HDdtvh9VoAV6P0KPHrrIwRgKeektpNSECbUiVcuAXUnrM+o75H6HdmJF/qyK7wncyCr9MzWQOOhEWHGZfG55IjIuEuDjlJxzdRipv5qDspBCu2yCxrYZrN6DFbWYgh9C5m2kgH6LMVnASbxUH2PhYDFU6gmwLrmDlxwmJ5gtTn2JUm3KV8wTDCYBjewf4STzLB10kgp85jZGP2STzMhfGLqRa3NvtjkakDCRoasLTDXLhA6gCyEqewHTW6vsTbcNl3p+jJXublhtHnill9vRQZYzVo219ZBBeoeIUQuneOOO07geBXqwmf99deXya3N/Fb4GYLbCQGvkJ8H5fE1blZTNxPie4jC2mqrrRpVAW0jggbHFQHMkCcI+YH4wwqEKlDnCCFuA8QxWNxQiPxwgMWIKsQHFxHgdk6aS4v26dFHHxW77LKLAEBDIvaBAwfKPHXt+owYMUJGO2KNPvLII2KFFVZg2NsusbleVmAsUuCx2weLL0aSJO4N/P5t/rqfuC3h6IPKGxs7Ybrf2nCslbmck5jwrQZEq2hTlF+VulIW4OdssvJwrDNvaSbK4a2ojOO1MtBFXsmKpRF8GmSyRfXVi63zjLHERrU3k1627rrmDmkLlXi0D9OpBm2WV9lwmpzj4gDM43sqIooe6Sse8Usi1JK/BCZ1yvdKbk7NFmC1va5JEeLrsiTTMyMTvdObAT11q4SKRtMJdaKmoas3jX9wrsP4sce+UeWnkrONkAWnQGlLMMCKnSwu300K/Pzzz+KUU04Rd999t7yZDB84r3PNNZcWdYH8VJtvvrl2tA/5dvbaay8xePBg+R6ONO20007ymKDvSBTVAE49cmMhwgQfRKUgyoR+AJ3QV7QJMIb/Anapo1JwunGDIr5GjiBEleEYI/477bTTykgv3M6GyDBEkwFmoSzGiu/zhxXwKQCYg7UCGAWYhA9u6qS2jmOFhx56qBf4DB06VGy33XbyUgLYKdYRohPNSCfYLeq78cYbZXuAwyeeeKIzIgprBOsJSdxxOyfqw1oB8OrXr5/89+effy7XCG4bRf14B+sEz/AObvkEvJpzzjnlmsRxYkRioY4BAwb4ZOLvswKswDiqwGN3DBZfqBxYhsMb+2t6mWvbfnkDepvlSTLCk+SXNlLRmSNljbu7doJoJAgr90Zln9T/RYe2xcUUtcs2KGLJbJOAPPrMvOtI+u6Oyx2b6W+AvVou49OPOdktp3X3tXc2blOFQfv6T3sQEnvWjKrp8T0XMEkaMQFW8YgfPSip8urZotbSnGq0uWzhRCSJ95KhhsSpVY25nHKoIodsXCNrRqMleyySx+eGodhgu4y16l9NaslEfwrqZpjf6pGtBzJykjE/p+dJFv3/Z+9NwOw4qrvv0/fOpn2XLMlaLXnBuy3b2LKNbQzewdgYjAmEsITkg5CwJIGEAC8kkCeEPSwfIXlNwASDDd53y7vlVZZsS7IlS9a+b6PZZ+7c+31V3dV9urqqq3q5d+7cOfNksXqqq0796lR1n/+cqg78FWDpVZSBlcv4UCVDRoAFsexcKrZNif3MmTMH2Jk7bIuT+GFiEd5yxwLar3zlK3Dbbbfx7X8sGGZfRWMHSyfdbsQCaJaxxTKx2I9KwGLZK+xsn/nz5/MAe8mSJcBEACZIMXGLBeDMbibCsYCbBd5syyMLutkX41g59iU2lu3C7GNfL2S2sjqY6EBnaw2Z+w2bhtm2U+b3LDvwlVde4Xazs+NYhpL4Yb5lI96yZ+G//du/8QPf2Q/bssvEMXlb6+7du/kZWUzoYnWzc7SYmKz7YQLV8uXLgZ1ZxwRbJkQz0YnNUfa1wxUrVnB/ZyIWmx9s7q1bt47PC7YGsL5s2bKFC1ksI+z+++/n5ZnIxsouXrx42IwXGUoEiEBtCSy/9yk4yDKwvBhKPu3FD+y9D7B7YQg3UrGhpkrGKxUZzYntOIDg1noX5IBajppQEBkN1YJ+ybGmVz0O37Ae5j9nJCsioY0hAQGDzS/cVXCVP8zli5o2h4kpLMvpq2U4FhVWy9anYa31Cl1ehHAppT4jWcZxmIQc2T91nmEf5TsP/v5++9JVmrLuCuFVXiUBC5+JhEUod4xitklWs8+mftuuR9W20a8/qkQGV9wJbV46EWtZ+dXNSt3arJpgNWORZ0MSV5adpvi0LD+bTpbP/c/XegsIeiovvfI8KBSLeRpKdRGBmhNgWwHZWTwbN27kQfQXvvAFfs4Oy9oQPyyIZhlLLPB97LHH4OMf/zj/Fcu8YlugzjrrrFi7WfDPDniXM57Wrl0Ln/jEJ4AF66y9f/mXf4FrrrkmVBf+CuGqVav49r/169dzW7dv3w6nn346t43Zz+xhv2NBOcsqYYfTswOzWfB+6qmn8uwUsYWQZWKx/lAWVs1dbtg2yEQkdqYV+2GCz/e//30YP3683x/m5yJTkImu7N/yoepsvrGsQ+bL7IeJUszv5cPf8fZB9juWicV8WfeDv0LIBKljjjmGC2rMz9m8YPNh8uTJ3CYm7LJMKybMscPnmTA8b948PkdZOSZgiy2E7LnI5gyrj36IABEgAioCz9z3NBzadxC/MUeK+fFLEmEnNW6dWGUb2OQg75iSS5gpnqCnPN5Zs/tQRpKDpQko6+QeC678Vs9a2Qc8FtwQVYdSdDKDpVozEoDSFw0ZJism3m1K4cvbdob1rciMw2CzyU/Ow7c+mK2GlLTU4mcQoIezb1wlR1zjQbxntW6Ln+tj5jOldObXLCPHtFDiSSMmjnxNOwauF+Etj+YMMo+1B1jeOqnjmmLuit2WgfVZWaQywtaBo7NV5uoL+OKjBkjO8z90EOIajE+IK5qRKNkqMFQnZEsz+ZzLz4VCsWDbQSpHBOqWAMuAYplQLNOC/TAB6zOf+QzP4GDBMDvc/Ve/+hXfWsS+Lnjrrbfyciz7iolfqu1FLGODfVWQPU/YNr8PfvCDsHTpUi5QsftYlgjbEsXEMfbDzvi5+eabI4JSnIC1detWnnHCgm62vYuJBa+99povYLH/Zlu9VAIWy9hiQTwJWHXrlnVnGMvaY18PZFv12M8pp5wCX//613m206ZNm/jHDK688kouSrF/sy21TOi6+uqrYe7cuTzrj535JsQrNm/YHLj88ssjff3hD38IP/rRj/h19mEDlvEYd+B7nIDFRDYmZrFMLLbdls1H9m8hYLF5wn6nErBYBhYTsFgf6YcIEAEioCLw7APL4dC+Q+6vVMpBXKoQf7dGf3EX/0z0NSdVA+6bf9yhJ6ZYVKkjeAB0ORDYfF+Y8i+iLWXSNZ+dAKxLOEnkgjoVTbDBRqiupeNqMlG3C5NbgLLRfBSS7hVnaW1ElwwBtS/keeyTVmV26xD+tB7gLPvDQ1VnqdaZ3atB3o5mEoeUvKDPqkPQld8RNXnpMPi9dgHTjbo8n3Xz2+97eIuf67KuW9gKWDXDiP0hJxXcxvaoWJVeHMVrf+rJJ88LBYuzL1tKApbN4FKZuifAzvVhWSDsK4C6n/vuu48LWOz8HnH2VVzHWJbJ5z73Ob4FiQXMTLhimVaqHxaYf/WrX+Vfd2Pl8Y9OwGIBuMiyYoE4E8CYfWK7IPsdC8xZ5ggTDFjmCROz2DYplsVFAlbdu2XdGci247ED3Zmvsgwr1Q/7sIEQsN7//vfzjxXofpiw9bWvfY37Mf5hHzn41Kc+BY888gi//K53vYt/MCHu65lxAhYTn1iWFctAZOIxE5eZ/bKAxQRs9qVQltXIRF8mvpGAVXduSAYRgbojwASs9v3tCe1CQZbIurA9pN36S2bxJqnj59ySgLw4z/7c4MzxqBtYuj/aAEgnyxlVxoTjG5gRJCBEzYqEVyoB1LLlnHYaSq3JgXEsXEtLxUDFRKmWHJL4cALjQClg2Si6Lp5KSOBQXQsyfoKjuKP7BWXYSMqM81d8W5z3JSFS47JR6cjNNJO3isnXQtloYi0InRkVPkOqxt2qbnMK4U5OcuS8xMl0iA8W5Gx9WHRG+DsW9zTJldXpv61g6a07Z19KAlZ1BoJqHQoCLHhl26OYiMW2ObEsE7atj22zY8LPd77zHZ6lwbJK2DlSph8sYLEgngXkbDsTC5xZWywYZ+dPsfN2WBDPtvjRDxGodwLs2ccEXJY5xbawMlGICUHMl9m5a0zcYmes7dq1C/7mb/6GZy+xs9rYeXNMDGLlmGDLMhI/9KEPhbbqir4zwZdlNoqPK7Csx4997GP1jobsIwJEYIQSePbBZ6CdZ2BZvEgb02+8OvxyIshAtSPVw6JF40YrLKJUdbOJ0j+kHiiOOPG+ZBbcHfrYl0g0w6k8Fn+FR7akkbSERIBlBNU12SrtFLE0wj/nGTdm1YhNAzY9yOYhtv6q+lAdPuUmzgXyEPKcR25b5strunRDt0DgbO7WPHENT9xAqYuW0Umu2UBr55oXxMtmWp9zV4VFXu2a7tUwHZejvO0s7povpPiNSPmMxlzSKnS4RlUquXoLrN9tSdzj3mtxLfrXhir4a5U4nfXOsykDq0psqdqhIcDmI9tGxDKlmNDEtjix83DwV8jYwc8s28P0w+5hWVHih21dYtsF2SHSLMOE1c0CeSaK0RfOTDTp9/VGgPkzE6nYRwSYgCXmCcumEn8gY5mNzOfZnGL/zQQsVo59TZMJWbqPHrCyLPOQZXyxn4ULF/Lzq+iHCBABIlCPBJ578Flo338QmSYHRbpsCX0Gijr2CLbguXGG2ySvXTofPMu5UrVlrEu1iQksY0VAz3qMFlUlh7Gco3eL7ajhe3z+iqSvmkV0SoTeRW4EgqF0DPypQNwjuafJPEM3sqIF2ftTbXySGokkfsh+EPdvZJjz6O2PhASssFiF0xQD93E7YNlCiGWNXMX/igSyMYmwqRu5ZH6hUNQDIwISeq5KoTDN6XG2a49q/U7Y52oUV5sfZP+Zsvx8fxUPEu9JIgtYvJ6QWyu+RlGNDlapzjPf8VYSsKrElqolAkSACBABIkAEiAARqH8CLzz8HLTv987A8iUltTilCxeThIY42nV3hLg/vEXUgF9ObhQrNmozqwQ9iaQRn/YSMVBWocS3p5AeY/rio62AUiO1wX4MQllr+FOXXudDHVddk5JSDC2bfNj3Ra+eIeWqUyeRX4Qmjmes89gdgYBlOkzOfqSGuKRiIfAvefMtInbGahcqscQlqxbzVK4hX6sBI9FpxXoUEiBlLTKjqWpfDG83lc/YMh0ur2YtP04MS5b1JImZ0TUYNl0T6uebezV4jLidZFfOuPgsErCGcLyoaSJABIgAESACRIAIEIGhJcAFrAPBGVgq6aVqFurEqNQ7Y+SgTpd9YNuAWr5wj01Rn3kf0RZQ2BQKIdGH6XR5L9WMR5ONqUq8S8IwRhbS6RI6TcIiKctGPhxaIS9GhBBRq6/oxp2Or4DBROHH7nzUUtuVZyDKTsEebllbMqeq79KCv9jTmcfezvruMbJOIfMGmaNCFTQ7iOs2gY+ZhUFznZkZ2h7WmLkhtwLFDNOfcWjR5hlvJwHLAhMVIQJEgCibR58AACAASURBVAgQASJABIgAEWhQAi8uYxlY7ZGdMbi7ONwe1hiUgpkqJ8fUS5VQpg7y09RejbjH1COr3/uiChYGZWtVYlWMgGVoODaPBIs8Vh3QxJMNps84T9z1mN+l0DlKDJJK1M1JzlM5u0r7xGbICTSuqwQZKMHiE2ShhIURqTa/QUkC9U8hk9P8Yr92aulWtS9m5OqBDR++5nFFPoAPjufaDvcFj7XDDo1XTfD0E7ompGRHVDuZa4o0H7D7CNFOxTp8W+Cvon/hQ+GDq26TwXlzLn/d342iE5MErJp4EDVCBIgAESACRIAIEAEiUKcEXlz2fCgDq7ZmKgINfsmcfuMWc8uFPt7lbUnzr6HjZeQwRhZHZB0jp7A+HVKdGGAO/oPcML8DNgFcnFQUJEaI7DPcKRNXVbSbOAI2B5HKeNSPUQMhxHI8TGqMKq6voDOkZaEouXCkHDXPrFDE62XziY45T97zuOzL6k6bRi5mRoR0Iq+cUVTxrZBLxmXeJJyGsmExszwi7vkEJVFLnYlp/41SS5fTFbPnqpJC5K2S+MuRaicO0oYU50Xl9BnZjEhyuV3phWgyxW9f9r4qyfVQ18mEMBXONEuSqmp+BJ1+4Rm0hTCX0adKiAARIAJEgAgQASJABIYjgRWPvgCHD5g/7pK9b3Z/aA5KuV+Mxzt4eLSFXvH572QlRHxKzSun1MJYPVJMmjBKzo4jtxoUQov8NUQfWvjAc/dOTwRMuC0yS1SWW9dNFclo4jS6SF1IKfLv0wk+9gkUuJmkmlyMFOPFz9621qfufcJewLLIpgtpQuptiyF88mSK4glcT2RbqXfk2oLNqDCJDmZRilKsIIqpC2V0MKBKXoq7FpUBXfEqcAbZgTW1hb40oThIDB+MbjtEpsla5d/jnptlIpGIJjZ6e2KV9JXDyF9aVFl+oakpOpnCWbxbT7tgCQlYVfYVqp4IEAEiQASIABEgAkSgfgm89NiLGQUsVRSmC/QZh+DdHYtVIpshuJPFXUGkoRNMfAHLK6BNOjKJF+lDitjBjX6xPYsv6FjrsntEWywzKJqxxkeD3+qKhX505VUnJyDYiSJZ+leDe5WuicQqHtKjnirPPlL7cPRstAQ+nGPXnafue9LvQcSvFYev6TIe/ckldhiHKksiCdS5yqEQsELbx1QTQpWcZPE5z/B4YCEPi0nhhTLwDbM06JbNuJrphDydk+bUHB4G3BSuPkitlT4u6N3geqX7f7N98dEbYKwKRr6XazHgOU5sVtWpbzudBKycmVJ1RIAIEAEiQASIABEgAsOHwEuPr4AOdIi7vAdFTpUQ0REXPUICk/uin0Ynyhj+BLkbNgGQbWiYeAjTZnHIKShhjkk+ieaz9/7DoL0k7mE1bkgn8NmwRlx98c4V8nwf5kf8YOHOY2/QrzKm+1QDY6hO5+n7n9ILWAp5wzgBxTk9PKYPvmBg7EkkFdATF/zcSVGDPKBx4pix1SEvoNSZpX2enARyRt3ape6MjZLtsQ59b2IINOgqm2pfvSwWqsja1Gbpm/KTMM2TUWHiKeefRgLWkM9wMoAIEAEiQASIABEgAkRgqAisfGKFm4GlenWXjZJf3f14FmcAuTKWeyX467Xq7CRcvWVUkD8mm5AlrtVkgadXkxm2yys717go1qhb4JtNDPBw5z9KOdYYZR9m7YmwXjHOSAr7rYVBK8DxXUsj8DnLH2ACVth5wufXi5EVjaMMKZ+PJu1ItX1MVV0NtBLeBBqdOI0gLklRNtUf9FD2jWjLuyinrYVPS3fBKjc5q7LRcvCUKk4RLVdJlPMFOZ3rhIYLC0p5jFyNGeJ1BD+9xDjI1zSCVmi6ybs10eNCrK8nn3cqCVg5+jpVRQSIABEgAkSACBABIjC8CKx6ciUcxhlY4WOS/DOosm5KsaWSJmC3rTv0SXM/5kZKhRQP4/jTj7a8MAmf2+tWFQQoQryL2wKJQ+MahPrRE4YisTmiqAqxZYEqFC7KopBNtkFADQt1Zq5xO4eCPmijWZ1gKfoXI+34tdc4VA77t5m188yDT6cXsLL0UhXUW8/O+ILmbsc7ho1Pq0HrOiXXKImAOfU7azVpFlST9oLnSCxXrO77BZUXY1YfnfRYk2UzK/7Q/Uof9rrB9U+L48ZOOvcUErByHRWqjAgQASJABIgAESACRGA4EXj5qZVw+KDiEPe4QF8WM4ZNh+2i4KBUeIsZ77a07azWXU8Tj2a20ZhskJxrIF+JVCE3gEsSO4t+1UxPMnUz95Da1KBKbauA8+xDy0VY7DGyURRzsF52FEkljTtXSpfAFAnqNT2SrU/mFElFFbECqgcgmHDIiqSenawD2jmuGhJcOA+z9KZ6reOtpBXvU53aARcDjJUd6dpQb4uUaFuL4l7BkJbn1WV7Dt1J554MhUIh85pOFRABIkAEiAARIAJEgAgQgeFIgAlYHYc67EzPI9ixaymHUtHgHwtTWEBxo1E3qoie6+Vd82MP7+wvxMLfcYQVFVVoK1/LoZe1qQKxlI414oKavHWIUfR3F3lcvTJMAHRBy2KVWcByxymcaFOb/se0ohL3hKFGH0ABLf5SpN9cdMKZfbgCznMPP4MErGTClCkYjxWKVP3xOhPZd5l6JHWSjI2EpWrU9loCV1PoYaEP+3mO4Q+v6kD4lIfEJ7BSKqpTH+UabXlJ4h2f91KnbKtK36nQVNJli0U2CaP2dPNBlxcmbsVTF7tDpCvyOXHe4sjLKTYrn7iUBKwc3IGqIAJEgAgQASJABIgAERimBF5+ehV0xglYcQG6KWQ0xqhB5eIcInx+lvkrhOGD5N0IKXotl6HRcRBihYlFLkbYVhKNRWWu4dyY6IH84eP4kXCE+2kTf9qUse2WZbkhyVKLsS34cFpYpKuW6zjPL3s2mWplAGsbxOOgnsfhnuKIq5e1Hd9QZZSv+GSif7aXqYu2nhct54qJ1hKEpVtGiyn5yOdKqRhqDoQXR25hRd24Bltbn5cXZOBqY4Jq6DR9lKtLUr1OwIoVq2JnhGqWiGve3kLHgRPOPpEysKx9lgoSASJABIgAESACRIAINBqBV5e/bJ+BZdv5uNAy9Hd576By7zB4IZOosqFsm46U82PRQKSpmshla6Rt4KRTOGzbSVhOf3B8EK2Fz6hyO4KvCaFMjlK5KTYBoooN5pBfQJ6Qjm1xm06KDx2Eo2A3FyOQFrnwJc6kE9lnHljlQfKeic7zjzzHiyXNErHtor6cqfOe9bxYkIrH64vbQ4gzd+J6nrEDsu4rqlNl7sjXdGViZTads0sTXziCP4nwbMJqlQvSMxtPQdET0zWTKJgOsJGrVyDkr8jRfevla+jMqPzcwmitmGYIRs5cYxbB499KAlY6L6S7iAARIAJEgAgQASJABBqBwKvPvKLMwFJHou7VcJwhgmz3Ks5+EdvF/AwUL0Z1NaUgVhrqc6VyGUf8l3dDwBuKRz1mnCpKiwpn7cRsbZRGRN4CKWdS5dJXm0rkkM4U4nGfkCrOKFbpBDk3yvf8NXT4vvmaW8KQ5SeHwOF0N/Nh49iXhCSRQFpwXnj0eV/AkuuyGbv0ZWyDf53QEmOtpdhja3tWS1WSUIIxijFTvfRGhCleTBIBPed0K8/HGp2hWdIcVT20GTe8hmg9JVG3LVnHcsWrVMYVywLCW846gTKwLDhRESJABIgAESACRIAIEIHGJLD6WSZgdfoRT/yf7xUClhcnhQQBLyxwM53kWCqUghXNF2g0zFKIpIyY/EwblOkkzozSCC2xXBMyzBKLJmzKrrhOXIiN+lk2n/gJC1H2Xzl0fROHwFWLSG2CeDlgt6MHzouPveDeqkvBykXV0ilKNvlK2LhEikMYgcIE/xIyA2s9fDnymuRFFMcyqZYs+ZroQQbrE+Qk6nghASukkho6FecXlk4meOiqsmGo8pRcuPIB9v4i4BsiPswpiX6JREC75SDrgho3s44783gSsBL4KBUlAkSACBABIkAEiAARaCwCa559FTraXQErHItYilUeDr1YpYpkvKgv69+/VWpbtoAy9eBiSSAwK7gqZ/wYRRURY7OvHuKgW3wJUfV1tiHqe2pouht1ApYferpbT3mGlcjqkw+JR9mARtYhH45CzBqPpuajmx8GOcN56YkVwQwTByPlosupA/goILtA32b8RRm18hveeYjnidKCbGYhwSnOQ9PMwhSGKdRN2Spf08rxQPgUllr4v3r5DG5UtepdSyrGxlRlYahfJIkHpGWmuu/YJceRgJVkoKhs3RLYtGwbbHl8B5R6B+vWRjKs/gk4BYAjTpsGx713Uf0bm8LCg2+0w9pbN0Dvob5qJ1ansI5uGTYEHIAxM0bDiR88GkZPGzVszCZDiYCOwNrn10Bne/grhNEzjGNEqCxoTQKW3GyWtiyiz+CQpkC8ix5mXoWD4+XwrUYhcEackdtV8XOQ0RRkiETznLzD98WX2vz8CSe0JTVve+uyPkNg7LqG5CDSPHJeelIIWKiL2q+doUwVoQD5WSn45C1Vrg27IW14rsePtRlRKslaocvsCbUoV5ikgdiK8AAhLVtkBRnvFfeHUqqqtiVQTlaSXcDnjw6OR9u/+a/z9wDMAAPL6hmStSofEEVsHM+73//CJJ5u3n/Lswb/W9VLPLVJwKrLJZqMyoHA4994Hl6/bSMMkniVA02qotBcgKnHTYLLf3oBtE1sbRggmx/bDsu+tBz62vsbpk/UkSEk4ACMmtwGl/7ofJhx8tQhNISaJgLZCbgCFsvAinuZl//KXZ2IJXVvdGGNKhbBIYyXmBC3CyaIRr0D56VzvsLRlcgMwjFdEq4pCCSJu1XBVNIEhhQm6kJBIcbEZUi5/ANBUR6PwHw5IwVlndgNcLUC8QzE7G6VXcBZKQQsdCJ8eN+cV7E8ccTHztAkSTO38ICL/x6yJYN3QP60n9crLNQJVTByTec9yWZOlnmqW8fwWmblKiZ1RB4k46DJkw6PdjBV3asqWVEW+Kx6YSykXHINLoAzWv3vCaBD4nkPFJlsRmOMBWxVNJfhMacfSxlYRqZUoJ4JbLx/Czz8D8tJvKrnQRqGtjlFB0775PFwxqdOGobWR01u39QBt95wP/STeNUQ41lPnZh24hS46j8vhJZxLfVkFtlCBBIRWPvCGujythAmujGHwtYxneKP/zzy8cIfdweTJ4OErrlfdQsSe0x/wMcBXuLoMAcihip0oY7OVBR/+rci0Q5XF/QcCXW+qBls2QtbqAp43TOGhOjklq8B1zRCi2xWihG09eGwCuI2bCfcedlpvm0KzUAywln19EtCoZESD8M91AX63Di0Q0vcpZMgcuCYAr3uFsWQyNln/iFYqEc+V38FkXzdXr2w8UVZS8LTpGq5bjbeyg2R1R5hHfrShD+pbeXh7AuqjfmJuHoV+stYaEUMkm8jOl4yzSmc2RtxW5teBfyPPu0YErByXC2oqtoT+N2774YDb7TXvmFqseEJtE1ogY88/d6G6CfLUHzkH59piL5QJ+qLAMtYfN8fL4eJC8bXl2FkDRFIQOC1F9fWRMCyeUuX4764WEQEBW5sIWeO4IOaFfGo8i/pxmyDBFRrVzSyMUygQGGlHK7jHUBhTSIsrIQjONEnU3ReA7HKVrpApvh90TmiCK+xkBB3TSPa2Pi524R76LyQC4V9wVlysqJhrxI5Lz+zqiLcWRad4vNgAr0rVE7IYUzDUQGqwpjbHTymUxJsR05Fw7tX2s/Kfc7rJ28VrSthNT3wziQioA3WGi4r0S8A+KjlBRUflo4chXdIcowEKUx5zdPcuQrDQmIXGpnYCadSzMS9xpnJx2TRKYtJwKrdRKCWqkDgl+feCj0H+6pQM1VJBAD+YvUNDYFh9W/XwxPfeL4h+kKdqD8C77vtCpi8eEL9GUYWEQFLAuteeg262rtQ0OX9p328HGkpElXyjBz3J3E87QeObr5K9BtxqggFX5OSLPxgU94eouh3nWWcJInpYqMhoXpVooegu4PksQ4pXVLcmuvZ4JbOWq1iCufUhuuR5CR9xprrhWEZ1uzDKiE1mbjqvPLsqsj0xX3EMbg/v8TsTDrxk9mW8xCqpgRuQqcyaMyQikcXMm8R84Q83nXZeeT1KOceB9XJx/NVoaGkvhBnAnI606jpqon14dy6L/tMUgePKS93IIXNJGClgEa31BWBG8+9FXpJwKqrMWkkY0jAaqTRpL5Ui8D7brscJi+eWK3qqV4iUHUC6156HboOu18hzOtHF5+Y/nadvH05ElfEDnExWFhbcJvXKW3CuKThjNQprQglJysoYJjivoTRekwLEYUDh83uf2fkkHys6+MOn0zMmdZDbanzyrMvczfGWVh5ahHaDkYUH6+kTrbmE867KeRQcaqQqMw0W4MKTWbF1RTXmnwfdg5/kghYuoVF1UBqD1KJL7iyNFxlz1HPfF7K+0tFqEvSbkQx5P45U2LN1Z1RFbsJNjWoDDdql/Bo1prsBP5p7x7D0HCorklZfwCw6OTF4BQKGeynW4nA0BIgAWto+Td66yRgNfoIU//yIEACVh4UqY6hJLB+5evQebjLz4zywy3v3ToUZ5iusaQmFN6EI50sUaSIxnHEKCytgpKSxlRFEJzk41S4h6p42r3mGpadqyn2Z6GoRvFIEgJj3aIKwyRH5jhu1jN07wrLBgHX4D6ZtcXeTBGc+w0ojk2qMgfe9KvPvZJBr9IF6JLSwouha5GNqmgIeDH1GVJJ/Ek1SXQ+VgPOridZdwAJdf59snhnXRnyfb2glH5ChFNlcQuxXHUinW79loXNVE9Ck6BkI8CpehXP1RcrpVVIlZnq7pyshLRa4Tu+9ZZrxaKTFpGAlcpP6KZ6IUACVr2MRGPaQQJWY44r9SpfAiRg5cuTaqs9gfUr10HXYbaFUI6vDGqVHxbgoEV+q69ZFGkFzioyN4l0Xktx50qFjclDDVNGS1Z9zlQIh36xSTReK2i4rVij24Sd+hAYC0qyYWlj1Bg6uAOK6rnAFxevi5g9g5Kkss6Gq7PmhdWWzdpUp/ECfqukA/pZNOzLCeWoVyg+duqfX4ccLMRVkZhi2blMvm99sxKhtJhywUpORcIOJB8upkvLCmaYzj9VmlDCuet3PdXynWa9s5m/QvHh/1/Fx6bn+F71IiJzFQxsag9ZhVxAflb6Ihf3C013NAvIwhOOAqcgS5PW3koFicCQEyABa8iHoKENIAGroYeXOpcTARKwcgJJ1QwZgTdeXg/dHV3oPdp7N5YUGjdgj1F3bHuQKiiyrTwoZwoLROig0+1YiOSbigLq8DXdPjKbaEcVS9UIji1ORWwe2gTj1RN7SLykP5gjSDmoi1PR4mrzRzi/vXR5xOa27A27WZW5K95AOGtfXGOp8VhPE89slYDioBPphbTgXhOaAz7wXMyq0DVRuypJS54TdTZH1EuOSWH11tLIbJJFLbcef5T4J1WDurkTSMx0S4/JIYYUq+hgSD1CF+W0JmXHdV8YwAuBWDAkrtI2xSTLt4lrgvludiUAWHD8QhKwUkGlm+qFAAlY9TISjWkHCViNOa7Uq3wJkICVL0+qrfYENrzyhitg+T8xEZAy2QCFtqpQQR8+ZOps3B/Kbf6ebxMW62M6r3UUf1bKIuFE+kKZ6KUqYK/Dg6SSJiBw1ijZgP8TDYBWp/D9Amcq5CFWZXKr/G9WxuZuM/xXSODzkz0sNQnd1MogYAWfR8QnaIlPJtrQwf0NywU2d8eUQSpy6GD8jNVW5/boShkwRCKg4nwoG3t8xux+pHTa3Fv9MiaZVzHJNStGVByKLk9M0PMTAeV1OWFn5blajy634C0kYCUcVipeZwRIwAIYP2ssLHj7HNjyxA44uKk90whNmDsO5p93JGx5ageMmz0GJswZB6/fuRH6uwYy1TtcbyYBa7iOXNTuprYmOPqKBdCzvxfefGxrsO0hRRebRzfzurp2d8OBDYdgwYVzYNNj26B9a0eK2ob/LSRgDf8xHOk9iApYORBRCV24WjkMMYSt8n4JnY6Gd3vYxx5xtSVhgc9IQpFQEmOTNGdZNo0kFK87KDqEz+H2VRWvZaRg8eSR0K4zqRNYDfN/ZT+SlkhqXkzV7TgU6COR3NawRmH2V+e1FSIDK5g6YQHFZSCypNxj1cKfTEzy0c+o0JCRsa6PgobvZF47suiuzE+zsUm3MukawIaEWbumukOXdBLiBQ/PCVVKqDdwQedUpuY+QDYsbVZ8m1wnnQ+7nTKmfyrK4PviF7twP7UHAybFkaH8/OMWUAZWBn5069ATaFQBa+yM0XDZ9y6A2UuOAKfowMZlW+D2TzyoBD5v6Sy44sdvh4e+9CSsu/fNTIPCAvGL/3kpPPSPT8FRF8+FBRfNhd9eewd07MR/mc7UxLC6mQSs+h4ux3HgrL86Fc785ElQHNUE3Xu64XcfuBsOvhkVckdNboP3/fYK2LvmANz7uUehUk7/MsPm5zU3XgbbX9gFbzywCa744UVw3+cfhY3LttY3sCpZRwJWlcBStTUjsPGVDdDdme9zTvkneN1HplCwZjpXqjrJBlggsQ2MVXGr5boqN6cOgePPV0IgzHKGuSqbXsf3TjniGnFBRIyGwFLsEhJnJKHb8krASRqP6noZ0RvQqTZx2kVIcEV6n39PRBhEtakOi/Z0KOf1la9ZemPN1hlzQ0j0DQp7q4an4oQ6pVR2hCuHNW9XvFMJIYF8kWQiCfuqsiBl9bIkigzviE3PbbgGQp1LOhDvTH+BkJ1VyzWNsDlkM6E6XOceM58ELPNqQiXqmECjCliXfPt8mLt0Njz5b89DqW8Q+jv7YfMT26suYOEGmJBFAtYNdez99qat/u16eOIbz9vfMExKnnDd0XDel86Ep779AvQc7OViL5snfYf7Iz3IU8DClc87bzYJWLddDpMXTxwmXkNmEoEogTdXMwGrx/+FKnZIHKdhkUYbnAQfZfIbl6N9HKOGTLeJDXCZ2gQxNlZFzqyWdBw/jMeCRmLzVZbIY29lbcxJTIm9wi5Uxr4jwmZsekyzNj0yhcBKGSXkoDbRuKmMONMbKSGhXVTZtoU561a9nthl6mpx1OWscV3Eg8u+6iaUQu+aUCRd8dPdiBn2p3BGlC5Ry9a1kyqguTE2eTGeOKHO2N0YlAoIha8l55qVNWcnLw6qa/JDRLWI5DYQoqL0hum4chf2qhfPQebSc46eRwJW7uNHFdaSQKMKWCz76si3zoQ7/+Ih2LN6P5RLZZh69CS4/g/vgmVfeRrW/GE9XH/LVdDXMQArfvEyXPmTi2Hzk9thzltnQrGlCA99+UnY8sR2uOz7F8CMk6fz+c+yTvau2Q8X/8u5MPuMGTzj9MX/fAVOuuFYLpKx/9382DY4/rqj4b7PPwYLL5oDiy9bwLdFTVk0EQ5uOgx3f2YZdOzohAu+cjYcffkC/mhc+au18PT3XoTK4PB+VVD5LWVg1XI2J2/rpA8cC+f+/RnwwN89DluX74S+Dle4+tA918CB9Qfh7r9+BM774plw7FVHwa+v+iPPwBrsG4S2yW0wamIbrL/vTT6fTvvoCXDqnx3Pn4cbH9oCD3/lKTj9Yyfya4ViAbY+sxO693bDse8+Cjp2dsP+dQdg5qnT+Zx7/a6NcMWPLuLC2byls2GwVIaH/uEJePORrXDs1YvgnM+dDq1jmmHPmv1w92cege59QZCcvMf1eQdlYNXnuJBV9gQ2rdkYEbC04Y91tYo4SY5J4w6E154XVd1gJC4elXuki1hM0gWORWLFEtxA7CuGrWwTiYi80cwlsrTzDAVEfskyC095nhaO8ZAVthqE3vAqcvXPTkOt24TAlhPTWf/yusBlspOwG9zMpTBw97+DzCkkVvF2vEPivVt4dhXbwuuIfbzu9j15QrPU9ei18KFtmbsxlBWEFop4LVY2M7TeWC8+8Z0Nb54covO6ZAy2f6LRCn+4QnNlbmlVNhr60IFXxobXnMVzScAayjlGbWcm0KgC1uSFE+Dib50L046dDDtX7uVBdlNrUStgvevn74R192yEF/7zFTj3b5fApPkTYPkPVsA7vnUePPbPz8Cul/dCf8cAXPSNc2Di3PFczGKCVbGlAO/++TugfWsn/PGj98Ps06bDZd+/0BewjnvPIrj/bx/nwsBl37sQ1ty6jgfgJ7zvGLjr0w/D3HNmwZn/zynwf9/+e2XWS+YBHuIKSMAa4gEwNN88qgnO/pvT4JQ/fQsc3NgOz/54Fay7e2OsgFUuVeDezz4K88+fDWd/9nS+9ZZlcW18aDO89MvVMHbGGJi0YAKfRw//01NceGLvhKd+5Hg49uqj4LaPPsDF3Pf//krY9sxOLmBd9dOLYc2t62HVr9fC2/7xLJhw5Fh4/F+fB5ZJ+eg/PwOHt3XA5d+/EF765Rp4/mer6htqCutIwEoBjW6pKwKb17wJ3V15i8umP/TLigyKA/xbFV8k85IqfIBVis3lSBoPmDlikf5wnna0laJVsphUJKGkNQHfl0eyiU4EdBWJ6PGMcghpfQ5+Ln4hK0p4QIzWeuhyMSQ8fBYQnTdeWe8JpcjopHMyD69R1hE1RN7iF061wWJWIF5htFZJRlhajoOo88aq8UhTsY26Kg7klzruS8YeV/8Q9IAi/jii+G/lepTG9KG6J7Squ70JnjXBwyYoJgtMruFploG4LuOsQRvGJGANlQNRu3kRaFQBS/A55l1Hwdl/fSp07emBR7/+DA+aVRlY+Awslk1yxl+eDPd85hFY8okT4YiTpsHOlXtgxX+/Cpf++9tg/f2b4JH/s5w3MW7WWPjArVfBhoe3wMNffgoWvO3IkIAlthCWegfhvTddDoc2t0Pr2FaYfuIULhiwH5bRctsnHoD+zsY76J0ErLxmanXrmXHSNDjr06fA7CUz4JYb7oFLv3uBNgNLnIE189RpcM2Nl8Lj33oOJswdD295zyLo2tsDrWWOpAAAIABJREFUT/37C3Dsu46CGSdNhd9df7efMYW31JYHKyEBC5+Bdc5nT+eC2iv/+zos+fMTYd9rB7hYzH5W37IOXv7Na9WFMQS1k4A1BNCpyVwJbFr7JvSgLYTJK7eLpaIxafKW/DtsmlQkEdjcFoprTKJKhi4Yb7U9+RsHm6rDoWyCIqMx8QXSctVqEDb2RMYXXfArNkWbNg3Zl+EJFDnyVnJVnIMvu4qzYfUbUTNMApYqOreJ2BEfLESJQ+PdZl0RpVwJPtUpHxwvn1HFyovMFWxGbppgSNBAnVBlJNYwS1HtboGxKq44c0d/IL98aL8n4nhVq+ZMzDlrZiXHft7UqKRhmeK/dve1s0w97nNM3PM/FxpcEwa7xYKsPlt/zeLDsxcd6dtXI3DUDBHIlUCjCljnfmEJvHTjauja1wNLP386HH/dMTxr5Kqfvh2e+8kqeOHnL8Of3n8tHN7RxbcQXvX/voNff+4nK+HKH18E046bAr99750w2F+GifPGwTX/cym8cd9mvnWQZVD9/oZ7+DiYBKyjr1wIN193FwwODML1v78K1t6+AZrbmmDBRXPglj+5Bw5v6+Rpx4MD6NPZuY7w0FZGAtbQ8je1fsqH3sLPvmJZUOwsKpYJxbYTsutNbUX4zXvu4B9DOPKsmfDrK90thN37euGWD93DtxWyDMXbPnY/tG/pgJ5DvXDxN8+FI884ArY8tZ2f//a/77kDDm0+zM2IE7Cu+snb4envreAiMctonHL0JHj2P1bCxd9cCsv+6SlY88cN7nvrYLkht9qSgGXyVPp9vRPY/Ppm6FUKWOJ9XxXoiXd5/PyzDfyyvL0HNOW/p/NYAl2M7FBE2oJyK5oq4SvbUUSaobcREuSIHf/bjZncH41AkyE2l2/F6RsqqzJamnF6GDqadJuqcKIa6V76mRUd2SQe4Gxcs8FOR5N9kU8S78BzjWgTLAtuE3yrXp6yXUaXSHw7PnxMvlk1V6UyfoYSXoDs6CtNDb4MGaxnGapLjMNfV+SMNVFTPut3Ors0xIIFUSyLrvAUJHaGjcaPtlCVSARXrq/yLMRN5NijuKpmHTWbBKwasaZmqkOgUQUstvVo8aXzodRX5tt8WWC88pereTA+a8kMnpE1alIr7H51vytg/ewdcHh7JzSPboK2CS18+1Kpp8S3V7FskdaxzTzraqC7BBf9n7P5OVlsK9XLN63l2SK6DKzj3rMYDm/vgNYJrVz4uvdvHoVSb4lvh5o4fzx0H+jhIhY7q0tkmVRnpIemVhKwhoa7basnXn8snPt3S7goVGgqwI4Xd8MDX3wCjrliISz92yXQvbcHBnpL0Dah1RewWse18GzB0VNH8TOsXvq/q+Ed/3ou/4NT2/gW2PDgZp4ldcFXz+bnzvW298HuV/ZBf0e//1EDOQPryh+/HQ5v7YCWcS18Wy7LlmR1v+3Lb4Wj3jGPn59VbC7AA198ErY9u9O2e8OmHAlYw2aoyFANgS1MwIpsIcwWpFiEfdrxwCGENs7Q3Z0m0PPTV8TxOUjJyoYh97heydWQV+CjUqglPmuFeJd9wmTxAty67AUJBsVGKwxOTQrtY8xivezD2VmqeOivORvXugJWKKvJU1oi1/ghZEyEQp8T4Dd7oGuk5uULyaI2hXjH7/KEGzf7xjuHK3JIvFeIT5xAyBOtBiKUp/Qjga/uBD8dB48F758s7HBfQYwTzEnVyIisMixEyQzdJsOso5lnYSk1lVkqWRn5RaTfmEWqBi18FRWZuXAWCVjJkFHpOiPQqAJWnWEeseaQgDVih546noAACVgJYFHRuiSwdd0WhYCl/2Cc7at80nKJtSc5zrBKFfJu8pNLUKtW22Wqk5VgqbP4/mPMdUPddHWJwPX8CC8u2SCxp9qoaHFBsCbbR3kylr1xod2V3m1yUlbo438ayUYOUeXw3d6ipCXTeYbz5msb/SFXCyYJI+04SU5VVcLqk2LJUh7rofETySvJz4iKCnzuNWnPqHxIH18FqyIPZ0GQ7l6dsCNWenkF1/iAyPCTD+gXRqn8NXRNaicqdOEvJNYoO9Ak5uU4H45YMJMErHQeTHfVCQESsOpkIBrUDBKwGnRgqVu5EiABK1ecVNkQENi2nglYvbxlHqJY5l2kfSVPe196NCjwEtlWXLWwsMQ6HrWoSwgo0r4WWQyxrylMJNV9cTGpDDzSQFymgkmODCpzE1hk9RE3bhkYWzqISWqTN5RVwQU0lsrKSpp+u1ydTa+/aRoBS1yS10pJWtaVyPMtlbeK1uLUNJ3y7m2L9Lvj1hGcF+VOQ1cowUuD7C5y21K6JjZRp6hbQ6uvguoz+Vxxz++2yEaTrzko7w9vU1WMR/C9yXxduKo0bYRm/wkrPwmiN8sfNcAi3Yz5R5CAVdXBpMqrTYAErGoTHtn1k4A1ssefem9HgAQsO05Uqn4JbHtjK8/AipMR/JjOCyn8oD5THJo3k7hYUxf7evEnD8FQZ0xVeRxUxVRhqypvS3fNUlrLG55bnzIOk04NxylMsmMEJx6jtK/kTlJzriZVS7ARbiK7k+Q+0cHJ2AD3N7MI5Ksrm9dtGproH/dTFuQwRAwSWyqnRFnMyWhVgTgln81lzO7xRy650/o+oTtTC2tftixqMIq6tU7NNRCi7Lb4eR3ljXiDG8p59FqJXKvK6YPVWTST1KqALZ85F9qS6v81KfDp6fNmkICVhDmVrTsCJGDV3ZA0lEEkYDXUcFJnqkSABKwqgaVqa0Zg+4Zt0NvtZmCFYhabPyrHxZ7GoD5JF+MCYznIs9nSZB+fingilIBgcSA8j9yQaUIjizsyOgmRfMrKXCNeIHmF1ylf8PN+HdqXJ++qEmWQxRa6hCxlRONpyV8lIPYjnJGkEiES/SJ7FLFjeL3kxsoCB/cgxN9ezHC2rN9sXzpj/423G3wMH4Ie4hDpuq4iowVocavRljKVSfZKUeDZNmuboft4m6N6TQ9np7luF38t0Cbd/3Inm26R1hiYdO2pH4/mHVL1VvRUP2yKTsf4Bd+mKj0xps8lAct+xlPJeiRAAlY9jkrj2EQCVuOMJfWkegRIwKoeW6q5NgR2bNweErBiW00ag6kqMyoLWeNUYwOh+CNpa6HabWOwHIdSjmfSV61TKJPkkHmRmsEvfI0ixtjhcVKQImrFB23hjqoUONZ/2T3t3FVJLtARwt+ldLa+sSV1uJ9kjkfSCL3zoniAH4LhiRxxah4H4XiAPPOHh1dEB0cxtyIHsmlVcPQVSL9MICjJx5QH4pEww8bzMnhdkhVH56Fxpuqy8BKYLGvB7r8DsU38y1eIEWd3jrpGmFnLM9pgZJLJJaoOjOU2TZsznTKwkvggla07AiRg1d2QNJRBJGA11HBSZ6pEgASsKoGlamtGgAlYfT19VjGYmyXixZhukBrcp9whwrboSS/g/nlHOMQO3vuTaEKqUEcYhGOY1ME8pqKLPWxTheRQJ/InfE3AouWl4qrvqSphwJq1nFAkZAYJttU5+BEOebm625uwwKeOZN0WbQcuPibFmXmSZMNbMU4Rr/uypXh0E4Tubs+2bdia2udtdE09Vstm47xRriJp7/Pypwz1YN3G2t/9mzyhxf/C4TAEkJZd3IqE/EJe3O0IyaOS1sjq36f8K4Vn/tTZ00jAqv4QUAtVJPA/5/0Bug8Eaf9VbIqqHmEE2EvoJ1+9oSF6vfq36+GJbzzfEH2hTtQfgffdfgVMXjSh/gwji4iAJYGdb+5QC1iW90cPTpK2kEn1qISl4ZpnoURkjMFQHKVSfOyCsdjR0ckD1kOaR8Gk4WLmfuMGdUko2TqWiqtiz6isA2OhCx1/nXpXobNt4zY+zyIZUpFrnljicXEnZ3At+LddbW41OcA3yXliHFWriehLlTbrygKf2lT1FjyXjvdFw9D+UNQh3gAaOX9/rmCLU7dCA2f1YYpsU6A6dysZehfDKAJxzycmHRwfbJkUWxuFT+t8GHGtTveS1xrjZFNmTSUBKzlRuqOOCNz1iWWwbfmu0OeR68g8MmUYE5i4cDxcf+eVw7gHgekbH9gCD37+KaiULf8w2BC9pk7UgkDL2GZ47y2Xwfg5Y2vRHLVBBKpCYNemndDXI/4YFh/xukejhOOA8Fm+XsQbc+53EHe4/6VK3Mozoshvy50NfjnwEGdGSVy1MapQcdxMoiSb+Xyu3n+oRjJPrkYaChSRQ+K1OgVO+YqLP80Kjedlvi4T+HDQA9mMNPIJttKKTXgahY+7Ug1mAkHQ2f7m9kDA8nxK3UlZrFLBxi9PurQ1+QUrsxxpZMgL6AJ9naerzEIfcpAVSmGETbJe2BV1IqCuWxrDfJFLuk/nsXbUPHSKw+qq9J6cL1f1Fr+QMOjz8UZFzoO0+dZoApa1LDp55hQSsGoJnNrKnUDX7m64+d13Q3/HQO51U4Ujl4DTVIBLvncuzL/oyIaAMNA1ADdffQ907uhqiP5QJ+qDAHs9WnDRkfDO754LheZCfRhFVhCBFAR2b96FBCwcVUfD+ECschuyiWxV5fz7vMCGR29pKkvR33xvSRmZSXE35qH7VpeMJ0/FoLYin8UIyPvyfCFBE49yJ4s6UBKxSuX5cdeqFOqH4Zj0Gc3kcnZs2hHY52sjOknRp6uY0jZuViOxysJvQqsSUp38nntiFa5Klf4p9yjaQzfDyqVTR1xV61GcyGvy4gRDK5rWLYliMqkXMu8uNInxX0aCuqMPJSV/+ZMbumGSfUruhImPrU9mKCebNOmIySRgZeBJt9YHgQ33bYaX/msNHFjXDuVSuT6MIiuGJQH2DB83ZywcfeUCOPXPj4diAwXl3ft64LGvPgfbn9kNpd7SsBwfMrp+CLSMa4a5582Cc7+8BNomtNaPYWQJEUhBgAtYvX3+2dL4k1K6yFYVi8THJxrDdKGfTcZDir6muwVHELY9d8sJAcWtwQ0GlfEb4hCSG7zmZIFPe9ZUHcRb8YztoltXUJMDbykfLRSjeh9O47cFQbf8cURWZWhDlmdsnAKRIIRP515J71KKWt5Fz1GcXVt2JnaFWqqYOjeIze9CfeR6BOpheEJ4080/f08uKE9BoW7g5U6+ppv4SUcvx/IyRJFJhkReP6FTysLTLdYqEgEtvIzFl7Q/YC4HrqbZazO8CWa5SeOyyaUL+7nu8SC2m6IRqFRg0gwSsHKcRVTVEBIY6C4B+9/wX5+G0CBqetgSaGprAhacN+LP4EAZ+jv6oTKY+LWuEXFQnzIQKDQVoGV8CxSKUkCVoU66lQgMFYE9W3dDf2+/33zV4tisYlUkuLWNgoMbgzvca1hOUgtMMaKTR0wVc8eOpRwA4fjKVrhLEG/Z+1WcYSLOtI9bw6yjwp1fU1h78c1Vbi2VvlEXFJZyh+w7XaWSCnFBeWi/In7HIpxXja/VhT6W5vmmJM/wGndt3aV40xGXDN4jF6uKs5m5x01vuXMhEyVl053pmj2pibxMxFkmCcPct3ovoUXo+av/RUWUf5bs1Vp+GtSJ0yUdGOwKirlsU51Jf5O5Tpw+kTKwbMBSGSJABIgAESACRIAIEIGGJLB36x6egVXXP7ZaFRMJ5JjU8Gk8a6EFn06tOpjbA+gnPVRDU1EFO2kGTsczTV2ae9zsM1nkt9RQpDpN0W5qs+X4M3VFtbwxKo6Fz6argLNbCFhx28e4sCN5rXYwbQ6Ed2+2FWHleD+sk5nCemy81Kp/K0pF8otIqUgqPrJhVRxbXS9th01kLigFPawMiz4k/XxAZPHU6fVDpHImGBvlImI4rNH0CdHAVWz8VZ5wKh+OlWZ5bydMIwErwbBTUSJABIgAESACRIAIEIEGI7B3255QBlZtuxeNKtwr4QjOTQjwsqbER6d48CBd87ePuYeg+0W8sMAyXK8tgiSt4Q6g8CeU38TLaAIzxtUPNd27BOvwYfyuUcoD+j17dTG2OQJL0mFNWdyIHFLbBv/GkDu9uiBzxaKm2Frqxr6BEfLQJop2JVOdPdt3y+OgJqnoo59dI2k9eDKFjFWVU6i3Rt4hC20EAdkLbFxPYwVWMm0VuGQdij0pK4kP2/QyPNhRxTP6e9cdxbQPjLU9NExRLod5blMFHjrRC5+R9xBIOrn8epR+gS6qBD60wLr26xwq+Uiy2sZPnUAZWDaOQWWIABEgAkSACBABIkAEGpLAvu17ayRg2QkCKlElCPbjt/2FtAuvuUg4EQlyYoY1YYw6NA5iyVUSAXWiiirishWratZ/G70BhYdRgc8mU0h2INY7mXVUBEzCtVqsnb079kQELBtJiHdRFj+9fovMRlGGGy+SnAQb4QHGiRMnqpgC+3wFAa3T2jiZpt9+7zTinuo2G4RGrLb7VH1hRRYBY6yQVSDdv+N8wNyB2DXExocT9MhvK2yWwjflr0r4s1waYO6aikHHSrWoS5HGa7OAjpsyngQsG1BUhggQASJABIgAESACRKAhCezfsS8QsOKUikSxRzTSwNuc8OHm7hu/e+B5EPq4hoSvuSXDpymhhCKb0YmLuWoUFtuYqS8Tz9W9LyAU4ipnsXnj6WoQQcYa/5fQJSIqSDbr6+JuZRCMxCqOEHUcJVkEukSYl9qHo/6KXYxlCGKxC7tmVuzOvl377OqICnKBSheaEF51yk/2qbJvEq0WVfMLrEG5c0NzGBsqqPwMqGpCJO6iErbXd1VlWa6lQGqrKSKzsFAn6zGyq+jWV3fJsv1JI2GZBFF3ovpWqDjI14InVdT4xH4R7bvOBFZy7KSxJGDZuguVIwJEgAgQASJABIgAEWg4Agd27Q9lYMlbylTBuTpgj4pLNYOFA1WLsI9vL5TLZY47XCPw2U9mUU4lyKnEPM3XC3WA4wIgVb+TBZE1GNa4gNH74qCvtKjETreTfuTqiXf8iqxNqbWqoI+Z/aIGuKQmfAFLpZClM0clHFjUFHegupyJohLHLJrIq4hOGsGivpgncUI/t8e6sjjd0mIly6vzXj3V+IKH6Ux9wYsjQw6LPxcaESJD/baGLX3aVAVP9yTJaRWwMRXrbYpmx5CAlbPXU3VEgAgQASJABIgAESACw4nAgV0HYKAv+Aohtl21mygSz/FMEnS2Es/HcF/CRQaQnGFV93xswvW4fAq389rMAvmAcznTzD4hIUeSUuiWKJZNIpjlZnJ0kPQHxwdeGy6DRcewYfi4ax9NHn6RW//1FTn7d7MMLJX0IjxT3IwFFKG8iN+hnBm/45pMFXxrwlQbXUyf0lKfSn7yj0pNRWx9pSXmWiSlb0imeKJzuDB/rabiofFZW7kTWml0X4EUqpaUDRn+6oDKX4eIq7TtllvmmWKb0SfEuziErN4xE8dQBlYNFlFqgggQASJABIgAESACRKA+CRzYfQAGepGAxcMwtCvImG1Qn/2ytSoi0vEAAolyPBbxBDl0DhAW6Vxc4ShPygGyNWfoysm5BzFyBjdSp1P4GKIKXxCbhbOm8KH98mHy4t9iy13mbaS2hHWBpG4+yLwEo9xDajVX1yzv/x7cewA1mz57JJGKqQOrUDfxQfGhQN+zOsTeMx9fk5mm72GcN8TNiDgvwJ4QI/hpivkWpeiUAnWog7JPyyao5nzu/itkNPlcKdxx3ndkrVIhy98ym7UBe0WkvCdkec+QhBvcbVoHGD1+dFSbtruVShEBIkAEiAARIAJEgAgQgWFP4OAeloFVMrxro8AyLq9jaEIK5RjIYb4+VnNLBnpM0Ak3cyx8ZxBWetvRZMFPWJMi/hy2ziQHzt4GPpyZF7edMignb5Ucwm2ppsGomq9HVYhA1Is5LggrVof2HTQIWLJ35uOtKgFF4Ruhr2SadAqsZfiH59UMPp7NqiUkowQUFSPdBmP0Mbz9WbX22CTAGcVnr9vZvSJOBEQdDXXKsy6S2Yb2/8rpSqKqHPzC2odtPgShycQ1cpWVRqGIOQ6MGjuKBCzT4ky/JwJEgAgQASJABIgAEWhYAof2HoJS/0D6/uliMByH4bjCNngyWISTQ9RiVViYciNN1xD9OV8qsUoOijTRh2WoFjqwWGZhDGzSD5Ptnar4Dd+rDK28pIqQCOgVdLysNTxe7JobkmGZRXEW+BAfi2TLLFIuaxDsVej7q3eQvM2Zaty/D+0/VBG+ZDvfbHxPVcZ4n1LBso3s40ia1Apba4090PpBxIljPMbqLKg4j/NQYF1HdZafndNmGRRbrsiSuObwmiseGuiPA/xWr0n5OWJamlNYaodPO+PxUwAXQh3wJ6Z0Dac9i1sVC2AbCVgpx4huIwJEgAgQASJABIgAEWgEAu1MwBoo2XVFEUCEdBs5zggFEIGg5AbiwS9VZ2TV3blZhhiMCzRqJU2fUKELd+xGg5dSNeled7dBRr/aqMpqShDD2wh1aaSFBH3Ou6hu2IJwOtxpl5bXSe9XnLX0JTYu1JlEurw7w2ZW+/5DkSGw8U2dQ8n3moSEKvRJM7l0hw+hQ/l8yTgmrSnyHTz7CZEnVxV/JWubRsWNxq7YVJbUM1Syqd4rYtcUeVteZudyF+rq+3BeXMNTmQtY9EMEiAARIAJEgAgQASJABEYogfZ97dkysBTclG/uUqjJ38rZAfChc6W8P7aLOnmc4ZYJf7NMiDOoIP9PnHZiHcAN/chjU3GXcMjtJSzxSygmVWsL3hleXl1y5pkbjQZ3BtUl4ZoCW5xgZ4yzU7QX45um451sok91mTB7wVpsR8WsQ8omPhcqdEyQ1AmdkIr8wjl88LAvr6XP0skHeFh5kmUDF4/7g7w9BEN4sVdOmY5jmaKDuqQT5XQZa9hSbG3uy4zJ83yEaEWVVVJvcQ3WRLlXOjEvonsmdoJqceUjLLtKnDtJC6W6I/Jswg8Q04irvEDVinllMy1GYjiZ67eOaUs8JnQDESACRIAIEAEiQASIABFoFAKH97XDAMrAio903Pf9cPTjBhGh86L8sADVxq9JMaofAkjxZ7K/39fFUMQmEeDjUnAY7ofmHtcQHo+rJ97hlIHo2Vy6WMocO9UUnim4xSFjjJAQOQZIrYJEtoy61Qf+iv8d8WEfTBUYapyFx7G2eUIxZjkdhzqyKxGZPUOtLrjBuiTNWrWVu1TktqrIxsF+KEyrghtoem2hYOkWWO7FHlt/ryHro8hIQ6uPlC5oGgKTVZZzN3YLdSrWNoZx47yCoYGUBSxsgewFuqcSrjAfL4nrUvOoFtNQ0e+JABEgAkSACBABIkAEiEDDEug40BHaQqgSsIJ4OxCw3Eio4m2RkuNR26BCxAgJ3/t1IXCNo/b00Y9aRLESAUWMGok/EzIcJh7NSUmiXyjfhPMIfwVSPuMsyH4KnyLlCxg+i2HAUOd0HgfGyuls7wymgk6SVutLgVsYWZgmuU0DskiAesEtiTdCJ4iKO33dQieeS1qPaDKU7VPjiVKplBUCX/qlJjSgxk8+BoIeR4PwY/lQHrW0LmYe4Rzhy4eQGQ+Jlw7pYzCUjpFNwLLyYQ8Da6mprTlHKFQVESACRIAIEAEiQASIABEYXgQ6DzIBa9AzOtj+hDNVgkg0SRSTY3RiG77pslcCBS714OjijJhEIZ7t44ZJeq5u9GPJ1TfCi5nk23BgqWKR45CkBindmIor2k8aOSTeC7zdUFNSvnC2jXcwei0Ow8mLlbYeyQ+crsNYwFKcjm8QhuSG5PlnCtmN2lcWInHGmOrNbBheSXRTP38ZPU605F1Os8BZsrDZ3mbCnu73OoHUora4IZBEOSHU5bXV1hKrRSfURZpam1LfSzcSASJABIgAESACRIAIEIHhTqDzYCcMliwPcc+7s5aBsa6YKlawu4Yj/qTBXxUjFGOgGjMAlmZljUfjokpZM8MRfiDUuflR7gjISTrev20FSx0OSxZ5u3Ncfal82HdN2V/jLXe6OrrsVBTbT+PJn77TfD1ApUbqRGXRhbipWNNx1KnBRlU8yZRgvdblK8VMCMV4Z2Xt8/cqEqz9JCPcbyySyQMnumTncQnmXBKuKY1VNBGZElKZiCjO5kLZO1IQQcTHuMniWBa/JgErgQtRUSJABIgAESACRIAIEIGGI9B5qBMG/TOwQlHMsOkrPt0kFJcZdg7xsMyLu8IfLHeDlqjQYhONGwPefLnqwryspsZoFDgKx1F3XM/dTmfhqor9BUpNRJgmBPY+HBBKiss9NrdzAbX5AcOAPc7wA3C6u7rZqUehrxqIA7ZCg4ScX4yP36hXcAi+omhHxytlp8gq5B5+SXQSubF8hhTHqIDhXWftq+QT0yTR6WUGl07ExqqwzSSRhWYfl6R+oUketB3XU1nMU03y8DJsYm3TmrX52n57vVNpkbksFip50mVTaC5YDSsVIgJEgAgQASJABIgAESACjUigu70LBktiC2E+PTSFRPIrPpYfcDyoLCcqx43gc6H9mEIKzvk/sVol+hqqSAKQ5U/l+bDEtSi5Kr/uqDkvX6NJcDISbLfniaJBRXKJiEfjRjx/Tn6NNubLMar3b30EmTYyD4Sn5FxVHPW+6fR09/BuRMQq7xgfVQBvDOp1Y1nF8TNXrVtqbORbTEijVEjVx37sD41HWYhaSODwfRGVw/6Zi+5hBmZXwiYzT05FwgtsJMtMNKt22jidKG4kbfSlxFxVMz+JaoYfUFZzJpkPO02yMXZDSqWIABEgAkSACBABIkAEiEAjEOjp6IZB/wys+B7ZvGn7cXCMnGEqY/Xa75/7IqVRiS7ozj/ir/+KY4HCKVghEKEkjyHUtJSiincxlAsgi1ooUObmK/Ukm2hQNXLytcQRY/WmkcJh8c4e7Cr4A5m8R143+HX0obpoPB3OfnLrxA3XnqvT29Prt6pKEsFDZjXZZCVQo/rxvquSaqwaSeMHOp1RZ4g8e11jmaIofuNecZB6i7qExInIx/406nBI16kahzTs4u5JwTUigQeLLK/NW3jZYioWVGWym2dWUhcbwnU5AKma9/LKzH0gibNIC2wx77E/LN1lAAAgAElEQVSm+ogAESACRIAIEAEiQASIwPAh0NPRA2WcgaWKP+UgXvp3XLSoipXt42f812ydYaYWYjokhQZeMBsMnuFWv2DG4EknDObLVQ6uvPjSdseUjcAXU2YoZoQ1V40IGBtq+gE2utnPBMwiYKlIJXMwp6+3L1ZGtNt2l3LITHM2ZbXq27Cyll45VUyN0PFsiU2WzUo2fomby+8GPHhi+UnPFduFPryQn7lVqcly8gaqXFTuxn8hSfv8ifyZwetsoc4ysHSrrCz1R7LYvD+zhFwOXQs9jeMnkI0J4lkfRy/3daAq/jlMKtVp4Ea/CO18D5+TWbWuqzxIbizaIauV0eYtROec+TzeqkbNXHFWJwg9QTSOkfzharNeYPTCirjeyE9OIxtdA0ne+o2NjOwCVX3PHdloY3qfYXbhdyq+JnqTxPvjZyj1QvWX+cSTMNoN2xULT1OxfOumbr5v0g3meOg9N82SWOovQbnMvtwu/aDKksceNu8DScchB+dUNWkytQYvtbUPdzUxWhwLGX/y14akAx5b3mSq9mbd7ii+yGgSI/BaKsrp4ktFw7V+jjr9ff1W79aZRsT6OYXyATWn1bnnczFFFb8qhh8RIkvKzYdyG49eCye/1eTBkiRAUT3hdBlrxsHRrUyqJ3sSrsEwiGMAbR4sPmvPLH99kG/GnlmllxAjukRLi64DciQe90rj+auX/+l3W3o/C72zoerj3uNq9XKUbBGzXRwkOUlenJUn5gtoUoYfGlOTi+lnwxB9lDbNW3NorYyogwkT4OWVMtnTPo35eL1QHjHobXf3n7O20y3b5Je8qIZcFRD5JdU6oLjmGu7minPXYPw8H6n9C2bcIJi8BRmtS3OOLJRenXihlF04ZmQTPd8sZ5ZoLvN7shJXgoNDuCOI41PSPIyzTSjTaJve0XSvR7xLaQYuxi+ib4/COtvFx/xC49qMn1Dp+CZ9VKLlwV1TpCmjezXNbqmKYVauaHaF9tQoFjzVwz7Z4y20oUblr0l9GOHP5gmRYNZb/K0fGvJDNrdVy8qpc1sbvIpCXK3XBulmvq4wQSzpnI/zgsxPASuefqGM7xL56MWyESY+VXgrtzHBZkLHLIK5+bDXffPaYNMpjfNrXyjF6q/Ya5jPAyCR/zoD/QMZmtUBCk9od+2Muca2iollAM0IH60kFvoPVfR4r/G0TwQ5slhgbJh+6OVRFRB5UYpiY6+/tdFP7XNnW3iE3AaSunXCZ7g9mzgO8rtb7NupbZN2/urWJvmr/62OYPEMasvINfpc1KurqrdHtKbYkkhfzoZh2hdRdzKoFnoeYCMfCK8XUmKb17kEfzhIjyPFnWqBz2ZWepGYchM7PrTQW1SktwtVC7L5uoesyu1Ua25V1+Es60Vo/Ujrw5qHvQ8x6L2JdVxNxtfhrOuFbi1N4cvhW7Jy1S1k8V7lx6Vo7RDvXzG71RWjFvRGnqNV9esQRMt1QHXorDZIjXnpVD1nLd8I0/qw8pUns+8pKgitF2jS+I9wsU6iGYf/EOIbaloVLYFZ9jEtV/nZKZsfer2MvuKEX3vkLmkngGATtzhbV4YImWdcsj+UoaqRqbq/e4lHp5hm+H0jsqbkIjPaOEdazxBilbS+6txa9QBK+I6ZxFJNpIO+jGfDJkkZqeOmP376ayRaL+ro5VJmbTXbpGnLZ5vNjX5BLJ/oHyLuHDW+0XiDZ57zSUY5UVnFMmbjFuKPgHi9yP/5ZvNeZZpxCZ9RpmGTOym7QAx8k6X+41nyHNXzzSkNlCx7ZgcxKOU6rTiF3s3QcX/4Nf8Pg94ZUt6NkTjDWzjxBPO3nw6hvyeaHHGFdWl+/ozwiCFeLkQhRAV/NQ1Yu9CCLwDU+Lgx/K5Qi4Uezwh/IbLz18DUwPPcO8P/Fs9vPLnwNZv5nMhdk5ivC0gTNahyUp0R6WiE1waXmHKdxImYCHgk+8brt3FtyMwht9nur4Dhhzpe/VWDia75wJB/htaGILNG+cdVb+jwtHT5xYzHUOzUS4Pcz9pFXmV6C+HdNs3ewIGyPtdtpmoqdzUZZnIxMaUt3wZw7m0wVPKriT3XJKtPhKEicTu0Nntm6JINlC5gzSGNo+KnSFz4FpSLPkZNa7P/ILQyMFSb/DzVrFqmF1EZYSq/trJeLqRgI6cme+9Q/E7fMfBflb1xCYFP3gPTY9xmhshTNzHXrGuDasIpD7CVCxqeZf6wJedqWi+sudqsDWgATEffpBbVlH5u8h75DSrZnLdNF+O1oukgRkuEKPK7hOpRk9mHrdcBzMzSC0KZeWKxw47h/XfSBc9gs2l046zHT42czbJ4KUeWZUqJT+iv1j6gLxg3P22XSbyq+bEHTlDEy5lxaUvhr7Hvq8YG7SianNOb0HhtMIn9uqeD6dU0rkfOYGnQ8lUtOrzBFde0sGASFlDcF0qVqKIqZ0ic1vm93FPd89Oyx3YjnaSUzitCr9vouYKCVK8ZIawIEdDN+nf8AFRYIz9oVQ+bJJbXdVkhAvr/X3rjwC+riu8muJTN/ipGKfELpOlBlpfIJ88Lm/mg65Q3o/E2XLcb8mNV/ZiV14bwh2rNc94m0FdijXse2LzP5D24vpG2hqkGJD4QCF5g3AHn//aaww9YMXSRtUEVq+mSPetmIcDObrvQexMidKviKz1eH0PTCQl8fIRUH/exkMJip1ut2SoRoouJPiBhmjjBYmR6CtrUpFqJ5GtWOOVpqYoMwo/noFrVm1Wi98cMPuxbYev7gdnKlUglAsrXxDuIfspYIa9OIfbBF1Fzzlz9BRatH6IphN/nKs4MzviNpqFdK7ze4D+whpQKxUNDuSjm6yw2I2uzNiSapuh5GnqcK3wgNC2VC1naHphWxXxmlWo5DN4vFCe3SM0qBT4EmwkIidlbdS0tV9M7raFxDMemKtXaIE2R+Le9+MePFSpjobh3Vc3sEiIgv9V2bahO6qLOh/PkavRh7aTRbMU1KeN8zIytGkfWpoBO5LPmmuC9QaVTyCtdnM1OebBsVV53rlSuWK0JacZSFbBb9C75X010r+D47Vf11MND4dahO5sLcw0FoTYeGG0mUNWVEytppbUsH2XtMlNFGsIBMNfAVvyHFqx51bI3ddEW9wHNwejSuXH4Hc1iKlWte8nnqMYU3dTNbSGzWRvkSah+MNmYmsvaIFDVZG1Q9crGbeK4Bi+vNrUra5KOCuIzxOMRrCp5nEhj09c0ZeRe4dmqekPWX/NrUr2HeqZJtXuiaXSFsPbhNF3O+x6bqes7Bj4vytYQ3Rgl9zBrUzVp+MblzqaB3NcLm9mrYp0jV806oNq1HbkmHqvVicsUHU8ySIotQia39cWrYH11/zAiPa9M+BWZ1rq3Y5MH2D05TR1L8XvtTomYd37l/Kh+D2y8QsVfuaarQq2kDSD3iZK3rcw0ZvlyxX8L94UP8T6g0WfwOwNfX1Nqt7m960aQpWGN74k+30NNmCavcDr88NFoMmksxbbILldV6SfR2uB1foj2IQ8J1zR+wQczzvfcEXXKZVfA4mdUeeXFBBIHc+PslKo6gmmNsv297oEqJg6eSLo3uVBHgwr9s6bQNjM588yt3p3ska2T/jW3TrztTywPmRYwk4fKTyl5URGMlQ9f2wGwLRcdKPeK+4TIxNVTq0KqO3oA8f+0YWFYs217WttyignAL3lc0V/BxNl02Ofka+7awN7spY/9eJ2qiavkBdB6bZAPPw6/vVT4sol77vprEIqqfNhdEcJbfd2OhWuKXsvdDfET3uZPU3F6caKx0Q2ArgH1RA2zTs/Vrz3N2mDzHEnEJkvhNFyjnhecpSiWi3B2r/VZ6dKZGrV+b8j0DA0NgzQzTVtS/edneL0QaqjulUyegnGzQbVeyI+y3NcL/F6QxVjfsHz8NSopp/tjgOq1J/YVwTPfb820gMuVuUtWFRRx6wec4Wwa2YPsI02bKSLK8Iwcr+q417Gq4bJeci25ovcs98EurQPi0BzRIfxSJWyxRx15b7BhWJPHloxL+5IT8+AVManx7Ug1uawH1upMYJs1F79L+M9J1bpp88Inl4ld0G1gx3mG6mnjvVPxQ+pT/ijMMu7W9JoKTRvFeeE18eHMniE9KH0e0oJn++obswjaeECcD+s9oBqPqLi/FiNL5LXTF/2CLDankt+bXkovp9uIABEgAkSACBABIkAEiAARIAJEgAgQASJABIiAngAJWOQdRIAIEAEiQASIABEgAkSACBABIkAEiAARIAJ1TYAErLoeHjKOCBABIkAEiAARIAJEgAgQASJABIgAESACRIAELPIBIkAEiAARIAJEgAgQASJABIgAESACRIAIEIG6JkACVl0PDxlHBIgAESACRIAIEAEiQASIABEgAkSACBABIkACFvkAESACRIAIEAEiQASIABEgAkSACBABIkAEiEBdEyABq66Hh4wjAkSACBABIkAE0hKoDFbgxW89Da/+x4sw2D+Ytpphd9+ExZPh8jveC6NnjBl2tpPBRIAIEAEiQASIABHQESABi3yDCBABIkAEiAARaEgCe1fsgruv+B0M9o0c8UoM5MSjJ8O1z/xpQ44rdYoIEAEiQASIABEYmQRIwBqZ4069JgJEgAgQASLQ8AR2PLEV7n33LQ3fT10HP3bgsyO279RxIkAEiAARIAJEoPEIkIDVeGNKPSICRIAIEAEiQAQAgAQsErBoIhABIkAEiAARIAKNQ4AErMYZS+oJESACRIAIEAEigAiQgEUCFk0IIkAEiAARIAJEoHEIkIDVOGNJPSECRIAIEAEiQARIwPIJ0BZCmg5EgAgQASJABIhAIxEgAauRRpP6QgSIABEgAkSACPgEKAOLMrBoOhABIkAEiAARIAKNQ4AErMYZS+oJESACRIAIEAEigAiQgEUCFk0IIkAEiAARIAJEoHEIkIDVOGNJPSECRIAIEAEiQARIwPIJ0BZCmg5EgAgQASJABIhAIxEgAauRRpP6QgSIABEgAkSACPgEcsnAKjbDKT+7Do5q3Qp3fPQJGCgBQMGBmX9yNpz56WOh0NsHTnMzdN5xFzzwnU448iPnwJkfnQvlvgEojmmFLd9/GFZMPhOu//g46DrYx207dMdKePw70+G61+fAwZUd0DZzPDR37Ydnv7gMtq3qBqfpnXDlz7fDnR9dnWk0ScDKhI9uJgJEgAgQASJABOqMAAlYdTYgZA4RIAJEgAgQASKQD4E8BKzitPFw+e8uhr6+UfDkB38P3fv7oenYc+Dam+fAM++8A3Z0lgCailAo9cKU954PF/3tEbDs2jtgz7ZBKDQ3QaW/H8offw9c0vkKPHDzRt6xysAgDPa/Dd7123a44wMruNA1delJcPG358Gyt90CuzpIwMrHA6gWIkAEiAARIAJEoJEIkIDVSKNJfSECRIAIEAEiQAR8AnkIWGMvvxjOf+tGeGnHcXCS8wLc/9PdMP+mj8OxTz0M9/3kzRDtU278MExffRs88O3DoevFz7wX3rl/Jdx70xvo+oWugHX9CvfaqElw8WMfgP3//j+w8g/nUAYW+TERIAJEgAgQASJABCQCJGCRSxABIkAEiAARIAINSSCzgOU48NZ7Pw7bv/YHOAgT4N3fPx7uOudOWHD7X8Kk/74HHvnj5hC30+/4CIy7+UZ49KYwzuJnroMP/cNMqAxW+C/W/esdsPxHC8MCFoyH85fdAD2/uRteuPE4ErAa0iOpU0SACBABIkAEiEAWAiRgZaFH9xIBIkAEiAARIAJ1SyCrgNV81klw7S9OhO0P74YyAEy8cBFs+tJv4PD118EJLzwC9/7Q3RIofk7+7w/DEevvgPu/dSh03SoDa8IUuOSR98Pub94Iq247lwSsuvUqMowIEAEiQASIABEYKgIkYA0VeWqXCBABIkAEiAARqCqBrALWMV+9GhY6z8O9X9vO7Rz11++Gt0/fAvfd2ArX/O+R8MT1D8DBA/0AxQIUBntgwuXnwUVfmA6Pvv8+2LeXnY3VDNDTA6U/uxou6V0DD9/iCl7l3hIMdJ/nZmDd8BK0Th0LMy46Hc797Fh44Ky7YD8d4l5Vv6DKiQARIAJEgAgQgeFJgASs4TluZDURIAJEgAgQASJgIJBVwLr4kRtg03t+A2+IhKrWGfCu+8+Dhy66FSZ8aCks/dwxUBgsQ6U8CLu/dxM8/odmmPnhc+CcTy6AQoXlbAGs+frd8Nq8t8EHPjUJ+joH+LWDt74Iy745Bd63cSF0b+yG1smjobRpKzz994/D7vW99BVC8mwiQASIABEgAkSACCgIkIBFbkEEiAARIAJEgAg0JIGsAtZwh/KxA58d7l0g+4kAESACRIAIEAEi4BMgAYucgQgQASJABIgAEWhIAiRgkYDVkI5NnSICRIAIEAEiMEIJkIA1Qgeeuk0EiAARIAJEoNEJkIBFAlaj+zj1jwgQASJABIjASCJAAtZIGm3qKxEgAkSACBCBEUSABCwSsEaQu1NXiQARIAJEgAg0PAESsBp+iKmDRIAIEAEiQARGJgESsEjAGpmeT70mAkSACBABItCYBEjAasxxpV4RASJABIgAERjxBEjAIgFrxE8CAkAEiAARIAJEoIEIkIDVQINJXSECRIAIEAEiQAQCAiRgkYBF84EIEAEiQASIABFoHAIkYDXOWFJPiAARIAJEgAgQAURg30u74a4rfgeDvaURx2XyCdPgPY//yYjrN3WYCBABIkAEiAARaFwCJGA17thSz4gAESACRIAIjHgCK7/zLKz63vMw2DdyRKxJx06BK+5+P7SMbxnx408AiAARIAJEgAgQgcYhQAJW44wl9YQIEAEiQASIABEgAkSACBABIkAEiAARIAINSYAErIYcVuoUESACRIAIEAEiQASIABEgAkSACBABIkAEGocACViNM5bUEyJABIgAESACRIAIEAEiQASIABEgAkSACDQkARKwGnJYqVNEgAgQASJABIgAESACRIAIEAEiQASIABFoHAIkYDXOWFJPiAARIAJEgAgQASJABIgAESACRIAIEAEi0JAESMBqyGGlThEBIkAEiAARIAJEgAgQASJABIgAESACRKBxCDjlM/dURHccx4FKxf8nvyxfcxx+NVSOlWE/+F5+H1SA/U+i+sFh1Yfr4tcqgE1zmA24cm5V+Bo3qyJfY5Wz/wkMs+m3a5Zdv5UsDFyT1J8v1yhrE1d3OHLiqvQxtT+l8rFE4yb5mM18cCeJwl8VXB1pPsg+nIArmwx4pubtw6l8TLMOpJoPKr/QrA0VE1fl2qBeB6q9NqTjSmsufoao/CmVjyVYG1KNm/ZZRmuueLfgT+LE7wi05lZlPtCai95Vac2tio/RmlsdH0vAldZcdwhSx6j0nhuK6dXvYyme68NIW6irGHgEawvOwJk7vddHrvbwUC9QnfK4htU+XLf/eMy5vSz2k63V8QHVmOhY5+FzWXyAbB16H6C1Ids6TOtYdXx4OHGldaw6PtCoXGnNpTWXfCCbDzTq2kDv5Nn8Yji9N5Ct1XlvIK7V4Or0nrEdpSIhLUn1LHP/KOX+hNI/NNfCyVzhNUBXv2jD5l7sE6r/NullWW3Ik0WedSVhqGJk4lpt1tVmUe36dfyJq0sg73k51FxVfcrTx/KsKyt/E+u8x1aur9osdPXbPI+y9N3EldbcMAFb1sSV1lzV+6ppPld7nUmyDpt82HYupC1XbRa05gYjnCeLao8bvedWZ9zqlSu954bH2/QMSbLG03uu/ikX89xyus7YgjKwRB1iZMQKiN8A8riGM73wKouVftGm6Rq2Nc968+5zLeqrRv/lv75kHS/V22Qt2GRpQ6fWmnwziQ8TV3f1ydOHaW0I/8UhT3/FT+e86s0yR4fq3jz9VeX/ov485oZ4vsuRTR7P9Lz505obvNHl+T5WC660NtCzTPhANWIKWnOH79owEt9zVc/GPH2Y3nPpPTfPdwSdv6reH/N690/3nut0nLHZf6PJ+w80aQTKPP8AkUQwbnRbdSzS9LvaXKtdP/lY8PpTCxbDyceGk60qKTiN/bXwgZFoK625tV1nyMdc3mnf46r93K12/bSOVWe+DSeutOZWxwdo7gZcycfIx2g+1Md8cA4t2Vjxzkj3RUx+Jph7ljr/4UFRxmveuXeh+sQ10R5rI+210N+QyVaXMxL5iWsyHx5O/qqaq7797Nx4L6KpBx+ItRWtNSPCVvRHB1pzgweieN6k9QHVc4SeD8FznLgGz8aqvOPQmlu3747sex/COFpzac2VfQC/N6ddGxrl3bHe4gd6z0XPrWG0jtGaG333wroKvY+lfx9z9i9ZL//RPiyt0b+IABEgAkSACBABIkAEiAARIAJEgAgQASJABIjAEBJw9p7+Os/A8o+eQdlWymvYWF8FRknrpmtM1g+1xz5nb3MtxfE4ZKsF65HIFTlG3ftrg9oqvgKB+VutA6r1wuDDynUgAdda2qraCk7rGK1jw94HEsy3aq0D1nOrFrY2+DpGa67FmpXCB6x9mN7JE8U1Dcm1FutYXvFDAltr+T42nNax4WRrQ843WnNrveY6u05fSxlYQ6ggUtNEgAgQASJABIgAESACRIAIEAEiQASIABEgAvEEnO2nr644oVQrlozFkrLwqSF5XzO34Aq04XLiWnA6l7CLdTKw11y7C8WunLmUva1un8hWO/r1xZWNWvhrXXiWDI2tFX6+lVMsg1MchEqh5PrWQDPAYNE7/CoZ67BvVttfVXPQfr7Vha1OhbN3WgahXB4EKDcBDDaBUy5w/uo1q765qvya1lzdM8PeX81cc/SLJoDyLAfK8xyAk5uhcGILwOQCQAu9EhEBIkAEiICSAHtg9wHA7hKUVw6As6oEhW0VgN3llDFRtueDU3GgqbcJmnuK0NrRBE09TVAccMAph+MzGs10BCrFCgw2l2Fg1CD0jxvg/7/UOghl9l5XJzFwXbznGmjYxz/uhq/hEQMPJ1tzfHdUaiPZ1rFq+bCz9fSXKQMr3dpHdxGB2hIYcxgqE/ZygaoyrgMqM7ZA06wDAKVWaOpdAKUdBSiM7oLCWS9Caes4gGXvhkr7lNraOIJac6btBOdtt0JpzAA0vfo2GOwGcKb3QHnsNijDYYDdR4Czbz5UOsZBcXQ/FA7MgkrX2BFEiLo6FATKcx0o/VkLjD1pAkyYMRGampugUCiAg08XHgrDqE0iQASIwDAgUKlUoDxYhv7+fjiwaT/0r+qCpl/0g9NeO+NbO5tgws6x0NxbJMGqRtgrhQr0jy5B+8wu/v/phwgQgfol4Lx52kskYNXv+JBlRMAn4IzuBJi+Cwa7WqFyxBZoPn4dAAyAs2kRVHbMg8K0dqiM3gXOzJ3gnPAiVHodgBcugcEnL4JKNwknebmSM64TnKV3QeGM5TBY6Afn5bOg0D4HyvsmAnROhcrM16E8dwtATxmKm86E8vZpUBjXD7B7NpS7KAUmr3GgeiQCkxyovKcVxl4xGSbOngTNzc2EiAgQASJABDIS6O3thUMbD0L37w5A4f4SQH/1wqbm/iaYuHsMjDnU5n2+LKPxdHtiAhWnAl2Te+HQ9C4oNQ8mvp9uIAJEoPoEnA2nvVi9lbj69lMLRGBkEXDKPP22uGALQGsXF00qhTIUJ3RAee90gGIJios3ApxxP4xe2AG9PQMALx0H/bd/BKBv1MhiVYXeOqO7oPmDN8Lg9Beh2NoKlR0zobLinVDeuAgq5QrA1IPg9LQC9LcCTN0FlQOToLJrrmsJ2+9JP0SgGgRa/v+txN8YD7POmwOtra3VaIHqJAJEgAiMaAId7R2w954dAN/rAqiCrtHUX4TZG6ZAcaA4ojnXS+cHWkuwfdF+KBfZezf9EAEiUE8EnHWnPucJWOHzfVwjba7ZlLGtC5cTutpwqp9sDf5klCeLPOtqDB8rTGmHSskBmLcWoFSA5ikVcFoPQ/HM+6F5RjOUSyVomzYHik4/9B3qhq4HToTyirfC4J7JUKkUwGnrAxh0oNLL/srH/t0L0MQe0mV3CHvboMLO0bJeB1RzPIdxc9j5XmW0FFUAyo5nWw71u8qSca1jfIpT98OYKzbAqPNfgu7dO6E80AOVsgNOSwuUD7bCwPILodzRAs7geIBSGQbfXASOU4Zy+zhj/cnmTZ79boz54Pppns+MPOuy87HU9h9ZgJYvTYJZpx0Jza2UdVVPL1hkCxEgAo1FoKerB3bdtw1K/9ouiVjZnhmjutrgiK2ToWmg0FjAhnlvWAbWznn7oXdUv+Z9eDi9j5GtwbsisUj9zhn7vl07rs5rpz5DGVjDfIEl80cggUIZCse8AtA7BqBnErRccRc0vWUDNDv9UKmUoDhmIlT6uqBQLMJgqQJOoQB9Ly+Gnjsu4wLQqCsehcLUvTCw4lTofXwJtJ71MjSf8SQ4TQ4MvvEW6HnwbFfc8g8LZafFM4HLO8zPqQQZRWK9YsISO/yywEQwdtH7Bftvvsp4v2f3sh9Wd8H7b34avVcnylRyxnRB6wWPgjN3FwA7w6erBP3PnA2Dr58giUKeSCCarKAjOJsGoNLcA06lCSq9o9zjKEd1ARS9D0VwwW6Ua7NYDbH9AFCcuwNGXXYvtJ74JjhQhoEBgGKxCH3dvdDc1goFxqUwGvpfWgC9d18KMGUfFJwCDKxdyAVC+iECVSEwxoG2r06BuW9fSGdcVQUwVUoEiAARCBPo6eyB7XdugsEfHAYQukYGSMVSEeZtmAFs+yD91B+BvrYB2LpwNwxSJlb9DQ5ZNGIJOKtPfZoErBE7/NTx4UzAaSpBYcZugL5WmPjF/wKnrZ+LKQP7R0PRGQBnbCcUW8YANBeg99WZcOAH10Cl383QaFm0GSb+1a+h3NcGh37wQSgfHg3jPvVDcMY0Q8dPPgxNU3pgzDueA6e5D/o626Hc0wSV5j6AgT4YXH0OlDYcDXDu7dA67TAUCk3Qu3wpDK5eAm1nrneIDfkAACAASURBVIbR5z0L0DcRuh46C4qnPgJNU7ug1NMHxeIoKI4ZBQXogcF9E6Hjt1fD2KufgqajtkJT2xSAci9AuQ/KnaOg874zoXftLIByAQpjumHiV34KhbbD0LnsLOi941KlKNR07kMAx77GJbbBu68A2LmQ99WZcBCcd94Cxen7oG/NPCg8fh0UTn4BmpY+AS1jW6D/xROhsnc8tJz9NBTYC0qxDZqKY6Bv5WLoffYEKHeO41qc0zIAUz77G2hdtA+gucgz2Up7J8BgaT80TeyFSmUQKofGwMEf/imwsSntnAaVQRKvhvMcq2vbmxwofn4czLtqIbSNpu3BdT1WZBwRIAINRYBtJ9z+3Q1QvrMnU78K5QIsXD8LWki8ysSx2jf3jO6HzQt2Qln80bXaDVL9RIAIxBJwXj7lCRKwyEmIwHAl4JShOKUdxlz+NLQu2gylPTOh4w/nwehzV8KEK9bxbCOnZRTs/+k7oPPx2X4vWxbugKlfvB0GS+3Qs3YKdN9+FUz86O9hsNIHh3/6ERjcNwWm/uUT0HT0MujfPhk677kYKi1dMOrCB6Bv1SnQ99AVUJy1C8Z85CdQbOuHjl9+DEobFkPL4jdh6qcfhAP/eQ30rp4KTQu2woS/uBGKTaPg8G1vhUr7dBh91npoPuIg7Pn6n0Dz3F0w4+t/gEJTEQ7++kKo9A/AhKufg0pTH+z7/qXQv24+QHMJpn3tZ1Cc3A0Hf3Yt9K06SjlaLKOs9c9/AE2jB6H/wUug77EL/HKFI3bBqD//MTS1AHT/7loYeP04GPOXP4Li5H1w+JtfARhohbGf+im0zd8DfWvnQnnDiTD64heg3F2A9l9eA6WtM3hdY9+5CiZ/6Ekotk3lmW4Hf7MYul9aCBM+8Bg0je+A3rXzoOPe02Bw/3g682q4zqlhYnfhxBaY/e3FMHHGpGFiMZlJBIgAEWgcAjvXbId9n9oMcCj9GUmTD4yH2TumNQ6UBu0J212w9cg90D6hs0F7SN0iAsOLgPPSKY+RgDW8xoysJQJRAk4FCuxrKU4Fxl7wMlS6m6F5zmFoO24ARi3aDzu+eQn0vMLOYnJ/Wo/aAzO+dDuUevfDYLkIpTeOgZaZW6DQ2gR7vnsNDGybDuOuuRdGv3U5DGyYCwd//jGoVBxoWbgRYO466H/0Un5g/ISP/QJa52+F7ocug85Hl8LYix+ClqO3woH/+Chvp3nOXpj+d7dApTQAe793AwxsmQrFMf0w+c+ehL3/cRE0TT0Mc358F5T7emHHF98Dpd0TYOpf/R7GnLQLDv7hNGi/6zyezTT9K78AZ9xuOPSr90PvimOVHjD64vuh9cInoamtCfpWLYCOX/8JVMpuBlRxxh6Y8vlfQaVvNwwOToX2n30EWq/7FbROOwgHvv5P4JRaYfJf3AstxzwP7Y++BXpufy+MveQZGPeux2DgudNh3y8v5vWMPnUjzPyH5dC9YgH07SpA36uzoDipBzofO4qfh1UpFUi4ovlZEwLjfzgL5p2zgG9lpR8iQASIABGoLQH2dcJNt74Bvf9+IHXDx62fB6199HXi1ABreGPPqD54/agtNWyRmiICREBHwHnxlGWpBaxKxT2WBv/IxyHbolfdp6rftj653LC3VcE6TxZ51kXjFtCs9XxoPWYbtM46AJW+ZujbeiSMv2gNNM/eAgd+fz70rXeziNhPy8K9MPNLd0DpQDPfcldu2QtNzS0w2OHA3h++H0o7p8O4C1+AiVc/DAN7psLhB5ZA08TDcPiJJVAc3wGDe6bzesac8zJMvO4u6Fu9GA789kqY+snfQO/qt0D7vWfztYFlh834ws3gjO6D9nuXQHHUAPS8eBxAAaB/0zQoTuqGeT/6HQx2tcOhO8+G4iiA0ee8DJWumbD7B+dBae94gKZBmPlPN0Fh2j44fOvF0PHwScB8rDCml4tG0NsKTmsfTPzML6DSPhmaF22C/v1NcPhnn4BK+0RuZ9MRe2DcJ38O4AxCU+tY6N83Cgqju6BpbD/s/+fPQLljHMz88v9A8Yhd0LX8ZDhw0yXQtngXHPGFm6BYGAPbvnEt9G+ZBqNOfhMmXfUi9KxZAB3PzoFRR7VDYWw39Lw6B/q3TI4cB8/apvkwdPPBdl1TPh/qeM1tOrUNZn1rEUw7gv5ybzvGVI4IEAEigAls6OiE7697HVYcOAgvHzoEc8eMgXmjR8PZU6fC5449BsY0mc+k2rp6C+z/3GYo7yklhjv50HiYv21W4vvohqEjsHHudjg0voMbUPV3uyq/g9Q6PrEdtWEfrytO6LXp+5DoIPXqYyp9SbrmPHfyQ6kFLJsBoTJEgAjUjsDUa1dA8/xtsP+m86F/31iYcf2z0LtrLPRtmw69r830DWldsAum//XN0L9tKhz84/kw/dN3QHGMA5XD42Dnd98NAzvGw+RrH4Wx5z8Ppa4SOH3joNQ+Gfb89Fp+LlVlwD1La9RxG2Dqn/4PVEqzYO8vL4HJH7oV9v/39dC/yd2u2DJrP8z8+9sB2vph8HAzgNMHe35yFQxsO4Kfx1WYdBDmf/t/2fHuAIUWKBaaof3JI2HvzUuh3OGe6+M0D8K8b/0WChMOwMF7zoSDfzyLXx97/lroe2M6DOyYAk1zd8Ckj98EnfdeAGOuuB8KLc1w4D8+DKUtbp+bZ+2HCZ/+JRT7RkPP2tnQdspKAKcILW1tsP3vPgOVgSaY9fX/gpaZvdD5+CLY96tLoHX+Ppj95Zuh2NwCu370Duh4YT6MPX0jFMb1Qsv0Euy//S3QPKUXptxwL3SvOhraHzy5dgNNLY1oAqP+YjIc+/ETockiwHJftKOPeUf+69OIJhrtfKlU4nwHBwf5L7NmurExKJfLsfWw37OfQmF4np3H+sh4CW7Mx1hfGEvGLw+fGxgYgObmZu7TJp7k0kRARYCthjdt2gR/+fwLWkBLJk+GX59zNsweFX++YE9XN7z2VyuhtCL5WVjHbVwAY3vo/MJcvJS9kv5wAsCDfQB/7A0+yJNL5UElh8Z1wPq5W3OulaojAkQgKQFn+cn3e2+2Np8+ZCcZo6+Vi3yD2Gvo07J+Od01z4ZQOXwt4Wdq2Qu6/97uaZs1s5WHDZIOm8R+E+s8uZKtgV8n4crlFTQn0HirfJjPzur6wPQPPwuVw6Nh353/X3vXAR5V0bXfuzW9J4QQSug19I6CIIKK2LCDXUGagiIqdlFRPsTeAXuviAKKCCgdBKTXFBJCSO9l2/+f2b27N8smubt7N8nC3Of5PsnsvWfOvHPmzJn3npnbjW2fazFlPypTLTBXaFGwrpNd18C2OUh8fDUq06KQ+fJohA89jOjrN8NSGYqMBWNRdSoCcbesQWCvnag4noi8ZddB1z4Fxpxo6DscR+lGK4mkDi1DwuPvw2KuQPWJDhACKpGzZALM5QEMm4A2OUh89FeisnDypVHQRBhgyA5F+AVHkPNVP2ijS5C0+Ee2uCnZHoPQfrmozuqB1Ke6wFShY3AJWiPaLloFXXQxcn/sjJzv+kClN6LFQyuRvWwoqk9FIWLMZoQN34bKtDio4soAfTYqd/RH0S+jYDGpoWuei6gpS2EqC0TBkkkIH7MBwX2PQVAB6TYCq/nUlQjrn4nivzsja+lQhF9wCs3uWgnBosOJB6+FIT8I0ZenAGotdNGnkLVsAAS1GUQaWswa5H7Xu+aYV8QGCMbG9GPu2KttPNhnIe5za/qVOuY3N3yDoAZi5rdGu0s7yprvKyoqsH//fuh0jm0qzZo1A/2vrkskcGRVcg7elJaWhtatWyMrK4u1rnlzxwsA+ttdfKgfSktLERtbe9ZcYWEhqysiwpo56m9XVVUVcnJykJiYiMzMTEY0UXtTUlLQsmVL9rc3F5FWu3fvRnJyMqqrq5Gfn48WLRxnO0plE5FG5JkSpJk3OvNnmx4CJ0pLMfzPP1FYbahTOSKxvh46BHEBFM+4vkxGEw69vRclS8/YbnCOCW3zolM8oDNo0ONEe2iN9Wd5yUawlQa4Ug+sqABSbOdy3RUMHCsD1suWcvaNLXXAVVqWOQ+zBfisAij4/38/GQbkVgNvu0/eeaGN60cDBOC7SGCwDrinEPihUvEqSGCFvgr7k07AqKYXGw0Y47DWuBOP1beGFOXJsVfXNsxU4nGu0zrQh7gqgnV9duHOGrg+zkaChX00KmfDwj/JK3kGlk/cHBfKEWhgBFRAy5l/IuenvqhMjYBKZ0Krh9Yjb0UXaONLUPRPEkzl1gVEUIcCJD2+BpWnEpDyLJFRZrR64G8EtCrDiWeHozorHPG3rkPY4CMo3heJ7HeuZZlQEcOOQRNjwJmvk22NsyDu5tXQd/8XmoAwFP7RFwWrBtnPgQpMykPSM+thqjYj7YWRqEqLQECbYsRN2Iu0ly6ANrYUnd/dCJVGi6Nze6HZhF0I6VGMrE+SkbeyLdsiKOiMaPfSr9CE5yPvt2Tk/tIT0VdtQ3j/w8hYdBUMhcGIvfVrVJ5ogZJ/hkITWYi4GZ9DpYrBqYVXwZgbBl1CPuLoq4ulQch6ZSJUGiNib/0Gge2KkTp3OsvAavHATwjvW46CDW1x5uueaDFtEwLb5aJobSec/qIX1CFGhA3IgbFQQPSl+5C+cCTM1SoEdshC3NVHkbbwAn7+VQOb/PlYnaAX0O7znmjWIV5W84k0IWKESAXnS8yMITKALr1ez/5Lf//777/o2rUrAgMD7cQDERRECIhkmJhxQ2WUDSMSFEQeiNk3Yp1i5gz9TXKk9dG/6RlplpNzpg3VRTKdM6HoOdKXdBczl0RZVE7Pie1yVa+oj3ifSHiIBBURMVSWkODY6kN47tu3D3379q1Rb23yRQwII6mOpB9hKbZJmoFFvxGeJJN+r4v8obN4SK60X5yzk5wzykRdnDGn7CnnOl21i/Ci8trqzcjIYDoTUSrWLWZNiTYmbTsLdSUy6VnnNtDfRGD17NmT1Sv+Ts+JNkwyqfzgwYOM3AoKCrL3v6wBw286pxEoMRox6s+1OFhcXKOdfSIjcaaqChnl5TXKH+7aBU9061YrJmRraZtO4NS0Y27hFlwZiB6p7aG2ndPp1sO13qwG/o0FdhcDd5YDF4QBP+iBFjkAufhYNdBMALJMQJ6YuyAAHdTW/XApJsDVTsiR4cAvgcC6aiBCDcSagZEFwHsxwMlyYAodbC4AbdUATSFpRkAKYwci6SxAthkgoinHDOgEIEkNmCzAUWuWK7tEHU+ZgHwPlqerooCRemBSAfC18iSWQW3EnrZHUKWtm/xUpj+5FI4AR6A2BIQNySsoLLSeZWUjk63bDc4uoy+a2dlWSgqwPlkjK4vO05GWWd2PvDJ7DphNF6aFRC/Sz7nsfNXViqp/4Oq1rqL11mIXStpAY+la73hz0d/OuhI82rhSVJ8JZkRKQGIRgruchqkyACW7ExDUoRAlu2IBtRmRQ1PR/I7tMOY3Q8qCfjCcCYEquBqtpv+DrM/6wlgYgNibf0NI99OoPK1G2c4eCEgsR1jvkyhY1x1nfuhn9xe6ZnlIfPBLmKoqkfvV1Sjb387qG1RAxLDjaD5pKyBokL+hJQRzMCIGn4Gh0IjjT45F+OA0JM1JhcVsxInnuqM6JwBJc/6COjQU2V92Q/6GGIT1yUHzO7dA0FXDXBSOymw19EnFqEg3InPxFQjuko7oa9bj1HvjUZWSALW+GgmPfQZtpBl5P/dB0YYeCO6YidjbV8NcrsGpxdfDWBgKfcJpxE5aiYxXb4E2sgytH/kVmlAzUB4FY7kZqgAdsj7rjNLdLWGuViNy2GkU74pC5KB0QG9G6e4WqDoVxN5K6uJKUJ0dyg66r9+P2UYu97m22eE88WMKzWXQC+j+6yBExsj7+mBdBNaBAwdYVlBMTAyIMKIsoV69eiE3Nxe7du1CUlIS+40ygvbu3YvIyEiUl5ez/xGJQP89evQoIwzatGmDqKgo1qckk7JjWrVqxf4mcuHEiRPo0KEDNm/ebCeDiHjp0qULI4iI8BBJNpL333//oUePHuxZIiOojO4NDg62xzNU/5EjR5i8w4cPM53CwsJw/PhxkGwiruh5IjtEAojIFNKvT58+rM1bt25lmVZEeon6UAXHjh1D+/btWSaRM4FFGUVUX6dOnRAfH4+AgABGaIWEhDDfR1lI/fv3r7EVkPQoKipiGUkFBQU4dOgQ2rVrh/T0dHTs2JHpnZeXx8gq+veWLVuY3OjoaIYlETFUn/Qi/ek+0l8ksUhnIpZOnz7NyumitlE91J9nzpzByZMnGdlF9xJByeYSiwU7d+5kOFE/kw1Qe0pKStjfJJPILepD+jcRnNTn1BZ6hspJh+zsbFavSGDFxcWB7Kxz584Mb8KJLionPajPRNyofqqLdCG5ZE+EkXhJCSySRdlxpAPZCt1L7SwuLmbPkP0S1oSlc/YcXxKcvwhsys3FmL/W1QAgVq/Hf5ddig+OHceTe/fW+O3CuFj8Onx4nYCdPJaO1Gv3uRWTh5eHoEdaewgWp4OEve2atiHAtiBgbB7wajSw30YwTQgFFgUBwQKQawRuzAd2CcCKKGAAfQjEAvxYDEx2kU1FBNbXWiA2FwhRATvjgO8KgV5hDgLrf1HAJB2gtgAHqoCri4BqFfB5FDDIJn+/CQgwAKOLgNejgfFaa0bXT2XAtFLg2hDgpWAglHQ0ARPygf8k5JYzNl00wMQg6xpUvIIE4PZAa9nEAuAX68sSpS6zYMG/7Q6iQld1Vn8zPyp7XVYze6vGfp1a18CNEzuyIz4ka315uvL1unTHmny7sFlqI/Eg7tmwC13FgdYA63Xhr+TlHlDcnrqCGvv3PBXSQM/5Wlcl5SspyxW8vpavZJdyXUU0w3plIrBVGcrTwlGZFgF9QhnKDkVB0BsR2i0HqoBqCKoAVKTrUJFqXQwHdz4DY2EghKAiBLTIh8WkhcVcDU0AcVAaRtBUpkah/Lgj+4NlZg09CAsqUJ0Rj/ITiYBZgK5ZMQI7nIRap4fFaAY0RqgDAiAIahiLgOKdLRDa8wwd+AJBpYGxGCg9FImQjnnQxpUDBh1KD0YgpGsFLEIRVGo1VDozm0rNFWYYSoHyo0TMZUAbbkTlqVCUH2kBfctsBLQsgEBnr5SpYDwTDV2zcggBpbCYLahIiYYhy3oIfWiv4yhPjYUmogIB8aVQ09tBsx7VeVpUnwmBITfIelCn2oyQbvmoSAtGUFIugruWofRAHEp2WxfsTffi48HRN0pioaQs93yuEKhCr9XDEB4eLsvsiKwhQoeIKLqIhCDygEgZWuQT+SNuJ6T7iHyge4hMoK1aRE4QGUHEikgEEElB5BDdt2bNGlxxxRU1MqOIgCBii4gZuog0ITlEhhAZRqQCXUQOEaFEdYpb9qiciAqqn0gmIktoCyQRQtKLCAy6h7KgSDaRF2KdRGhQ9g0RGKQLkVRENBHZQReROUR4EBlGv4tZUUS0EKlD5A4RTES6uCKwiOijOgYOtG6lJkKLyCYRHyKciFyTZr1ROyhziwgakt29e3f7+VB79uxhfxP5QjgTRqtXr8aQIUPs/UxEHREz0owp6i9ql0jqEUlIdkGEEOndtm1bph9hQzpS24jYov7s169fDTwJ83Xr1jFCiUgzurZt28ZkiLZDpB3JILxE3Oi/dF/v3r1ZPUQq0TNSAouw6tatG+tr6jNqF9kf4Uh6kkzChOoVt1gSgUYEF8kVLymBRYQgPUukHNmO2FbxXsKLti2KBJ2swcJvOucR+CotHfds28baqRYEPNOjB85UVWJ+cjIqTCZM3LQZBhoLZ6xbAmn74PErxtWJS8bJDBwbt8st7CLLwtAzTd42cLcEawXghxighRFI0ALjc4FtKiAlGlhSDHxuAO4LBW5WAfeXA1+EA9PzgGwdcLsGuKbo7OqIwPpBZyWZgtTA88HAlBzgLlsG1scq4Ec9cFchkCYAH0QCx4uBlVpgaSBwZwGwTwDeDQdiDECfSiA9HJibBxTrgPEa4P4KYGck8EoxsMIA3BoO3GAGOtFexVquq/4/MH0mtCaBRbe21wC02eDtMuD+mpl2bmFZy83b2u1Hud6TbZNKxg1KynLVUF/LV6InRBlcVweaSmKhpCzlbUxY0+MnK4ElZbDlbFGU0l7is3WV1SVfSVnUFmf9lZSvpKympqvUDhraBpoaFufAeIi7LBMBrTJRtLM5DLnB0MdVoOjfeJZNZB/zAqU12pyUChBUJmsWkZjtyA49oHcHLEfMehi0+MaQbpJmldj70HZmk/i77dmz/Az9brK+27FfUn9J9djt0JrRxRRj+tj+FoVSMelv01WlthJdFtZWq/Z0Jli9vqGWt6HqIAPCk7NQmRMKbUwZoi/MQNH2lsj7q4XDd57LvuEcGA92G2tK84MHPpcIrL6rL0R4hHwCq7YthJRVJc3CISKACATK9pESWEQAUXaNSJ4QeUTZVUR8EYlCpIfzRQQGESti9hZtRxSzgKTb9IicIqKMfhMzhpwJLCLMiKiQXkSG/fXXX/asL/qNCJJhw4axbC+6X8y6InKEdCXyiC7KdCJfRoQJ/ZvIDqqzrKwMw4cPZ2SUXAJLPJeJCChplheRaZQxJl4igUXkEhFV0qwgIpWINBO3PhJmGzZsYG0RD+oXz5GSHtwvEkNivxBZSZljVC/hL2YvORNY1H9E7kgvaj9lcxFRKLaDcCSCjOyBLmoTkXJEChF5lJqaynCk9owcOZL9uz4Ci2xMzCQjPQh70nfTpk2MEBTrpt+ozSIJSvW7IrCojUQAUtYb9QH1MxFsnMBytWDgZS8dOIj5+/czIHpEROCPi0Ygr6qKfYGQruOlpciqqMBl69bbw4WS6ybUCRwRWIcv3+mIq8S764ijo8rD0Duts286ZHwI8H0o8Fk+cAdlIIUBVcFAmU0hCosCLcBFucAbsUA3AThUDcwsBNa7yHgiAmtlEFBkASpMwCOFwJcm4FcbgRUcCExQAyKnQ/JPVwKbtEC/aqCHjRSbGwHcLQB9CoDP4oAxauBINfBoESAEA98HOXSkeC/QDOjFs8VkQjVEB6yOsh7kfqv1TEGlry3t9qJMJyGw+BrYAbEzFjx2lHd02bm8fiDrcMcuZGIhrO7xPe3fqHneuJgfKM0TrK9MVNCdZ6QNUkIHufK4rt73tyusOa5NBlc66Dnh2hSE98hF/qZ45G+OQ0iXHBTubA6LkTKZjOyMLE1YNcyVKghaA8xGLdSB5VAFmNjXAgWVBSqt2pqBFVIFU5kehoIQmCp1UOkroA6ynoej0pgg6Ewso4t+s5jpfwaotALUgWyvMVRaFcxVKsBoPQjUbLFArVYxMs1QoIGg1sMiGKwyLVoYK9SozAyGqYK+XAhoI8qgj6ti+qmDjBD0VRB0VewsK4spCAKMUAVWACojLFVqdli7oNXBUGAAdNXQhehhLKPz1/UwGatZ2rrFGABBJ0BQV8NSDVjMetZ/luoglKeGwmxSw1ylZedcaRiBdRqlh+MQMyIHwR1PofRAPLJWtGSEH7vq85Fy/ZPc+/h4azLjrcbk7OO5TKVXoffyCxAdb82Sqe+qawuhXAKLyBwiMpwPFxezu1wRWJQhQ+cVEVFC/yZyiggR+q+UcCEShIgHIkdoGxpdREQRaTZo0CCWgeWKwKLsHdKfCBfng7qJvJBDYJEetFWN7iUZRP4QQeMOgUX60rY4aldoaCjTn3SWEkhiGRGJlH126tSpGlvjCF+ql9okZmDJIbBoayUROOLZV4QTZX5RVh21hbKe6CIyiIhGyigjssxbAosyzEiGmNFG7Sci1FMCi8hNkkG2ItoYbbckAou2tIqXKwKL6mXu12JhGX5EhFK7yZ54BlZ93uH8+/3HjAzcunkLa/hvI4bjglo+qvDkf3ux+PBhdAgNxb9jx9QKFNndycPpOHTDTrfmo4iKUPRL6waV0lsImaZ6ICfSSlDto0Ot9EB+JPBOIUCJYt30QB8BWFQGXPj/50UdNwBJemC2HhiWAxxyaq50C6H9J5WDwMrUA1NVwIwS669XBgE5lcDpAOARFdAlF8gTgCVRwBAz0KccmKUF1hqAUYHANC0wrhJYEwQ8WgxkW4D+AUA7CzDBRUaYq94gwuvaQODNMOCnSmBOMVCs/AYjk8qMzW33oFxn+9Kh9KWrj+d+xWJMHju6NVZlx3cc1wbFVfit+7duZWCd9UEs6UeyJG8b7GPa0zKnNxdMnpysIBbJWL1bg+kq1mlbeHqiq6sMOLv+nmIowaLOj+W5iSvXtWaWX6223oi4qvRmNL/iMEqPhCOobSFK9sehLCUKMKmsw6M2m7K/LbHdQMEVK5My007Rg+2nGsmm9jLrzm/rCsO2jV6wWEkfiUhr5pT0VY3Tx01sE4O1DlsWmE0va2aYUxapvT6Rn5fIpsQxVr3tIfYf6zlMjnDH+pu0b1UaM0I6FiC0QyZKjsYjpH0JslYmwWJU1f4RSyVtwJVvU9I3cJ/rmDOUxFXh+UHQCui+rD8Sk63nS9V3EclEZIr0q4NEeFB2VF0EFmVGUZYQkTmUFUPbx4hkoewW8Wt6RNTUloFFelG2DREm4nlQREoQYUWEEZERRGhR9g1l9BDhQuQFbU2kjB4iNC6++OJaCSyST0QV6UeZVUR6UZYY6SyXwKJ2UcYQtYueFwmx+ggsIm927NjBiBKRPCISSiTCaOsbZaiJhBbpKmZg0fZNqoe25RGZRW2l7CHKQqNtc+4QWEQk0f9IJuFJ9ZJORMaJ/UdtpD4gcoe2WypBYJHORMbRNk1qF5GN3mRgkc6UJUa4iFl4RF6RXUiz2FwRWOI5XNRnRCYQiUekFmEhnidGWW/8a4T1eYrz4/dDxcUY8edaTG7fjm0frO2iLKyL1q7FwOhofDxoUK33kU0eXX0IJx4+YFt41BW7OGKvkOogDE5NhsZsy4hXFH5nAgvAlzHAKBWw2QgMoCyl+SbL4wAAIABJREFUEmCxCfg9wkpgmVRAezNwYynwWyRwRx7wje2g8voIrClVwH9R7AUisgSgvxq4IxfI0AK/RgA5RiADQB8NUFgF9CkBtkcDRQY6nwGItgAX5gGLooHRKmCDCbhQC3xfBNwrc6temACsiQZOmKyZV9XKk1fMj2uqsTFpD/vvWR8hVDJu8EXs6OkHB2vE3y7WD/4UOyqgK18D17+GbAgeRPil+1f2UV5jAWpzpnWW1bGmdVtWHc7bG1k1yIWa62N7jd7Id1bbG1m+1tVZN0V0ddVvrggNOfYkkeVKNyWxtss6R3Wl7Kr4y/bhzB+doY2sQOzQFJQei0fBruaw2L6uTOc6RfY9idLDsQjtchL5O9sjqudxVJdooWueDbVOi7IjiQhITIWgNqA6qzWCWhXDYixG8ZEkmKs10EcVo+xkC4S0S0fJgXYIT06FsUKP8pORiOh7ACqtCYbceOijDMjf3QwBMUYEdzmMkn1tUJUTgfCeJ1C0uy2ajTqO06s7Qd+sHIFJp5C3vjOi+maiusyE0kOOhXpgQi6iB59C6fF4lByOROTAI4BgQMHWzgjvkYeqbA3MQjk0aj0qTkcgZuh+VBUGoXR/G0QNPgazwYD8XR0R2rYYQS0LUJUnoGBnB0QPOwhB0KJweztEDjzGsrJyN3SHqVRnjVHUFkT0SUdQqwLkb+wAY7kaccNTcWplB5bR5mt79bVvUHJscV0daPrE56qA1o93Qo/rHJkpda19iBggYkR6ETFA5AltmaN/i2dAERlBhAf9TVlT9DttWSMihn4j4kL86hyViQefSw9Wl9ZDRBfVLWbq0G9EMlGWEJENRCyIXwgkWZQNRfKJeKD/iod7ky5EULi6iEgRv25H5z+RvpTJRPeLpAX9Te0St98RAUUXlVGbaBFKMoiMEvEgHWnrnPTrdtL6CRvx64d0H7WLyuiiv53PXhIJLCISqS4i88SL9CZdSS/xS4ukF/WR2AbxUHpnIoYwJtnUBpIjEmoki+ogHEUsSCfnLzNK20R1Ur9K6yR5on0QjuLXHkX96V7CVewfsa+kX6wkXAgT8SuD0oPjSaa4RZFIRLpXtAHapihm5Yl6UnvFs8uoDqqXdBFtQMSe7Ilsg2QRLmIbFOUJuDC/Q8BoseDNI0dwdWIiWks+COHcEMoSpwPf6f4RcdYzM11dRoMRO17chNxvs+w/y4mtdSYNLkzpiwCj9cuvyl4qYND/n2f1nwEoty3xIlRALy0wUGP9muC/BoDcYHstMExr3VL4ZxXQIQB4MwDolu/4kmCEBugsAFucvrzXTQtUm61fEUzUAJ10QNf//0LhBiOw32j9omFHLTBUB1QbgD0WIMAC7DICLTXAED0QbAI2GIAjJiBUBXTXWPXZUA38R18zlElEEej0VUP60qG4VVJZUJm0Yn0ZNrXeDaPKdDaBJalPjg3Q7Tx2dIDGY8faDdYbe6oTVx+sgRXR1RUUTroKP3f/QqZ38IEn4CI5AhwBnyAgqMyIu3QHinZ2hKlSj4TL9kEdAKR/3QvGMjrdElBpjUi6YwuyVnZFm9tWIm9dP4R0PYGCPUmIHnCATazZa/qj2aVrUZIRhIrjnRAzYCsMZaFQ6QTkb05GzIh1yF45BqHdjyDnz+Fod+9vMBQEIP374Whx1T8IbpuP7N/7IXbwEZxa2R0trjqMsvQQhLXPQfo3fZF4/T8oPdQeMYPTse+py9BszEGE9tqLlLfGI270UZhKdMj43rpQ14ZWov3M32EsagaVpRrFaaEI6ZAFQ5kFpvw4qIJKoI2oQklKIDTmCATEZcBkEWCsElCwsT/a3roZxZl6VBcEQaMXENahGAUHolB9JhSRg46h7HgoYIhB3LB0FB7UIOP74TCWWhfN2pAKxE/YiKrsCBRs6gZteDkiumcja1UXWMy1MOM+6VkulCMAxE1KRK+Z/WsldRobI8ooIkKFDm+nLW4iQdHYejVG/YQDkXgiIUXZUvw6GwEi6Cg7jMgtIsXELzY6b1vl2HEEmhICxQVF2Hbf3yjfb9s+54Zy/TO7oXlJrBtPNMCtl4cAzSqApXV8/a8B1GiqVaRFnMKe+CNNVT2uF0fgvEFA+KH7pzYCS7oI8zR30dPnCG/nZ5WU5Wv5/qgrYSL2uZL6KymL95vnfQREDzmAivTmMFYAmgALInofQd6WnjCV61gGERFYbW76G9lre6H1LX9ApatGdWkwUpeNRczAXTBWqpC/oyc63PMNqnIDkbsjGc1GbIaxLAhmo4D83clIuOQvGCoqYMjuiqL93RE/cj3UAQYc+/QKBLfOR9Sg3Uj76Cq0uf03lFAWVO8cHH7nIrSZtArVWS0RMyQT1ZUl0AZX4Mib49Hunk0wV1Ugf08b6KOqUJ0n4PSqIcwhB8QVod09f+DYW5fBUK5DwhUbUXokEaZqPRIuPojKXAMCWmYjJCoApze3QkT7dKR8PRIh7Y+j9FgHtL5+HUqzdTAVN4NKU47wLiUo2N0aBXtaI2HcJqh1lcj5ewBiBh+FKigbJ78djfKMWKiDKqAOqEbsqP3I39ge5mo91AEWBDbPRd52+sR7Xb6TjwfPbfhcw1U5n6tPDETy2wOQmFTzIO6mErlQ9o+YnSQ9dLyp6NfQelCWEfNhkqywhtbBH+oju6H/idlw4oHu/qA71/H8RODQpgM48tBemErE7CT5a6nIijCMSKv5NdDzE0X/afXaNttQFFDqYs3qar3iTRmPHXns6E820PDrdeHbbh/zDCz/8Z1cU46AbASC26fDWBwGTXA1VEII4i7aiMzlA2AoCYC5Sg9BY0Ti1RtxZkN3NB+9DUX72yGq7wGkfTUa0f0OwFStRsG/XdF24s8w5Eej8FgMInrsR0VOGExVWpSfbIegxBQERGpgMaig0VtQXWmGPrgalcVBqMxuhYiee5D+1eVIuvkPZG/ohZjB/0Gl1cBsqcDpP/sjcdy/OPN3F7SdeAinVrVGYFIaSlOjEdGuDNVFAtQRhajIisCZ34dBpbEg6eYNMBvKACEIBf+1RtyQAxAsGuTsbAFdTB4EUwSCWx9G4b7OUAeWILRlLlTaSqT/Mhrxo7bDXKlD8YkWCGyWj4C4QlTnxaE0tRmCOxxDUEIpCv5rhdCWBQhqVo6U7/qh/GQ8O5xeF1GM5uO2IevXQVAHGmAqV0MdWI3SEwmy+4PfyBFQEoE2szuh58Q+0OqsGZX84ghwBDgCHIGGQ6C4sBi7X92OM99lelzpBRl90KxM3gc5PK6EP6gIApmh2dic8J8isrgQjgBHwDsEhK+6LrWfnWw9stj6NRfrod+2v9mhybYDmD0sk57bYD2EmQ5Slsi3kXeyyuzHK4sHMTvpasOkhv5ulYlPypRvw4uqcMbQVZlDL9vJ9F5h7aSrz3C1dZAL7Gu0UXIM9tn4+xOuZ9u/LNt0hX8d9mpF1cohe26vZz9LslQ6AwITclBVGAxjSTA63r0K2Rt6oiwtGmaoYKrQQxtSBlN5ANTBFTCUhEAXWsG2zdFX98xGM4xVeujDi9kXCU1VAVBpDDBU6KHWV8FcqWdZXMbyQGhCKtlv1SUh7KuEKn05LIZAqHVVqC4OgSasFEb6MiCdD5OYh8rT0TAZBFafoTgE+qgysI8DGjQwleuhiyylFsCiMrLzcCpzgwCLClCZEdgsD5V5kewLhgHRJVDrBZRlhUATWAqLWQuzEaAD183VAQhOKIShRANDaTA0wZUwlFHbKtlXCOlriyqVFpUFOgTH58JYFoqqokAExOfDXKFDdWEo1AFVrM7Q9qcQ1X8/Uj++HNqwcgTGF6LoSDzMBm3d/eaxb+A+t87x4DGu547PDWgeiP7vXoCEdi28iwL40xwBjgBHgCPgFgK0Tjq66TB2T7Z+0VCM41zFcnXNZUReDc/gWVhugd8IN5sEM9a22oqCgGJHf7uxLnasH2xrKa/Wam6upepcl7lePzhWfDLWJx7HYzzO5XGu59yC8EXXD3kGViM4Q14lR6AhEAjvnoKy9BgYi0ORdM16VBYEw1xtRtHRDqjMiQB88gnnhmhZA9ShsiA4oQBBbVOh1gDq0CJk/nwRtJHFCEk4g4L91s+384sj0CgIqATEX5uIXtP7IzImslFU4JVyBDgCHIHzEYFTaaew+8mtKNqR71XzVRYV+uZ0RftCeV+V9aoy/rDHCByMOoE9MYdrEJUeC+MPcgQ4Al4jIHza9X0HgSXn6HjnY5NIhdrKnKmxhpZ/rurqICytBtCUcW1sXV3ho6RdKCnLB7qGtj0JY7kOlafjkDD6H+Tv6QxtaBGgUqHkWBIsIoElHauejmclsXBHlo9sjLLOwjukwmQ2A4YghHROxenfByEo8TQEaFGaHuMYf650kFtWn590B4v6ZPnAxiQv92qfCzzpo6akqyf6K9lvdcjqMLMrkif2QWBQoNcBARfAEeAIcAQ4AnUjkJ+Vhz3v7EDm9+mer38kPp3+eVHmQCSUNbED3bkhMATSQrPwd/Od7sd79cVj7sQIjR2DNKV4rD5cm5Kujd1v/mRjbuoqfNT1HZ6BxZ00R+AcRUClNiN24F4UHW6DkE67UJaWBHNVMCzVAWxrH7/qRkAfWQyLYEJoQgEC4vJRcLANojrn4dSGjjCb+NcHuf00PgLqADW6PNYLnS7ujJDw0MZXiGvAEeAIcATOUQRysnKwf9kepH9x3HrcikKX3qzDRZkD0KyCn4elEKSKiMkKysG6hO2oVomH9CsilgvhCHAEvERAWNr1LevWbbYWqyOVx36PpMY6yySynOW7LctVnUrqWof8Grra6nRbfz/Vtcn3mz/ZmFxdlbcxXVg+onocQNmpBGhCi1Ge0QbVRSGwmDQ13Yec8az0ePCljSmgq0prYOeEhbZJhbEkCvrmmcjb1ZudE+bwm3J9oq/9WOPZmKJYKNBvys5lDTg/eDEe2t7VCd1v64XIqEioVCovQwP+OEeAI8AR4AiICNDXMbPTs7H//d04tSK9nvnfs5hfa9ZiSHYvJJUk1vi2Me+FhkeApuKj4anYHLcHZsHsQbwnNx6ztc3TdaXS8ZIXMchZRtuo3ILya6kmHef6st+aqI0JH3R5XblXCA3vY3iNHAGOgAwE4nqegCY4G4UpLWEojoChjGdfyYCN3aILLkJQs1IEJp5EUWosytPbyX2U38cRaDgEBCC8cyS6P9wbrXskISgoqOHq5jVxBDgCHIFzFIGiwiKk7kjB3vk7UHmmwuetTCptiRGn+0NNH67hV4MjQNlWa5tvRUbQ6Qavm1fIEeAIyENAeLfLq5IMLAkTTP+U7pBxmx2WKOD8rNKyuK5WsJXE1ZU8JeWLtCm3MWX7rRZc6YOf+phs6MOKUHSio+d1KmkDDWFjzrv8PNQ/st0xVBaFojK3mePIJw9luRyrfDw4JozzFVeFxoM2XIe4QfFodUkS4pLjERQchICgAGi1WvuXf+WFB/wujgBHgCNwfiFgNptB2VYVpRUoLy9HxoY0ZK47ibwdZ2CqMrk3T3kxr4cYApFUmoh2Ja0QWx0JOuydX75DgLKssvV5OB6ajpTgTJRrK2tWpnRcolBsytd9dXAN3qyLvRi7svpESXtSKHa0I+lLzkZBXYW3u7zCM7B85xO5ZI5Ak0FA0BigCSyGoYSfseBup+jC8mAoi4DFpHb3UX4/R6DRENCF6xEzMA6xfZtBFxsAlU4F6Qe4HVstpadnilsf5JRJm+bLiEyULa3D3TJ/0tVVO32hv7sYysX/fNdVbL9cvOTe5wtcua52BCwWmKtMKM8sR87WLORsy4bF2PhLpDBDCFqXNUd8RQzCDaHQWmzHPyjpcv1pwa6QrpRpVagtQXZgLlKDT6FUU95oczWvmCPAEXAPAeH1zgstFMQKEspQTMmqvYwqoV+t3tN6n7WMUjss9hDZERw1XplVQ0fKiUPrusukLXHMEo7W1SxzH0Pr4sAVhnXj6j3W1r7wtp84rg1n63Kwds9ea44JZzt0ZZtyy/zPN0jHtOjRpClqtY15VxhyXOX6V1f3uWfD3OfKxfrcxdV3MQf3ub6Z38RRK0aE3vsB7nPl+gHvseY+Vy7W7vlcZWxYTuzl/fqB+1wHhv60BuZxrvjqTileQk6MwH2u+/7CDVwXd17ARqPjray4mK2vzNoxNZ8Vy2qXZn2GgheR8LIuFc8us5bWvE8sc+Re1l+jgybyf12lfXJ2y60OqqngWreuYq+LPdy4NtDUdHU1BuWPNweZ7MnYktqP78ebP+nqILeaPq7Snmt6Prf28eZPuoozC/e51lGs9FzsnW9wN0bgPtcxF9cVezXs/FC/H/MnXRszzuWxozz/5K4f4LGj57i6i3XNdaV380PD+jF/0pX7XKXiGe5zPfcNda13HbgKizq90Pj5sTYijP+HI8AR4AhwBDgCHAGOAEeAI8AR4AhwBDgCHAGOAEeAI+CMgLCw0/wGJLBcfVq2qXYK19U3PVPH54V9U+F5LJXbsG86n+PKcfV3G/An/X1jbb6R6k+4cl25DXAbaDgb8CesfYOKb6T6E65cV24D3AaUsgFhQadnG5DAUkptLocjwBHgCHAEOAIcAY4AR4AjwBHgCHAEOAIcAY4AR+B8QUB4vtNTtlPGHMcIwmLjtASxzCI50/jsMscx7o777GV2WZLj3s8qk8p3HPIpnitv5SttrKXt/DV7WQ1dbfsm7eeri4eVS85wtx/o7iiz32U/1MupjWQNimLhhDU7rsM11lZDdIGrqzKf4iqA2YVd17Oxtp9rZe8j8aB/EesGxrWOfmtyuNp1rd+GJVZtH5f12rBXNtbAvsF2fE2NNtmPtKnFD9jHg+MDBTX9WFPE1ZVP5D7Xcbiiklhwn9sguHKfaz0LrEYMYjvrRVJW//zDfW6t9qq4jSnpZ3ice/b6geI/aezoyXhoKFzPrTjXGi01ofUDj3Otbs0+Hs5e71rnhiYW53Kfa+s38WBuzi1Ivvtn/yycZ5yN5z5XeLbjEw2WgcUT53zDi/oaV1/LVxIVrquSaDpk+RpXJeUrKcsVmr6Wr2QPcl2VRNM/x4NvEGg4LJTUn48H3/Sbr3H1tXxuY0oiwG3MN2j6Bleua8PhqqQfU1IWj3N9PQq4jfnCxoSnOjwm/YyL/cWgnQQWa5V+fbW2MikVJmZMyClzptBcjcz6ysTfpffVVSa2wR096Rk57anvPns2iUReXWWe1slxFT+s5NquOa4OfOrCoqHs1dW4cdeG3fUDrvxFQ/kGd3GV4uOt33IXVykm0rlAzCqRU9ZQuFI9zvi4izX3DU3LN3B79c1cxn1u3bhynyvPD3CfW3OFWt8awBVecsv4XOYbrBsKV+5zuc/1NL6sz680lA03kXhMeKLDI/bdeTWCfulCUASttrL6frenzku28jVWmb/pKiULpYsyd/qnIbCW0qsNUZ/SdfibXUiJg6ZuF1xXyZYihXwgt1d7lr3H85YrH+JPfsyfdK0Na+4buG/gNsBtgMe5ytsA97m+iRE4rhzXc8EGzgGfKzzW4WFnLk0aFvN/cwQ4AhwBjgBHgCPAEeAIcAQ4AhwBjgBHgCPAEeAIcAQaFQFhbocHGYHlnHkm/Vv6sr+2l76uyDx3yqQ7UKTPudLNucwZQSk56o4OcuXI0am29vgbru4kKXiL9fmKqysPoKQNny+4uhpzcse0nHEpx/edL1hzXB0IOI9Vb+cy7nOt2PoSV+5za9qvN36Lx2Ou7dUXNixnDuJzmaM/5Ni1cz95E3u5eta5z+TodC6uH5qyz3XVJ3LGkae24k2MwOPc2mMv7nPdw8YVXnLLvLHh2upwd34T5rSfxTOwXHlWXsYR4AhwBDgCHAGOAEeAI8AR4AhwBDgCHAGOAEeAI9AkEBBmt5tpPQPLXepLLk3n7X1NVS85r1o4rsrQwdwGrAh4+rqntmfrc0FK1+eNPK6rb2yA+zGOK7eBxrEBVz7NGx+p9LPc5zaOXSjdj0rL4/GYb+yC4+p7XLnPVW6t70/zA49xfDO2GhlX4f7203kGVn0Dkf/OEVAYgcufuUJhiVwcR4AjwBHgCHAEOAIcAY4AR4Aj0NAIZB3Iwr9f72joanl9HIHzEgFherv7bGdgCfYvC1hYqgcgCLYUIgslfziXiSWO+ywWx65I+6POZRJZEARr8peLMlEW+9ie7T5HmQALqSvVCy7KBMGatGKpqSvT0qYX00CwJrecVWYtrIGF9THnMgcHKGIm1VXMcDurzCWuZ2PtC1xtjWKqnYWrqzInXa241tT1nMcVApmsS3sl27FbQW32qgiubGC6tlcFbFgcD1ZRNju3jRHpOK3LNzjs1de+wTbmFcBV9He+smElcJXamLOfISfWtHzueeYbZMxl3Oc6fIo0vjhrfpPGA9znuoi96ooRuM9VMvZqEj5XgfmNx7k8zuU+10VMy+NcmmEVWwOfM3Eu97nsZPTa17uOGETkcaTrPucysgvG2SiMqzC17WSegXVecpe80RwBjgBHgCPAEeAIcAQ4AhwBjgBHgCPAEeAIcAT8AwFhctu7JQSWnSKzak/0myTjSJkyJ76M1aFAmVJyxH47S54TNlYwREpR0tsyynyCK8uZceihFB5KyWlIXK2pYU3bhm2ZXNYxZlNWUaxl2KFcG7amQda0dZ/YsAJ+wJWdNVVcXeF/3uIqzjdSG1DShn0xl3Gfa48RuM/1PB5w6Qe4z5UEM57FWbLnN1/4Bn+Yy7jP9U3s1UC4cp+rrM/l8Zh761i5/pXjWpMN4tyCZG1use/8c/BL8udO4e62d/IMLP8gG7mWHAGOAEeAI8AR4AhwBDgCHAGOAEeAI8AR4AhwBM5LBIQ72t4uPbrHdr6PjSCj/zglSIkf1nN6T84eqFFmPytI8h7NU1k2EXXJZ3opLF+aGOaV/AbAgutak9QVrU62vfraxuTagKc27CTfK3utBQtuY+eIjTn7alf97evxwG3MPjE6zhnw3VzpT2PXetaeAjFIA9sY97kS+/UmHpM7VzYFP+ZPujbweGAm4Gk8cw7oqpgf4zZW61zJfS73ubX6GU99D19L1RhvTTl2FG5rO4npJy70pUSUc5n0b/G++spqBKJOk5Iv5denlyv9/UlXd/RXEgtPZDWWrrYY2j4Yne3cWxv2BAt/sjF/0pXbmCOQ8ad+8yddG8vGPPEzjaUr97nWcaj0XNMUceU2xn2ur23A1/Jrm3+4z+V+jPtchw00RSz8KXb0J10by+d6YmPCxDY3Wzch1mCTbOGXnDLx01fiXE50mLRMPENLThnt6ZYqwv6UlNmtwMMye3tsz9eojl772m6Q3ldbWY0ZzvasHLzkYt2QuNot1htcnZ6Vg2ENi60DfyWxVhJXWqY427WSNszazXG1fUqU+wZmDk4256qM+1zJyrKJzmXc5zqt/ptI3HAu+VzuGzzzA65iNCXjBiVjBBZD1REjiJ/Y9jQeUzL2amxcuc/lPpelxflwvct9Lve53Ocqt1arJx4Tbmpzo6UGeeXN60NPnxXnXymhVFeZY4h4/qqT6+rgCpsC1u7agCtb4XYh77WZu1hzXDmu/mQDjekb3B1bjamr/aWTJN5wV39/sguuK/dj3AZ8YwON6cfc9VmNqSv3udIR6Nv1m7t2wX2Db3wDx9U3uDamH3N3bPlIV+H6NteLeU01HYusv5wyptgzrsrkCFNSlqv6lJSvpKymoivvNzlWWvc9StqFkrK4jUleCzltmHaHyZZjIediv8lpd1OxMX/SlftcT3vL/fEsp6Zzcew2BRuTi2tT0JX7Md+MraaCK7cxOZ6Qx7ne2Cu3MW5jvrYBX8uX04ONP68LE5Im2Aks29llNTSXUybnHhLq6X2ePldbnc5do6R8JWW5MiEl5Sspi+vqQEBpXJ3lKS2fjwcrAuczrtzGap+wlbQLJWVxn8t9riu/xW3MN3ahNK7c53Kf62sb8KV8Ph5842f4vO47XH05Hni/+a7falujCle3ufqsDCxveDW5z8rh9861e+Ri48195xpmnrbHGwzlPuupbv78nFxsvLnPn/HxVHdv8JL7rKe6+fNzcrHx5j5/xkdJ3b3BUO6zSurrL7LkYuPNff6ChZJ6eoOX3GeV1NdfZMnFxpv7/AULX+vpDYZyn/V1G5qifLnYeHNfU2y3r3XyBi+5z/q6DU1RvlxsvLmvKbZbGN96/FkEVt2K+pp3p9rl1lEfpHLlNMR9XFcrAkpj7U+4umq7P+mvvK4anRYxzaOh0WidPop+tq3knc5DRVllvffVp6VohxqdBiFhwQgJD7E94uif8tJylBaWorrKILM+b+y6Po29ka30s1xX7sf8yQa4z/WNvXJcOa7cBrgNyI0v/GnO4Lr6xq45rhxXZW1AuLz1ODcJrPoU4L9zBDgCHIH6EQgMDsTj789D265toVKr6n3g2N5jeO6e+agsJxLLuysoJAhPLnkSzVvHIyAo4CxhVZXVKDiTj18/+RW/f/OHd5XxpzkCHAGOAEeAI9AEEIiKi8KUZyaDXh6ZTSa8/+wHGH/7FWiR1ALV1Qa88/g7KMwrxPQXpmHDL3+D5l26PyQsBIJGhV3rd7H3kMuXLceIK4ejMKcQnfp0wg/v/4gZC2awl0LVVdVYtuAjZJ/MRlyLWEybPw0GgxGGagM+ePYDdOrVEZfceAmqKqqx9oe1uHjCKGh1WlZfREw49m/fj+TByegxOBkqlYDfPluJotxCDB4zGEteWIoxN45BREwEuvXvyuo6svsIwqLCkNA6AWqtGh+//AlOHDjRBNDmKnAEOAIcAY6ALxAQxra6zHEGlmD9Srv0oq8HO5fJUcTVc3LLnOXLfU7ufUrK9ycsuK61IyDXduTe56mNabRqNGsRB0FlJXTMZjPOZJ6B0WCyi5S+8+o5hAI8FfZu2Yuhlw7FgR0HkJOVy+71RlcKJqObRePMqRyYjCYmK6pZFMxGMwpyC2uV745Py/nFAAAbPElEQVSNJbRJwKs/v4LQiNCzHivKK2LtDggOQMt2LdnvRfnFeODKB3A6PduBhUyf5YzFnFcfhMViwW+fr0TGsQzHFzltkmObx2LoZUNx7b3X4KFrH8LRvcfdrtNTG3DZby7ywJSUr6QsOXOGXNuUI8uVzSkpX0lZXFcHAt7gKscuvJHvjh+rL17iuspBUxm7UNSPnaM+d/KT92Db2u3Y9c9u9BqajKDQEAwY2R/fvfsde5kU2zwGOzf8i+nPT8Px/Sfw6SufYtbCWVi2YBnG3jQGsQmxOJWahY8XfoIrbhuH3Kxc9BraC1q9FlvXbMXWNduQPKg7iChb/8sGNG/dHJOfmoxFsxeB5tWb7r8JO9fvREVpBdYtX48R4y9Es5bx+OO7Neg5pCeSOrVGVvpptO7QCh++sAS6AD0uvnYUMo5n4JYHbsZvn/+G6PgYxMRHIyY+Bs/eOx9arQZT50/Fik9WoNeQnjAajfh52S+1Gp6SvkFJWU15fuB+zD/9mBytlbRhb2TJyen0Rv5Z84Or/RUeril8PXZ9LV9JXBtKV+GS1mMtZDTSy5t9kp48Kz4jfbauMn/S1VWbGkp/d3Hlulp7pjFtuFv/bnhu6bOgDCG6SotLMf2KGTidftqlXo+88Qg0GjUWzv4f3vv9Pbz5xJvYvm4H26hZm53JsYvkQcl4ePEcPHD1LOSezoUgCHh22bPs36898poi/oIIrNd+evUsAuvff3Zh3qR5jGCKbRGHTzd+zOoryi/C/Vc9wIJbcaIT2+lOn/Ua3BPTnp2KWdfMRllJmUtc31j+OlKPpIKItKrKKny6+LN67UIOrp7alwi4O+301gb8VVfux+T5MXfttTFxdWX/7urfUPMu17Xh4kluA+5jPfe1uXj76Xfw4Muz0L57e6QcTkFJYQkCggIR0zwGz9zzDHoO7omEVs0R3yoe373/PaY+cx/CI8NB2+43rNiAcRPHsXmRrneeeQfJg3uidYfWeHXuq8g6aZ2fxYvm+clP3otFDy5iR0g89MpDOL7/GMZePxa52bl45OZHMfOFGUhsl4h3nn4XAy7qz7LDNq7aiJZtE3HTjJthNpuw/JNfoNPpQDFSdkY2LGYzhlwyBCazGT98+AM6JXdk2dQt27fEq4+8jv3b99WYs5vCmsJde+U+V95cxn2u+37A0/jOXRv2p3m3Mcebu7hyXQFhVKvRfAuh02Kf/8kRaCwEevTvjodfmYNJF9xWQ4XImEiMvX4MIqLDUVxQgt+/+x05p3Px+JuPQaVW4+XZC/Hhmvfx+rw3sG3ddnTv1x2DRw9i6fcph1Kx/tcNuPCyC1g21drlfyE6LhqX33Qp+3dGSiZGXTWSZVf9tWIdq7fXoJ6gQHfmlTNZPURgPf/RfOSdzmV1jL52NNp0as22Gqz8ahUK8qxZWe5cLdq0wJs/v16DwKooq8AD187C8YMn0KFbe3Tu1Qn3v3A/E0sE1vQrZzACy5tr1JUjcfWdV2H2dQ+yLRNde3fBrbMnISY+lpGBq75ZjSN7j6IorxDBocG4adqNePS2ed5UyZ/lCHAEOAIcAY5AoyNw35NTsPXPrfh34y4kD+iBQRcPRGhEGLat3YYhY4bg1Udew+yXZyEvOw+JSYmM4GrdsTWWLFiCkycyMPLKi9CmYxssXbgMV946nmVg9R7WGzq9Fpv+2IItf25Bz4HJCAkPxaY/NiKhdQvc99QUvDxrIeISYnHb7Nuwde1W0DmTFH907dMFAgRGiE15YjIO7TmMrPQsRoh98PwHLJV81oL7sen3zWyb48FdB3Hnw3fi2P5jiI2PwVP3PgOtVosZz03Hro27MGzsMLw273UUFxY3GtZhkWEYeNEAGOgMTQH4Z9U/MBpNSOrYBp16dWIxBsV0w8YMRXh0OD57/XOma1BwIAaPHoI/f/pTcd0vGj+CZbNTxv5Hi6wvBX113TL9ZqQdTUNwWAhatm0BOpLhp49+xk1Tb2D9eeLgcZw+mY1eg3tBUAnYu20f2nZOYgQk2cXv3/3BXmBeMfFyqDUa5GTlYM2P7mEyceYtdlx91U4ulyPAEWg8BIQRLUdyAqvx8Oc1cwRqINCjfw88ungu7rl0Mis3GAwsuHt+6XwW8OzatAtde3dlweJDt8zBzGdnMAJrwayXsHTNh3h13utsu9+chQ9h16bd7HyIIaMGY/nnv6CkqASXXDMaU6+cjvETr8C9j96Djxd/gi/f+Qpv/vg6VnzxK1Z9u5rVSwTWY689imlXTWdbEonAevGjF9gbU0rlv/aua7D2l7/YfcUFxZh31xOsLncuCkbf/vkthEm2EBIhRm2ndn+0ZikioiPsIonAum/8NBbcenNdfftVGDl+JGZdP5tth/jin8/w9nPv4NsPvkN4VDhe/mwBfvzoJxZkdujeAVOfvI/dyy+OAEeAI8AR4Aj4MwJ0NMDMZ6ZDF6CDyWTGm0+9ictvuhy/fvUbhlw8GHln8hmZsGzRR4youu6eCYxM+OyNz3H65GkMGjUI9PLp+yXfY9RVo1CQk49ufbviq/e+wZyXH2JnZVEs8N7z77FsrGYtmmH2i7NgNBjYUQhvPP0mOvfqjHE3XcbOs1z9/R+47MZLoVarsXH1RgSHBWPP1r3oPaQX+gzpxeKbnz9djvwz+Wxb4e/f/4F7H7mHxTM9BiSjurIKh/YchE6vx5qf1mLE5Rci5Ugq/l75d6N0k1qjxvSnp7GzwChr7diB40g/lo5V361GfGI8w+jFB15EUue26Ni9A8uyt7alB8wmMzr37Ix1v67Dvh37cc3tV7PfP3/zc3Ts0RFjbxiLTb9vYn1HZBgdv7Dtr22M9Dq85zBWfLECF4y9AANHDmQvMokIG375cAy//ELWJwU5BchMPYU1P63BpJkTGdYFZwqw8ttVOHn8pGJ4dUzuiO59uyEqLhofvvQhZjwzHWnH0nAqLYu15/ZZt2H9r+tRUV7BsuCvnHQlOwf1nfnv2vUgEpCee37mC0yvG6fcwAi4Vd+swohxwxk5RnEa2eTE6Tez2O2rd7/GiUMp7P4rJ41HSXEp04N+W7diHcPiVPopfPn2V+jSqzPGTxrP/qadBUSiEfF2+mQWIxuXf/YLxt14GVq1b4WfPv4ZhQVFmDT9FqQfP8liZnfjXcXA5YI4AhwBhoBwYcsRnMDixsARaCIIEIH1wpL5LFijN3cb/9jEJsyJ027G9GtnsoyniJhIvPb1Yqz4cgUjs9RqFZ6ftQAfr1mKd55/j5FTFDguevQVlmY/YtwI3P3QnXjz2XcwZ8FszLvnCUyZNxkhocFs4v7o1U8w939z8MANs1mWEyOwBvfC468+hvuumsbeftGZXC8tewE52bnszezIcRdh4SOLcDIlg53ZRW9D6YBWd64WSYl4lxFYYfbHKJPr7kvvYfUtXfVBjd9It8nj7/OawKKgcNT4kZh5wywMv/RCPPnG4xjdYYxd/wsvvRD3zr0bE0fcygis6U9Ow/3XP+BO0/i9HAGOAEeAI8AR4AicZwi0bNcKl14/FioI+HDRUsQ1j8W4m8ZhyaKlMBmMmPrEVGxaswmjrhiJL979ipEieWfycDojG3u378WdD92BL97+AlMenYyXH/4fwqMjMPzSCxhpuOLLX9nxEgOHD8DOjf8i7Wgqbn/gNiyatxhT593HyCF6ufnBwqW48d7rkZ+Tz84y/eS1T3HTfTchPDIM9PGcjJQM7N2xD6lH0rBg2Qt49YnXsX/nPsV6qmNyJ0Yc/bDsB+iDAjDnxQfxyrzF6Na3G264+zrs2PgvI+06J3diMV768XRQ7EuE5oFdB/DJ658iLDIcL3w4H2eyzmDLX1sxcMQALPnfMtw05Qas+20DTp44iTtm3YaQ/z/D7bdvViIzNRM3T7sZC2YvYO14+OU5rP0UPx89cAxT503Bggdfwq0zJ6GooIiRhwsfeQW062HY6KFsd8KSRcsYSXrX7Dtw4nAK9u86gE1rNuOeuXczopSOlcg9k8eyF8tLyhTDiwviCHAE3EdAGNLyAkZgUZaHeFnYzvG6y8R7pPfJeY7ud77PWlvNOpWV7+DoxHY65Dta7rn+tctXEldpjzQNXevqt6aGq3/YWHL/Hnh88WO4btiN9jF424xbccGYYbhn/GR2qHtwSDBe+2IxtqzfglZJLaHSqPH8rBfw6ZqP8cH/luDmKTdhzfI/8dlb1rR0Ipje+vYNPP/gi7j/qRnYun4bxl47Bj9++hPGXHMJNv+5Ba3atcLcux5lb57IE/Qc2BNPvfY4Jl891UpgCQIWffIyTqZm4P2XP8Ct0yeh79C+0Gg1+GbJt1j9w+8sAJCO7/p8Q2KbFnh/+bt2kmr2pIeYbtLnuvTqgg+Wv8vKCvOLGAb0xsx6eWZjE26/BhePvxgzrp+JIRcPwUMvPIgJg6+3v1G75OrRuOGe63HXZfegY7cOmPHUdEy/fqYMn+gfNubQkvvc+rHwzMZc2X5940GOT2/MudL9uYyPh7PjDYfXaroxCJ/XfdFvjTl23Z0rI6LCWbbQwf8O2WdZb2Ly3oN64dDew6AjAihDq3X71tj3r5Uw8TQmT2iZgMuvG4uszGxGNKQcSVFEV2/XJxFREYwAodho+4YdjCjJzy3Ad8u+h8VsYVltV028EoFBAXjl8cWY9ewDyD2Ti73b9+HI/qO4/+kZWLp4GWY+OQOP3/ckwsJDcdvM27Djn+3o2qsrO9aAtgH+8fMalml275y7seDhlzH98ans4PyWSS3x3/b/0KZ9axzYfZDFZR+9/glumnwDEtskMgKLXkL+9u1K9gLy9a9fxdvPv4O9NgKrLj9flw1IbaxTD8rA6o7NazdjyiOT8fPny5GRmgmNRsNiyQefn8X0p2Vf/wv6YcniZbjv0cl476X3kXY8ndlFRGQ4Hnjmfjw981n296Mvz8XCxxbhqdefgNFgREVZOSPz4hKaMZKLznGjrK2np1vvf+Tlh5GXk4ddm3cj9WgqZjw5HU9Oexq3zZiEqJgoxDSLwTMzn0P3Pt1w+Q2XsWdenPMS2nZMwuz5DyAvJx+UTXcq7RSat2yObz78Fv0u6Ic2HVpj4aOLUJjvODbD2YaVnSt5DOLpXOlPPle6dpIz/3AbA4RBiUN5BpZtOcz/wxFobAR6DkjGE4sfx4Sh19tVuWD0MMx+9gFMvOQ2lm5N51ctXfEBPli0BAMvHMAm2WcfmI8v/vwUrzz1Ki67diw0Wi0evXceTCYT7pp1By66/CLcPvZOTHvsPgy4oD9UGhWmTpiO1794lQVav367Ep+9YyW86GqWEIe3vnkDi59+DRvXbGIB0yerP8LqH39ngZfZbMEX73+JUeNG4q5Zd2Ly1VOQfeqMW/C1TErEh8vftxNYD0ycbSewREEXjx+F5956hv1JAcNdV9wrIbDcqs5+84Q7rsXo8Rdj2nX0ye8QrNyzAu8seBefvPUZIqMjsWTF+3hnwXsswOrUvSMj/aZeN8OzyvhTHAGOAEeAI8AR8CME+g7pg2tvvQbrV/+N1T+uRnK/ZOh0WrZlbeS4kVi/aj2yM7PZ/JjcPxmH9x7B5+99gTYd2uDO+2/Hf9v3oqy0DKt+WG3dfvjHJ/jwlSVYt3I96IUcyZ818UFMfXQKdHodMtNO4fC+w2jROhGDhg/AV0u+wb6d+zDmmjEYPuZCRt4c3HMISR2T8Nt3K9FvaF927+CLBjJyYsu6reyIhUuuGo3lX/6CzX9taVS023Zqiztm3oaysnKoVSq89/IHjKSiKyAwAC8teRHrfluPHz/7CY8tfIRl9RDptP/fA5j/zjNIPZbOjoLo0rMzNBoti8MumzAWrdq2QkFuAcP295/+QMrRVEyecw9emLMAM5+Yjsy0TAy/dDg7E6yqohLPP/QiHpw/CyGhoWy74KH/DiEwKAhfffg1Hn7hQVRWVLEYaOG8Rdi7Y69imHVO7owefbsznSk+pZeP//yxESPHjWAk4z4iHA+noLKigp2/1iW5M9tu+faL7yLteBrTg/6muPepGdb4j3Cidl502Qj2ApV2F/yx/E/W/3fMvB0Wixl/rvgL3yz91n4/EVj/btqNlKMpuP/JGXhi2lO4feZtDKcBF/ZnZB+RahmpGYysvfiKUYwco3iX7HnSfbewbZ17duxlZ6pdeMkwGE0mzJvyBOsHfnEEOAKNh4DQP3GQjcCSftdL5LQ8KaPGKHGevjc6yH2W68r2qdmy3xz/9rbsfMXV+Zt4cu3QcV+vAcl4avETuHroBJtXsPbF/U/MwKjLRuLIgaNo16kttm/cgdeeewOPvfQICxCemfUcvlzzOV6etxBnsnIw7+VHUFlZxd74tWiVgDdeeAtrVvyJvoP74qUPXsDyr37B6/PfwpznZmPsVWPw4F0PY/e23ex9qDh+r7vtGtwy+WYcP3QCCa0ScDLlJJ6f8yL6D+uHKXPuZbq0SmqFE0dOYMGjL6O8rMJp7FMTavteoIUFD8uWf2gnsCilnFK7p1w3jRFvH/z4LmKbxUIfoLcTWHdccTcy0zNrYOOuDY+/YRyunng1Jk+4D9VVBvQf2hcT77sF8QnN2Dkcq35cjY/e/IR9ivvC0RfimklX4YFbH7TV6Ylvc8bBfbuo6VPrxtWKh6djkOta8zuknvS3936g7v52ZT+e9re/6+pr/ZXE1de6crtwdy6w+kke5zrPGf2IwJp0DSNgvl76DSZNuQVZGVlIbN0Cy974hJFUu7bsBr1ce/XZ13DJlZfgwO4DuOTK0fjyw6/Qe1Bv9OyXjLmTH4XZZMF7373NSIK3X3oXj7z4MErZ9isLtv+zg30k5oEnZ2Llj6vQvEU8fvlmBaY/Og1b1m9lscuXS77GzHnTsW7Vegy5aDAem/oEbps2CXHxsYiNj0XKsVTkZJ1BYpuW+OmLn3Dvg/fih89+xI6NOzzsW7nzsz/5Bq5rfb7h8gmXsZiWMuiuu/1aPH3/szJiWu5z68PVM//KceW41m8DQp8WA3gGVuMRiLxmjoBbCAwaPpAFdnKuTl07Qq1V48Ceg3Jur/Ue2kZHqe3Si0izQRcMwIkjKcjK9OyrgERgffLL0hrnXOXnFeCWMZPYGVhfrv6UvYUTL8rAunXcHci0byH0rFn0Fve1j17B7ePvQn5ufq1CKNV90pSJaNY8DgufpE+A84sjwBHgCHAEOALnNgL9hvTFlTdewV6U9R7YG1qtBmt+XYvomCh8/9mPmHjvzewFWa9+PTD/4Rdx8bhR7EVa1+QueHHey+jRuztuuusGPD7jKXbswZufvYr8vEKcOZWN8vJKtGjVHC3btMTzc19EUWERFrz9Av5Z+w87dPvnr37BW5+/xub5/XsOsL+nzb0P6SfSMXjEYDw27XHcMf12xDaLYedLURaSVqfB5nVbsfXvbZj68H2MbPvxi5/O7U7irVMUgaQObfDg07PYl6nfevFtHD9yQlH5XBhHgCOgLAJCrxb9xINQ3H/pK/dFhfN91AZPXnp5Wl89CUWUqmuRvmgn9cQyia6uynySwORpO6W24W0Slac6SOqtF1ebvk0ea46rT3wDnd/1yS8fIVxyiDsRWDeNuYURWF+v/vwsAmviFbez9G92eehDaMvCs4ufZmcxfPfp9zh6+NhZ4og4u/TKsYzAuuWyW1kKung1eXt1Nfa9wMsbrGt7tl7fYGsD97mik6wnuVHMo65vLuM+16MXm/XaK8fVI1xd+fAaY95fcD3HfG7fwf1w1Y3jseiZxVi8dBE+eO1DZGWcxiPz5+DgfwfRrlN7/P3n3+jRpweem/s8Ro+7mGV7J/ftwb42GBEVybYczp36mJXA+uQ1LP92BW68/Xo8NHkuZsydikP7D6NLjy7sLKO+g/qw3+kQ8p++Wo63P38DP3z5Ey6/5lKknUhnhNiPX/6E/kP6sa/B0XPHDx9nL5dOHE3B0YPHWIZ6VmYWI8YWPfOK9UWXhzGCO3Me9w3uzVFy+4Tj6htcuc9tBFxdrYsl60oe57rXJyJeQo8WfewZWNI52L5Yk2ww85Y7cyXfU5lcVwdySuLqqj+UlM/7zTf95k+4iggEBgViwZvz0bNvTzsolGV1zw1TIKgEfPjNewgLt36h0GQ0Ys/O/zDv/idRUVFZp9uQY690QOjcZx5C155dER7hyPIiwRRw0/ZBIspefOIlHDloJbgayifK0V+u3/S1LF/Ll9tO5/v8cTxwG6vJgTTUeOM25ikCdftE7hs4rt7YAL3gat22FbZs2IoZD0/DpvWbsOWf7d6DWosEb3T15/nHn+ZKf9KVr6X4/MBtoG537a3PFbom9LSw9AqitMRLmn1jL7OlKEluY2lLZz0nR5ZNqLMsoobFMqaDp/Jr0VWWfFtmR4Nh4U+6NlK/cRuzAu/xeGu6NkZbE+icK/GtEJFHOWdy2CCkLQIqQcWaTmdi5eXmM2LJemSb976B6g4ICEBoWKgVX5vvoUM76cs9tLWh2mCwYe/K9vl4cMwZTdfGpH1rH0fSuUAcW01yfuA2xm1Mhg14NT/IkK+Qz63Rl3xeV2wuq3WM1NpvTT/ODQoOwpT770GrNi3ZOVdv/O9t9nKpxpGt59L6hI+HczbOPTsG4T630eZ1X8xlTTJ29KeY3LPxIHRO6MHPwLKPJP4PjgBHgCPAEeAIcAQ4AhwBjgBHgCPAEeAIcAQ4AhyBpoaA0L55F0plcGQ+iW/y6isTWUxZzKPcbAnJffZDqSRvisSyujK3XOnfYLq60P9c1tXXWEsPJhPfTnlqAz7X1f4q0JGVyHX1MKNSOo7qwJV+smdsynjb4GsbYPJt/+dsr1xXN7MN6pkzlPQN/jQ/+NqGlcTV57pyn3tWxroS8Zj9laa/x2N8fnAvW5n7XOZR5MRtSs4ZdY03d9cP3OdK4m8/mh947Hj2WkGJueycwdXH3IISWDdC7Ci0bd5JShXVSrCJZ5xLb/C0zNPnRFuU+nRXCispX0lZ/qarc9vPZyyc+05JLJSUxW3MgYDSuPLxUPv7FyWxVlIWHw91vzNTEmslZflbv/nT/OBLP6a0DfhSV25j/jlXchvzXb/5kx/zJ1196cf4eODjwRU3oqRdKClLSV2F1s07WBwf6rD+S1TW+t+aZVZTcS5zHMXlaKjAJDlkW5+rv8xKT9W8r369XOnqWn/HIVve6+qqTVxXjqtyNuxP443rKvV356cNcJ9b35zH5wffzQ/KxA3cj3E/VrsNiNGpmDAgJ6atLU5Uxl65z+U+t/FsQBkb5j6X+1zuc7kfc9uPtWzejp7hF0eAI8AR4AhwBDgCHAGOAEeAI8AR4AhwBDgCHAGOAEegSSLwf0CVmY1VVh5yAAAAAElFTkSuQmCC;" parent="1" vertex="1">
          <mxGeometry x="9" y="10" width="811.06" height="275.76" as="geometry" />
        </mxCell>
        <mxCell id="X0UQXJLC1dQcE8E02zXS-6" style="edgeStyle=orthogonalEdgeStyle;rounded=0;sketch=1;hachureGap=4;jiggle=2;curveFitting=1;orthogonalLoop=1;jettySize=auto;html=1;entryX=0.5;entryY=0;entryDx=0;entryDy=0;fontFamily=Architects Daughter;fontSource=https%3A%2F%2Ffonts.googleapis.com%2Fcss%3Ffamily%3DArchitects%2BDaughter;fillColor=#e1d5e7;strokeColor=#9673a6;" parent="1" source="X0UQXJLC1dQcE8E02zXS-4" target="X0UQXJLC1dQcE8E02zXS-5" edge="1">
          <mxGeometry relative="1" as="geometry" />
        </mxCell>
        <mxCell id="X0UQXJLC1dQcE8E02zXS-7" value="&lt;font face=&quot;Comic Sans MS&quot;&gt;1. Click sul pulsante Ottieni Pass,&lt;/font&gt;&lt;div&gt;&lt;font face=&quot;Comic Sans MS&quot;&gt;Apre una nuova pagina su NeverlandKiz oppure Flip della pagina corrente&lt;/font&gt;&lt;/div&gt;" style="edgeLabel;html=1;align=center;verticalAlign=middle;resizable=0;points=[];sketch=1;hachureGap=4;jiggle=2;curveFitting=1;fontFamily=Architects Daughter;fontSource=https%3A%2F%2Ffonts.googleapis.com%2Fcss%3Ffamily%3DArchitects%2BDaughter;" parent="X0UQXJLC1dQcE8E02zXS-6" vertex="1" connectable="0">
          <mxGeometry x="-0.02" y="2" relative="1" as="geometry">
            <mxPoint as="offset" />
          </mxGeometry>
        </mxCell>
        <mxCell id="X0UQXJLC1dQcE8E02zXS-4" value="&lt;h1 style=&quot;margin-top: 0px;&quot;&gt;NeverlandKiz WebSite&lt;/h1&gt;&lt;p&gt;Come da accordo, Stripe si occuperà di Gestire il tasto SUBSCRIBE e quindi la relativa Sottoscrizione dell&#39;utente.&lt;/p&gt;&lt;p&gt;Accanto al bottone ACCEDI, verrà Aggiunto un&#39;altro bottone per permettere all&#39;utente di generare il QRCode.&lt;/p&gt;" style="text;html=1;whiteSpace=wrap;overflow=hidden;rounded=1;fontFamily=Comic Sans MS;align=center;fillColor=#e1d5e7;strokeColor=none;sketch=1;curveFitting=1;jiggle=2;" parent="1" vertex="1">
          <mxGeometry x="185.03" y="285.76" width="459" height="124.24" as="geometry" />
        </mxCell>
        <mxCell id="X0UQXJLC1dQcE8E02zXS-5" value="&lt;font face=&quot;Comic Sans MS&quot;&gt;2. Schermata di Inserimento Email&lt;/font&gt;" style="rounded=1;whiteSpace=wrap;html=1;sketch=1;hachureGap=4;jiggle=2;curveFitting=1;fontFamily=Architects Daughter;fontSource=https%3A%2F%2Ffonts.googleapis.com%2Fcss%3Ffamily%3DArchitects%2BDaughter;fillColor=#dae8fc;strokeColor=#6c8ebf;" parent="1" vertex="1">
          <mxGeometry x="354.53" y="510" width="120" height="60" as="geometry" />
        </mxCell>
        <mxCell id="X0UQXJLC1dQcE8E02zXS-11" value="" style="edgeStyle=orthogonalEdgeStyle;rounded=0;sketch=1;hachureGap=4;jiggle=2;curveFitting=1;orthogonalLoop=1;jettySize=auto;html=1;fontFamily=Architects Daughter;fontSource=https%3A%2F%2Ffonts.googleapis.com%2Fcss%3Ffamily%3DArchitects%2BDaughter;fillColor=#dae8fc;strokeColor=#6c8ebf;" parent="1" source="X0UQXJLC1dQcE8E02zXS-8" target="X0UQXJLC1dQcE8E02zXS-10" edge="1">
          <mxGeometry relative="1" as="geometry" />
        </mxCell>
        <mxCell id="X0UQXJLC1dQcE8E02zXS-8" value="In questa Schermata l&#39;utente inserisce la sua email e clicca su Invia.&lt;div&gt;Lato nostro controlleremo che l&#39;email sia presente su Stripe e nel caso esista manderemo una email all&#39;utente per poter mostrare la Schermata di selezione dei prodotti&lt;/div&gt;" style="text;html=1;align=center;verticalAlign=middle;whiteSpace=wrap;rounded=1;fontFamily=Comic Sans MS;sketch=1;curveFitting=1;jiggle=2;fillColor=#dae8fc;strokeColor=none;glass=0;" parent="1" vertex="1">
          <mxGeometry x="246" y="570" width="336" height="90" as="geometry" />
        </mxCell>
        <mxCell id="X0UQXJLC1dQcE8E02zXS-13" style="edgeStyle=orthogonalEdgeStyle;rounded=0;sketch=1;hachureGap=4;jiggle=2;curveFitting=1;orthogonalLoop=1;jettySize=auto;html=1;fontFamily=Architects Daughter;fontSource=https%3A%2F%2Ffonts.googleapis.com%2Fcss%3Ffamily%3DArchitects%2BDaughter;fillColor=#ffe6cc;strokeColor=#d79b00;" parent="1" source="X0UQXJLC1dQcE8E02zXS-10" target="X0UQXJLC1dQcE8E02zXS-12" edge="1">
          <mxGeometry relative="1" as="geometry" />
        </mxCell>
        <mxCell id="X0UQXJLC1dQcE8E02zXS-14" value="&lt;font face=&quot;Comic Sans MS&quot;&gt;Email non Esistente&lt;/font&gt;" style="edgeLabel;html=1;align=center;verticalAlign=middle;resizable=0;points=[];sketch=1;hachureGap=4;jiggle=2;curveFitting=1;fontFamily=Architects Daughter;fontSource=https%3A%2F%2Ffonts.googleapis.com%2Fcss%3Ffamily%3DArchitects%2BDaughter;" parent="X0UQXJLC1dQcE8E02zXS-13" vertex="1" connectable="0">
          <mxGeometry x="-0.0018" y="-1" relative="1" as="geometry">
            <mxPoint as="offset" />
          </mxGeometry>
        </mxCell>
        <mxCell id="X0UQXJLC1dQcE8E02zXS-16" style="edgeStyle=orthogonalEdgeStyle;rounded=0;sketch=1;hachureGap=4;jiggle=2;curveFitting=1;orthogonalLoop=1;jettySize=auto;html=1;fontFamily=Architects Daughter;fontSource=https%3A%2F%2Ffonts.googleapis.com%2Fcss%3Ffamily%3DArchitects%2BDaughter;fillColor=#ffe6cc;strokeColor=#d79b00;" parent="1" source="X0UQXJLC1dQcE8E02zXS-10" target="X0UQXJLC1dQcE8E02zXS-15" edge="1">
          <mxGeometry relative="1" as="geometry" />
        </mxCell>
        <mxCell id="X0UQXJLC1dQcE8E02zXS-17" value="&lt;font face=&quot;Comic Sans MS&quot;&gt;Email Esistete&lt;/font&gt;" style="edgeLabel;html=1;align=center;verticalAlign=middle;resizable=0;points=[];sketch=1;hachureGap=4;jiggle=2;curveFitting=1;fontFamily=Architects Daughter;fontSource=https%3A%2F%2Ffonts.googleapis.com%2Fcss%3Ffamily%3DArchitects%2BDaughter;" parent="X0UQXJLC1dQcE8E02zXS-16" vertex="1" connectable="0">
          <mxGeometry x="-0.0869" y="-1" relative="1" as="geometry">
            <mxPoint as="offset" />
          </mxGeometry>
        </mxCell>
        <mxCell id="X0UQXJLC1dQcE8E02zXS-10" value="" style="rhombus;whiteSpace=wrap;html=1;sketch=1;hachureGap=4;jiggle=2;curveFitting=1;fontFamily=Architects Daughter;fontSource=https%3A%2F%2Ffonts.googleapis.com%2Fcss%3Ffamily%3DArchitects%2BDaughter;fillColor=#ffe6cc;strokeColor=#d79b00;" parent="1" vertex="1">
          <mxGeometry x="391.79999999999995" y="700" width="45.47" height="50" as="geometry" />
        </mxCell>
        <mxCell id="X0UQXJLC1dQcE8E02zXS-12" value="&lt;font face=&quot;Comic Sans MS&quot;&gt;ERRORE&lt;/font&gt;" style="rounded=1;whiteSpace=wrap;html=1;sketch=1;hachureGap=4;jiggle=2;curveFitting=1;fontFamily=Architects Daughter;fontSource=https%3A%2F%2Ffonts.googleapis.com%2Fcss%3Ffamily%3DArchitects%2BDaughter;fillColor=#f8cecc;strokeColor=#b85450;" parent="1" vertex="1">
          <mxGeometry x="90" y="695" width="120" height="60" as="geometry" />
        </mxCell>
        <mxCell id="X0UQXJLC1dQcE8E02zXS-15" value="&lt;font face=&quot;Comic Sans MS&quot;&gt;3. Invio del Template HTML via email&lt;/font&gt;" style="rounded=1;whiteSpace=wrap;html=1;sketch=1;hachureGap=4;jiggle=2;curveFitting=1;fontFamily=Architects Daughter;fontSource=https%3A%2F%2Ffonts.googleapis.com%2Fcss%3Ffamily%3DArchitects%2BDaughter;fillColor=#d5e8d4;strokeColor=#82b366;" parent="1" vertex="1">
          <mxGeometry x="600" y="695" width="120" height="60" as="geometry" />
        </mxCell>
        <mxCell id="X0UQXJLC1dQcE8E02zXS-18" value="&lt;font face=&quot;Comic Sans MS&quot;&gt;Qui creaiamo un template HTML per inviare una email con il relativo bottone di accesso al portale &lt;/font&gt;&lt;font face=&quot;Comic Sans MS&quot;&gt;(Potrebbe servire una sessione lato nostro per gestire la sessione corrente).&lt;/font&gt;&lt;div&gt;&lt;font face=&quot;Comic Sans MS&quot;&gt;Nel link di redirect a NeverlnKiz c saranno i dati necessari per visualizzare le sottoscrizioni dell&#39;utente con la relativa sessione.&lt;/font&gt;&lt;/div&gt;&lt;div&gt;&lt;font face=&quot;Comic Sans MS&quot;&gt;(La sessione serve per evitare possibili vulnerabilità)&lt;/font&gt;&lt;/div&gt;" style="text;html=1;align=center;verticalAlign=middle;whiteSpace=wrap;rounded=1;fontFamily=Architects Daughter;fontSource=https%3A%2F%2Ffonts.googleapis.com%2Fcss%3Ffamily%3DArchitects%2BDaughter;sketch=1;curveFitting=1;jiggle=2;fillColor=#d5e8d4;strokeColor=none;" parent="1" vertex="1">
          <mxGeometry x="510" y="755" width="300" height="150" as="geometry" />
        </mxCell>
        <mxCell id="LOxiiAEz1P8uojWszNT4-5" style="edgeStyle=orthogonalEdgeStyle;rounded=0;sketch=1;hachureGap=4;jiggle=2;curveFitting=1;orthogonalLoop=1;jettySize=auto;html=1;entryX=1;entryY=0.5;entryDx=0;entryDy=0;fontFamily=Architects Daughter;fontSource=https%3A%2F%2Ffonts.googleapis.com%2Fcss%3Ffamily%3DArchitects%2BDaughter;fillColor=#d5e8d4;strokeColor=#82b366;" edge="1" parent="1" source="LOxiiAEz1P8uojWszNT4-1" target="LOxiiAEz1P8uojWszNT4-4">
          <mxGeometry relative="1" as="geometry" />
        </mxCell>
        <mxCell id="LOxiiAEz1P8uojWszNT4-1" value="" style="verticalLabelPosition=bottom;shadow=0;dashed=0;align=center;html=1;verticalAlign=top;strokeWidth=1;shape=mxgraph.mockup.misc.mail2;strokeColor=#82b366;sketch=1;hachureGap=4;jiggle=2;curveFitting=1;fontFamily=Architects Daughter;fontSource=https%3A%2F%2Ffonts.googleapis.com%2Fcss%3Ffamily%3DArchitects%2BDaughter;fillColor=#d5e8d4;" vertex="1" parent="1">
          <mxGeometry x="610" y="960" width="100" height="60" as="geometry" />
        </mxCell>
        <mxCell id="LOxiiAEz1P8uojWszNT4-2" style="edgeStyle=orthogonalEdgeStyle;rounded=0;sketch=1;hachureGap=4;jiggle=2;curveFitting=1;orthogonalLoop=1;jettySize=auto;html=1;entryX=0.5;entryY=-0.05;entryDx=0;entryDy=0;entryPerimeter=0;fontFamily=Architects Daughter;fontSource=https%3A%2F%2Ffonts.googleapis.com%2Fcss%3Ffamily%3DArchitects%2BDaughter;fillColor=#d5e8d4;strokeColor=#82b366;" edge="1" parent="1" source="X0UQXJLC1dQcE8E02zXS-18" target="LOxiiAEz1P8uojWszNT4-1">
          <mxGeometry relative="1" as="geometry" />
        </mxCell>
        <mxCell id="LOxiiAEz1P8uojWszNT4-3" value="&lt;font face=&quot;Comic Sans MS&quot;&gt;Email con HTML Template e bottone che accede a NeverlandKiz/pass&lt;/font&gt;" style="text;html=1;align=center;verticalAlign=middle;whiteSpace=wrap;rounded=0;fontFamily=Architects Daughter;fontSource=https%3A%2F%2Ffonts.googleapis.com%2Fcss%3Ffamily%3DArchitects%2BDaughter;" vertex="1" parent="1">
          <mxGeometry x="575" y="1030" width="170" height="50" as="geometry" />
        </mxCell>
        <mxCell id="LOxiiAEz1P8uojWszNT4-4" value="&lt;font face=&quot;Comic Sans MS&quot;&gt;4. Schermata Pass&lt;/font&gt;" style="rounded=1;whiteSpace=wrap;html=1;sketch=1;hachureGap=4;jiggle=2;curveFitting=1;fontFamily=Architects Daughter;fontSource=https%3A%2F%2Ffonts.googleapis.com%2Fcss%3Ffamily%3DArchitects%2BDaughter;fillColor=#e1d5e7;strokeColor=#9673a6;" vertex="1" parent="1">
          <mxGeometry x="354.53" y="960" width="120" height="60" as="geometry" />
        </mxCell>
        <mxCell id="LOxiiAEz1P8uojWszNT4-6" value="&lt;font face=&quot;Comic Sans MS&quot;&gt;Qui è dove l&#39;utente avrà a disposizione le sottoscrizioni che ha acquistato, selezionando una di esse tramite il bottone Visualizza Pass o Scarica Pass vedrà iil suo QRCode&amp;nbsp;&lt;/font&gt;" style="text;html=1;align=center;verticalAlign=middle;whiteSpace=wrap;rounded=0;fontFamily=Architects Daughter;fontSource=https%3A%2F%2Ffonts.googleapis.com%2Fcss%3Ffamily%3DArchitects%2BDaughter;" vertex="1" parent="1">
          <mxGeometry x="302.53" y="1030" width="224" height="90" as="geometry" />
        </mxCell>
      </root>
    </mxGraphModel>
  </diagram>
</mxfile>
